<?xml version="1.0" encoding="UTF-8"?><svg id="ui" xmlns="http://www.w3.org/2000/svg" width="160" height="130" viewBox="0 0 160 130"><defs><style>.cls-1{fill:#22b573;}</style></defs><path class="cls-1" d="M34.25,1.55L2.18,73.44c19.51,15.55,40.16,25.55,62.6,26.83,22.22,1.12,41.27,12.29,58.82,28.17l34.2-67.72c-17.79-17.05-38.23-27.3-61.78-29.58-24.75-3.15-46.12-11.76-61.78-29.58Z"/><g><path d="M53.73,51.2l-.78,2.18-21.12-7.57,.78-2.18,21.12,7.57Zm-2.34,6.54l-.78,2.18-21.12-7.57,.78-2.18,21.12,7.57Zm-8.75,18.29c-11.87-4.25-11.79-16.09-8.16-26.23,4.14-11.55,13.3-18.76,23.76-15.01,3.62,1.3,5.58,2.58,7.57,3.8-.61,2.97-1.22,5.93-1.73,8.21l-2.04-.22c.24-4.26-.27-8.13-4.83-9.76-7.91-2.83-13.48,6.17-16.56,14.76-3.35,9.36-4.63,19.69,3.15,22.26,4.11,1.4,7.09-1,10.3-4.05l1.56,1.14c-1,1.52-3.61,5-5.17,6.62-1.44,0-4.64-.36-7.86-1.51Z"/><path d="M97.87,80.92c-1.82,2.99-4.04,6.34-5.49,8.82l-26.68-7.39,.48-1.73c4.97-2.82,10.4-5.9,15.01-9.05,5.94-4.11,11.79-8.7,13.53-14.98s-.49-10.32-5.66-11.75c-4.88-1.35-9.01,1.7-11.63,4.01l-1.21-1.97,5.65-4.73c2.89-1.92,6.79-2.78,10.9-1.64,6.72,1.86,10.73,8.03,8.57,15.82-1.7,6.14-5.09,9.86-13.76,15-3.94,2.4-9.62,5.57-13.49,7.69,.42,.12,12.88,3.57,13.52,3.75,3.82,1.06,4.98,.99,8.65-2.89l1.61,1.07Z"/><path d="M131.52,55.53c9.82,5.04,7.81,17.97,2.58,28.17-4.93,9.61-14.6,19.44-24.42,14.4-10.01-5.14-8.11-17.88-2.77-28.27,4.93-9.61,14.67-19.4,24.62-14.3Zm-1.18,2.3c-6.09-3.12-12.56,5.78-17.28,14.99s-7.96,20.02-2.2,22.98c5.89,3.02,12.49-5.98,17.22-15.19,4.76-9.28,8.09-19.79,2.26-22.78Z"/></g></svg>