<?xml version="1.0" encoding="UTF-8"?><svg id="ui" xmlns="http://www.w3.org/2000/svg" width="375" height="355" viewBox="0 0 375 355"><defs><style>.cls-1,.cls-2{stroke:#000;stroke-miterlimit:10;}.cls-3{fill:#fff;}.cls-4,.cls-2{fill:#232357;}</style></defs><g><g><path class="cls-4" d="M200.27,289.86c-32.64,0-63.33-12.11-86.41-34.09-23.07-21.98-35.78-51.2-35.78-82.27,0-31.92,12.55-61.43,35.34-83.1,22.55-21.45,52.95-33.26,85.57-33.26,.43,0,.86,0,1.28,0,39.22,.37,74.58,14.77,97,39.49,19.07,21.03,27.79,47.59,25.21,76.82-2.8,31.69-16.26,60.89-37.92,82.22-22.37,22.04-52.3,34.18-84.28,34.18h-.01Z"/><path d="M198.99,56.64v1c.43,0,.85,0,1.28,0,19.85,.19,38.44,3.81,55.26,10.76,16.42,6.79,30.34,16.4,41.38,28.57,18.97,20.92,27.65,47.35,25.08,76.44-2.79,31.57-16.2,60.66-37.77,81.91-10.88,10.72-23.45,19.1-37.35,24.89-14.56,6.07-30.23,9.14-46.59,9.15-32.51,0-63.08-12.06-86.07-33.95-22.97-21.88-35.62-50.97-35.62-81.91,0-31.78,12.5-61.17,35.18-82.74,22.46-21.36,52.73-33.13,85.23-33.13v-1m0,0c-67.24,0-121.41,50.11-121.41,116.87,0,64.54,54.93,116.86,122.69,116.86h.01c67.76,0,117.03-52.57,122.7-116.86,5.9-66.89-48.42-116.16-122.7-116.86-.43,0-.86,0-1.29,0h0Z"/></g><g><path class="cls-3" d="M200.1,279.41c-29.98,0-58.16-11.22-79.36-31.59-21.19-20.36-32.86-47.44-32.86-76.23,0-29.58,11.53-56.92,32.45-77,20.71-19.87,48.62-30.82,78.59-30.82,.39,0,.79,0,1.18,0,35.82,.34,68.18,13.56,88.78,36.26,17.73,19.53,25.83,44.26,23.45,71.52-2.57,29.36-14.94,56.42-34.83,76.19-20.54,20.42-48.03,31.67-77.4,31.67h-.01Z"/><path d="M198.93,63.28v1c.39,0,.78,0,1.17,0,18.13,.17,35.12,3.5,50.51,9.87,15.02,6.22,27.77,15.05,37.91,26.22,17.63,19.43,25.7,44.02,23.32,71.14-2.56,29.24-14.88,56.19-34.68,75.88-9.99,9.93-21.53,17.69-34.29,23.06-13.36,5.62-27.75,8.47-42.77,8.47-29.85,0-57.91-11.17-79.01-31.45-21.09-20.27-32.71-47.21-32.7-75.87,0-29.44,11.47-56.66,32.3-76.64,20.62-19.78,48.41-30.68,78.24-30.68v-1m0,0c-61.77,0-111.54,46.45-111.54,108.32,0,59.82,50.46,108.32,112.71,108.32h.01c62.25,0,107.51-48.73,112.73-108.32,5.42-62-44.48-107.66-112.73-108.32-.4,0-.79,0-1.18,0h0Z"/></g><g><path class="cls-1" d="M233.06,99.9v-.74c2.94-.19,3.09-.32,3.09-2.31v-10.21c0-1.36-.18-1.41-1.35-1.51l-1.3-.13v-.66c1.75-.29,3.49-.72,4.84-1.3v13.82c0,2.02,.16,2.13,3.12,2.31v.74h-8.41Z"/><path class="cls-1" d="M275.43,120.28c-.34,1.2-.79,2.55-1.06,3.53h-9.97v-.64c1.45-1.44,3.04-3,4.34-4.52,1.67-1.97,3.25-4.09,3.25-6.4s-1.16-3.48-3.09-3.48c-1.82,0-2.96,1.44-3.65,2.47l-.61-.56,1.51-2.15c.82-.93,2.09-1.59,3.62-1.59,2.51,0,4.5,1.73,4.5,4.6,0,2.26-.82,3.85-3.33,6.43-1.14,1.2-2.8,2.82-3.94,3.91h5.05c1.43,0,1.82-.13,2.72-1.81l.66,.21Z"/><path class="cls-1" d="M287.28,154.66l1.24-1.67c.77-.85,1.98-1.51,3.41-1.51,2.41,0,3.99,1.51,3.99,3.53,0,.8-.34,1.44-.82,1.97-.42,.45-1.11,.93-1.88,1.44,2.46,.53,3.91,2.15,3.91,4.09,0,4.33-5.08,6.17-6.95,6.17-1.24,0-2.38-.53-2.75-.93-.32-.35-.4-.58-.4-.88,.03-.43,.37-.82,.61-1.01,.21-.16,.45-.19,.69,.03,.71,.64,1.77,1.41,3.28,1.41,1.9,0,3.25-1.44,3.25-4.01-.03-2.44-1.8-3.4-3.49-3.4-.61,0-1.35,.16-1.77,.29l-.18-.8c2.35-.77,4.26-1.83,4.26-3.8,0-1.57-1-2.47-2.54-2.47s-2.62,1.09-3.31,2.1l-.56-.53Z"/><path class="cls-1" d="M285.34,212.01v2.02c0,1.75,.11,1.89,1.98,2.07v.74h-6.19v-.74c1.98-.19,2.12-.35,2.12-2.1v-1.99h-6.98v-.8c2.51-3.59,5.24-7.47,7.88-11.16h1.19v10.68h2.59v1.28h-2.59Zm-2.09-9.17c-1.67,2.45-3.52,5.16-5.34,7.89h5.34v-7.89Z"/><path class="cls-1" d="M253.95,238.17l.16,.21-.69,1.75h-6.08c-.24,1.46-.58,3.53-.82,4.84,1-.37,2.46-.77,3.12-.77,3.25,0,4.97,2.31,4.97,4.52,0,1.59-.66,3.14-2.27,4.46-1.45,1.17-3.28,1.86-4.68,1.86-1.24,0-2.22-.5-2.75-1.04-.37-.35-.48-.56-.42-.9,0-.24,.21-.64,.56-.9,.24-.16,.48-.21,.74,0,.77,.69,1.69,1.46,3.33,1.46,2.22,0,3.28-1.91,3.28-3.91,0-2.34-1.4-4.01-4.34-4.01-1.08,0-1.96,.24-2.64,.48l-.08-.11c.4-2.07,.98-5.82,1.27-7.95h7.35Z"/><path class="cls-1" d="M204.82,261.99c.56-.29,1.16-.45,1.69-.45,2.8,0,4.73,2.21,4.73,4.92,0,3.19-2.27,5.87-5.45,5.87s-5.5-2.58-5.5-6.64c0-5.47,4.15-8.93,7.32-10.02,.58-.21,1.9-.51,2.99-.69l.16,.88c-.85,.19-2.09,.53-2.88,.9-1.61,.74-4.13,2.5-4.84,6.14l1.77-.9Zm.63,1.06c-1.06,0-1.96,.4-2.56,.74-.11,.48-.16,1.14-.16,1.81,0,3.32,1.24,5.77,3.49,5.77,2.06,0,2.7-2.18,2.7-3.96,0-2.21-1.06-4.36-3.46-4.36Z"/><path class="cls-1" d="M164.35,238.52c-2.54,5.39-5,10.76-7.56,16.26l-1.9,.19-.18-.29c2.75-4.49,5.66-9.99,7.75-14.54h-5.66c-1.72,0-1.82,.24-2.54,1.99h-.82c.26-1.49,.37-2.82,.5-3.96h10.26l.16,.35Z"/><path class="cls-1" d="M122.28,207.95c2.54,0,4.31,1.78,4.31,3.93,0,.8-.24,1.57-.74,2.15-.24,.27-1.03,.85-2.19,1.7,1.82,1.01,3.62,2.29,3.62,4.6,0,3.11-2.8,4.81-5.31,4.81-2.94,0-5.1-1.7-5.1-4.39,0-1.36,.58-2.1,1.22-2.63,.42-.37,1.45-1.06,2.38-1.65-1.72-1.01-2.93-2.29-2.93-4.17,0-2.31,1.88-4.36,4.76-4.36Zm0,16.29c1.77,0,2.86-1.17,2.86-3.11,0-2.13-1.77-3.16-3.91-4.2-1.43,.82-2.22,2.07-2.22,3.64,0,2.44,1.53,3.67,3.28,3.67Zm-.34-15.41c-1.59,0-2.41,1.25-2.41,2.74,0,1.94,1.3,2.66,3.36,3.75,1.03-.8,1.75-1.73,1.75-3.3,0-2.23-1.32-3.19-2.7-3.19Z"/><path class="cls-1" d="M110.06,173.93l-1.77,.9c-.58,.29-1.08,.4-1.59,.4-2.83,0-4.76-2.18-4.76-4.97,0-2.6,2.01-5.5,5.42-5.5s5.31,3.03,5.31,6.64c0,4.89-3.07,8.53-6.69,9.94-1.08,.43-2.46,.64-3.15,.69l-.21-.77c3.75-.69,6.56-3.22,7.43-7.33Zm-3.01-8.24c-2.06,0-2.78,1.97-2.78,3.83,0,2.34,1.3,4.28,3.52,4.28,.95,0,1.82-.35,2.38-.77,.08-.58,.11-1.22,.11-1.73,0-2.37-.66-5.61-3.23-5.61Z"/><path class="cls-1" d="M111.06,139.77v-.74c2.94-.19,3.09-.32,3.09-2.31v-10.21c0-1.36-.18-1.41-1.35-1.51l-1.3-.13v-.66c1.75-.29,3.49-.72,4.84-1.3v13.82c0,2.02,.16,2.13,3.12,2.31v.74h-8.41Z"/><path class="cls-1" d="M127.93,122.89c3.97,0,5.45,4.19,5.45,8.06,0,3.64-1.48,8.08-5.45,8.08s-5.53-4.12-5.53-8.06c0-3.64,1.51-8.08,5.53-8.08Zm0,.87c-2.46,0-3.07,3.67-3.07,7.16s.74,7.24,3.07,7.24,3.01-3.72,3.01-7.21-.66-7.19-3.01-7.19Z"/><path class="cls-1" d="M142.88,103.22v-.74c2.94-.19,3.09-.32,3.09-2.31v-10.21c0-1.36-.18-1.41-1.35-1.51l-1.3-.13v-.66c1.75-.29,3.49-.72,4.84-1.3v13.82c0,2.02,.16,2.13,3.12,2.31v.74h-8.41Z"/><path class="cls-1" d="M155.7,103.22v-.74c2.94-.19,3.09-.32,3.09-2.31v-10.21c0-1.36-.18-1.41-1.35-1.51l-1.3-.13v-.66c1.75-.29,3.49-.72,4.84-1.3v13.82c0,2.02,.16,2.13,3.12,2.31v.74h-8.41Z"/><path class="cls-1" d="M189.23,91.26v-.74c2.94-.19,3.09-.32,3.09-2.31v-10.21c0-1.36-.18-1.41-1.35-1.51l-1.3-.13v-.66c1.75-.29,3.49-.72,4.84-1.3v13.82c0,2.02,.16,2.13,3.12,2.31v.74h-8.41Z"/><path class="cls-1" d="M211.55,87.72c-.34,1.2-.79,2.55-1.06,3.53h-9.97v-.64c1.45-1.44,3.04-3,4.34-4.52,1.67-1.97,3.25-4.09,3.25-6.4s-1.16-3.48-3.09-3.48c-1.82,0-2.96,1.44-3.65,2.47l-.61-.56,1.51-2.15c.82-.93,2.09-1.59,3.62-1.59,2.51,0,4.5,1.73,4.5,4.6,0,2.26-.82,3.85-3.33,6.43-1.14,1.2-2.8,2.82-3.94,3.91h5.05c1.43,0,1.82-.13,2.72-1.81l.66,.21Z"/></g></g><ellipse class="cls-2" cx="197.8" cy="173.59" rx="2.98" ry="2.99"/></svg>