<?xml version="1.0" encoding="UTF-8"?><svg id="ui" xmlns="http://www.w3.org/2000/svg" width="375" height="355" viewBox="0 0 375 355"><defs><style>.cls-1,.cls-2{stroke:#000;stroke-miterlimit:10;}.cls-3{fill:#fff;}.cls-4,.cls-2{fill:#232357;}</style></defs><g><g><path class="cls-4" d="M187.15,352.86c-49.44,0-95.92-18.24-130.88-51.37C21.32,268.37,2.08,224.34,2.08,177.5c0-48.11,19.01-92.58,53.53-125.24C89.77,19.94,135.8,2.14,185.22,2.14c.65,0,1.29,0,1.94,0,30.24,.29,58.55,5.79,84.17,16.36,25.03,10.33,46.23,24.95,63.02,43.47,28.69,31.65,41.8,71.58,37.9,115.49-4.24,47.74-24.63,91.74-57.43,123.89-33.88,33.21-79.22,51.51-127.66,51.51h-.02Z"/><path d="M185.23,1.64v1c.64,0,1.28,0,1.92,0,30.17,.29,58.43,5.78,83.98,16.32,24.96,10.3,46.1,24.88,62.84,43.35,13.88,15.31,24.18,32.77,30.64,51.91,6.69,19.85,9.09,41.11,7.14,63.19-4.22,47.62-24.57,91.51-57.28,123.58-16.51,16.18-35.57,28.82-56.66,37.57-22.08,9.16-45.85,13.8-70.67,13.8-24.92,0-49.1-4.63-71.86-13.75-21.98-8.81-41.72-21.42-58.67-37.49-16.95-16.06-30.25-34.76-39.54-55.58-9.62-21.55-14.49-44.44-14.49-68.04,0-47.97,18.96-92.32,53.37-124.88C90.02,20.39,135.93,2.64,185.22,2.64l.02-1m-.02,0C83.51,1.64,1.59,77.05,1.58,177.5c0,97.12,83.08,175.86,185.57,175.86h.02c102.49-.01,177.01-79.12,185.59-175.86C381.69,76.84,299.52,2.71,187.17,1.64c-.65,0-1.3,0-1.95,0h0Z"/></g><g><path class="cls-3" d="M186.9,337.14c-45.41,0-88.1-16.91-120.21-47.6-32.1-30.69-49.78-71.5-49.77-114.9,0-44.58,17.46-85.8,49.17-116.06C97.46,28.62,139.74,12.13,185.13,12.13c.59,0,1.19,0,1.79,0,27.63,.26,53.53,5.32,76.97,15.02,22.9,9.48,42.34,22.91,57.77,39.92,26.67,29.4,38.87,66.58,35.27,107.52-3.89,44.24-22.62,85.02-52.75,114.81-31.12,30.78-72.76,47.73-117.25,47.73h-.02Z"/><path d="M185.13,11.63v1c.59,0,1.19,0,1.78,0,27.57,.26,53.4,5.3,76.78,14.98,22.83,9.45,42.21,22.84,57.59,39.79,12.89,14.21,22.47,30.45,28.48,48.27,6.23,18.48,8.47,38.29,6.66,58.87-3.88,44.12-22.56,84.79-52.61,114.5-15.16,14.99-32.66,26.7-52.03,34.8-20.27,8.48-42.1,12.78-64.89,12.79-45.28,0-87.85-16.86-119.86-47.47-32-30.6-49.62-71.27-49.62-114.53,0-44.44,17.41-85.53,49.01-115.7C97.71,29.08,139.87,12.63,185.13,12.63v-1m0,0c-93.44,0-168.7,69.9-168.71,163.01,0,90.02,76.32,163,170.48,163h.02c94.16,0,162.62-73.33,170.5-163C365.62,81.34,290.14,12.62,186.92,11.64c-.6,0-1.19,0-1.79,0h0Z"/></g><g><path class="cls-1" d="M236.75,66.74v-1.12c4.44-.28,4.68-.48,4.68-3.48v-15.36c0-2.04-.28-2.12-2.04-2.28l-1.96-.2v-1c2.64-.44,5.28-1.08,7.32-1.96v20.8c0,3.04,.24,3.2,4.72,3.48v1.12h-12.72Z"/><path class="cls-1" d="M300.83,97.42c-.52,1.8-1.2,3.84-1.6,5.32h-15.08v-.96c2.2-2.16,4.6-4.52,6.56-6.8,2.52-2.96,4.92-6.16,4.92-9.64s-1.76-5.24-4.68-5.24c-2.76,0-4.48,2.16-5.52,3.72l-.92-.84,2.28-3.24c1.24-1.4,3.16-2.4,5.48-2.4,3.8,0,6.8,2.6,6.8,6.92,0,3.4-1.24,5.8-5.04,9.68-1.72,1.8-4.24,4.24-5.96,5.88h7.64c2.16,0,2.76-.2,4.12-2.72l1,.32Z"/><path class="cls-1" d="M318.75,149.14l1.88-2.52c1.16-1.28,3-2.28,5.16-2.28,3.64,0,6.04,2.28,6.04,5.32,0,1.2-.52,2.16-1.24,2.96-.64,.68-1.68,1.4-2.84,2.16,3.72,.8,5.92,3.24,5.92,6.16,0,6.52-7.68,9.28-10.52,9.28-1.88,0-3.6-.8-4.16-1.4-.48-.52-.6-.88-.6-1.32,.04-.64,.56-1.24,.92-1.52,.32-.24,.68-.28,1.04,.04,1.08,.96,2.68,2.12,4.96,2.12,2.88,0,4.92-2.16,4.92-6.04-.04-3.68-2.72-5.12-5.28-5.12-.92,0-2.04,.24-2.68,.44l-.28-1.2c3.56-1.16,6.44-2.76,6.44-5.72,0-2.36-1.52-3.72-3.84-3.72s-3.96,1.64-5,3.16l-.84-.8Z"/><path class="cls-1" d="M315.83,235.46v3.04c0,2.64,.16,2.84,3,3.12v1.12h-9.36v-1.12c3-.28,3.2-.52,3.2-3.16v-3h-10.56v-1.2c3.8-5.4,7.92-11.24,11.92-16.8h1.8v16.08h3.92v1.92h-3.92Zm-3.16-13.8c-2.52,3.68-5.32,7.76-8.08,11.88h8.08v-11.88Z"/><path class="cls-1" d="M268.35,274.82l.24,.32-1.04,2.64h-9.2c-.36,2.2-.88,5.32-1.24,7.28,1.52-.56,3.72-1.16,4.72-1.16,4.92,0,7.52,3.48,7.52,6.8,0,2.4-1,4.72-3.44,6.72-2.2,1.76-4.96,2.8-7.08,2.8-1.88,0-3.36-.76-4.16-1.56-.56-.52-.72-.84-.64-1.36,0-.36,.32-.96,.84-1.36,.36-.24,.72-.32,1.12,0,1.16,1.04,2.56,2.2,5.04,2.2,3.36,0,4.96-2.88,4.96-5.88,0-3.52-2.12-6.04-6.56-6.04-1.64,0-2.96,.36-4,.72l-.12-.16c.6-3.12,1.48-8.76,1.92-11.96h11.12Z"/><path class="cls-1" d="M194.03,310.66c.84-.44,1.76-.68,2.56-.68,4.24,0,7.16,3.32,7.16,7.4,0,4.8-3.44,8.84-8.24,8.84s-8.32-3.88-8.32-10c0-8.24,6.28-13.44,11.08-15.08,.88-.32,2.88-.76,4.52-1.04l.24,1.32c-1.28,.28-3.16,.8-4.36,1.36-2.44,1.12-6.24,3.76-7.32,9.24l2.68-1.36Zm.96,1.6c-1.6,0-2.96,.6-3.88,1.12-.16,.72-.24,1.72-.24,2.72,0,5,1.88,8.68,5.28,8.68,3.12,0,4.08-3.28,4.08-5.96,0-3.32-1.6-6.56-5.24-6.56Z"/><path class="cls-1" d="M132.82,275.34c-3.84,8.12-7.56,16.2-11.44,24.48l-2.88,.28-.28-.44c4.16-6.76,8.56-15.04,11.72-21.88h-8.56c-2.6,0-2.76,.36-3.84,3h-1.24c.4-2.24,.56-4.24,.76-5.96h15.52l.24,.52Z"/><path class="cls-1" d="M69.18,229.34c3.84,0,6.52,2.68,6.52,5.92,0,1.2-.36,2.36-1.12,3.24-.36,.4-1.56,1.28-3.32,2.56,2.76,1.52,5.48,3.44,5.48,6.92,0,4.68-4.24,7.24-8.04,7.24-4.44,0-7.72-2.56-7.72-6.6,0-2.04,.88-3.16,1.84-3.96,.64-.56,2.2-1.6,3.6-2.48-2.6-1.52-4.44-3.44-4.44-6.28,0-3.48,2.84-6.56,7.2-6.56Zm0,24.52c2.68,0,4.32-1.76,4.32-4.68,0-3.2-2.68-4.76-5.92-6.32-2.16,1.24-3.36,3.12-3.36,5.48,0,3.68,2.32,5.52,4.96,5.52Zm-.52-23.2c-2.4,0-3.64,1.88-3.64,4.12,0,2.92,1.96,4,5.08,5.64,1.56-1.2,2.64-2.6,2.64-4.96,0-3.36-2-4.8-4.08-4.8Z"/><path class="cls-1" d="M50.7,178.14l-2.68,1.36c-.88,.44-1.64,.6-2.4,.6-4.28,0-7.2-3.28-7.2-7.48,0-3.92,3.04-8.28,8.2-8.28s8.04,4.56,8.04,10c0,7.36-4.64,12.84-10.12,14.96-1.64,.64-3.72,.96-4.76,1.04l-.32-1.16c5.68-1.04,9.92-4.84,11.24-11.04Zm-4.56-12.4c-3.12,0-4.2,2.96-4.2,5.76,0,3.52,1.96,6.44,5.32,6.44,1.44,0,2.76-.52,3.6-1.16,.12-.88,.16-1.84,.16-2.6,0-3.56-1-8.44-4.88-8.44Z"/><path class="cls-1" d="M52.22,126.74v-1.12c4.44-.28,4.68-.48,4.68-3.48v-15.36c0-2.04-.28-2.12-2.04-2.28l-1.96-.2v-1c2.64-.44,5.28-1.08,7.32-1.96v20.8c0,3.04,.24,3.2,4.72,3.48v1.12h-12.72Z"/><path class="cls-1" d="M77.74,101.34c6,0,8.24,6.31,8.24,12.13,0,5.48-2.24,12.17-8.24,12.17s-8.36-6.2-8.36-12.13c0-5.48,2.28-12.17,8.36-12.17Zm0,1.31c-3.72,0-4.64,5.52-4.64,10.78s1.12,10.89,4.64,10.89,4.56-5.59,4.56-10.85-1-10.81-4.56-10.81Z"/><path class="cls-1" d="M100.34,71.74v-1.12c4.44-.28,4.68-.48,4.68-3.48v-15.36c0-2.04-.28-2.12-2.04-2.28l-1.96-.2v-1c2.64-.44,5.28-1.08,7.32-1.96v20.8c0,3.04,.24,3.2,4.72,3.48v1.12h-12.72Z"/><path class="cls-1" d="M119.74,71.74v-1.12c4.44-.28,4.68-.48,4.68-3.48v-15.36c0-2.04-.28-2.12-2.04-2.28l-1.96-.2v-1c2.64-.44,5.28-1.08,7.32-1.96v20.8c0,3.04,.24,3.2,4.72,3.48v1.12h-12.72Z"/><path class="cls-1" d="M170.46,53.74v-1.12c4.44-.28,4.68-.48,4.68-3.48v-15.36c0-2.04-.28-2.12-2.04-2.28l-1.96-.2v-1c2.64-.44,5.28-1.08,7.32-1.96v20.8c0,3.04,.24,3.2,4.72,3.48v1.12h-12.72Z"/><path class="cls-1" d="M204.22,48.42c-.52,1.8-1.2,3.84-1.6,5.32h-15.08v-.96c2.2-2.16,4.6-4.52,6.56-6.8,2.52-2.96,4.92-6.16,4.92-9.64s-1.76-5.24-4.68-5.24c-2.76,0-4.48,2.16-5.52,3.72l-.92-.84,2.28-3.24c1.24-1.4,3.16-2.4,5.48-2.4,3.8,0,6.8,2.6,6.8,6.92,0,3.4-1.24,5.8-5.04,9.68-1.72,1.8-4.24,4.24-5.96,5.88h7.64c2.16,0,2.76-.2,4.12-2.72l1,.32Z"/></g></g><path d="M175.92,112.62c2.42-3.54,4.33-7.19,5.64-10.99,1.98,4.14,4.19,7.9,6.86,10.99h-12.5Z"/><polygon points="181.38 175.15 180.68 110.82 183.66 110.78 184.35 175.11 181.38 175.15"/><circle class="cls-2" cx="183.42" cy="177.64" r="4.5"/></svg>