<?xml version="1.0" encoding="UTF-8"?><svg id="ui" xmlns="http://www.w3.org/2000/svg" width="80" height="80" viewBox="0 0 80 80"><defs><style>.cls-1{fill:#f7931e;}.cls-2{fill:#fbb03b;}.cls-3{opacity:.9;}</style></defs><g><path class="cls-2" d="M66.54,21.29c12.51,14.87,9.68,38.98-6.84,49.94-16.07,10.67-39.01,6.63-49.94-6.84C-2.64,49.11,1.05,26.52,16.6,14.45c15.31-11.89,36.83-8.75,49.94,6.84Z"/><path d="M61.46,70.29c-.53,.4-1.06,.78-1.61,1.15-7.7,5.11-17.31,7.13-27.07,5.67-9.4-1.4-17.86-5.98-23.2-12.56C3.83,57.48,1.26,48.49,2.32,39.25c1.12-9.78,6.28-18.89,14.13-24.99,.1-.08,.21-.16,.31-.24,15.33-11.64,36.75-8.62,49.97,7.11h0c6.16,7.33,8.88,17.2,7.46,27.09-1.28,8.93-5.89,16.87-12.74,22.07ZM17.06,14.41c-.1,.08-.2,.15-.3,.23-7.75,6.02-12.84,15.01-13.95,24.65-1.05,9.11,1.49,17.97,7.15,24.94,5.26,6.48,13.6,11,22.89,12.38,9.63,1.44,19.12-.55,26.72-5.59,7.61-5.07,12.77-13.39,14.13-22.88,1.4-9.75-1.28-19.48-7.35-26.7C53.3,5.93,32.17,2.94,17.06,14.41Z"/></g><g><path class="cls-2" d="M28.32,5.56l-11.72,8.9c18.95-9.04,35.82-7.88,49.94,6.84,6.69,7.47,8.81,18.17,6.21,32.22l4.91-10.2c.09-14.09-1.24-20.27-5.69-25.51C63.13,5.41,49.52-1.63,28.32,5.56Z"/><path d="M72.17,55.29l.34-1.82c2.56-13.82,.49-24.59-6.15-32.01C52.87,7.39,36.62,5.17,16.71,14.68l-2.18,1.04L28.24,5.32c18.77-6.36,33.55-2.21,43.93,12.33,4.43,5.21,5.83,11.45,5.74,25.66l-.02,.11-5.71,11.88ZM18.55,13.29c8.94-3.94,17.29-5.48,24.87-4.57,8.55,1.03,16.39,5.2,23.31,12.4,6.47,7.23,8.68,17.54,6.58,30.68l4.12-8.55c.08-14.02-1.29-20.18-5.64-25.29C61.53,3.61,46.96-.49,28.44,5.78l-9.89,7.51Z"/></g><g class="cls-3"><rect class="cls-1" x="32.22" y="25.03" width="7.92" height="38.61" transform="translate(-19.45 30.9) rotate(-37.2)"/></g></svg>