<?xml version="1.0" encoding="UTF-8"?><svg xmlns="http://www.w3.org/2000/svg" width="1920" height="1080" xmlns:xlink="http://www.w3.org/1999/xlink" viewBox="0 0 1920 1080"><defs><style>.cls-1,.cls-2,.cls-3,.cls-4,.cls-5,.cls-6,.cls-7,.cls-8,.cls-9,.cls-10,.cls-11,.cls-12{stroke:#000;stroke-miterlimit:10;}.cls-1,.cls-6,.cls-10,.cls-11,.cls-12{stroke-width:.75px;}.cls-13{fill:#f2f2f2;}.cls-14{fill:#0071bc;}.cls-15{fill:#ebb273;}.cls-16{fill:#eab38e;}.cls-17{fill:#f7931e;}.cls-18{fill:#fbbf98;}.cls-19{fill:#fee8aa;}.cls-20,.cls-2{fill:#fff;}.cls-21{fill:#fff0ca;}.cls-22{fill:#eda641;}.cls-23{fill:#fbb03b;}.cls-24{fill:#fdbc5b;}.cls-25{fill:#8c6239;}.cls-26{fill:#c34d2d;}.cls-27,.cls-5,.cls-10{fill:#a67c52;}.cls-28{fill:#af3525;}.cls-29{fill:#c9dce4;}.cls-30,.cls-7{fill:#c69c6d;}.cls-31{fill:#231f20;}.cls-32,.cls-12{fill:#206c95;}.cls-33{fill:#42210b;}.cls-34{fill:#1b1807;}.cls-35{fill:#0976bd;}.cls-36{fill:#6f1d2d;}.cls-37{fill:#603813;}.cls-38{fill:#754c24;}.cls-2,.cls-4,.cls-8{stroke-width:.25px;}.cls-3{fill:#ffc715;}.cls-3,.cls-5,.cls-7{stroke-width:.5px;}.cls-4{fill:#ccc;}.cls-6,.cls-9{fill:none;}.cls-39{filter:url(#drop-shadow-1);}.cls-39,.cls-40{opacity:.7;}.cls-40{filter:url(#drop-shadow-2);}.cls-11{fill:#7ab99d;}.cls-41{fill:#45242b;opacity:.8;}</style><filter id="drop-shadow-1" filterUnits="userSpaceOnUse"><feOffset dx="65" dy="-14"/><feGaussianBlur result="blur" stdDeviation="5"/><feFlood flood-color="#000" flood-opacity=".81"/><feComposite in2="blur" operator="in"/><feComposite in="SourceGraphic"/></filter><filter id="drop-shadow-2" filterUnits="userSpaceOnUse"><feOffset dx="65" dy="1"/><feGaussianBlur result="blur-2" stdDeviation="5"/><feFlood flood-color="#000" flood-opacity=".81"/><feComposite in2="blur-2" operator="in"/><feComposite in="SourceGraphic"/></filter></defs><g id="background"><rect class="cls-36" y="1.5" width="1920" height="1080"/><path class="cls-41" d="M1919,861.5c-56.15,2.23-112.03,4.39-167.56,6.44-676.44,25.01-1301.73,35.08-1750.44-6.44v219H1919v-219Z"/></g><g id="foreground"><g><path class="cls-38" d="M1029,463.5h539.13c.82-11.08-4.89-18.75-17.13-23h-510.76c-7.58,4.25-11.32,11.92-11.24,23Z"/><polygon class="cls-27" points="1543 477.5 1053 477.5 1053.66 463.5 1543.25 463.5 1543 477.5"/><polygon class="cls-22" points="1064 859.53 1530.61 859.53 1534.51 477.5 1064 477.5 1064 859.53"/><path class="cls-25" d="M1034.72,859.53h524.78c8.71,7.13,11.61,14.25,8.71,21.38l-545.21-.41c3.97-11.96,7.88-19.1,11.72-20.97Z"/><path class="cls-37" d="M1005.83,880.91l590.17-.41c15.05,7.64,16.31,19.58,16,32H992.55c1.97-13.38,5.54-24.91,13.28-31.59Z"/><rect class="cls-25" x="1078" y="812.5" width="83" height="47"/><rect class="cls-25" x="1075" y="802.5" width="89" height="10"/><rect class="cls-25" x="1085" y="563.5" width="66" height="239"/><rect class="cls-38" x="1097" y="578.5" width="5" height="221"/><rect class="cls-38" x="1115" y="578.5" width="7" height="221"/><rect class="cls-38" x="1133" y="581.5" width="7" height="221"/><rect class="cls-38" x="1133" y="578.5" width="7" height="221"/><rect class="cls-25" x="1440" y="813.5" width="83" height="47"/><rect class="cls-25" x="1437" y="803.5" width="89" height="10"/><rect class="cls-25" x="1447" y="564.5" width="66" height="239"/><rect class="cls-38" x="1459" y="579.5" width="5" height="221"/><rect class="cls-38" x="1477" y="579.5" width="7" height="221"/><rect class="cls-38" x="1495" y="579.5" width="7" height="221"/><rect class="cls-27" x="1078" y="484.5" width="80" height="80"/><rect class="cls-27" x="1442" y="484.5" width="80" height="80"/><rect class="cls-27" x="1158" y="493.5" width="100" height="62"/><rect class="cls-27" x="1342" y="493.5" width="100" height="62"/><circle class="cls-30" cx="1117.5" cy="524" r="14.5"/><path class="cls-30" d="M1149,555.5c.4-13.07-3.95-21.14-18-19-2.48,14.52,4.74,19.68,18,19Z"/><path class="cls-30" d="M1106,512.5c.4-13.07-3.95-21.14-18-19-2.48,14.52,4.74,19.68,18,19Z"/><path class="cls-30" d="M1130.13,512.09c13.07,.4,21.14-3.95,19-18-14.52-2.48-19.68,4.74-19,18Z"/><path class="cls-30" d="M1087.13,555.09c13.07,.4,21.14-3.95,19-18-14.52-2.48-19.68,4.74-19,18Z"/><rect class="cls-30" x="1117" y="492.5" width="2" height="16"/><rect class="cls-30" x="1117" y="539.5" width="2" height="16"/><rect class="cls-30" x="1140" y="516.5" width="2" height="16" transform="translate(616.5 1665.5) rotate(-90)"/><rect class="cls-30" x="1093" y="516.5" width="2" height="16" transform="translate(569.5 1618.5) rotate(-90)"/><circle class="cls-30" cx="1479.5" cy="523" r="14.5"/><path class="cls-30" d="M1511,554.5c.4-13.07-3.95-21.14-18-19-2.48,14.52,4.74,19.68,18,19Z"/><path class="cls-30" d="M1468,511.5c.4-13.07-3.95-21.14-18-19-2.48,14.52,4.74,19.68,18,19Z"/><path class="cls-30" d="M1492.13,511.09c13.07,.4,21.14-3.95,19-18-14.52-2.48-19.68,4.74-19,18Z"/><path class="cls-30" d="M1449.13,554.09c13.07,.4,21.14-3.95,19-18-14.52-2.48-19.68,4.74-19,18Z"/><rect class="cls-30" x="1479" y="491.5" width="2" height="16"/><rect class="cls-30" x="1479" y="538.5" width="2" height="16"/><rect class="cls-30" x="1502" y="515.5" width="2" height="16" transform="translate(979.5 2026.5) rotate(-90)"/><rect class="cls-30" x="1455" y="515.5" width="2" height="16" transform="translate(932.5 1979.5) rotate(-90)"/><rect class="cls-25" x="1350" y="501.5" width="7" height="45"/><rect class="cls-25" x="1368" y="501.5" width="7" height="45"/><rect class="cls-25" x="1386" y="501.5" width="7" height="45"/><rect class="cls-25" x="1405" y="502.5" width="7" height="45"/><rect class="cls-25" x="1421" y="502.5" width="7" height="45"/><rect class="cls-25" x="1169" y="500.5" width="7" height="45"/><rect class="cls-25" x="1187" y="500.5" width="7" height="45"/><rect class="cls-25" x="1205" y="500.5" width="7" height="45"/><rect class="cls-25" x="1224" y="501.5" width="7" height="45"/><rect class="cls-25" x="1240" y="501.5" width="7" height="45"/><polygon class="cls-37" points="1176 632.32 1421 632.32 1418 653.5 1180.93 653.5 1176 632.32"/><g><rect class="cls-27" x="1258" y="487.5" width="84" height="157"/><circle class="cls-30" cx="1299.5" cy="529" r="14.5"/><path class="cls-30" d="M1331,560.5c.4-13.07-3.95-21.14-18-19-2.48,14.52,4.74,19.68,18,19Z"/><path class="cls-30" d="M1288,517.5c.4-13.07-3.95-21.14-18-19-2.48,14.52,4.74,19.68,18,19Z"/><path class="cls-30" d="M1312.13,517.09c13.07,.4,21.14-3.95,19-18-14.52-2.48-19.68,4.74-19,18Z"/><path class="cls-30" d="M1269.13,560.09c13.07,.4,21.14-3.95,19-18-14.52-2.48-19.68,4.74-19,18Z"/><rect class="cls-30" x="1299" y="497.5" width="2" height="16"/><rect class="cls-30" x="1299" y="544.5" width="2" height="16"/><rect class="cls-30" x="1322" y="521.5" width="2" height="16" transform="translate(793.5 1852.5) rotate(-90)"/><rect class="cls-30" x="1275" y="521.5" width="2" height="16" transform="translate(746.5 1805.5) rotate(-90)"/><circle class="cls-30" cx="1299.5" cy="598" r="14.5"/><path class="cls-30" d="M1331,629.5c.4-13.07-3.95-21.14-18-19-2.48,14.52,4.74,19.68,18,19Z"/><path class="cls-30" d="M1288,586.5c.4-13.07-3.95-21.14-18-19-2.48,14.52,4.74,19.68,18,19Z"/><path class="cls-30" d="M1312.13,586.09c13.07,.4,21.14-3.95,19-18-14.52-2.48-19.68,4.74-19,18Z"/><path class="cls-30" d="M1269.13,629.09c13.07,.4,21.14-3.95,19-18-14.52-2.48-19.68,4.74-19,18Z"/><rect class="cls-30" x="1299" y="566.5" width="2" height="16"/><rect class="cls-30" x="1299" y="613.5" width="2" height="16"/><rect class="cls-30" x="1322" y="590.5" width="2" height="16" transform="translate(724.5 1921.5) rotate(-90)"/><rect class="cls-30" x="1275" y="590.5" width="2" height="16" transform="translate(677.5 1874.5) rotate(-90)"/></g><rect class="cls-33" x="1188" y="651.5" width="222" height="209"/><path class="cls-23" d="M1240,827.5c-15.86-5.22-15-22.01-15-38.19,5.75,8.61,11.18,14.56,16.09,16.19,1.56-3.93-.34-7.61-.09-11-19.35-46.97,5.36-55.15,19-72-1.87,24.13,.46,44.78,13,57,12.01,20.34,5.41,35.29-8.91,48h-24.09Z"/><path class="cls-17" d="M1246.91,827.5c-7.31-2.98-6.91-12.58-6.91-21.83,2.65,4.92,5.15,8.32,7.42,9.25,.72-2.25-.16-4.35-.04-6.29-8.92-26.84,2.47-31.52,8.76-41.14-.86,13.79,.21,25.59,5.99,32.57,5.54,11.62,2.49,20.17-4.11,27.43h-11.11Z"/><path class="cls-23" d="M1281,818.5c-25.42-32.7-20.34-69.65,2-109,9.32-13.08,16.08-31.36,21.5-52.37,15.55,30.72,16.11,67.18,9.5,106.37,11.05-7.83,18.65-19.32,21.5-35.87,4.52,12.51,8.05,24.3,8.5,33.87,7.39,17.39-2.46,37.09-13.88,57-16.83,4.49-33.23,4.76-49.12,0Z"/><path class="cls-17" d="M1284.56,821.65c-18.78-21.91-15.03-46.67,1.48-73.05,6.88-8.77,11.88-21.02,15.89-35.1,11.49,20.59,11.9,45.02,7.02,71.29,8.16-5.25,13.78-12.95,15.89-24.04,3.34,8.38,5.95,16.29,6.28,22.7,5.46,11.66-1.82,24.86-10.26,38.2-12.43,3.01-24.55,3.19-36.29,0Z"/><path class="cls-23" d="M1356,720.5c1.15,31.86,5.4,58.06,18,69,4.82,3.21,8.66-2.29,11.75-14.5,5.34,12.23,.35,30.33-6.52,49.5-14.16,2.42-27.45,2.91-39.24,0-12.11-6.52-14.89-20.33-14-37,3.56,7.68,7.14,15.23,12.09,12-7.5-18.34,6.74-49.58,17.91-79Z"/><path class="cls-17" d="M1356.48,764.5c.56,18.64,2.62,33.96,8.73,40.36,2.34,1.88,4.2-1.34,5.7-8.48,2.59,7.15,.17,17.74-3.16,28.95-6.87,1.42-13.32,1.7-19.03,0-5.88-3.81-7.22-11.89-6.79-21.64,1.73,4.49,3.46,8.91,5.87,7.02-3.64-10.73,3.27-29,8.69-46.21Z"/><circle class="cls-30" cx="1230.5" cy="833" r="11.5"/><circle class="cls-25" cx="1252" cy="833.5" r="9"/><circle class="cls-27" cx="1282" cy="827.5" r="12"/><circle class="cls-25" cx="1352.5" cy="833" r="7.5"/><circle class="cls-30" cx="1329.5" cy="826" r="10.5"/><polygon class="cls-37" points="1040.24 440.5 1551 440.5 1526 431.9 1064 431.9 1040.24 440.5"/></g><g><path class="cls-14" d="M1107.04,269.63c11.76-1.98,26.29-1.09,31.98,.56,1.42,.59,2.08,1.34,2.04,2.24,.35,1.28,.25,3.05,0,4.98-.3,.36-.76,.56-1.36,.62,.15-.37,.15-.75,0-1.12,0-1.01-33.34-1.91-33.34,0q0,1.12,0,1.12c-.73-.36-1.39-.73-1.36-1.12-.39-1.19-.55-3.06-.68-5.04,.42-.96,1.32-1.71,2.72-2.24Z"/><path class="cls-29" d="M1139.71,276.91c.21,.28,.14,.69,0,1.12v.66c.32,.04,.52,.48,.68,1.01,.02,.67-.55,1.2-1.36,1.68-.51,9.52,.88,19.2,4.76,29.09l6.8,15.67c2.81,5.13,3.63,10.55,2.72,16.23l.68,85.05c.08,5.87-2.88,10.52-11.57,12.87-13.35,1.68-27.86,1.13-43.15-.89-5.07-3.13-6.83-7.46-6.53-12.54l-.03-85.3c-.79-9.53,3.32-19.85,9.56-30.51,3.07-10.7,5.36-21.06,4.76-30.21-.77-.16-1.27-.5-1.36-1.12-.03-.43,.23-.83,.68-1.21v-1.59c2.54-3.09,31.92-2.05,33.34,0Z"/><path class="cls-13" d="M1136.31,387.13c-14.03,2.32-28.69,1.62-43.55,0v-33.57c12.79,2.41,27.59,2.03,43.55,0,1.66,8.27,1.05,20.53,0,33.57Z"/><g><path d="M1099.96,372.66c-.08-.11-.16-.25-.26-.4-.2-.31-.37-.63-.45-.72l-.33-.4c-.05-.06-.12-.21-.14-.25-.08-.11-.13-.24-.21-.34-.09-.12-.26-.39-.27-.4l-.05,.5-.22,.89c-.03,.13-.19,1.12-.23,1.26-.06,.31-.14,.5-.17,.82-.02,.14-.08,.26-.08,.41-.01,.08-.02,.13-.04,.21-.02,.21-.07,.42-.1,.63-.23,.05-.38,.03-.62,0-.14,0-.53-.02-.49-.02-.08-.01-.22,0-.35-.02-.07,0-.15-.02-.21-.09l.1-.34v-.07c.03-.22,.03-.45,.08-.61,.05-.19,.13-.63,.13-.85,0-.25,0-.34,.06-.73,.06-.31,.07-.42,.1-.73v-.1c.04-.2,.02-.38,.05-.49,.11-.3,.08-.61,.17-.94,.05-.24,.07-.49,.1-.73,.03-.26,.11-.5,.14-.75q.02-.12,.17-.1l1.39,.17c.07,.09,.2,.32,.27,.43,.11,.16,.23,.4,.32,.56,.11,.27,.28,.37,.36,.61,.07,.08,.12,.21,.18,.27,.06,.13,.2,.35,.33,.49,.2,.27,.32,.49,.53,.75,.12,.19,.2,.32,.3,.49,.13,.15,.27,.34,.45,.58,.03,0,.18-.12,.25-.18,.18-.11,.39-.34,.57-.47l.17-.21c.03-.05,.11-.1,.16-.14l.43-.41c.09-.14,.39-.32,.64-.61l.08-.06c.21-.22,.38-.44,.56-.67,.13-.18,.27-.24,.41-.41,.08-.1,.07-.12,.14-.2l1.23,.15c.3,.09,.4,.09,.45,.1,.08,0,.15,.03,.29,.05l-.06,.46c-.1,.24-.13,.42-.15,.61l-.15,1.12c-.04,.27-.04,.5-.08,.78,0,.08,0,.16-.02,.25,0,.16-.03,.2-.04,.36l-.02,.14c-.05,.19-.21,.92-.23,1.11-.02,.12-.02,.33-.03,.45-.04,.3-.09,.62-.21,.92l-.04,.26c-.08,.06-.22,.04-.31,.03-.16-.04-.36-.04-.43-.05l-1.04-.13c0-.21,0-.43,.03-.62,.02-.17,.13-.73,.12-.9,.01-.1,.08-.37,.09-.47l.04-.38c.02-.15,.02-.24,.03-.31v-.21s.03-.1,.03-.12c-.02-.34,.15-.66,.15-.98,.03-.1,.04-.19,.05-.28l.05-.58,.02-.12c-.06-.06-.07,0-.07,0-.25,.15-.46,.33-.67,.55l-.49,.49c-.22,.23-.6,.67-.83,.85-.12,.1-.49,.46-.72,.67l-.06,.06c-.1,.02-.27-.02-.37-.03-.16-.02-.33-.03-.49-.05-.13-.14-.25-.4-.34-.54l-.15-.23Z"/><path d="M1109.91,375.22c-.01,.4,0,.47,0,.68,0,.04-.08,.09-.15,.1h-.87s0-.14,0-.14l-.04-.8c0-.28,0-.55,0-.82v-.3c.01-.2,0-.41,.03-.62v-.38c.02-.27,.01-.53,0-.78,0-.07,.02-.12,.02-.19,0-.63,.03-.97,.02-1.63v-.31c0-.17,0-.35,0-.5,0,0-.01-.06,.02-.11,.01-.01,.08-.02,.15-.03,.07,0,.08,0,.18,0,.12,.02,.31,.02,.53,.02,.18,0,.31,.04,.31,.07l-.05,1.75c-.02,.12,0,.23-.02,.35-.02,.17,0,.32-.01,.49v.19s0,.1-.02,.16c-.03,.06,0,.37,0,.44,0,.4-.04,.4-.04,.45-.02,.21,.02,.43,0,.63,0,.28-.02,.56-.02,.84,0,.06-.03,.38-.01,.46Z"/><path d="M1112.37,369.45c.22,0,.67-.03,1.01-.03,.34-.01,.46-.04,.57-.04,.05,0,.14,0,.21,.03v.73c.03,.84-.04,1.05-.04,1.27v.7c.02,.13,.05,.32,.04,.41-.03,.07-.02,.14,0,.2,.03,.16,0,.55,.04,.67,0,.3-.03,1.37,0,1.67l.6-.02c.18,.05,.31-.01,.48,.04l.83-.03c.4,.06,.87,.05,1.24,.01l.54-.02s.08,.08,.08,.13c-.02,.18,.01,.63-.04,.63l-.65,.02c-.45,.03-.75,.05-1.08,.06l-.71,.02c-.29-.05-.5-.03-.76-.02h-.15c-.14,.01-.3,0-.46,.02-.25,0-.69,.07-.98,.08l-.54,.02c-.09-.2-.09-.38-.09-.51v-.56c.07-.12-.02-.25-.02-.39v-.69c-.02-.3,0-.6,0-.91-.04-.12-.01-.51-.04-.67-.01-.07-.02-.13,.01-.2,.01-.09-.02-.28-.02-.41l-.05-2.2Z"/><path d="M1125.33,374.23c.11,.07,.34,.21,.48,.24,.08,.06,.24,.11,.31,.17,.1,.07,.2,.12,.26,.2,0,0-.04,.09-.09,.15-.13,.12-.2,.25-.29,.34s-.13,.13-.13,.13c-.08,0-.17-.06-.25-.11-.24-.1-.26-.16-.49-.2-.06-.03-.24-.08-.29-.11-.23-.04-.45-.18-.71-.28l-1.1-.48c-.18-.06-.34-.14-.52-.2-.12-.05-.2-.1-.31-.15-.14-.06-.34-.13-.48-.16l-.11-.04v.07c.01,.11-.02,.24-.02,.3,.01,.38-.02,.77,0,1.15,0,.12,.02,.25-.06,.36h-.07c-.22,.02-.34,.02-.53,.05-.15,.02-.23,.02-.38,.03-.02-.04-.07-.06-.07-.11,0-.27-.1-.87-.15-1.58-.01-.19-.01-.37-.04-.56-.04-.23-.06-.48-.06-.72l-.02-.31c-.01-.22-.06-.46-.07-.69,0-.11,0-.24,0-.36,0-.12-.07-.25-.04-.38,0-.1-.05-.99-.08-1.26l-.07-.57c.08-.07,.09-.07,.17-.08,.03,0,.05,0,.07,0,.04,0,.87-.05,.91-.03,.06,.24,0,.26,.02,.57v.21c-.03,.42,0,.85,.03,1.25,.02,.45-.02,.57,0,.84l.02,.23c0,.07-.02,.12,.06,.12l.06-.06c.08-.07,.18-.2,.24-.27,.01-.02,.14-.15,.17-.18,.19-.28,.32-.36,.45-.57,.1-.14,.19-.28,.31-.42,.01,0,.01-.01,.03-.02,.07-.17,.21-.32,.32-.49,.14-.18,.25-.37,.39-.55l.74-1.03,.15-.21s.13-.12,.18-.16c.07,.04,.24,.1,.43,.2,.15,.06,.31,.11,.4,.28,0,.09-.52,.8-.56,.86-.1,.15-.17,.34-.25,.42-.14,.16-.24,.34-.35,.52-.17,.27-.4,.5-.61,.74-.19,.24-.4,.5-.46,.54-.12,.13-.24,.23-.36,.34-.12,.11-.2,.24-.28,.34,.07,.04,.09,.08,.17,.12,.22,.1,.48,.29,.71,.39,.31,.11,.56,.26,.88,.44,.07,.06,.27,.09,.41,.21,.07,.05,.17,.08,.24,.1,.23,.14,.47,.27,.64,.39Z"/></g></g><g><g><path class="cls-32" d="M1455,205.5c-27.27,10.3-49.52,36.73-52.91,75.35-.3,38.08,18.37,62.12,49.91,76.65,.22,7.96,4.79,11.03,13,10,.55,6.14,3.03,9.6,7,11,4.34,.33,6.82-2.73,7-10,8.56,.67,14.17-1.67,12-12,29.92-10.15,46.39-34.18,52-72-.73-39-19.51-63.48-51-78,.82-6.62-.27-11.68-11-8.97-.74-7.37-2.99-12.49-9-12.03-4.3,1.15-5.75,4.66-5,10-10.29-.68-10.82-.02-12,10Z"/><path d="M1472.61,378.9c-.21,0-.42,0-.64-.02l-.1-.02c-4.18-1.47-6.61-5.15-7.21-10.94-4.34,.48-7.64-.22-9.82-2.09-1.99-1.71-3.08-4.43-3.21-8.08-33.88-15.68-50.21-40.84-49.92-76.9,3.16-35.95,22.94-64.19,52.94-75.62,1.18-9.98,2.05-10.77,11.92-10.13-.65-5.49,1.14-8.84,5.33-9.96,7.12-.56,8.83,6.41,9.42,11.92,4.49-1.07,7.55-.82,9.34,.76,2.16,1.91,2.08,5.48,1.73,8.45,33.61,15.59,50.28,41.17,50.97,78.22-5.72,38.59-22.71,62.21-51.94,72.25,.85,4.3,.39,7.38-1.4,9.42-1.93,2.2-5.43,3.09-10.67,2.73-.15,4.2-1.08,7.01-2.82,8.59-1.03,.93-2.35,1.41-3.93,1.41Zm-.54-.77c1.65,.12,2.95-.27,3.96-1.19,1.62-1.46,2.49-4.3,2.59-8.45v-.4s.4,.03,.4,.03c5.22,.41,8.63-.39,10.44-2.45,1.67-1.9,2.05-4.87,1.16-9.1l-.07-.33,.32-.11c29.13-9.88,46.06-33.34,51.75-71.7-.69-36.76-17.3-62.16-50.79-77.6l-.25-.11,.03-.27c.53-4.23,.08-6.72-1.45-8.07-1.65-1.46-4.62-1.62-9.08-.49l-.42,.11-.04-.43c-.83-8.36-3.58-12.07-8.6-11.69-3.87,1.04-5.41,4.17-4.66,9.57l.06,.46-.46-.03c-10-.66-10.43-.3-11.6,9.67l-.03,.23-.21,.08c-29.84,11.27-49.54,39.32-52.67,75.03-.28,35.78,15.97,60.74,49.7,76.28l.21,.1v.23c.1,3.55,1.1,6.16,2.97,7.77,2.07,1.78,5.31,2.41,9.62,1.87l.39-.05,.03,.39c.51,5.74,2.71,9.23,6.71,10.66Z"/></g><g><ellipse class="cls-19" cx="1472.5" cy="281.5" rx="61.5" ry="68"/><path d="M1472.5,349.88c-34.12,0-61.88-30.67-61.88-68.38s27.76-68.38,61.88-68.38,61.88,30.67,61.88,68.38-27.76,68.38-61.88,68.38Zm0-136c-33.7,0-61.12,30.34-61.12,67.62s27.42,67.62,61.12,67.62,61.12-30.34,61.12-67.62-27.42-67.62-61.12-67.62Z"/></g></g><g><polygon class="cls-1" points="1258.76 191.42 1258.24 190.58 1286.52 172.9 1311.79 190.59 1311.21 191.41 1286.48 174.1 1258.76 191.42"/><path class="cls-12" d="M1228,187.5c33.08,4.16,71.64,3.33,112.95,0,4.91,10.8,12.27,17.96,21.05,23-4.84,67.49-2.44,108.49,2,142-8.09,5.98-15.13,13.26-21,22-39.58-2.58-78-2.76-115,0-3.24-8.86-9.72-16.69-21-23,6.19-49.98,7.22-97.24,0-140.16,11.06-6.57,18.04-14.52,21-23.84Z"/><path class="cls-11" d="M1235.32,197.5c28.87,3.74,62.52,2.99,98.56,0,4.28,9.71,10.7,16.14,18.37,20.66-4.22,60.63-2.13,97.47,1.75,127.57-7.06,5.37-13.2,11.92-18.32,19.76-34.54-2.32-68.06-2.48-100.35,0-2.83-7.96-8.48-14.99-18.32-20.66,5.4-44.91,6.3-87.36,0-125.92,9.65-5.9,15.74-13.05,18.32-21.42Z"/><circle class="cls-12" cx="1286.5" cy="174" r="1.5"/></g><g class="cls-39"><path class="cls-3" d="M1863.32,975.76c.53,3.44,.5,7.01,0,10.69-19.2,4.34-37.49,3.21-55-2.69-.79-3.93-.84-8.32,0-13.24,15.16,6.74,33.3,8.8,55,5.24Z"/><path class="cls-3" d="M1810.32,970.76c-.78-4.69-1-9.23,0-13.45,15.49,9.26,34.32,9.79,55,5.45,1.03,3.96,.93,7.79,0,11.52-17.56,3.35-35.72,3.18-55-3.52Z"/><path class="cls-3" d="M1866.82,961.26c-19.78,4.89-38.37,4.78-54.93-3.95l.93-10.05c30.18,7.39,45.61,5.14,52-3,1.35,1.84,2.57,4.43,2,17Z"/><path class="cls-3" d="M1863.09,944.26c-13.64,11.31-38.85,5.55-51.21,1.44-.71-3.62-.65-7.41,0-11.33,19.57,7.15,37.28,8.85,51.21-.49,.12,3.71,.14,7.22,0,10.38Z"/><path class="cls-3" d="M1863.19,932.26v-9.46c-19.45,8.58-36.87,7.26-52.37-3.54v14.08c20.58,7.42,39.13,9.79,52.37-1.08Z"/><path class="cls-3" d="M1811.89,918.01c17.05,12.08,36.7,10.71,52.93,3.25,1.07-4.16,1.33-8.51,1-13-19.88,7.06-37.79,7.53-53-1-1.56,3.68-1.95,7.27-.93,10.75Z"/><path class="cls-3" d="M1865.96,907.26c-20.46,6.95-37.84,6.62-52.14-1-.46-2.73-.38-5.85,0-9.17,19.03,4.75,36.09,4.3,51-1.83,1.32,2.9,1.5,7.13,1.14,12Z"/><path class="cls-3" d="M1861.73,895.26c-16.84,5-33.82,4.92-50.91,0-.82-4.7-.99-9.11,0-13,17.14,1.23,33.77,1.32,49.76,0,1.56,4.88,2.33,9.39,1.16,13Z"/><path class="cls-3" d="M1811.33,880.7c-.79-3.87-.55-9.04,0-14.6,15.3,3.66,33.28,3,52.51,.31,.33-.05,.66-.09,.98-.14,.73,5.15,.85,10.02,0,14.44-11.41,1.21-22.04,2.05-29.88,1.56-8.93,.49-17.23,.37-23.62-1.56Z"/><path class="cls-3" d="M1864.49,866.31c-17.67-3.16-35.4-3.03-53.17-.21,15.96,3.05,33.38,3.63,53.17,.21Z"/><path class="cls-3" d="M1747.91,944.18c4.59-5.17,20.64-3.63,30.92,6.07,15.4,14.55,15.29,22.22,10.92,28.07-4.75,6.36-19.36,1.11-29.92-7.07-12.21-9.46-17.57-20.7-11.92-27.07Z"/><path class="cls-3" d="M1778.82,993.26c-12.67-3.73-23.57-7.58-31.7-17.06-3.7-4.31-6.83-9.78-9.3-16.94l8.47-12.45c7.53,20.31,18.21,36.19,43.45,31.53-4.24,6.78-8.85,10.74-10.92,14.93Z"/><path class="cls-3" d="M1697.82,974.26v11.89c11.37,7.07,33.93,4.37,56,2.11v-5.85s-6.7-6.21-6.7-6.21c-13.12,3.37-28.04,4.56-49.3-1.94Z"/><path class="cls-3" d="M1739.46,963.55c-10.05,3.73-24.71,2.41-40.64-.29v11.3c14.07,4.2,29.7,5.59,48.3,1.64-3.24-3.72-5.66-8.03-7.66-12.66Z"/><path class="cls-3" d="M1744.12,950c-15.39,3-31.06,5.21-50.29-2.74v12.82c1.28,1.64,3.07,2.51,5,3.18,16.74,2.92,30.53,3.23,40.64,.29l-1.64-4.29,6.29-9.26Z"/><path class="cls-3" d="M1757.19,941.27v-4.78c-23.16,3.93-44.06,4.39-60.37-2.23l-.61,13.94c11.33,5.19,27.04,6.04,47.91,1.8,1.24-2.06,1.98-4.12,3.79-5.82,2.6-1.63,5.47-2.9,9.29-2.91Z"/><path class="cls-3" d="M1756.82,917.26c-11.02,10.65-33.94,6.91-55,4v14.35c14.36,4.91,33.11,4.88,55.37,.88l-.37-19.23Z"/><path class="cls-3" d="M1756.82,906.26c-17.92,6.02-37.58,5.68-59-1v14.56c28.12,6.76,48.23,6.32,59-2.56v-11Z"/><path class="cls-3" d="M1756.82,894.17c-19.99,4.32-39.38,4.24-58-1.62v13.01c19.22,6.8,38.96,5.97,59,.69l-1-12.09Z"/><path class="cls-3" d="M1758.82,877.26c-17.42,4.4-37.08,4.83-58,3v12.9c18.29,5.01,37.57,5.52,58,.7v-16.59Z"/><path class="cls-3" d="M1751.82,878.26v-14.66c-19.25,4.45-38.26,4.79-57,.66v14c17.91,3.91,36.85,4.14,57,0Z"/><path class="cls-3" d="M1752.82,848.26c-19.42,6.42-39.41,7.25-60,2v13.34c20.69,4.56,40.74,4.48,60-1.34v-14Z"/><path class="cls-3" d="M1752.82,848.26c-4.04-1.44-8.2-2.84-12.59-3.31-15.4-1.62-31.57-3.05-47.41,5.31,17.77,6.05,41.73,5.93,60-2Z"/><polygon class="cls-3" points="1784.93 947.26 1775.11 947.26 1784.93 956.1 1784.93 947.26"/><path class="cls-3" d="M1757.82,937.26c10.01,.93,20.38,.87,31.04,0v9.19s-12.89,.81-12.89,.81c-6.51-3.5-12.89-6.25-18.78-5.99l-.37-4.01h1Z"/><path class="cls-3" d="M1788.86,917.85c-.87,8.14-15.44,7.88-31.67,6.61v12.03c6.81,.87,18.02,1.02,31.67,.77,.29-.38-.23-16.11,0-19.41Z"/><path class="cls-3" d="M1788.86,916.48l-.4-11.22c-6.49,6.48-18.04,6.71-31.64,4.39l.37,14.81c17.38,.91,32.2,.48,31.67-7.98Z"/><path class="cls-3" d="M1790.27,892.12v12.34c-8.89,7.29-20.54,7.79-33.45,5.19v-3.39h1s-1-9.05-1-9.05c12.75,3.68,23.33,2.43,31.74-3.74,.58-.43,1.15-.87,1.7-1.35Z"/><path class="cls-3" d="M1787.82,884.26c-.46,.18-.92,.36-1.38,.53-8.73,3.15-17.98,3.22-27.62,.97v8.1s-2,.32-2,.32v3.04c11.77,2.63,22.94,3.28,31.74-3.74l-.74-9.2Z"/><path class="cls-3" d="M1751.82,875.26c12.4,2.68,24.14,2.65,35.25,0l.75,9c-9.08,3.26-18.65,4.21-29,1.5v-8.5s-7,1-7,1v-3Z"/><path class="cls-3" d="M1784.82,868.26c-10.97,1.44-21.97,1.26-33-.54v7.54c12.07,2.46,23.51,2.75,34.06,0l-1.06-7Z"/><path class="cls-3" d="M1789.82,853.26c-11.27,4.3-23.76,4.01-37,.92v8.08c-.57,.42-1.01,.85-1,1.34v4.13c13.25,1.91,25.7,2.19,36.74-.4l1.26-14.07Z"/><path class="cls-3" d="M1785.89,841.86c-13.55,3.67-32.7,1.2-53.06-2.6v4.97s20,4.03,20,4.03v5.92c14.02,3.8,25.94,2.47,37-.92v-11.96s-3.94,.56-3.94,.56Z"/><path class="cls-3" d="M1789.82,825.26c-16.42,6.06-36.24,5.68-55,1v13.37c19.7,3.9,38.62,5.91,55,1.67v-16.04Z"/><path class="cls-3" d="M1787.82,812.26c-19.86,3.88-38.95,4.33-57,0l-.36,13c24.81,5.99,44.62,5.5,58.36,0l-1-13Z"/><path class="cls-3" d="M1785.82,799.26c-18.91,6.19-37.33,5.75-55.36,0l-.65,13c18.15,4.18,37.24,5.04,58.01,0v-13s-2,0-2,0Z"/><path class="cls-3" d="M1783.82,786.26c-19,3.92-37.69,3.82-56-1l-.58,14c19.86,5.65,39.21,6.74,57.58-1l-1-12Z"/><path class="cls-3" d="M1785.82,772.26c-17,3.91-34.34,3.41-52-1v14.82c17.46,3.53,35.23,4.12,53.49,0v-14.25s-1.49,.43-1.49,.43Z"/><path class="cls-3" d="M1790.82,757.26c-18.67,4.96-37.33,5.29-56,1v13.25c17.46,4.46,36.04,4.7,56-.25v-14Z"/><path class="cls-3" d="M1790.82,744.26c-20.85,4.15-40.93,5.14-60,2l1,12c20.32,4.15,40.03,4.13,59-1v-13Z"/><path class="cls-3" d="M1785.82,732.26c-20.02,4.01-39.57,4.04-58.58-.6v14.02c20.48,3.45,40.11,3.4,58.58-1.42v-12Z"/><path class="cls-3" d="M1783.82,719.26c-19.79,3.09-38.75,2.89-56.58-1.83v14.23c18.86,3.95,37.72,3.95,56.58,0v-12.4Z"/><path class="cls-3" d="M1792.82,703.26c-19.11,4.39-38.46,4.53-58,1v14.45c19.26,3.23,38.4,2.85,57.39-1.27l.61-14.17Z"/><path class="cls-3" d="M1786.82,690.26c-17.74,3.39-36.49,3.27-56,.54v13c20.44,3.01,39.82,4.25,55.95,0l.05-13.53Z"/><path class="cls-3" d="M1784.82,677.26c-19.94,2.16-39.2,1.92-57.58-1.39v14.39c18.97,3.43,38.17,3.35,57.58,0v-11.93s0-1.07,0-1.07Z"/><path class="cls-3" d="M1793.82,661.26c-19.9,3.71-40.23,4.12-61,1v14.51c18.08,2.74,38.39,2.29,60,0l1-15.51Z"/><path class="cls-3" d="M1785.82,648.26c-19.05,1.11-38.81,1.17-59.16,.38v12.62c19.18,3.68,38.79,3.92,58.77,1.36l.39-14.36Z"/><ellipse class="cls-3" cx="1651.82" cy="971.76" rx="29" ry="6.5"/><path class="cls-3" d="M1681.82,984.26c-19.99,8.42-39.67,9.16-59,.87v-13.37c18.14,7.5,37.1,9.83,58,0l1,12.5Z"/><path class="cls-3" d="M1693.82,958.61c-13.71,.22-27.96,.65-34.17-2.18v9.17c7.69-.18,14.75,1.86,21.17,6.16,6.64,.28,12.74,.09,18-.86v-7.64c-1.93,.04-3.58-1.09-5-3.18v-1.47Z"/><path class="cls-3" d="M1696.42,943.48c-15.12,1.25-29.78,1.11-39.6-4.22v16c6.92,3.37,19.3,4.47,37,3.35v-11.35s2.39,.94,2.39,.94l.21-4.72Z"/><path class="cls-3" d="M1701.82,928.96c-15.32,2.71-29.75,2.45-43-1.7v12.99c10.76,4.31,23.53,4.96,37.6,3.24l.4-9.22,5,1.35v-6.65Z"/><path class="cls-3" d="M1697.82,919.82c-12.92,1.08-24.81,.36-35.44-2.56l-.56,10.87c13.19,3.27,26.52,3.41,39.99,.83v-7.7s-4-1.44-4-1.44Z"/><path class="cls-3" d="M1697.82,905.26c-13.24,1.87-26,1.26-38.17-2.52v13.44c11.06,3.56,23.73,4.86,38.17,3.64v-14.56Z"/><path class="cls-3" d="M1698.82,892.55c-14.2,3.32-27.53,2.07-40-3.75l.83,13.93c10.51,3.78,23.77,4.51,39.17,2.83v-13.01Z"/><path class="cls-3" d="M1694.32,877.26c-10.72-.1-20.44,.16-30.34,0v13.67c9.97,3.79,22.34,4.41,36.83,2.23v-12.9c-3.88-.96-5.88-1.96-6.5-3Z"/><path class="cls-3" d="M1692.82,863.59c-12.41,1.6-24.44,1.62-36-.34v12.96c10.53,2.67,23.51,2.44,37.5,1.04l.5-13-2-.66Z"/><path class="cls-3" d="M1692.82,850.26c-14.01,2.05-26.46,.96-37-4l-.71,17c13.83,1.22,26.72,1.62,37.71,.34v-13.34Z"/><path class="cls-3" d="M1720.82,835.26c-19.76,3.86-38.78,4.22-56.83,0v13.86c8.72,2.56,18.47,2.59,28.83,1.14,5.91-3.67,15.12-5.93,28.14-6.55l-.14-8.45Z"/><path class="cls-3" d="M1715.76,820.91c-16.11,4.54-33.57,4.49-51.94,1.34l.17,13c18.77,5.32,37.71,5.34,56.83,0v-14.34s-5.06,0-5.06,0Z"/><path class="cls-3" d="M1714.82,809.26c-19.82,2.69-39.18,2.83-58,0v12.89c21.74,3.38,41.73,4.16,57.57-1.23l.43-11.66Z"/><path class="cls-3" d="M1714.82,795.34c-19.03,2.83-37.53,2.76-55.41-.82v14.74c16.64,3.02,35.42,2.51,55.41,0v-13.92Z"/><path class="cls-3" d="M1714.92,781.26c-17.25-3.95-35.19-4.38-54.07,0,20.91,1.67,40.51,2.58,54.07,0Z"/><path class="cls-3" d="M1714.82,795.34l.1-14.08c-18.02,2.15-36.04,2.15-54.07,0v13.26c18.6,2.83,36.76,3.82,53.97,.82Z"/><polygon class="cls-23" points="1781.82 969.26 1781.82 972.99 1755.35 954.8 1755.35 949.93 1781.82 969.26"/><polygon class="cls-23" points="1663.43 971.78 1664.8 974.09 1640.15 973.4 1638.36 970.38 1663.43 971.78"/><ellipse class="cls-3" cx="1670.96" cy="988.76" rx="29" ry="6.5"/><path class="cls-3" d="M1700.96,1001.26c-19.99,8.42-39.67,9.16-59,.87v-13.37c18.14,7.5,37.1,9.83,58,0l1,12.5Z"/><polygon class="cls-23" points="1682.57 988.78 1683.94 991.09 1659.3 990.4 1657.51 987.38 1682.57 988.78"/><ellipse class="cls-3" cx="1432.96" cy="990.76" rx="29" ry="6.5"/><path class="cls-3" d="M1462.96,1003.26c-19.99,8.42-39.67,9.16-59,.87v-13.37c18.14,7.5,37.1,9.83,58,0l1,12.5Z"/><polygon class="cls-23" points="1444.57 990.78 1445.94 993.09 1421.3 992.4 1419.51 989.38 1444.57 990.78"/><polygon class="cls-23" points="1733.8 848.71 1735.05 850.82 1712.53 850.23 1710.9 847.47 1733.8 848.71"/><path class="cls-3" d="M1510.69,965.48c-3.81-4.3-17.15-3.02-25.69,5.05-12.79,12.09-12.71,18.46-9.07,23.33,3.95,5.28,16.08,.92,24.86-5.88,10.14-7.86,14.6-17.2,9.9-22.5Z"/><path class="cls-3" d="M1485,1006.26c10.53-3.1,19.58-6.29,26.34-14.17,3.07-3.58,5.67-8.13,7.72-14.08l-7.03-10.35c-6.26,16.88-15.13,30.07-36.1,26.19,3.52,5.63,7.36,8.93,9.07,12.4Z"/><path class="cls-3" d="M1552.31,990.47v9.88c-9.45,5.88-28.2,3.63-46.53,1.75v-4.86l5.57-5.16c10.9,2.8,23.3,3.79,40.96-1.61Z"/><path class="cls-3" d="M1517.71,981.57c8.35,3.1,20.53,2.01,33.77-.24v9.39c-11.69,3.49-24.68,4.64-40.13,1.36,2.69-3.09,4.7-6.68,6.36-10.52Z"/><path class="cls-3" d="M1513.84,970.32c12.79,2.5,25.81,4.33,41.79-2.28v10.66c-1.06,1.36-2.55,2.08-4.15,2.64-13.91,2.42-25.36,2.68-33.77,.24l1.36-3.56-5.23-7.69Z"/><path class="cls-3" d="M1502.98,963.06v-3.97c19.24,3.27,36.61,3.64,50.16-1.86l.51,11.58c-9.41,4.31-22.47,5.02-39.81,1.5-1.03-1.71-1.65-3.43-3.15-4.83-2.16-1.35-4.55-2.41-7.72-2.42Z"/><path class="cls-3" d="M1503.28,943.11c9.16,8.85,28.2,5.75,45.7,3.32v11.92c-11.93,4.08-27.51,4.05-46.01,.73l.31-15.98Z"/><path class="cls-3" d="M1503.28,933.97c14.89,5,31.23,4.72,49.02-.83v12.1c-23.36,5.62-40.08,5.25-49.02-2.13v-9.14Z"/><path class="cls-3" d="M1503.28,923.93c16.61,3.59,32.72,3.52,48.19-1.34v10.81c-15.97,5.65-32.37,4.96-49.02,.58l.83-10.04Z"/><path class="cls-3" d="M1501.62,909.87c14.48,3.66,30.81,4.02,48.19,2.49v10.72c-15.2,4.17-31.21,4.58-48.19,.58v-13.79Z"/><path class="cls-3" d="M1507.44,910.7v-12.18c16,3.7,31.79,3.98,47.36,.55v11.63c-14.88,3.25-30.62,3.44-47.36,0Z"/><path class="cls-3" d="M1506.61,885.78c16.14,5.33,32.74,6.03,49.85,1.66v11.08c-17.19,3.79-33.85,3.73-49.85-1.11v-11.63Z"/><path class="cls-3" d="M1506.61,885.78c3.36-1.2,6.81-2.36,10.46-2.75,12.79-1.35,26.23-2.53,39.39,4.41-14.76,5.03-34.67,4.93-49.85-1.66Z"/><polygon class="cls-23" points="1482.51 986.32 1482.51 989.41 1504.5 974.3 1504.5 970.26 1482.51 986.32"/><polygon class="cls-23" points="1522.42 886.15 1521.38 887.91 1540.09 887.41 1541.44 885.12 1522.42 886.15"/><path class="cls-3" d="M1612.45,976.33c.53,3.44,.5,7.01,0,10.69-19.2,4.34-37.49,3.21-55-2.69-.79-3.93-.84-8.32,0-13.24,15.16,6.74,33.3,8.8,55,5.24Z"/><path class="cls-3" d="M1559.45,971.33c-.78-4.69-1-9.23,0-13.45,15.49,9.26,34.32,9.79,55,5.45,1.03,3.96,.93,7.79,0,11.52-17.56,3.35-35.72,3.18-55-3.52Z"/><path class="cls-3" d="M1615.95,961.83c-19.78,4.89-38.37,4.78-54.93-3.95l.93-10.05c30.18,7.39,45.61,5.14,52-3,1.35,1.84,2.57,4.43,2,17Z"/><path class="cls-3" d="M1612.22,944.83c-13.64,11.31-38.85,5.55-51.21,1.44-.71-3.62-.65-7.41,0-11.33,19.57,7.15,37.28,8.85,51.21-.49,.12,3.71,.14,7.22,0,10.38Z"/><path class="cls-3" d="M1612.32,932.83v-9.46c-19.45,8.58-36.87,7.26-52.37-3.54v14.08c20.58,7.42,39.13,9.79,52.37-1.08Z"/><path class="cls-3" d="M1561.02,918.58c17.05,12.08,36.7,10.71,52.93,3.25,1.07-4.16,1.33-8.51,1-13-19.88,7.06-37.79,7.53-53-1-1.56,3.68-1.95,7.27-.93,10.75Z"/><path class="cls-3" d="M1615.09,907.83c-20.46,6.95-37.84,6.62-52.14-1-.46-2.73-.38-5.85,0-9.17,19.03,4.75,36.09,4.3,51-1.83,1.32,2.9,1.5,7.13,1.14,12Z"/><path class="cls-3" d="M1610.87,895.83c-16.84,5-33.82,4.92-50.91,0-.82-4.7-.99-9.11,0-13,17.14,1.23,33.77,1.32,49.76,0,1.56,4.88,2.33,9.39,1.16,13Z"/><path class="cls-3" d="M1560.46,881.27c-.79-3.87-.55-9.04,0-14.6,15.3,3.66,33.28,3,52.51,.31,.33-.05,.66-.09,.98-.14,.73,5.15,.85,10.02,0,14.44-11.41,1.21-22.04,2.05-29.88,1.56-8.93,.49-17.23,.37-23.62-1.56Z"/><path class="cls-3" d="M1613.62,866.88c-17.67-3.16-35.4-3.03-53.17-.21,15.96,3.05,33.38,3.63,53.17,.21Z"/></g><g class="cls-40"><path class="cls-3" d="M37.52,978.29c-.53,3.44-.5,7.01,0,10.69,19.2,4.34,37.49,3.21,55-2.69,.79-3.93,.84-8.32,0-13.24-15.16,6.74-33.3,8.8-55,5.24Z"/><path class="cls-3" d="M90.52,973.29c.78-4.69,1-9.23,0-13.45-15.49,9.26-34.32,9.79-55,5.45-1.03,3.96-.93,7.79,0,11.52,17.56,3.35,35.72,3.18,55-3.52Z"/><path class="cls-3" d="M34.02,963.79c19.78,4.89,38.37,4.78,54.93-3.95l-.93-10.05c-30.18,7.39-45.61,5.14-52-3-1.35,1.84-2.57,4.43-2,17Z"/><path class="cls-3" d="M37.75,946.79c13.64,11.31,38.85,5.55,51.21,1.44,.71-3.62,.65-7.41,0-11.33-19.57,7.15-37.28,8.85-51.21-.49-.12,3.71-.14,7.22,0,10.38Z"/><path class="cls-3" d="M37.65,934.79v-9.46c19.45,8.58,36.87,7.26,52.37-3.54v14.08c-20.58,7.42-39.13,9.79-52.37-1.08Z"/><path class="cls-3" d="M88.95,920.54c-17.05,12.08-36.7,10.71-52.93,3.25-1.07-4.16-1.33-8.51-1-13,19.88,7.06,37.79,7.53,53-1,1.56,3.68,1.95,7.27,.93,10.75Z"/><path class="cls-3" d="M34.88,909.79c20.46,6.95,37.84,6.62,52.14-1,.46-2.73,.38-5.85,0-9.17-19.03,4.75-36.09,4.3-51-1.83-1.32,2.9-1.5,7.13-1.14,12Z"/><path class="cls-3" d="M39.1,897.79c16.84,5,33.82,4.92,50.91,0,.82-4.7,.99-9.11,0-13-17.14,1.23-33.77,1.32-49.76,0-1.56,4.88-2.33,9.39-1.16,13Z"/><path class="cls-3" d="M89.51,883.23c.79-3.87,.55-9.04,0-14.6-15.3,3.66-33.28,3-52.51,.31-.33-.05-.66-.09-.98-.14-.73,5.15-.85,10.02,0,14.44,11.41,1.21,22.04,2.05,29.88,1.56,8.93,.49,17.23,.37,23.62-1.56Z"/><path class="cls-3" d="M36.34,868.84c17.67-3.16,35.4-3.03,53.17-.21-15.96,3.05-33.38,3.63-53.17,.21Z"/><path class="cls-3" d="M141.93,971.72c-4.59-5.17-20.64-3.63-30.92,6.07-15.4,14.55-15.29,22.22-10.92,28.07,4.75,6.36,19.36,1.11,29.92-7.07,12.21-9.46,17.57-20.7,11.92-27.07Z"/><path class="cls-3" d="M111.02,1020.79c12.67-3.73,23.57-7.58,31.7-17.06,3.7-4.31,6.83-9.78,9.3-16.94l-8.47-12.45c-7.53,20.31-18.21,36.19-43.45,31.53,4.24,6.78,8.85,10.74,10.92,14.93Z"/><path class="cls-3" d="M192.02,1001.79v11.89c-11.37,7.07-33.93,4.37-56,2.11v-5.85l6.7-6.21c13.12,3.37,28.04,4.56,49.3-1.94Z"/><path class="cls-3" d="M150.38,991.08c10.05,3.73,24.71,2.41,40.64-.29v11.3c-14.07,4.2-29.7,5.59-48.3,1.64,3.24-3.72,5.66-8.03,7.66-12.66Z"/><path class="cls-3" d="M145.72,977.53c15.39,3,31.06,5.21,50.29-2.74v12.82c-1.28,1.64-3.07,2.51-5,3.18-16.74,2.92-30.53,3.23-40.64,.29l1.64-4.29-6.29-9.26Z"/><path class="cls-3" d="M132.65,968.8v-4.78c23.16,3.93,44.06,4.39,60.37-2.23l.61,13.94c-11.33,5.19-27.04,6.04-47.91,1.8-1.24-2.06-1.98-4.12-3.79-5.82-2.6-1.63-5.47-2.9-9.29-2.91Z"/><path class="cls-3" d="M133.02,944.79c11.02,10.65,33.94,6.91,55,4v14.35c-14.36,4.91-33.11,4.88-55.37,.88l.37-19.23Z"/><path class="cls-3" d="M133.02,933.79c17.92,6.02,37.58,5.68,59-1v14.56c-28.12,6.76-48.23,6.32-59-2.56v-11Z"/><path class="cls-3" d="M133.02,921.7c19.99,4.32,39.38,4.24,58-1.62v13.01c-19.22,6.8-38.96,5.97-59,.69l1-12.09Z"/><path class="cls-3" d="M131.02,904.79c17.42,4.4,37.08,4.83,58,3v12.9c-18.29,5.01-37.57,5.52-58,.7v-16.59Z"/><path class="cls-3" d="M138.02,905.79v-14.66c19.25,4.45,38.26,4.79,57,.66v14c-17.91,3.91-36.85,4.14-57,0Z"/><path class="cls-3" d="M137.02,875.79c19.42,6.42,39.41,7.25,60,2v13.34c-20.69,4.56-40.74,4.48-60-1.34v-14Z"/><path class="cls-3" d="M137.02,875.79c4.04-1.44,8.2-2.84,12.59-3.31,15.4-1.62,31.57-3.05,47.41,5.31-17.77,6.05-41.73,5.93-60-2Z"/><polygon class="cls-3" points="104.91 974.79 114.73 974.79 104.91 983.63 104.91 974.79"/><path class="cls-3" d="M132.02,964.79c-10.01,.93-20.38,.87-31.04,0v9.19s12.89,.81,12.89,.81c6.51-3.5,12.89-6.25,18.78-5.99l.37-4.01h-1Z"/><path class="cls-3" d="M100.98,945.38c.87,8.14,15.44,7.88,31.67,6.61v12.03c-6.81,.87-18.02,1.02-31.67,.77-.29-.38,.23-16.11,0-19.41Z"/><path class="cls-3" d="M100.98,944.01l.4-11.22c6.49,6.48,18.04,6.71,31.64,4.39l-.37,14.81c-17.38,.91-32.2,.48-31.67-7.98Z"/><path class="cls-3" d="M99.57,919.65v12.34c8.89,7.29,20.54,7.79,33.45,5.19v-3.39h-1l1-9.05c-12.75,3.68-23.33,2.43-31.74-3.74-.58-.43-1.15-.87-1.7-1.35Z"/><path class="cls-3" d="M102.02,911.79c.46,.18,.92,.36,1.38,.53,8.73,3.15,17.98,3.22,27.62,.97v8.1l2,.32v3.04c-11.77,2.63-22.94,3.28-31.74-3.74l.74-9.2Z"/><path class="cls-3" d="M138.02,902.79c-12.4,2.68-24.14,2.65-35.25,0l-.75,9c9.08,3.26,18.65,4.21,29,1.5v-8.5l7,1v-3Z"/><path class="cls-3" d="M105.02,895.79c10.97,1.44,21.97,1.26,33-.54v7.54c-12.07,2.46-23.51,2.75-34.06,0l1.06-7Z"/><path class="cls-3" d="M100.02,880.79c11.27,4.3,23.76,4.01,37,.92v8.08c.57,.42,1.01,.85,1,1.34v4.13c-13.25,1.91-25.7,2.19-36.74-.4l-1.26-14.07Z"/><path class="cls-3" d="M103.95,869.39c13.55,3.67,32.7,1.2,53.06-2.6v4.97l-20,4.03v5.92c-14.02,3.8-25.94,2.47-37-.92v-11.96l3.94,.56Z"/><path class="cls-3" d="M100.02,852.79c16.42,6.06,36.24,5.68,55,1v13.37c-19.7,3.9-38.62,5.91-55,1.67v-16.04Z"/><path class="cls-3" d="M102.02,839.79c19.86,3.88,38.95,4.33,57,0l.36,13c-24.81,5.99-44.62,5.5-58.36,0l1-13Z"/><path class="cls-3" d="M104.02,826.79c18.91,6.19,37.33,5.75,55.36,0l.65,13c-18.15,4.18-37.24,5.04-58.01,0v-13h2Z"/><path class="cls-3" d="M106.02,813.79c19,3.92,37.69,3.82,56-1l.58,14c-19.86,5.65-39.21,6.74-57.58-1l1-12Z"/><path class="cls-3" d="M104.02,799.79c17,3.91,34.34,3.41,52-1v14.82c-17.46,3.53-35.23,4.12-53.49,0v-14.25s1.49,.43,1.49,.43Z"/><path class="cls-3" d="M99.02,784.79c18.67,4.96,37.33,5.29,56,1v13.25c-17.46,4.46-36.04,4.7-56-.25v-14Z"/><path class="cls-3" d="M99.02,771.79c20.85,4.15,40.93,5.14,60,2l-1,12c-20.32,4.15-40.03,4.13-59-1v-13Z"/><path class="cls-3" d="M104.02,759.79c20.02,4.01,39.57,4.04,58.58-.6v14.02c-20.48,3.45-40.11,3.4-58.58-1.42v-12Z"/><path class="cls-3" d="M106.02,746.79c19.79,3.09,38.75,2.89,56.58-1.83v14.23c-18.86,3.95-37.72,3.95-56.58,0v-12.4Z"/><path class="cls-3" d="M97.02,730.79c19.11,4.39,38.46,4.53,58,1v14.45c-19.26,3.23-38.4,2.85-57.39-1.27l-.61-14.17Z"/><path class="cls-3" d="M103.02,717.79c17.74,3.39,36.49,3.27,56,.54v13c-20.44,3.01-39.82,4.25-55.95,0l-.05-13.53Z"/><path class="cls-3" d="M105.02,704.79c19.94,2.16,39.2,1.92,57.58-1.39v14.39c-18.97,3.43-38.17,3.35-57.58,0v-13Z"/><path class="cls-3" d="M96.02,688.79c19.9,3.71,40.23,4.12,61,1v14.51c-18.08,2.74-38.39,2.29-60,0l-1-15.51Z"/><path class="cls-3" d="M104.02,675.79c19.05,1.11,38.81,1.17,59.16,.38v12.62c-19.18,3.68-38.79,3.92-58.77,1.36l-.39-14.36Z"/><ellipse class="cls-3" cx="238.02" cy="999.29" rx="29" ry="6.5"/><path class="cls-3" d="M208.02,1011.79c19.99,8.42,39.67,9.16,59,.87v-13.37c-18.14,7.5-37.1,9.83-58,0l-1,12.5Z"/><path class="cls-3" d="M196.02,986.14c13.71,.22,27.96,.65,34.17-2.18v9.17c-7.69-.18-14.75,1.86-21.17,6.16-6.64,.28-12.74,.09-18-.86v-7.64c1.93,.04,3.58-1.09,5-3.18v-1.47Z"/><path class="cls-3" d="M193.42,971.01c15.12,1.25,29.78,1.11,39.6-4.22v16c-6.92,3.37-19.3,4.47-37,3.35v-11.35l-2.39,.94-.21-4.72Z"/><path class="cls-3" d="M188.02,956.49c15.32,2.71,29.75,2.45,43-1.7v12.99c-10.76,4.31-23.53,4.96-37.6,3.24l-.4-9.22-5,1.35v-6.65Z"/><path class="cls-3" d="M192.02,947.35c12.92,1.08,24.81,.36,35.44-2.56l.56,10.87c-13.19,3.27-26.52,3.41-39.99,.83v-7.7l4-1.44Z"/><path class="cls-3" d="M192.02,932.79c13.24,1.87,26,1.26,38.17-2.52v13.44c-11.06,3.56-23.73,4.86-38.17,3.64v-14.56Z"/><path class="cls-3" d="M191.02,920.09c14.2,3.32,27.53,2.07,40-3.75l-.83,13.93c-10.51,3.78-23.77,4.51-39.17,2.83v-13.01Z"/><path class="cls-3" d="M195.51,904.79c10.72-.1,20.44,.16,30.34,0v13.67c-9.97,3.79-22.34,4.41-36.83,2.23v-12.9c3.88-.96,5.88-1.96,6.5-3Z"/><path class="cls-3" d="M197.02,891.13c12.41,1.6,24.44,1.62,36-.34v12.96c-10.53,2.67-23.51,2.44-37.5,1.04l-.5-13,2-.66Z"/><path class="cls-3" d="M197.02,877.79c14.01,2.05,26.46,.96,37-4l.71,17c-13.83,1.22-26.72,1.62-37.71,.34v-13.34Z"/><path class="cls-3" d="M169.02,862.79c19.76,3.86,38.78,4.22,56.83,0v13.86c-8.72,2.56-18.47,2.59-28.83,1.14-5.91-3.67-15.12-5.93-28.14-6.55l.14-8.45Z"/><path class="cls-3" d="M174.07,848.45c16.11,4.54,33.57,4.49,51.94,1.34l-.17,13c-18.77,5.32-37.71,5.34-56.83,0v-14.34h5.06Z"/><path class="cls-3" d="M175.02,836.79c19.82,2.69,39.18,2.83,58,0v12.89c-21.74,3.38-41.73,4.16-57.57-1.23l-.43-11.66Z"/><path class="cls-3" d="M175.02,822.87c19.03,2.83,37.53,2.76,55.41-.82v14.74c-16.64,3.02-35.42,2.51-55.41,0v-13.92Z"/><path class="cls-3" d="M174.92,808.79c17.25-3.95,35.19-4.38,54.07,0-20.91,1.67-40.51,2.58-54.07,0Z"/><path class="cls-3" d="M175.02,822.87l-.1-14.08c18.02,2.15,36.04,2.15,54.07,0v13.26c-18.6,2.83-36.76,3.82-53.97,.82Z"/><polygon class="cls-23" points="108.02 996.79 108.02 1000.52 134.48 982.33 134.48 977.46 108.02 996.79"/><polygon class="cls-23" points="226.41 999.31 225.04 1001.63 249.68 1000.94 251.47 997.91 226.41 999.31"/><polygon class="cls-23" points="156.04 876.24 154.79 878.35 177.31 877.76 178.94 875 156.04 876.24"/></g><g><g><path class="cls-18" d="M1451,280.5c-8.06,14.34-6.62,27.49,8,39,10.22,16.83,22.18,14.61,35,3,15.79-7.06,19.21-20,12-38-2.83-8.58-5.84-18.62-9-30-10.98-10.23-24.32-11.09-40.67,0-.91,4.7-1.85,9.38-2.81,14.05-.82,3.99-1.66,7.97-2.52,11.95Z"/><path d="M1475.78,331.8c-.7,0-1.4-.05-2.09-.15-5.43-.79-10.41-4.85-14.79-12.06-7.11-5.6-11.33-11.82-12.54-18.5-1.14-6.32,.37-13.26,4.51-20.63,.85-3.92,1.69-7.93,2.51-11.93,.95-4.62,1.9-9.35,2.81-14.05v-.05s.05-.03,.05-.03c7.85-5.32,15.25-8.02,22.02-8.02,.13,0,.27,0,.4,0,6.61,.1,12.8,2.81,18.4,8.03l.03,.02v.03c3.2,11.49,6.23,21.58,9.01,29.99,3.64,9.1,4.53,16.9,2.62,23.18-1.95,6.45-6.89,11.48-14.67,14.97-6.81,6.17-12.82,9.19-18.29,9.19Zm-19.34-77.22c-.91,4.69-1.86,9.4-2.8,14-.82,4-1.67,8.02-2.52,11.95v.03c-4.13,7.32-5.64,14.21-4.51,20.48,1.2,6.62,5.39,12.8,12.46,18.36l.03,.03c4.34,7.16,9.26,11.18,14.63,11.96,5.94,.86,12.55-2.07,20.18-8.99l.03-.02c7.73-3.45,12.62-8.44,14.55-14.82,1.88-6.23,1-13.97-2.62-23.02-2.78-8.41-5.8-18.5-9-29.98-5.55-5.16-11.68-7.83-18.21-7.93-.13,0-.27,0-.4,0-6.7,0-14.04,2.67-21.84,7.95Z"/></g><g><path class="cls-16" d="M1446.12,267.55c2.22-1.26,5.01-1.37,8.02-1.04-.93,7.28-3.04,14.6-6.32,21.95-3.87-7.19-4.66-14.18-1.7-20.91Z"/><path d="M1447.83,288.75l-.12-.22c-4-7.43-4.57-14.51-1.7-21.02l.02-.04,.04-.02c1.95-1.11,4.52-1.45,8.09-1.06h.13s-.02,.14-.02,.14c-.92,7.22-3.05,14.62-6.33,21.99l-.1,.23Zm-1.61-21.11c-2.79,6.37-2.25,13.27,1.59,20.54,3.19-7.22,5.28-14.47,6.19-21.56-3.42-.36-5.9-.04-7.78,1.02Z"/></g><g><path class="cls-16" d="M1506.9,263.43c-2.27-1.16-5.07-1.15-8.06-.68,1.25,7.23,3.69,14.45,7.29,21.65,3.54-7.36,4.02-14.37,.76-20.97Z"/><path d="M1506.14,284.68l-.11-.23c-3.61-7.21-6.06-14.5-7.31-21.68l-.02-.13,.12-.02c3.55-.55,6.13-.33,8.13,.69l.04,.02,.02,.04c3.16,6.38,2.9,13.47-.76,21.08l-.11,.23Zm-7.15-21.83c1.23,7.04,3.63,14.19,7.15,21.26,3.52-7.43,3.74-14.35,.67-20.59-1.92-.97-4.41-1.18-7.82-.67Z"/></g><path d="M1482.09,285.51l-.17-.18c1.21-1.15,1.21-2.46-.01-4.01l-.03-.03v-3.77c-.52-1.95-1.5-3.89-2.98-5.94l-.03-.04,.35-5.19,.25,.02-.34,5.1c1.49,2.07,2.47,4.03,2.99,6v.03s0,3.7,0,3.7c1.27,1.63,1.25,3.08-.04,4.31Z"/><path d="M1475.04,286.57c-2.28-1.37-2.97-3.31-2.16-6.11l.24,.07c-.77,2.67-.11,4.52,2.05,5.82l-.13,.21Z"/><path d="M1494.12,307.55l-.23-.09c.61-1.57-.02-3.19-1.95-4.98l-.05-.05,.02-.07c.71-2.69,.7-5.66-.02-8.83v-.02s0-.02,0-.02c.27-5.25-2.17-9.08-7.45-11.69l1.68,2.63c.52,.64,.72,1.24,.58,1.76-.15,.57-.7,1.05-1.64,1.42l-2.71,.59-1.28,1.02c-.76,.65-1.73,.78-3.06,.4-1.41,.11-2.36-.33-2.95-1.41h-1.14c-2.39,.08-4.08-.82-5.19-2.73l-.02-.04v-.04c.17-1.64,.9-2.95,2.24-4l.15,.2c-1.27,1-1.97,2.24-2.14,3.79,1.06,1.8,2.67,2.64,4.95,2.57h1.29l.04,.07c.55,1.05,1.41,1.46,2.77,1.35h.02s.02,0,.02,0c1.25,.36,2.16,.25,2.86-.34l1.36-1.07,2.72-.59c.84-.34,1.35-.76,1.47-1.25,.12-.44-.07-.96-.54-1.55l-2.16-3.38,.39,.18c5.65,2.66,8.27,6.62,7.99,12.1,.72,3.18,.73,6.16,.03,8.86,1.94,1.82,2.6,3.57,1.96,5.2Z"/><path class="cls-31" d="M1471.73,286.47c-.05-.53,.13-.84,.95-.54l2.32,1.58-3.27-1.03Z"/><path class="cls-31" d="M1482,287.5l2-2c1.08-.13,1.33,.26,1,1l-3,1Z"/><path d="M1462.88,297.51c-.32-7.08,3.62-12.32,7.09-16.09l.18,.17c-3.44,3.73-7.34,8.92-7.02,15.91h-.25Z"/><g><path class="cls-26" d="M1465,299.5c3.04-3.91,6.87-5.83,11-7,.33,.15,1.48,.69,3,1.39,1.19-.46,2-1.11,2.52-1.92,7.62,1.54,8.67,5,9.48,8.52-.36,8.18-4.34,12.21-12,12-7.8-.05-13.07-2.82-14-10.26,0-.16,0-.38,0-.64,0-.88,0-2.1,0-2.1Z"/><path d="M1479.55,312.56c-.18,0-.36,0-.55,0-8.59-.05-13.19-3.42-14.05-10.3,0-.17,0-.39,0-.64,0-.87,0-2.09,0-2.1v-.02h.01c2.65-3.42,6.15-5.65,11.03-7.03h.02s.02,0,.02,0l2.98,1.38c1.13-.44,1.94-1.06,2.48-1.89l.02-.03h.03c3.45,.7,5.84,1.86,7.32,3.54,1.3,1.48,1.79,3.22,2.2,5.03h0c-.18,4.1-1.28,7.19-3.28,9.19-1.9,1.91-4.67,2.88-8.23,2.88Zm-14.5-13.04c0,.15,0,1.27,0,2.08,0,.25,0,.48,0,.64,.86,6.81,5.42,10.16,13.95,10.21,.18,0,.37,0,.55,0,3.53,0,6.27-.96,8.15-2.85,1.98-1.98,3.07-5.04,3.25-9.11-.41-1.79-.89-3.51-2.18-4.98-1.46-1.66-3.82-2.8-7.23-3.49-.55,.83-1.4,1.47-2.53,1.91h-.02s-.02,0-.02,0l-2.98-1.39c-4.84,1.37-8.32,3.58-10.95,6.96Z"/></g><path d="M1494.71,272.83c-.6,0-1.61-.45-4.15-2.52-1.98-1.61-4.41-2.18-7.46-1.74-.6,.09-1.14,.2-1.54,.29l-.05-.24c.4-.09,.95-.2,1.56-.29,3.11-.45,5.62,.13,7.66,1.79,3.38,2.75,3.94,2.55,4.47,2.35,.21-.08,.46-.17,.84-.09l-.05,.25c-.31-.06-.5,0-.71,.08-.17,.06-.34,.13-.57,.13Z"/><g><path class="cls-21" d="M1483,269.5c1.32,1.34,2.96,1.34,4.92,0,.25-.24,.23-.49,0-.76-.71-.28-1.75-.48-4.07-.34-.24,.01-.5,.03-.77,.05-.37,.34-.36,.69-.07,1.05Z"/><path d="M1485.21,270.62c-.85,0-1.62-.35-2.3-1.04h0c-.35-.43-.32-.85,.08-1.23l.03-.03h.04c.27-.03,.53-.04,.78-.06,2.5-.15,3.49,.1,4.13,.35l.05,.04c.36,.43,.19,.74-.01,.93-1.01,.69-1.94,1.03-2.79,1.03Zm-2.12-1.21c1.28,1.29,2.83,1.29,4.75-.02,.12-.11,.22-.27,0-.55-.61-.24-1.58-.46-3.99-.32-.23,.01-.47,.03-.72,.05-.27,.27-.28,.53-.03,.84Z"/></g><g><path class="cls-35" d="M1484,269.5c.79,.69,1.85,.58,2.96,0,.13-.64,.06-.84,0-1.01-1.02-.21-2.06-.23-3.12-.09-.05,.37,0,.73,.16,1.1Z"/><path d="M1485.29,270.02c-.51,0-.96-.16-1.33-.49v-.02c-.17-.37-.23-.75-.17-1.13v-.04s.04,0,.04,0c1.09-.14,2.15-.11,3.14,.1h.03s0,.03,0,.03c.07,.18,.14,.38,0,1.03v.02s-.03,.01-.03,.01c-.62,.32-1.19,.48-1.69,.48Zm-1.25-.55c.7,.61,1.67,.61,2.88,0,.12-.58,.06-.77,0-.93-.96-.2-1.99-.23-3.04-.09-.04,.34,0,.69,.15,1.03Z"/></g><path d="M1485.82,274.75c-1.4,0-2.7-.72-3.91-2.17l-.02-.03c-.33-.76-.33-1.47,0-2.11l.08-.16,.12,.14c1.73,1.99,3.64,2.31,5.84,.98l.13,.21c-2.23,1.35-4.26,1.06-6.03-.88-.22,.52-.19,1.09,.07,1.71,2.03,2.41,4.2,2.72,6.82,.96l.14,.21c-1.15,.77-2.23,1.15-3.25,1.15Z"/><path d="M1492.2,273.98s-.04,0-.06,0c-.83-.04-1.89-.87-3.23-2.53l.2-.16c1.27,1.58,2.3,2.4,3.05,2.44,.29,.02,.54-.09,.77-.32l.18,.17c-.26,.26-.56,.39-.89,.39Z"/><path d="M1459.82,272.83c-.22,0-.39-.06-.57-.13-.21-.08-.39-.14-.71-.08l-.05-.25c.38-.08,.63,.01,.84,.09,.54,.19,1.09,.4,4.47-2.35,2.04-1.66,4.54-2.24,7.66-1.79,.61,.09,1.15,.2,1.56,.29l-.05,.24c-.4-.09-.94-.2-1.54-.29-3.05-.44-5.49,.13-7.46,1.74-2.54,2.07-3.55,2.52-4.15,2.52Z"/><g><path class="cls-21" d="M1471.52,269.5c-1.32,1.34-2.96,1.34-4.92,0-.25-.24-.23-.49,0-.76,.71-.28,1.75-.48,4.07-.34,.24,.01,.5,.03,.77,.05,.37,.34,.36,.69,.07,1.05Z"/><path d="M1469.31,270.63c-.84,0-1.77-.34-2.77-1.02-.3-.28-.31-.61-.02-.95l.05-.04c.64-.25,1.63-.49,4.12-.35,.24,.01,.5,.03,.78,.05h.04s.03,.03,.03,.03c.4,.37,.43,.79,.08,1.22h0c-.68,.7-1.45,1.05-2.3,1.05Zm-2.62-1.78c-.23,.28-.12,.44,0,.56,1.91,1.3,3.46,1.3,4.74,0,.25-.31,.24-.57-.03-.84-.25-.02-.5-.04-.72-.05-2.41-.14-3.38,.08-3.99,.32Z"/></g><g><path class="cls-35" d="M1470.52,269.5c-.79,.69-1.85,.58-2.96,0-.13-.64-.06-.84,0-1.01,1.02-.21,2.06-.23,3.12-.09,.05,.37,0,.73-.16,1.1Z"/><path d="M1469.23,270.02c-.51,0-1.08-.16-1.7-.48h-.02s0-.03,0-.03c-.14-.66-.06-.86,0-1.03v-.03s.04,0,.04,0c.99-.21,2.05-.24,3.14-.1h.04s0,.04,0,.04c.05,.37,0,.75-.16,1.13v.02c-.38,.32-.83,.49-1.34,.49Zm-1.63-.56c1.21,.62,2.17,.62,2.88,0,.14-.34,.2-.69,.15-1.03-1.05-.13-2.08-.1-3.04,.09-.06,.16-.11,.35,0,.93Z"/></g><path d="M1468.7,274.75c-1.02,0-2.1-.38-3.25-1.15l.14-.21c2.63,1.76,4.8,1.45,6.82-.96,.27-.62,.29-1.18,.07-1.71-1.77,1.94-3.8,2.23-6.03,.88l.13-.21c2.2,1.33,4.11,1.01,5.84-.98l.12-.14,.08,.16c.33,.64,.33,1.35,0,2.11l-.02,.03c-1.21,1.45-2.51,2.17-3.91,2.17Z"/><path d="M1462.33,273.98c-.34,0-.64-.13-.89-.39l.18-.17c.22,.23,.47,.33,.77,.32,.75-.04,1.77-.86,3.05-2.44l.2,.16c-1.34,1.66-2.4,2.49-3.23,2.53-.02,0-.04,0-.06,0Z"/><path class="cls-15" d="M1480,265.5c2.68,0,7.52,0,12,0,2.49,.43,3.78,1.69,5,3-2.42-1.09-4.57-1.89-6.2-2.15-3.8-.02-7.52,.03-10.63,.65-.47-.47-.65-.97-.17-1.5Z"/><path class="cls-15" d="M1473.72,265.5c-2.68,0-7.52,0-12,0-2.49,.43-3.78,1.69-5,3,2.42-1.09,4.57-1.89,6.2-2.15,3.8-.02,7.52,.03,10.63,.65,.47-.47,.65-.97,.17-1.5Z"/><path d="M1478.1,262.34c-1.05,0-2.1-.24-3.15-.73-3.21-1.35-5.67-.74-7.91,0l-.08-.24c2.19-.72,4.8-1.38,8.09,0,2.14,.99,4.3,.93,6.41-.16,1.01-.41,2.21-.7,3.6,.17l-.13,.21c-1.29-.81-2.38-.55-3.37-.15-1.14,.59-2.3,.89-3.47,.89Z"/><path d="M1475.84,264.26c-1.45,0-2.74-.17-3.7-.64-3.52-1.14-6.83-1.14-10.1,0l-.08-.24c3.32-1.16,6.68-1.16,10.27,0,2.2,1.07,6.19,.56,9.75,0,3.07-1.02,5.37-.55,7.59-.09l.46,.09-.05,.25-.46-.09c-2.19-.45-4.45-.92-7.48,.09-2.07,.33-4.27,.64-6.2,.64Z"/><g><path class="cls-24" d="M1495,256.5c.26,4.98-.55,8.86-4.2,9.85,2.34-.59,4.32-1.58,5.2-3.85,.51,2.36,.53,4.51-1,6,1.24-.98,2-2.32,2.32-3.98,.33,4.33,.57,8.92,1.76,10.9,.13-.81,.36-1.53,.92-1.91,2.15,1.15,3.48,3.91,4.6,7.08-.54-4.46-1.2-8.62-2.6-11.08,2.42,1.27,3.91,3.94,5.14,6.99-.1-4.06-1.13-7.91-3.16-11.54,2.52,.51,4.82,2.27,7.02,4.55-1.57-3.18-3.5-5.94-6-8,3.64,.83,7.69,.31,12-1-3.96,0-7.66-.89-11-3,2.76-2.83,7.47-4.63,13-6-6.64,.45-12.91,.48-18-1,1.07-.53,2.83-.45,5,0-2-.18-8.07-4.97-8-7l-.68,3.04c-1.26-.88-2.33-2.33-3.32-4.04-9.49-2.27-17.97-6.12-27-8-11.02,1.42-15.93,6.69-18.77,13.26-1.59-1.15-4.37-.28-7.23,.74,2.43,.62,4.36,1.49,5,3-1.43-1.03-3.58-1.6-6-2,2.37,1.1,4.34,2.14,5,3-2.68,.83-5.34,.91-8,0,.99,.92,2.22,1.66,4,2,1.1,3.77-1.62,2.67-4,2,2.61,2.71,5.27,4.47,8.12,1.79-.37,2.83-2.48,3.37-5.12,3.21,1.97,.76,3.87,1.32,5,0-1.86,2.51-4.48,3.94-7.47,4.85,3.2-.1,6.25-.36,7.97-2,.1,3.48-1.1,6.17-3.5,8.15,2.57-.48,4.53-1.87,6-4-1.88,2.62-2.33,5.66-2.09,8.91,1.12-2.65,2.2-5.14,3.09-6.91-.73,2.07-.73,6.59-.77,11,1.21-4.75,2.37-9.66,4.33-11.55,1.38,.91,1.49,3.62,1.44,6.55,1.66-4.36,3.16-8.67,1.52-12.15,.5,.89,1.29,1.92,2.48,3.15-.93-3.3-1.42-6.38-1-9,.3,1.56,.99,3.24,2,5-.27-1.91-.22-3.92,0-6,.39,1.54,1.5,3.23,3,5-.74-2.8-.58-5.84,0-9,.13,3,1.13,6,3,9-.43-2.54-.26-4.91,1-7-.05,1.68,.39,3.77,1,6,.89-2.89,3.48-4.34,7-5-1.08,.85-1.09,3.35-1,6,1.33-2.41,2.93-3.95,5-4-.12,1.66,.58,2.98,2,4-.6-1.57-.54-3.25,0-5,.53,1.47,1.95,2.79,4,4-.78-1.28-1.23-2.47-.97-3.5,1.62,.53,2.94,1.71,3.97,3.5-.07-1.39,.91-2.49,2.26-3.5,2.04-1.19,3.97-1.83,5.74-1.5Z"/><path d="M1448.1,282.53v-1.62c.04-3.45,.07-6.99,.48-9.24-.81,1.73-1.73,3.86-2.55,5.79l-.2,.47-.04-.51c-.22-2.93,.17-5.39,1.2-7.47-1.36,1.42-3.03,2.31-4.96,2.67l-.48,.09,.38-.31c2.33-1.91,3.49-4.52,3.46-7.77-1.82,1.54-4.87,1.76-7.85,1.85l-.93,.03,.89-.27c2.98-.91,5.16-2.21,6.78-4.03-1.18,.52-2.77,.01-4.31-.59l-.76-.29,.81,.05c3.04,.19,4.52-.63,4.93-2.75-2.93,2.48-5.7,.38-8.03-2.04l-.32-.33,.45,.13c.19,.05,.38,.11,.58,.17,1.33,.39,2.7,.79,3.24,.25,.34-.34,.36-1.08,.05-2.18-1.57-.31-2.83-.96-3.99-2.02l-.44-.4,.56,.19c2.48,.85,5.01,.86,7.74,.05-.82-.89-3-1.97-4.83-2.82l-.83-.39,.91,.15c2.57,.42,4.38,.99,5.64,1.75-.68-1.06-2.2-1.87-4.69-2.51l-.4-.1,.39-.14c2.99-1.06,5.6-1.85,7.22-.81,3.46-7.9,9.27-11.97,18.81-13.2h.02s.02,0,.02,0c4.79,1,9.32,2.51,14.12,4.12,4.14,1.38,8.42,2.82,12.89,3.88h.05s.03,.06,.03,.06c1.08,1.86,2.08,3.1,3.13,3.89l.64-2.85,.25,.03c-.07,1.89,5.37,6.19,7.54,6.8,.12,.02,.24,.05,.36,.07l-.04,.25c-.11-.01-.23-.03-.36-.07-1.92-.36-3.31-.39-4.24-.08,5.37,1.48,11.9,1.28,17.61,.9l.04,.25c-6.31,1.56-10.39,3.43-12.83,5.86,3.14,1.95,6.67,2.9,10.79,2.9h.85s-.81,.24-.81,.24c-4.52,1.37-8.31,1.73-11.58,1.1,2.17,1.89,4.03,4.42,5.65,7.72l.36,.72-.56-.58c-2.43-2.52-4.57-3.94-6.69-4.45,1.91,3.51,2.94,7.33,3.04,11.35l.02,.7-.26-.65c-1.02-2.54-2.37-5.3-4.71-6.72,1.21,2.38,1.84,6.03,2.41,10.75l.13,1.12-.38-1.07c-.98-2.76-2.27-5.75-4.47-6.98-.52,.4-.7,1.12-.81,1.78l-.05,.33-.18-.29c-1.1-1.83-1.4-5.88-1.69-9.79l-.03-.36c-.4,1.35-1.13,2.45-2.18,3.28l-.16-.19c1.22-1.18,1.55-2.89,1.04-5.49-1.07,2.27-3.29,3.09-5.13,3.56l-.06-.24c3.09-.84,4.4-3.9,4.12-9.63-1.57-.26-3.39,.23-5.55,1.5-1.58,1.18-2.26,2.22-2.2,3.39l.03,.52-.26-.46c-.99-1.72-2.26-2.87-3.77-3.4-.16,.86,.16,1.91,.99,3.27l.26,.43-.43-.25c-2.04-1.2-3.32-2.43-3.92-3.73-.47,1.69-.43,3.2,.1,4.58l.15,.39-.34-.25c-1.44-1.04-2.13-2.37-2.06-3.97-1.8,.1-3.35,1.39-4.76,3.93l-.22,.4v-.45c-.1-2.45-.09-4.73,.74-5.8-3.61,.76-5.74,2.34-6.51,4.84l-.13,.41-.11-.42c-.46-1.68-.97-3.78-1.01-5.55-.95,1.79-1.19,3.93-.75,6.5l.11,.63-.34-.54c-1.66-2.67-2.65-5.37-2.94-8.05-.49,3.14-.43,5.68,.17,7.95l.14,.54-.36-.42c-1.44-1.71-2.38-3.17-2.84-4.45-.18,2.04-.16,3.79,.06,5.35l.09,.65-.32-.57c-.89-1.56-1.52-3.02-1.86-4.35-.22,2.21,.13,4.86,1.09,8.25l.14,.48-.35-.36c-.76-.79-1.38-1.52-1.86-2.19,.91,3.19-.34,6.96-1.93,11.14l-.25,.67v-.71c.05-2.71-.01-5.43-1.29-6.39-1.79,1.81-2.93,6.33-4.04,10.69l-.44,1.73Zm.79-12.09l.23,.1c-.67,1.89-.72,5.93-.75,9.92,1.11-4.37,2.26-8.83,4.11-10.6l.07-.07,.08,.05c1.34,.89,1.52,3.36,1.51,5.95,1.63-4.36,2.77-8.22,1.28-11.39l.22-.11c.45,.81,1.16,1.74,2.11,2.76-.96-3.55-1.24-6.29-.87-8.57l.11-.7,.13,.7c.25,1.33,.81,2.81,1.67,4.4-.17-1.58-.14-3.35,.08-5.39l.07-.69,.17,.68c.33,1.28,1.19,2.77,2.63,4.53-.54-2.41-.5-5.14,.13-8.53l.2-1.08,.05,1.1c.12,2.79,1.02,5.61,2.66,8.4-.34-2.55,.03-4.67,1.11-6.46l.25-.41-.02,.48c-.05,1.7,.42,3.82,.89,5.57,.92-2.45,3.21-3.99,6.96-4.69l.5-.09-.4,.31c-.97,.77-1.03,3.07-.97,5.45,1.43-2.43,3.03-3.63,4.89-3.68h.14s0,.13,0,.13c-.1,1.46,.43,2.66,1.62,3.64-.45-1.42-.4-2.95,.14-4.68l.11-.36,.13,.35c.46,1.28,1.62,2.49,3.53,3.68-.72-1.29-.95-2.31-.74-3.17l.03-.13,.13,.04c1.52,.49,2.8,1.56,3.82,3.18,.11-1.08,.83-2.07,2.3-3.17,2.27-1.33,4.17-1.83,5.83-1.52l.1,.02v.1c.25,4.7-.56,7.67-2.52,9.14,1.68-.72,2.72-1.73,3.28-3.18l.15-.39,.09,.41c.33,1.51,.56,3.32-.13,4.84,.6-.79,1-1.73,1.21-2.82l.18-.92,.16,2.09c.27,3.68,.55,7.48,1.49,9.38,.13-.64,.37-1.27,.91-1.64l.06-.04,.07,.04c2.04,1.09,3.32,3.6,4.28,6.12-.56-4.41-1.22-7.8-2.45-9.95l-.21-.37,.38,.2c2.43,1.27,3.87,3.88,4.93,6.4-.2-3.82-1.25-7.44-3.11-10.78l-.13-.24,.27,.05c2.09,.42,4.18,1.71,6.52,4.01-1.62-3.1-3.46-5.48-5.61-7.25l-.41-.34,.51,.12c3.15,.72,6.8,.46,11.15-.77-3.88-.12-7.23-1.11-10.24-3.01l-.13-.08,.11-.11c2.29-2.35,6.05-4.17,11.78-5.7-5.52,.33-11.66,.38-16.72-1.09l-.31-.09,.29-.14c.8-.39,2-.48,3.65-.26-2.31-1.17-5.91-4.14-6.6-6.02l-.59,2.63-.15-.11c-1.13-.79-2.19-2.07-3.33-4.03-4.46-1.07-8.73-2.5-12.86-3.88-4.78-1.6-9.3-3.11-14.07-4.1-9.49,1.23-15.24,5.29-18.65,13.19l-.06,.14-.13-.09c-1.44-1.05-3.99-.34-6.73,.62,2.65,.73,4.15,1.68,4.69,2.97l.17,.41-.36-.26c-1.09-.78-2.7-1.37-5.02-1.81,2.37,1.14,3.67,1.96,4.19,2.64l.11,.14-.17,.05c-2.64,.81-5.1,.88-7.49,.18,1.01,.81,2.13,1.32,3.48,1.58h.08s.02,.09,.02,.09c.37,1.26,.34,2.08-.09,2.5-.65,.65-2.03,.25-3.49-.18-.04-.01-.08-.02-.12-.03,2.34,2.35,4.88,4.02,7.61,1.45l.26-.24-.05,.35c-.37,2.8-2.4,3.34-4.39,3.34h-.08c1.62,.57,3.18,.87,4.13-.24l.2,.16c-1.56,2.1-3.7,3.58-6.69,4.62,2.75-.12,5.44-.45,7-1.93l.2-.19v.28c.1,3.28-.97,5.94-3.17,7.93,2.16-.51,3.94-1.75,5.32-3.67,.04-.06,.08-.12,.13-.18l.2,.14c-.04,.06-.09,.12-.13,.19-1.51,2.2-2.14,4.8-1.97,8.12,.96-2.25,2.02-4.7,2.88-6.43Z"/></g><g><path class="cls-34" d="M1466,301.5c2.88-3.37,6.65-4.82,11-5h5.92c3.69,.76,5.51,2.33,7.08,4-.79,4.32-3.57,6.76-8,7.66-2.31,.27-4.44,.45-6,.34-3.73-.76-7.92-2.93-10-7Z"/><path d="M1477.01,308.58c-.37,0-.71-.01-1.02-.03-2.17-.44-7.48-2.01-10.04-7.03v-.03s0-.03,0-.03c2.71-3.18,6.32-4.82,11.04-5.02h5.92c3.83,.79,5.68,2.49,7.12,4.02l.02,.02v.02c-.76,4.18-3.47,6.77-8.04,7.7-2.17,.25-3.76,.37-5,.37Zm-10.95-7.07c2.54,4.96,7.8,6.51,9.95,6.94,1.33,.09,3.18-.01,5.98-.34,4.52-.92,7.19-3.47,7.95-7.6-1.42-1.51-3.26-3.19-7.04-3.97h-5.91c-4.67,.2-8.25,1.82-10.94,4.96Z"/></g><g><path class="cls-28" d="M1469,301.5c1.51-1.01,2.96-2.1,6-1,2.5,.37,5.31,.47,7-1,2.12-1.33,3.64,.09,5,1,1.09,1.35,1.29,2.69,0,4-.89,1.13-2.18,2.2-3.49,3.27-2.31,.58-4.83,.79-7.51,.73-2.19-.53-4.08-1.25-5.57-2.23-1.92-1.07-2.65-2.57-1.43-4.77Z"/><path d="M1476.92,308.56c-.3,0-.61,0-.92-.01-2.33-.56-4.16-1.3-5.6-2.23-2.12-1.19-2.6-2.77-1.45-4.84l.02-.02,.14-.09c1.44-.98,2.94-1.98,5.91-.91,2.12,.31,5.17,.55,6.95-.99,1.93-1.21,3.35-.2,4.61,.69,.15,.11,.3,.21,.45,.31h.01c1.21,1.52,1.21,2.85,0,4.08-.92,1.17-2.29,2.29-3.5,3.28h-.02c-1.97,.5-4.14,.75-6.6,.75Zm-7.88-7.03c-1.11,2.01-.65,3.54,1.42,4.69,1.43,.94,3.25,1.66,5.56,2.22,2.82,.07,5.27-.17,7.47-.72,1.2-.98,2.56-2.1,3.48-3.26,1.17-1.19,1.17-2.47,0-3.93-.15-.1-.29-.2-.44-.31-1.24-.87-2.63-1.85-4.5-.69-1.81,1.57-4.88,1.33-7.03,1.01-2.92-1.06-4.4-.06-5.83,.9l-.13,.09Z"/></g><g><g><path class="cls-23" d="M1471,305.5c.71-.12,1.38-.14,2,0,.1,.6,.13,1.31,.1,2.14l-2.19-1.07,.09-1.07Z"/><path d="M1473.15,307.71l-.07-.03-2.22-1.08,.1-1.14h.04c.77-.14,1.43-.14,2.02,0h.03s0,.04,0,.04c.1,.6,.13,1.33,.1,2.15v.08Zm-2.19-1.18l2.09,1.02c.03-.77,0-1.44-.1-2.02-.56-.12-1.19-.12-1.91,0l-.08,1Z"/></g><g><path class="cls-23" d="M1473.53,307.8v-1.28c.94-.28,1.79-.36,2.47-.02,.14,.78,.12,1.43,0,2l-2.47-.7Z"/><path d="M1476.04,308.56l-2.56-.73v-1.36h.04c1.09-.34,1.88-.34,2.51-.03h.02s0,.04,0,.04c.13,.73,.13,1.39,0,2.02v.05Zm-2.47-.8l2.38,.68c.11-.59,.11-1.22,0-1.9-.59-.29-1.35-.28-2.38,.02v1.21Z"/></g><g><path class="cls-23" d="M1479,306.5c-.95-.48-1.85-.57-2.65,0-.03,.77-.02,1.48,.08,2l2.78-.06c.07-.56-.03-1.23-.22-1.94Z"/><path d="M1476.39,308.55v-.04c-.1-.46-.13-1.1-.09-2.01v-.02s.02-.01,.02-.01c.75-.54,1.64-.54,2.7,0h.02s0,.03,0,.03c.21,.82,.28,1.44,.22,1.96v.04s-2.87,.07-2.87,.07Zm0-2.02c-.03,.86,0,1.48,.08,1.92l2.7-.06c.05-.49-.01-1.08-.22-1.85-1.01-.5-1.85-.5-2.56,0Z"/></g><g><path class="cls-23" d="M1479.5,306.5v1.91s1.36-.13,1.36-.13l-.14-1.77c-.43-.16-.83-.18-1.21-.02Z"/><path d="M1479.45,308.47v-2h.03c.38-.17,.79-.17,1.25,0h.03s0,.04,0,.04l.15,1.82-1.46,.14Zm.1-1.94v1.83l1.25-.12-.13-1.69c-.42-.15-.78-.16-1.12-.02Z"/></g><g><path class="cls-23" d="M1481.25,308.25l-.4-2.14c.54-.4,1.35-.6,2.26-.7l.4,2.37-2.26,.47Z"/><path d="M1481.21,308.31v-.05s-.41-2.17-.41-2.17l.02-.02c.49-.36,1.21-.59,2.28-.71h.05s.42,2.46,.42,2.46h-.05s-2.31,.49-2.31,.49Zm-.3-2.18l.38,2.06,2.16-.45-.38-2.28c-1.01,.12-1.69,.34-2.16,.67Z"/></g><g><path class="cls-23" d="M1483.51,305.63c.51-.39,1.1-.44,1.77-.23l.44,1.42-1.79,.81-.42-2.01Z"/><path d="M1483.89,307.71l-.44-2.1,.03-.02c.5-.38,1.11-.46,1.81-.23h.02s0,.03,0,.03l.45,1.46-1.89,.86Zm-.33-2.06l.4,1.92,1.69-.77-.42-1.35c-.66-.21-1.21-.14-1.67,.21Z"/></g></g><g><path class="cls-18" d="M1456.72,312.51c1.57,3.92,4.35,7.22,9.28,9.42,8.59,5.06,16.82,5.62,24.55,0,2.13-1.22,4.14-2.7,5.45-5.75"/><path d="M1478.93,326.09c-4.09,0-8.41-1.35-12.99-4.05-4.53-2.02-7.59-5.13-9.34-9.48l.23-.09c1.72,4.29,4.73,7.35,9.22,9.35,9.09,5.35,17.08,5.35,24.43,.01,2.36-1.35,4.18-2.84,5.4-5.7l.23,.1c-1.26,2.93-3.11,4.44-5.5,5.81-3.72,2.7-7.59,4.05-11.69,4.05Z"/></g><g><path class="cls-20" d="M1479.24,331.67c1.89,2.08,4.06,4.47,6.48,7.13,3.19-4.1,5.85-9.86,8.28-16.3-3.87,3.56-7.63,7.17-14.76,9.17Z"/><path d="M1485.72,338.99l-.1-.11-6.61-7.28,.19-.05c6.87-1.93,10.66-5.42,14.33-8.8l.76-.7-.19,.49c-2.84,7.52-5.48,12.71-8.3,16.33l-.09,.12Zm-6.26-7.26l6.24,6.87c2.71-3.52,5.25-8.51,7.99-15.66-3.65,3.36-7.44,6.83-14.23,8.78Z"/></g><g><path class="cls-20" d="M1474.08,331.67c-1,1.56-1.78,3.18-2.34,4.86-.39,1.18-.67,2.39-.84,3.62-4.34-3.42-7.08-9.95-9.51-17.08,3.9,4.71,8.02,8.22,12.68,8.6Z"/><path d="M1471,340.38l-.17-.14c-4.45-3.5-7.22-10.31-9.55-17.14l-.22-.64,.43,.52c4.56,5.5,8.57,8.22,12.59,8.56l.21,.02-.11,.18c-.99,1.54-1.77,3.16-2.32,4.83-.38,1.17-.66,2.38-.83,3.6l-.03,.22Zm-9.27-16.72c2.24,6.49,4.91,12.86,9.08,16.25,.17-1.16,.44-2.32,.81-3.43,.54-1.62,1.29-3.2,2.24-4.71-3.9-.4-7.77-2.99-12.13-8.11Z"/></g><g><polygon class="cls-14" points="1474.08 339.22 1472.15 335.4 1474.08 331.67 1479.24 331.67 1481.52 334.59 1480.18 338.8 1474.08 339.22"/><path d="M1474.01,339.35l-.04-.07-1.96-3.87,1.99-3.86h5.29l.04,.05,2.32,2.98-.02,.06-1.37,4.29-6.26,.43Zm-1.71-3.95l1.86,3.69,5.93-.41,1.3-4.06-2.2-2.82h-5.02l-1.86,3.61Z"/></g><g><path class="cls-14" d="M1474.08,339.05c-.76-.9-1.36-2.29-1.93-3.82-.28,.54,1.08-2.09,1.93-3.73h5.16l2.28,2.92c-.08,1.55-.5,2.97-1.34,4.21l-6.09,.42Z"/><path d="M1474.03,339.18l-.04-.05c-.79-.94-1.4-2.38-1.89-3.7-.01,0-.02,0-.03-.02-.08-.04-.08-.11-.05-.17h0s0-.02,.02-.04c0-.01,.01-.02,.02-.03l.13-.25h0c.35-.68,1.19-2.3,1.8-3.48l.04-.07h5.29l.04,.05,2.31,2.96v.05c-.08,1.62-.54,3.06-1.37,4.27l-.03,.05h-.06s-6.16,.43-6.16,.43Zm-1.74-3.95c.49,1.31,1.08,2.75,1.85,3.69l5.97-.41c.77-1.15,1.2-2.51,1.29-4.05l-2.21-2.84h-5.02l-1.24,2.4c-.34,.65-.52,1.01-.64,1.21Z"/></g><g><path class="cls-14" d="M1473.45,349.49l.63-10.44,6.09-.42,1.78,10.07c-2.92,.48-5.76,.76-8.5,.79Z"/><path d="M1473.32,349.62v-.13s.64-10.55,.64-10.55l6.32-.44,1.82,10.31-.12,.02c-3.01,.5-5.87,.76-8.52,.79h-.13Zm.88-10.45l-.61,10.2c2.56-.04,5.32-.29,8.22-.77l-1.74-9.84-5.87,.41Z"/></g><g><path class="cls-14" d="M1494,322.5l5,3c.03,.15,.05,.31,.08,.46,.06,.35,.11,.7,.17,1.04,.6,3.72,1.02,7.16,.75,9.5l-4,1.37,3,3.63-.45,1.61c-3.66,1.93-7.48,3.38-11.41,4.45l6.86-25.06Z"/><path d="M1486.96,347.74l.06-.21,6.9-25.22,5.19,3.11,.11,.66c.05,.3,.1,.6,.15,.9,.53,3.31,1.04,7.02,.75,9.53v.08s-3.91,1.33-3.91,1.33l2.93,3.54-.48,1.73-.05,.02c-3.5,1.85-7.35,3.35-11.44,4.46l-.21,.06Zm7.12-25.05l-6.76,24.69c3.98-1.1,7.72-2.56,11.13-4.35l.42-1.5-3.07-3.72,4.1-1.4c.26-2.48-.24-6.13-.76-9.39-.05-.3-.1-.6-.15-.9l-.09-.55-4.81-2.89Z"/></g><g><path class="cls-14" d="M1506,327.5c-2.05-.56-4.42-1.06-6.92-1.54l.92,10.54-4,1.37,3,3.63-.45,1.61c4.94-2.11,10.02-6.16,15.19-11.17-2.37-1.64-4.81-3.23-7.74-4.45Z"/><path d="M1498.36,343.33l.5-1.8-3.07-3.72,4.08-1.39-.93-10.6,.16,.03c2.92,.55,5.12,1.04,6.93,1.54h.01c2.78,1.17,5.12,2.63,7.76,4.47l.12,.09-.11,.11c-5.81,5.63-10.79,9.3-15.23,11.19l-.24,.1Zm-2.15-5.4l2.93,3.54-.4,1.42c4.32-1.9,9.16-5.48,14.8-10.93-2.58-1.79-4.87-3.21-7.58-4.35-1.77-.49-3.92-.97-6.74-1.5l.92,10.47-3.92,1.34Z"/></g><g><path class="cls-14" d="M1461.03,322.57l-4.03,2.93c-.73,1.87-.94,4.35-1,7l4.5,2.78-3.78,3.52c.11,3.54,1.95,6.67,4.69,9.6l4.67,.74-5.04-26.57Z"/><path d="M1466.23,349.28l-4.88-.77-.03-.03c-3.08-3.29-4.62-6.45-4.72-9.68v-.06s.04-.04,.04-.04l3.66-3.41-4.42-2.73v-.07c.05-2.2,.21-4.98,1.01-7.04v-.03s.04-.02,.04-.02l4.19-3.05,.04,.19,5.07,26.74Zm-4.76-1.01l4.45,.7-4.97-26.2-3.84,2.8c-.77,2-.93,4.7-.98,6.85l4.58,2.82-3.86,3.6c.11,3.13,1.62,6.22,4.62,9.43Z"/></g><g><path class="cls-14" d="M1442.89,341.11l7.11-12.61,6.72-2.57-.72,6.57,4.5,2.78-3.78,3.52c.36,3.36,2.27,6.51,4.69,9.6-6.25-1.11-12.45-3.16-18.51-7.28Z"/><path d="M1461.7,348.58l-.32-.06c-7.21-1.28-13.1-3.6-18.56-7.3l-.09-.06,.06-.1,7.13-12.65,6.95-2.66-.73,6.69,4.57,2.82-3.86,3.59c.32,2.85,1.76,5.77,4.65,9.47l.2,.26Zm-18.65-7.5c5.32,3.59,11.07,5.87,18.05,7.14-1.94-2.5-4.12-5.79-4.51-9.4v-.06s.04-.04,.04-.04l3.66-3.41-4.43-2.73v-.08s.7-6.36,.7-6.36l-6.48,2.48-7.03,12.47Z"/></g><g><path class="cls-13" d="M1461.18,323.35l4.89,25.78,7.39,.36,.63-10.27-1.93-3.82c-.1,.19-.65,1.18-1.15,2.1-3.89-1.4-6.86-7.77-9.82-14.15Z"/><path d="M1473.57,349.62l-7.61-.37-.02-.1-5.08-26.77,.42,.91c2.87,6.19,5.84,12.59,9.65,14.05l1.22-2.21,2.05,4.06v.03s-.64,10.39-.64,10.39Zm-7.4-.61l7.16,.35,.62-10.11-1.81-3.58-1.09,1.98-.1-.04c-3.76-1.35-6.68-7.31-9.47-13.3l4.68,24.7Z"/></g><g><polygon class="cls-13" points="1481.95 348.7 1487.14 347.56 1493.14 324.73 1485.72 338.8 1481.52 334.59 1480.18 338.8 1481.82 348.43 1481.95 348.7"/><path d="M1481.88,348.85l-.19-.4-1.65-9.66v-.03s1.42-4.4,1.42-4.4l4.22,4.23,7.85-14.89-6.29,23.96-.07,.02-5.28,1.16Zm.06-.46l.08,.17,5.02-1.1,5.7-21.7-6.99,13.26-4.17-4.18-1.27,3.98,1.64,9.58Z"/></g></g><path class="cls-7" d="M1256.71,276.46l1.79,9.54c-.93,10.47,1.11,20.52,7,30l22-5c10.7-1.87,17.68-.52,21,4,1.16-8.4,2.95-16.26,6-23,1.1-5.19,4.13-10.32,2-13l-1-5c.77-2.47,1.88-4.86,4-7h3.05l2.95,3c7.79,1.75,15.26,2.5,21-2l2-2,2-2v-13.56c-3.87-2.36-8.63-3.37-14-3.44-5.36-.12-12.44,1.67-20,4-2.51-3.1-6.08-6.5-10-10-14.86-5.65-28.7-7.99-39,1-6.36,3.25-10.86,7.1-12,12-2.43-3.48-7.28-5.72-14-7-7.84,.44-15.14,1.39-20.09,4.54l.47,12.93c3.2,2.62,6.41,4.58,9.62,5.53,5.25,4.25,10.59,4.37,16,1l5-1,4.21,6.46Z"/><path class="cls-5" d="M1265.5,333c-1.17-4.33-.93-10.28,0-17,21.28-12.04,34.56-10.61,43-1l5,15c1.44,3.26,.85,4.67-2,4-2.5,1.08-5.12,1.97-9,1-4.35,1.95-9.05,2.09-14,1-4.31,.79-8.42,1.37-10-1-2.89,1.54-5.66,2.62-8,2-3.16-.14-4.93-1.39-5-4Z"/><path class="cls-5" d="M1289,339.56c-5.19,1.82-10.21,2.04-15-.06l-2.03-2.32c1.63-.13,3.79-.84,6.53-2.18,2.6,1.52,6.17,1.48,10,1,4.85,.73,9.53,.45,14-1,3.25-.19,6.81,0,9.5-.5l-8,7c-5.86,.22-11.43,.15-15-1.94Z"/><g><path d="M1436.56,313.07l-.22,.23c.23,.04,.44,.09,.62,.14,.18,.05,.35,.11,.5,.17,.16,.06,.29,.12,.41,.18,.4,.22,.59,.48,.57,.81-.02,.2-.12,.38-.31,.56s-.43,.32-.72,.45c-.29,.12-.59,.21-.89,.27-.3,.06-.58,.08-.82,.06-.4-.03-.71-.14-.92-.31-.21-.17-.31-.39-.29-.66,.02-.19,.1-.4,.26-.64,.16-.24,.4-.53,.72-.88-.22-.03-.37-.08-.45-.14-.08-.06-.12-.15-.12-.25,0-.06,.03-.11,.06-.14,.04-.03,.08-.05,.14-.06,.06,0,.17-.02,.34-.03,.17,0,.38-.02,.65-.03,.32-.34,.6-.6,.85-.76,.25-.17,.5-.25,.76-.26,.02,0,.04,0,.07,0s.04,0,.04,.02c0,.02-.04,.06-.1,.12-.07,.07-.17,.17-.32,.32-.15,.14-.32,.32-.52,.51,.5-.03,.92-.07,1.24-.13,.32-.06,.57-.15,.75-.26,.17-.11,.26-.24,.28-.39,.02-.18-.06-.32-.22-.42-.17-.1-.43-.16-.78-.19-.2-.02-.42-.01-.68,0-.26,.02-.49,.05-.7,.08-.21,.03-.4,.07-.56,.12-.17,.04-.25,.08-.25,.11,0,0,0,.02,.02,.03,.13,.06,.19,.11,.19,.14,0,.04-.21,.11-.62,.2-.41,.09-.68,.13-.82,.12-.1,0-.14-.06-.13-.16,0-.12,.13-.33,.38-.62,.24-.29,.45-.48,.63-.55,.06-.02,.21-.06,.44-.11,.23-.05,.48-.09,.75-.13,.27-.04,.55-.07,.83-.08,.28-.02,.53-.02,.74,0,.5,.04,.87,.17,1.11,.37s.34,.45,.32,.73c-.02,.19-.09,.37-.22,.53-.13,.16-.32,.31-.58,.45-.26,.14-.59,.25-.99,.33-.4,.08-.87,.14-1.4,.15Zm-.47,.49c-.15,.16-.29,.3-.41,.42-.12,.12-.2,.22-.26,.3-.05,.08-.08,.16-.09,.24-.01,.13,.05,.25,.17,.37,.12,.11,.31,.18,.55,.2,.23,.02,.47,0,.74-.06,.26-.06,.49-.15,.68-.27,.19-.12,.29-.25,.3-.38,0-.12-.05-.22-.17-.31-.12-.09-.32-.17-.58-.25-.26-.08-.57-.16-.94-.24Z"/><path d="M1442.14,315.02l-.02,.27c-.19,.15-.34,.25-.45,.29-.11,.05-.27,.05-.46,.03-.38,.39-.7,.58-.96,.55-.15-.01-.28-.07-.39-.19-.11-.11-.2-.26-.26-.44-.06-.18-.08-.38-.06-.6,.01-.17,.09-.36,.22-.57,.13-.2,.29-.39,.49-.56,.2-.17,.4-.3,.61-.4,.21-.1,.41-.14,.58-.12,.12,.01,.22,.04,.29,.08,.07,.05,.1,.1,.09,.17,0,.05-.04,.11-.11,.18,.1,.03,.17,.07,.2,.13,.03,.05,.04,.15,.03,.28-.01,.13-.06,.29-.13,.49-.08,.19-.17,.38-.29,.54l.07,.08h.06s.09,0,.14-.02c.05-.02,.09-.04,.12-.06s.12-.07,.24-.16Zm-.73-1.15c-.23,.12-.43,.23-.6,.32-.17,.1-.31,.2-.42,.3-.12,.1-.2,.21-.25,.32-.09,.3-.14,.46-.14,.49-.02,.18,.1,.28,.34,.3,.11,0,.31-.08,.6-.26-.03-.13-.04-.26-.04-.37,.01-.17,.06-.34,.15-.52s.2-.37,.36-.59Z"/><path d="M1442.89,315.41l.02-.27c.16-.16,.28-.3,.36-.42-.08-.04-.14-.08-.17-.13-.04-.05-.05-.11-.04-.2,0-.1,.06-.22,.15-.36,.09-.14,.2-.28,.33-.4,.13-.12,.24-.2,.34-.23,.04-.02,.08-.02,.11-.02,.05,0,.08,.03,.07,.08,0,.05-.05,.14-.15,.27,.55-.04,.9-.06,1.04-.04,.06,0,.09,.01,.11,.03,.04,.03,.08,.09,.1,.18s.03,.18,.02,.27c0,.06-.03,.12-.09,.18-.05,.06-.15,.15-.28,.27-.15,.14-.29,.3-.4,.48-.11,.18-.17,.31-.18,.4-.01,.13,.06,.2,.21,.21,.16,.01,.46-.13,.89-.44l-.02,.27c-.24,.22-.44,.39-.59,.52-.16,.12-.3,.22-.42,.29-.13,.07-.24,.1-.34,.09-.11,0-.2-.07-.26-.18-.07-.11-.09-.27-.07-.47,.01-.12,.05-.25,.12-.4,.07-.14,.17-.3,.3-.47,.13-.17,.27-.33,.43-.49-.08,0-.16,.02-.26,.03-.09,0-.19,.02-.3,.03-.11,.01-.19,.02-.24,.02-.19,.32-.46,.61-.79,.86Z"/><path d="M1448.05,315.53l-.03,.3c-.29,.32-.55,.56-.78,.71-.24,.15-.43,.23-.59,.21-.22-.02-.37-.15-.46-.39-.09-.24-.12-.5-.09-.78,0-.11,.03-.21,.06-.3,.03-.09,.06-.17,.09-.23,.04-.06,.1-.15,.19-.28,.43-.57,.8-.84,1.11-.82,.16,.01,.24,.08,.23,.21,0,.09-.07,.22-.19,.4s-.23,.3-.31,.37c-.25,.21-.41,.36-.49,.44-.08,.08-.12,.18-.13,.3,0,.1,.02,.18,.08,.26,.07,.07,.16,.11,.27,.12,.13,.01,.27-.03,.42-.11,.16-.08,.36-.22,.62-.4Zm-.12-1.85c-.07,0-.13-.04-.18-.09-.05-.06-.08-.12-.07-.2,0-.12,.08-.25,.2-.39,.12-.14,.25-.2,.37-.19,.08,0,.14,.04,.19,.09,.05,.05,.07,.13,.06,.23,0,.12-.08,.24-.2,.38-.12,.13-.24,.19-.37,.18Z"/><path d="M1448.82,315.71v-.1c.75-.69,1.27-1.17,1.55-1.44,.09-.33,.24-.49,.46-.47,.06,0,.11,.03,.18,.06l.02,.08s-.02,.08-.03,.14c0,.05,0,.15,.03,.29,.03,.14,.05,.26,.06,.36,.01,.1,.02,.21,0,.33-.01,.18-.07,.35-.16,.51-.09,.16-.22,.31-.39,.45-.16,.14-.37,.28-.62,.42,.09,.02,.17,.04,.22,.04,.11,0,.23,0,.36-.05s.27-.11,.4-.19c.14-.08,.3-.19,.49-.33l-.02,.27c-.37,.31-.69,.55-.98,.7-.28,.15-.52,.22-.71,.21-.25-.02-.47-.15-.67-.39-.11-.14-.18-.27-.2-.4-.02-.12-.02-.29,0-.49Zm1.54-.5l-.02-.6c-.18,.18-.56,.51-1.15,1.01,.16,.05,.26,.11,.31,.17,.05,.06,.13,.19,.22,.37,.19-.06,.33-.15,.44-.28,.11-.12,.17-.3,.19-.53,0-.03,0-.05,0-.07s0-.04,0-.07Z"/><path d="M1433.04,320.83l-1.11,.53c-.27,.39-.53,.75-.8,1.09-.27,.34-.5,.62-.7,.84-.2,.22-.37,.39-.52,.5-.14,.11-.25,.17-.31,.16-.08,0-.15-.04-.2-.11s-.07-.13-.06-.21c.02-.29,.22-.65,.58-1.07,.36-.42,.91-.85,1.65-1.29,.35-.57,.65-1.09,.89-1.57,.24-.47,.42-.88,.55-1.22,.13-.34,.23-.61,.29-.82,.06-.21,.09-.34,.09-.4,.01-.12-.03-.18-.12-.19-.07,0-.18,.03-.33,.1-.15,.07-.31,.19-.48,.34-.17,.15-.34,.34-.5,.55-.16,.21-.31,.44-.45,.7-.14,.26-.25,.5-.33,.73-.08,.22-.13,.41-.14,.54,0,.04,0,.11,0,.23,.03-.04,.06-.08,.1-.13,.04-.05,.09-.1,.15-.16,.06-.05,.12-.1,.18-.13,.04-.02,.08-.04,.13-.06,.05-.01,.07,0,.07,.01,0,.02-.08,.11-.25,.29-.17,.18-.31,.34-.44,.48-.07,.08-.16,.16-.28,.22-.11,.07-.2,.1-.27,.09-.08,0-.13-.05-.15-.13-.02-.08-.02-.2,0-.37,.03-.4,.14-.84,.31-1.32,.17-.48,.39-.9,.65-1.25,.21-.28,.45-.53,.74-.74,.29-.22,.56-.38,.82-.49,.26-.11,.47-.16,.61-.15,.18,.01,.31,.08,.39,.2,.08,.12,.12,.28,.1,.48,0,.1-.03,.21-.06,.33s-.07,.24-.12,.37-.12,.32-.23,.59c-.11,.27-.18,.45-.21,.54-.11,.27-.24,.55-.4,.84-.16,.29-.38,.66-.67,1.13l.85-.38-.02,.27Z"/><path d="M1436.45,320.82l-.02,.27c-.19,.15-.34,.25-.45,.29-.11,.04-.27,.05-.46,.03-.38,.39-.7,.58-.97,.55-.15-.01-.28-.07-.39-.19-.11-.11-.2-.26-.26-.44-.06-.18-.08-.38-.06-.6,.01-.17,.09-.36,.22-.57,.13-.2,.29-.39,.49-.56,.19-.17,.4-.3,.61-.4,.21-.1,.41-.14,.58-.12,.12,.01,.22,.04,.29,.08,.07,.04,.1,.1,.09,.17,0,.05-.04,.12-.11,.18,.1,.03,.17,.07,.2,.13,.03,.05,.04,.15,.03,.28-.01,.13-.06,.29-.13,.49-.08,.19-.17,.38-.29,.54l.07,.08h.06s.09,0,.14-.02,.09-.04,.12-.06c.04-.02,.12-.07,.24-.16Zm-.73-1.15c-.23,.12-.43,.23-.6,.32-.17,.1-.31,.2-.43,.3-.12,.1-.2,.21-.25,.32-.09,.3-.14,.46-.14,.49-.01,.18,.1,.28,.34,.3,.11,0,.31-.08,.6-.25-.03-.13-.05-.26-.04-.37,.01-.17,.06-.34,.15-.52,.08-.17,.2-.37,.36-.59Z"/><path d="M1440.24,321.15l-.02,.26c-.25,.22-.47,.41-.65,.55-.18,.14-.34,.24-.47,.31s-.24,.1-.33,.09c-.21-.02-.3-.15-.28-.4,.02-.2,.1-.43,.25-.69s.36-.55,.63-.89c-.12,.06-.25,.13-.36,.21-.11,.08-.21,.17-.31,.25-.09,.09-.17,.17-.23,.23-.19,.18-.37,.38-.55,.57-.18,.2-.29,.32-.36,.38-.06,.06-.12,.09-.17,.08-.21-.02-.29-.29-.24-.81,.01-.17,.06-.36,.12-.56,.07-.2,.22-.47,.47-.79,.53-.68,.97-1.23,1.34-1.65,.37-.43,.67-.75,.91-.96,.24-.22,.39-.32,.47-.31,.09,.02,.16,.04,.22,.08,.05,.03,.08,.07,.08,.11,0,.07-.06,.18-.17,.33-.11,.15-.28,.38-.53,.7-.27,.33-.46,.57-.58,.7-.11,.14-.28,.33-.5,.57-.22,.25-.43,.47-.61,.66-.18,.19-.39,.4-.62,.62l-.04,.49c.39-.38,.73-.68,1.01-.92,.28-.24,.52-.42,.71-.53,.19-.12,.33-.17,.42-.16,.08,0,.15,.06,.21,.16,.06,.1,.09,.19,.08,.25,0,.03-.02,.06-.05,.1-.21,.22-.38,.4-.5,.55-.13,.14-.22,.28-.29,.39-.07,.12-.11,.22-.12,.31-.01,.13,.04,.2,.16,.21,.13,.01,.42-.14,.89-.46Z"/><path d="M1443.81,320.7c-.51,.5-.78,.85-.79,1.06,0,.12,.03,.18,.12,.19,.08,0,.18-.03,.31-.1,.13-.07,.34-.2,.62-.4l-.02,.28c-.41,.35-.72,.6-.94,.75-.22,.15-.39,.22-.51,.21-.22-.02-.32-.18-.29-.47,0-.09,.03-.17,.06-.26,.03-.08,.08-.17,.13-.25,.05-.09,.13-.21,.25-.38,.11-.16,.24-.35,.38-.55-.16,.07-.36,.21-.61,.42-.16,.13-.3,.26-.41,.39-.11,.12-.24,.26-.37,.41s-.23,.25-.29,.31c-.06,.05-.12,.07-.17,.07-.08,0-.16-.11-.21-.29-.06-.19-.07-.4-.05-.65,.01-.15,.04-.27,.08-.35,.04-.08,.12-.2,.23-.34,.21-.27,.38-.47,.53-.6,.14-.12,.28-.18,.4-.17,.08,0,.15,.03,.2,.06,.05,.03,.07,.08,.07,.15,0,.03-.01,.06-.03,.08s-.04,.05-.06,.08c-.02,.02-.07,.07-.14,.13-.46,.44-.7,.73-.71,.88,0,.08,.02,.12,.07,.12,.03,0,.1-.04,.2-.14,.1-.1,.23-.23,.39-.38,.16-.16,.35-.32,.56-.49,.21-.17,.45-.33,.72-.48,.15-.09,.27-.13,.36-.12,.04,0,.08,.07,.11,.19,.03,.12,.04,.25,.03,.37,0,.06-.07,.15-.19,.26Z"/><path d="M1444.84,321.65v-.1c.75-.69,1.27-1.17,1.55-1.44,.09-.33,.24-.49,.46-.47,.06,0,.11,.03,.17,.06l.02,.08s-.02,.08-.03,.14c0,.05,0,.15,.03,.29,.03,.14,.05,.26,.06,.36,.01,.1,.01,.21,0,.33-.02,.18-.07,.35-.16,.51-.09,.16-.22,.31-.39,.45-.16,.14-.37,.28-.62,.42,.09,.02,.17,.04,.22,.04,.11,0,.23,0,.36-.05,.13-.05,.27-.11,.41-.19,.14-.08,.3-.19,.49-.33l-.02,.27c-.37,.31-.69,.55-.98,.7-.28,.15-.52,.22-.71,.21-.25-.02-.47-.15-.67-.39-.11-.14-.18-.27-.2-.4-.02-.12-.02-.29,0-.49Zm1.54-.5l-.02-.6c-.18,.18-.56,.51-1.15,1.01,.16,.05,.26,.11,.31,.17,.05,.06,.13,.19,.22,.37,.19-.06,.33-.15,.44-.28,.11-.12,.17-.3,.19-.53,0-.03,0-.05,0-.07,0-.02,0-.04,0-.07Z"/><path d="M1450.79,322.03l-.02,.27c-.19,.15-.34,.25-.45,.29-.11,.05-.26,.05-.46,.03-.38,.39-.7,.58-.97,.55-.15-.01-.28-.07-.39-.19-.11-.11-.2-.26-.26-.44s-.08-.38-.06-.6c.01-.17,.09-.36,.22-.57,.13-.2,.29-.39,.49-.56,.2-.17,.4-.3,.61-.4,.21-.1,.41-.14,.58-.12,.12,.01,.22,.04,.29,.08,.07,.04,.1,.1,.09,.17,0,.05-.04,.12-.11,.18,.1,.03,.17,.07,.2,.13,.03,.05,.04,.15,.03,.28-.01,.13-.05,.29-.13,.49s-.17,.38-.29,.54l.07,.08h.06s.09,0,.14-.02c.05-.02,.09-.04,.12-.06,.04-.02,.12-.07,.24-.16Zm-.73-1.15c-.23,.12-.43,.23-.6,.32-.16,.1-.31,.2-.43,.3-.12,.1-.2,.21-.25,.32-.09,.3-.14,.46-.14,.49-.01,.18,.1,.28,.34,.3,.11,0,.31-.08,.6-.25-.03-.13-.05-.26-.04-.37,.01-.17,.06-.34,.15-.52,.08-.17,.2-.37,.36-.59Z"/><path d="M1454.35,321.59c-.51,.5-.78,.85-.79,1.06,0,.12,.03,.18,.12,.19,.08,0,.18-.03,.31-.1,.13-.07,.34-.21,.62-.4l-.02,.28c-.41,.35-.72,.6-.94,.75-.22,.15-.39,.22-.51,.21-.22-.02-.32-.17-.29-.47,0-.09,.03-.17,.06-.26,.03-.08,.08-.17,.13-.25,.05-.09,.13-.21,.25-.38,.11-.16,.24-.35,.38-.55-.16,.07-.36,.21-.61,.42-.16,.13-.3,.26-.41,.39s-.24,.26-.37,.41c-.13,.15-.23,.25-.29,.31-.06,.05-.12,.07-.17,.07-.08,0-.16-.11-.21-.29-.06-.19-.07-.4-.05-.65,.01-.15,.04-.27,.08-.35,.04-.08,.12-.2,.23-.34,.21-.27,.38-.47,.53-.6,.14-.12,.28-.18,.4-.17,.08,0,.15,.03,.2,.06,.05,.03,.07,.08,.07,.15,0,.03-.01,.06-.03,.08s-.04,.05-.06,.08c-.02,.02-.07,.07-.14,.13-.46,.44-.7,.73-.71,.88,0,.08,.02,.12,.07,.12,.03,0,.1-.04,.2-.14,.1-.1,.23-.23,.39-.38,.16-.16,.35-.32,.56-.49s.45-.33,.72-.48c.15-.09,.27-.13,.36-.12,.04,0,.08,.07,.11,.19,.03,.12,.04,.25,.03,.37,0,.06-.07,.15-.19,.26Z"/></g><path class="cls-5" d="M1321.5,262c10.69-8.53,20.67-13.3,28.75-8.02l-.09,7.02c-9.21,4.65-18.74,5.37-28.66,1Z"/><path d="M1275.7,319.62c2.21,.4,5.17,3.36,7.88,8.12-2.41,1.07-4.76,1.12-7.05-.01-1.84-.67-2.89-2.1-3.01-4.42,.38-1.3,1.15-2.52,2.18-3.68Z"/><path d="M1298.78,324.38c2.33-1.1,3.39-3.53,5-5.26,1.84,.16,3.09,2.75,3.19,4.75-1.4,2.61-3.43,3.72-5.67,4.31-1.22-.27-2.32-.78-3.16-1.79-.04-.64,.13-1.3,.64-2.02Z"/><polyline class="cls-9" points="1273.24 286.49 1273.19 297.1 1275.16 303.29"/><polyline class="cls-9" points="1302.27 280.69 1302.22 292.29 1302.17 301.79 1299.56 305.87"/><path class="cls-6" d="M1303.68,275.26c1.49-8.73,5.01-14.8,10.8-17.93"/><path class="cls-6" d="M1271.79,278.09c.49-5.88-2.47-11.09-7.9-15.84"/><path class="cls-1" d="M1305.66,282.18c-.29-1.18,7.3-12.52,10.97-9.92l-.99,3.05,.67,3.38-2.68,.56-3.97-2.98"/><path class="cls-1" d="M1309.07,269.08c2.06-3.26,4.28-4.68,6.62-4.63"/><path class="cls-1" d="M1268.44,279.72c-.12-1.21-10.99-9.49-13.62-5.86l1.93,2.57,.47,3.41,2.72-.33,2.78-4.1"/><path class="cls-1" d="M1260.93,268.42c-3.01-2.42-5.57-3.05-7.78-2.25"/><path class="cls-6" d="M1320.88,262.49c7.67-8.9,15.73-14.28,24.76-10.76l4.72,2.11"/><path class="cls-6" d="M1223.13,258.18l3.81-3.48c7.45-6.16,16.8-3.58,26.92,2.46"/><path class="cls-10" d="M1223.1,261.19c9.59-6.65,19.84-7.14,30.63-2.65-10.04,9.94-20.25,11.06-30.63,2.65Z"/><path class="cls-2" d="M1312.19,326.97c3.18,4.41,6.24,7.99,9.15,10.59-7.66,8.61-15.6,15.59-24,19.66-3.31-4.31-5.39-9.8-6.4-16.33,4.99,1.47,9.32,2.05,13.95,.41,2.29-1.53,4.36-3.51,6.27-5.83,1.45-2.63,1.77-5.47,1.04-8.5Z"/><path class="cls-2" d="M1281.77,341.34c-1.25,6.52-3.38,11.91-6.69,15.79-6.05-2.47-12.07-5.63-18.06-9.46,3.23-4.74,6.45-9.42,9.02-11.82,.73,.74,1.68,1.32,2.97,1.67h2.98c.52,.8,1.17,1.57,2.01,2.32,2.35,1.19,4.89,1.85,7.78,1.5Z"/><path class="cls-8" d="M1281.77,341.34c2.31-.02,4.71-.5,7.17-1.38,.61,.76,1.28,.97,1.99,.94,.43,4.25,2.14,8.74,4.42,13.35-6.08,3.25-12.15,3.27-18.21,.04,1.92-3.66,3.72-7.53,4.63-12.95Z"/><path class="cls-4" d="M1321.34,337.57l2.51,1.04,25.68,10.63c-5.88,4.5-10.72,10.02-14.35,16.73-28.26-3.43-62.73-2.86-99.83-.61l-2.71-5.85,25.23-11.31,17.22,8.93,2.06-2.85c6.78,1.4,13.09,1.85,18.21-.04l2.94,2.5,23.05-19.18Z"/></g></svg>