<?xml version="1.0" encoding="UTF-8"?><svg xmlns="http://www.w3.org/2000/svg" width="1920" height="1080" xmlns:xlink="http://www.w3.org/1999/xlink" viewBox="0 0 1920 1080"><defs><style>.cls-1{filter:url(#drop-shadow-10);}.cls-1,.cls-2{opacity:.7;}.cls-3{fill:#fff;}.cls-4,.cls-5{fill:#fbb03b;}.cls-6{fill:#371d2d;}.cls-7{fill:#6f1d2d;}.cls-8{fill:#4b1d2d;}.cls-9{fill:#7c1d2d;}.cls-10,.cls-11{fill:#ffc715;stroke-width:.5px;}.cls-10,.cls-11,.cls-12,.cls-13,.cls-14,.cls-15,.cls-16,.cls-17{stroke:#000;stroke-miterlimit:10;}.cls-11,.cls-5{opacity:.76;}.cls-12,.cls-17{fill:#d58145;}.cls-13{fill:#dc7a42;}.cls-14{fill:#541d2d;}.cls-15{fill:#611d2d;}.cls-16{fill:#631d2d;}.cls-17{opacity:.9;}.cls-2{filter:url(#drop-shadow-9);}.cls-18{opacity:.73;}.cls-19{fill:#5e1d2d;filter:url(#drop-shadow-13);}.cls-20{filter:url(#drop-shadow-12);}.cls-21{filter:url(#drop-shadow-11);}.cls-22{fill:#521d2d;opacity:.8;}</style><filter id="drop-shadow-9" filterUnits="userSpaceOnUse"><feOffset dx="65" dy="1"/><feGaussianBlur result="blur" stdDeviation="5"/><feFlood flood-color="#000" flood-opacity=".81"/><feComposite in2="blur" operator="in"/><feComposite in="SourceGraphic"/></filter><filter id="drop-shadow-10" filterUnits="userSpaceOnUse"><feOffset dx="65" dy="-14"/><feGaussianBlur result="blur-2" stdDeviation="5"/><feFlood flood-color="#000" flood-opacity=".81"/><feComposite in2="blur-2" operator="in"/><feComposite in="SourceGraphic"/></filter><filter id="drop-shadow-11" filterUnits="userSpaceOnUse"><feOffset dx="44" dy="34"/><feGaussianBlur result="blur-3" stdDeviation="5"/><feFlood flood-color="#000" flood-opacity=".21"/><feComposite in2="blur-3" operator="in"/><feComposite in="SourceGraphic"/></filter><filter id="drop-shadow-12" filterUnits="userSpaceOnUse"><feOffset dx="-15" dy="34"/><feGaussianBlur result="blur-4" stdDeviation="5"/><feFlood flood-color="#000" flood-opacity=".21"/><feComposite in2="blur-4" operator="in"/><feComposite in="SourceGraphic"/></filter><filter id="drop-shadow-13" filterUnits="userSpaceOnUse"><feOffset dx="7" dy="25"/><feGaussianBlur result="blur-5" stdDeviation="5"/><feFlood flood-color="#000" flood-opacity=".21"/><feComposite in2="blur-5" operator="in"/><feComposite in="SourceGraphic"/></filter></defs><g id="background.2"><rect class="cls-7" x="-5.96" y="1.12" width="1920" height="1080"/><path class="cls-22" d="M1916.04,887.12c-56.21,2.05-112.14,4.03-167.73,5.91-677.15,22.95-1303.08,32.19-1752.27-5.91v201H1916.04v-201Z"/><g class="cls-2"><path class="cls-10" d="M32.77,1012.2c-.53,3.44-.5,7.01,0,10.69,19.2,4.34,37.49,3.21,55-2.69,.79-3.93,.84-8.32,0-13.24-15.16,6.74-33.3,8.8-55,5.24Z"/><path class="cls-10" d="M85.77,1007.2c.78-4.69,1-9.23,0-13.45-15.49,9.26-34.32,9.79-55,5.45-1.03,3.96-.93,7.79,0,11.52,17.56,3.35,35.72,3.18,55-3.52Z"/><path class="cls-10" d="M29.27,997.7c19.78,4.89,38.37,4.78,54.93-3.95l-.93-10.05c-30.18,7.39-45.61,5.14-52-3-1.35,1.84-2.57,4.43-2,17Z"/><path class="cls-10" d="M33,980.7c13.64,11.31,38.85,5.55,51.21,1.44,.71-3.62,.65-7.41,0-11.33-19.57,7.15-37.28,8.85-51.21-.49-.12,3.71-.14,7.22,0,10.38Z"/><path class="cls-10" d="M32.9,968.7v-9.46c19.45,8.58,36.87,7.26,52.37-3.54v14.08c-20.58,7.42-39.13,9.79-52.37-1.08Z"/><path class="cls-10" d="M84.2,954.45c-17.05,12.08-36.7,10.71-52.93,3.25-1.07-4.16-1.33-8.51-1-13,19.88,7.06,37.79,7.53,53-1,1.56,3.68,1.95,7.27,.93,10.75Z"/><path class="cls-10" d="M30.13,943.7c20.46,6.95,37.84,6.62,52.14-1,.46-2.73,.38-5.85,0-9.17-19.03,4.75-36.09,4.3-51-1.83-1.32,2.9-1.5,7.13-1.14,12Z"/><path class="cls-10" d="M34.35,931.7c16.84,5,33.82,4.92,50.91,0,.82-4.7,.99-9.11,0-13-17.14,1.23-33.77,1.32-49.76,0-1.56,4.88-2.33,9.39-1.16,13Z"/><path class="cls-10" d="M84.76,917.14c.79-3.87,.55-9.04,0-14.6-15.3,3.66-33.28,3-52.51,.31-.33-.05-.66-.09-.98-.14-.73,5.15-.85,10.02,0,14.44,11.41,1.21,22.04,2.05,29.88,1.56,8.93,.49,17.23,.37,23.62-1.56Z"/><path class="cls-10" d="M31.6,902.75c17.67-3.16,35.4-3.03,53.17-.21-15.96,3.05-33.38,3.63-53.17,.21Z"/><path class="cls-10" d="M137.18,1005.63c-4.59-5.17-20.64-3.63-30.92,6.07-15.4,14.55-15.29,22.22-10.92,28.07,4.75,6.36,19.36,1.11,29.92-7.07,12.21-9.46,17.57-20.7,11.92-27.07Z"/><path class="cls-10" d="M106.27,1054.7c12.67-3.73,23.57-7.58,31.7-17.06,3.7-4.31,6.83-9.78,9.3-16.94l-8.47-12.45c-7.53,20.31-18.21,36.19-43.45,31.53,4.24,6.78,8.85,10.74,10.92,14.93Z"/><path class="cls-10" d="M187.27,1035.7v11.89c-11.37,7.07-33.93,4.37-56,2.11v-5.85l6.7-6.21c13.12,3.37,28.04,4.56,49.3-1.94Z"/><path class="cls-10" d="M145.63,1024.99c10.05,3.73,24.71,2.41,40.64-.29v11.3c-14.07,4.2-29.7,5.59-48.3,1.64,3.24-3.72,5.66-8.03,7.66-12.66Z"/><path class="cls-10" d="M140.97,1011.45c15.39,3,31.06,5.21,50.29-2.74v12.82c-1.28,1.64-3.07,2.51-5,3.18-16.74,2.92-30.53,3.23-40.64,.29l1.64-4.29-6.29-9.26Z"/><path class="cls-10" d="M127.9,1002.72v-4.78c23.16,3.93,44.06,4.39,60.37-2.23l.61,13.94c-11.33,5.19-27.04,6.04-47.91,1.8-1.24-2.06-1.98-4.12-3.79-5.82-2.6-1.63-5.47-2.9-9.29-2.91Z"/><path class="cls-10" d="M128.27,978.7c11.02,10.65,33.94,6.91,55,4v14.35c-14.36,4.91-33.11,4.88-55.37,.88l.37-19.23Z"/><path class="cls-10" d="M128.27,967.7c17.92,6.02,37.58,5.68,59-1v14.56c-28.12,6.76-48.23,6.32-59-2.56v-11Z"/><path class="cls-10" d="M128.27,955.61c19.99,4.32,39.38,4.24,58-1.62v13.01c-19.22,6.8-38.96,5.97-59,.69l1-12.09Z"/><path class="cls-10" d="M126.27,938.7c17.42,4.4,37.08,4.83,58,3v12.9c-18.29,5.01-37.57,5.52-58,.7v-16.59Z"/><path class="cls-10" d="M133.27,939.7v-14.66c19.25,4.45,38.26,4.79,57,.66v14c-17.91,3.91-36.85,4.14-57,0Z"/><path class="cls-10" d="M132.27,909.7c19.42,6.42,39.41,7.25,60,2v13.34c-20.69,4.56-40.74,4.48-60-1.34v-14Z"/><path class="cls-10" d="M132.27,909.7c4.04-1.44,8.2-2.84,12.59-3.31,15.4-1.62,31.57-3.05,47.41,5.31-17.77,6.05-41.73,5.93-60-2Z"/><polygon class="cls-10" points="100.16 1008.7 109.98 1008.7 100.16 1017.54 100.16 1008.7"/><path class="cls-10" d="M127.27,998.7c-10.01,.93-20.38,.87-31.04,0v9.19s12.89,.81,12.89,.81c6.51-3.5,12.89-6.25,18.78-5.99l.37-4.01h-1Z"/><path class="cls-10" d="M96.23,979.29c.87,8.14,15.44,7.88,31.67,6.61v12.03c-6.81,.87-18.02,1.02-31.67,.77-.29-.38,.23-16.11,0-19.41Z"/><path class="cls-10" d="M96.23,977.92l.4-11.22c6.49,6.48,18.04,6.71,31.64,4.39l-.37,14.81c-17.38,.91-32.2,.48-31.67-7.98Z"/><path class="cls-10" d="M94.82,953.56v12.34c8.89,7.29,20.54,7.79,33.45,5.19v-3.39h-1l1-9.05c-12.75,3.68-23.33,2.43-31.74-3.74-.58-.43-1.15-.87-1.7-1.35Z"/><path class="cls-10" d="M97.27,945.7c.46,.18,.92,.36,1.38,.53,8.73,3.15,17.98,3.22,27.62,.97v8.1l2,.32v3.04c-11.77,2.63-22.94,3.28-31.74-3.74l.74-9.2Z"/><path class="cls-10" d="M133.27,936.7c-12.4,2.68-24.14,2.65-35.25,0l-.75,9c9.08,3.26,18.65,4.21,29,1.5v-8.5l7,1v-3Z"/><path class="cls-10" d="M100.27,929.7c10.97,1.44,21.97,1.26,33-.54v7.54c-12.07,2.46-23.51,2.75-34.06,0l1.06-7Z"/><path class="cls-10" d="M95.27,914.7c11.27,4.3,23.76,4.01,37,.92v8.08c.57,.42,1.01,.85,1,1.34v4.13c-13.25,1.91-25.7,2.19-36.74-.4l-1.26-14.07Z"/><path class="cls-10" d="M99.2,903.3c13.55,3.67,32.7,1.2,53.06-2.6v4.97l-20,4.03v5.92c-14.02,3.8-25.94,2.47-37-.92v-11.96l3.94,.56Z"/><path class="cls-10" d="M95.27,886.7c16.42,6.06,36.24,5.68,55,1v13.37c-19.7,3.9-38.62,5.91-55,1.67v-16.04Z"/><path class="cls-10" d="M97.27,873.7c19.86,3.88,38.95,4.33,57,0l.36,13c-24.81,5.99-44.62,5.5-58.36,0l1-13Z"/><path class="cls-10" d="M99.27,860.7c18.91,6.19,37.33,5.75,55.36,0l.65,13c-18.15,4.18-37.24,5.04-58.01,0v-13h2Z"/><path class="cls-10" d="M101.27,847.7c19,3.92,37.69,3.82,56-1l.58,14c-19.86,5.65-39.21,6.74-57.58-1l1-12Z"/><path class="cls-10" d="M99.27,833.7c17,3.91,34.34,3.41,52-1v14.82c-17.46,3.53-35.23,4.12-53.49,0v-14.25s1.49,.43,1.49,.43Z"/><path class="cls-10" d="M94.27,818.7c18.67,4.96,37.33,5.29,56,1v13.25c-17.46,4.46-36.04,4.7-56-.25v-14Z"/><path class="cls-10" d="M94.27,805.7c20.85,4.15,40.93,5.14,60,2l-1,12c-20.32,4.15-40.03,4.13-59-1v-13Z"/><path class="cls-10" d="M99.27,793.7c20.02,4.01,39.57,4.04,58.58-.6v14.02c-20.48,3.45-40.11,3.4-58.58-1.42v-12Z"/><path class="cls-10" d="M101.27,780.7c19.79,3.09,38.75,2.89,56.58-1.83v14.23c-18.86,3.95-37.72,3.95-56.58,0v-12.4Z"/><path class="cls-10" d="M92.27,764.7c19.11,4.39,38.46,4.53,58,1v14.45c-19.26,3.23-38.4,2.85-57.39-1.27l-.61-14.17Z"/><path class="cls-10" d="M98.27,751.7c17.74,3.39,36.49,3.27,56,.54v13c-20.44,3.01-39.82,4.25-55.95,0l-.05-13.53Z"/><path class="cls-10" d="M100.27,738.7c19.94,2.16,39.2,1.92,57.58-1.39v14.39c-18.97,3.43-38.17,3.35-57.58,0v-13Z"/><path class="cls-10" d="M91.27,722.7c19.9,3.71,40.23,4.12,61,1v14.51c-18.08,2.74-38.39,2.29-60,0l-1-15.51Z"/><path class="cls-10" d="M99.27,709.7c19.05,1.11,38.81,1.17,59.16,.38v12.62c-19.18,3.68-38.79,3.92-58.77,1.36l-.39-14.36Z"/><ellipse class="cls-10" cx="233.27" cy="1033.2" rx="29" ry="6.5"/><path class="cls-10" d="M203.27,1045.7c19.99,8.42,39.67,9.16,59,.87v-13.37c-18.14,7.5-37.1,9.83-58,0l-1,12.5Z"/><path class="cls-10" d="M191.27,1020.05c13.71,.22,27.96,.65,34.17-2.18v9.17c-7.69-.18-14.75,1.86-21.17,6.16-6.64,.28-12.74,.09-18-.86v-7.64c1.93,.04,3.58-1.09,5-3.18v-1.47Z"/><path class="cls-10" d="M188.67,1004.92c15.12,1.25,29.78,1.11,39.6-4.22v16c-6.92,3.37-19.3,4.47-37,3.35v-11.35l-2.39,.94-.21-4.72Z"/><path class="cls-10" d="M183.27,990.4c15.32,2.71,29.75,2.45,43-1.7v12.99c-10.76,4.31-23.53,4.96-37.6,3.24l-.4-9.22-5,1.35v-6.65Z"/><path class="cls-10" d="M187.27,981.26c12.92,1.08,24.81,.36,35.44-2.56l.56,10.87c-13.19,3.27-26.52,3.41-39.99,.83v-7.7l4-1.44Z"/><path class="cls-10" d="M187.27,966.7c13.24,1.87,26,1.26,38.17-2.52v13.44c-11.06,3.56-23.73,4.86-38.17,3.64v-14.56Z"/><path class="cls-10" d="M186.27,954c14.2,3.32,27.53,2.07,40-3.75l-.83,13.93c-10.51,3.78-23.77,4.51-39.17,2.83v-13.01Z"/><path class="cls-10" d="M190.77,938.7c10.72-.1,20.44,.16,30.34,0v13.67c-9.97,3.79-22.34,4.41-36.83,2.23v-12.9c3.88-.96,5.88-1.96,6.5-3Z"/><path class="cls-10" d="M192.27,925.04c12.41,1.6,24.44,1.62,36-.34v12.96c-10.53,2.67-23.51,2.44-37.5,1.04l-.5-13,2-.66Z"/><path class="cls-10" d="M192.27,911.7c14.01,2.05,26.46,.96,37-4l.71,17c-13.83,1.22-26.72,1.62-37.71,.34v-13.34Z"/><path class="cls-10" d="M164.27,896.7c19.76,3.86,38.78,4.22,56.83,0v13.86c-8.72,2.56-18.47,2.59-28.83,1.14-5.91-3.67-15.12-5.93-28.14-6.55l.14-8.45Z"/><path class="cls-10" d="M169.33,882.36c16.11,4.54,33.57,4.49,51.94,1.34l-.17,13c-18.77,5.32-37.71,5.34-56.83,0v-14.34h5.06Z"/><path class="cls-10" d="M170.27,870.7c19.82,2.69,39.18,2.83,58,0v12.89c-21.74,3.38-41.73,4.16-57.57-1.23l-.43-11.66Z"/><path class="cls-10" d="M170.27,856.78c19.03,2.83,37.53,2.76,55.41-.82v14.74c-16.64,3.02-35.42,2.51-55.41,0v-13.92Z"/><path class="cls-10" d="M170.17,842.7c17.25-3.95,35.19-4.38,54.07,0-20.91,1.67-40.51,2.58-54.07,0Z"/><path class="cls-10" d="M170.27,856.78l-.1-14.08c18.02,2.15,36.04,2.15,54.07,0v13.26c-18.6,2.83-36.76,3.82-53.97,.82Z"/><polygon class="cls-4" points="103.27 1030.7 103.27 1034.43 129.74 1016.24 129.74 1011.38 103.27 1030.7"/><polygon class="cls-4" points="221.66 1033.22 220.29 1035.54 244.94 1034.85 246.73 1031.82 221.66 1033.22"/><polygon class="cls-4" points="151.29 910.15 150.04 912.26 172.56 911.67 174.19 908.91 151.29 910.15"/></g><g class="cls-1"><path class="cls-10" d="M249.91,997.2c-.53,3.44-.5,7.01,0,10.69,19.2,4.34,37.49,3.21,55-2.69,.79-3.93,.84-8.32,0-13.24-15.16,6.74-33.3,8.8-55,5.24Z"/><path class="cls-10" d="M302.91,992.2c.78-4.69,1-9.23,0-13.45-15.49,9.26-34.32,9.79-55,5.45-1.03,3.96-.93,7.79,0,11.52,17.56,3.35,35.72,3.18,55-3.52Z"/><path class="cls-10" d="M246.41,982.7c19.78,4.89,38.37,4.78,54.93-3.95l-.93-10.05c-30.18,7.39-45.61,5.14-52-3-1.35,1.84-2.57,4.43-2,17Z"/><path class="cls-10" d="M250.14,965.7c13.64,11.31,38.85,5.55,51.21,1.44,.71-3.62,.65-7.41,0-11.33-19.57,7.15-37.28,8.85-51.21-.49-.12,3.71-.14,7.22,0,10.38Z"/><path class="cls-10" d="M250.04,953.7v-9.46c19.45,8.58,36.87,7.26,52.37-3.54v14.08c-20.58,7.42-39.13,9.79-52.37-1.08Z"/><path class="cls-10" d="M301.34,939.45c-17.05,12.08-36.7,10.71-52.93,3.25-1.07-4.16-1.33-8.51-1-13,19.88,7.06,37.79,7.53,53-1,1.56,3.68,1.95,7.27,.93,10.75Z"/><path class="cls-10" d="M247.27,928.7c20.46,6.95,37.84,6.62,52.14-1,.46-2.73,.38-5.85,0-9.17-19.03,4.75-36.09,4.3-51-1.83-1.32,2.9-1.5,7.13-1.14,12Z"/><path class="cls-10" d="M251.5,916.7c16.84,5,33.82,4.92,50.91,0,.82-4.7,.99-9.11,0-13-17.14,1.23-33.77,1.32-49.76,0-1.56,4.88-2.33,9.39-1.16,13Z"/><path class="cls-10" d="M301.91,902.14c.79-3.87,.55-9.04,0-14.6-15.3,3.66-33.28,3-52.51,.31-.33-.05-.66-.09-.98-.14-.73,5.15-.85,10.02,0,14.44,11.41,1.21,22.04,2.05,29.88,1.56,8.93,.49,17.23,.37,23.62-1.56Z"/><path class="cls-10" d="M248.74,887.75c17.67-3.16,35.4-3.03,53.17-.21-15.96,3.05-33.38,3.63-53.17,.21Z"/><path class="cls-10" d="M365.33,965.63c-4.59-5.17-20.64-3.63-30.92,6.07-15.4,14.55-15.29,22.22-10.92,28.07,4.75,6.36,19.36,1.11,29.92-7.07,12.21-9.46,17.57-20.7,11.92-27.07Z"/><path class="cls-10" d="M334.41,1014.7c12.67-3.73,23.57-7.58,31.7-17.06,3.7-4.31,6.83-9.78,9.3-16.94l-8.47-12.45c-7.53,20.31-18.21,36.19-43.45,31.53,4.24,6.78,8.85,10.74,10.92,14.93Z"/><path class="cls-10" d="M415.41,995.7v11.89c-11.37,7.07-33.93,4.37-56,2.11v-5.85s6.7-6.21,6.7-6.21c13.12,3.37,28.04,4.56,49.3-1.94Z"/><path class="cls-10" d="M373.77,984.99c10.05,3.73,24.71,2.41,40.64-.29v11.3c-14.07,4.2-29.7,5.59-48.3,1.64,3.24-3.72,5.66-8.03,7.66-12.66Z"/><path class="cls-10" d="M369.12,971.45c15.39,3,31.06,5.21,50.29-2.74v12.82c-1.28,1.64-3.07,2.51-5,3.18-16.74,2.92-30.53,3.23-40.64,.29l1.64-4.29-6.29-9.26Z"/><path class="cls-10" d="M356.04,962.72v-4.78c23.16,3.93,44.06,4.39,60.37-2.23l.61,13.94c-11.33,5.19-27.04,6.04-47.91,1.8-1.24-2.06-1.98-4.12-3.79-5.82-2.6-1.63-5.47-2.9-9.29-2.91Z"/><path class="cls-10" d="M356.41,938.7c11.02,10.65,33.94,6.91,55,4v14.35c-14.36,4.91-33.11,4.88-55.37,.88l.37-19.23Z"/><path class="cls-10" d="M356.41,927.7c17.92,6.02,37.58,5.68,59-1v14.56c-28.12,6.76-48.23,6.32-59-2.56v-11Z"/><path class="cls-10" d="M356.41,915.61c19.99,4.32,39.38,4.24,58-1.62v13.01c-19.22,6.8-38.96,5.97-59,.69l1-12.09Z"/><path class="cls-10" d="M354.41,898.7c17.42,4.4,37.08,4.83,58,3v12.9c-18.29,5.01-37.57,5.52-58,.7v-16.59Z"/><path class="cls-10" d="M361.41,899.7v-14.66c19.25,4.45,38.26,4.79,57,.66v14c-17.91,3.91-36.85,4.14-57,0Z"/><path class="cls-10" d="M360.41,869.7c19.42,6.42,39.41,7.25,60,2v13.34c-20.69,4.56-40.74,4.48-60-1.34v-14Z"/><path class="cls-10" d="M360.41,869.7c4.04-1.44,8.2-2.84,12.59-3.31,15.4-1.62,31.57-3.05,47.41,5.31-17.77,6.05-41.73,5.93-60-2Z"/><polygon class="cls-10" points="328.3 968.7 338.12 968.7 328.3 977.54 328.3 968.7"/><path class="cls-10" d="M355.41,958.7c-10.01,.93-20.38,.87-31.04,0v9.19s12.89,.81,12.89,.81c6.51-3.5,12.89-6.25,18.78-5.99l.37-4.01h-1Z"/><path class="cls-10" d="M324.37,939.29c.87,8.14,15.44,7.88,31.67,6.61v12.03c-6.81,.87-18.02,1.02-31.67,.77-.29-.38,.23-16.11,0-19.41Z"/><path class="cls-10" d="M324.37,937.92l.4-11.22c6.49,6.48,18.04,6.71,31.64,4.39l-.37,14.81c-17.38,.91-32.2,.48-31.67-7.98Z"/><path class="cls-10" d="M322.96,913.56v12.34c8.89,7.29,20.54,7.79,33.45,5.19v-3.39h-1s1-9.05,1-9.05c-12.75,3.68-23.33,2.43-31.74-3.74-.58-.43-1.15-.87-1.7-1.35Z"/><path class="cls-10" d="M325.41,905.7c.46,.18,.92,.36,1.38,.53,8.73,3.15,17.98,3.22,27.62,.97v8.1l2,.32v3.04c-11.77,2.63-22.94,3.28-31.74-3.74l.74-9.2Z"/><path class="cls-10" d="M361.41,896.7c-12.4,2.68-24.14,2.65-35.25,0l-.75,9c9.08,3.26,18.65,4.21,29,1.5v-8.5l7,1v-3Z"/><path class="cls-10" d="M328.41,889.7c10.97,1.44,21.97,1.26,33-.54v7.54c-12.07,2.46-23.51,2.75-34.06,0l1.06-7Z"/><path class="cls-10" d="M323.41,874.7c11.27,4.3,23.76,4.01,37,.92v8.08c.57,.42,1.01,.85,1,1.34v4.13c-13.25,1.91-25.7,2.19-36.74-.4l-1.26-14.07Z"/><path class="cls-10" d="M327.35,863.3c13.55,3.67,32.7,1.2,53.06-2.6v4.97l-20,4.03v5.92c-14.02,3.8-25.94,2.47-37-.92v-11.96l3.94,.56Z"/><path class="cls-10" d="M323.41,846.7c16.42,6.06,36.24,5.68,55,1v13.37c-19.7,3.9-38.62,5.91-55,1.67v-16.04Z"/><path class="cls-10" d="M325.41,833.7c19.86,3.88,38.95,4.33,57,0l.36,13c-24.81,5.99-44.62,5.5-58.36,0l1-13Z"/><path class="cls-10" d="M327.41,820.7c18.91,6.19,37.33,5.75,55.36,0l.65,13c-18.15,4.18-37.24,5.04-58.01,0v-13h2Z"/><path class="cls-10" d="M329.41,807.7c19,3.92,37.69,3.82,56-1l.58,14c-19.86,5.65-39.21,6.74-57.58-1l1-12Z"/><path class="cls-10" d="M327.41,793.7c17,3.91,34.34,3.41,52-1v14.82c-17.46,3.53-35.23,4.12-53.49,0v-14.25s1.49,.43,1.49,.43Z"/><path class="cls-10" d="M322.41,778.7c18.67,4.96,37.33,5.29,56,1v13.25c-17.46,4.46-36.04,4.7-56-.25v-14Z"/><path class="cls-10" d="M322.41,765.7c20.85,4.15,40.93,5.14,60,2l-1,12c-20.32,4.15-40.03,4.13-59-1v-13Z"/><path class="cls-10" d="M327.41,753.7c20.02,4.01,39.57,4.04,58.58-.6v14.02c-20.48,3.45-40.11,3.4-58.58-1.42v-12Z"/><path class="cls-10" d="M329.41,740.7c19.79,3.09,38.75,2.89,56.58-1.83v14.23c-18.86,3.95-37.72,3.95-56.58,0v-12.4Z"/><path class="cls-10" d="M320.41,724.7c19.11,4.39,38.46,4.53,58,1v14.45c-19.26,3.23-38.4,2.85-57.39-1.27l-.61-14.17Z"/><path class="cls-10" d="M326.41,711.7c17.74,3.39,36.49,3.27,56,.54v13c-20.44,3.01-39.82,4.25-55.95,0l-.05-13.53Z"/><path class="cls-10" d="M328.41,698.7c19.94,2.16,39.2,1.92,57.58-1.39v14.39c-18.97,3.43-38.17,3.35-57.58,0v-13Z"/><path class="cls-10" d="M319.41,682.7c19.9,3.71,40.23,4.12,61,1v14.51c-18.08,2.74-38.39,2.29-60,0l-1-15.51Z"/><path class="cls-10" d="M327.41,669.7c19.05,1.11,38.81,1.17,59.16,.38v12.62c-19.18,3.68-38.79,3.92-58.77,1.36l-.39-14.36Z"/><path class="cls-10" d="M490.41,993.2c0,3.59-12.98,6.5-29,6.5-16.02,0-29-2.91-29-6.5,0-3.59,12.98-6.5,29-6.5,16.02,0,29,2.91,29,6.5Z"/><path class="cls-10" d="M431.41,1005.7c19.99,8.42,39.67,9.16,59,.87v-13.37c-18.14,7.5-37.1,9.83-58,0l-1,12.5Z"/><path class="cls-10" d="M419.41,980.05c13.71,.22,27.96,.65,34.17-2.18v9.17c-7.69-.18-14.75,1.86-21.17,6.16-6.64,.28-12.74,.09-18-.86v-7.64c1.93,.04,3.58-1.09,5-3.18v-1.47Z"/><path class="cls-10" d="M416.81,964.92c15.12,1.25,29.78,1.11,39.6-4.22v16c-6.92,3.37-19.3,4.47-37,3.35v-11.35l-2.39,.94-.21-4.72Z"/><path class="cls-10" d="M411.41,950.4c15.32,2.71,29.75,2.45,43-1.7v12.99c-10.76,4.31-23.53,4.96-37.6,3.24l-.4-9.22-5,1.35v-6.65Z"/><path class="cls-10" d="M415.41,941.26c12.92,1.08,24.81,.36,35.44-2.56l.56,10.87c-13.19,3.27-26.52,3.41-39.99,.83v-7.7l4-1.44Z"/><path class="cls-10" d="M415.41,926.7c13.24,1.87,26,1.26,38.17-2.52v13.44c-11.06,3.56-23.73,4.86-38.17,3.64v-14.56Z"/><path class="cls-10" d="M414.41,914c14.2,3.32,27.53,2.07,40-3.75l-.83,13.93c-10.51,3.78-23.77,4.51-39.17,2.83v-13.01Z"/><path class="cls-10" d="M418.91,898.7c10.72-.1,20.44,.16,30.34,0v13.67c-9.97,3.79-22.34,4.41-36.83,2.23v-12.9c3.88-.96,5.88-1.96,6.5-3Z"/><path class="cls-10" d="M420.41,885.04c12.41,1.6,24.44,1.62,36-.34v12.96c-10.53,2.67-23.51,2.44-37.5,1.04l-.5-13,2-.66Z"/><path class="cls-10" d="M420.41,871.7c14.01,2.05,26.46,.96,37-4l.71,17c-13.83,1.22-26.72,1.62-37.71,.34v-13.34Z"/><path class="cls-10" d="M392.41,856.7c19.76,3.86,38.78,4.22,56.83,0v13.86c-8.72,2.56-18.47,2.59-28.83,1.14-5.91-3.67-15.12-5.93-28.14-6.55l.14-8.45Z"/><path class="cls-10" d="M397.47,842.36c16.11,4.54,33.57,4.49,51.94,1.34l-.17,13c-18.77,5.32-37.71,5.34-56.83,0v-14.34h5.06Z"/><path class="cls-10" d="M398.41,830.7c19.82,2.69,39.18,2.83,58,0v12.89c-21.74,3.38-41.73,4.16-57.57-1.23l-.43-11.66Z"/><path class="cls-10" d="M398.41,816.78c19.03,2.83,37.53,2.76,55.41-.82v14.74c-16.64,3.02-35.42,2.51-55.41,0v-13.92Z"/><path class="cls-10" d="M398.31,802.7c17.25-3.95,35.19-4.38,54.07,0-20.91,1.67-40.51,2.58-54.07,0Z"/><path class="cls-10" d="M398.41,816.78l-.1-14.08c18.02,2.15,36.04,2.15,54.07,0v13.26c-18.6,2.83-36.76,3.82-53.97,.82Z"/><polygon class="cls-4" points="331.41 990.7 331.41 994.43 357.88 976.24 357.88 971.38 331.41 990.7"/><polygon class="cls-4" points="449.8 993.22 448.43 995.54 473.08 994.85 474.87 991.82 449.8 993.22"/><ellipse class="cls-10" cx="442.27" cy="1010.2" rx="29" ry="6.5"/><path class="cls-10" d="M412.27,1022.7c19.99,8.42,39.67,9.16,59,.87v-13.37c-18.14,7.5-37.1,9.83-58,0l-1,12.5Z"/><polygon class="cls-4" points="430.66 1010.22 429.29 1012.54 453.94 1011.85 455.73 1008.82 430.66 1010.22"/><path class="cls-10" d="M709.27,1012.2c0,3.59-12.98,6.5-29,6.5-16.02,0-29-2.91-29-6.5,0-3.59,12.98-6.5,29-6.5,16.02,0,29,2.91,29,6.5Z"/><path class="cls-10" d="M650.27,1024.7c19.99,8.42,39.67,9.16,59,.87v-13.37c-18.14,7.5-37.1,9.83-58,0l-1,12.5Z"/><polygon class="cls-4" points="668.66 1012.22 667.29 1014.54 691.94 1013.85 693.73 1010.82 668.66 1012.22"/><polygon class="cls-4" points="379.43 870.15 378.18 872.26 400.7 871.67 402.33 868.91 379.43 870.15"/><path class="cls-10" d="M602.54,986.93c3.81-4.3,17.15-3.02,25.69,5.05,12.79,12.09,12.71,18.46,9.07,23.33-3.95,5.28-16.08,.92-24.86-5.88-10.14-7.86-14.6-17.2-9.9-22.5Z"/><path class="cls-10" d="M628.23,1027.7c-10.53-3.1-19.58-6.29-26.34-14.17-3.07-3.58-5.67-8.13-7.72-14.08l7.03-10.35c6.26,16.88,15.13,30.07,36.1,26.19-3.52,5.63-7.36,8.93-9.07,12.4Z"/><path class="cls-10" d="M560.92,1011.91v9.88c9.45,5.88,28.2,3.63,46.53,1.75v-4.86s-5.57-5.16-5.57-5.16c-10.9,2.8-23.3,3.79-40.96-1.61Z"/><path class="cls-10" d="M595.52,1003.01c-8.35,3.1-20.53,2.01-33.77-.24v9.39c11.69,3.49,24.68,4.64,40.13,1.36-2.69-3.09-4.7-6.68-6.36-10.52Z"/><path class="cls-10" d="M599.39,991.76c-12.79,2.5-25.81,4.33-41.79-2.28v10.66c1.06,1.36,2.55,2.08,4.15,2.64,13.91,2.42,25.36,2.68,33.77,.24l-1.36-3.56,5.23-7.69Z"/><path class="cls-10" d="M610.25,984.51v-3.97c-19.24,3.27-36.61,3.64-50.16-1.86l-.51,11.58c9.41,4.31,22.47,5.02,39.81,1.5,1.03-1.71,1.65-3.43,3.15-4.83,2.16-1.35,4.55-2.41,7.72-2.42Z"/><path class="cls-10" d="M609.95,964.55c-9.16,8.85-28.2,5.75-45.7,3.32v11.92c11.93,4.08,27.51,4.05,46.01,.73l-.31-15.98Z"/><path class="cls-10" d="M609.95,955.41c-14.89,5-31.23,4.72-49.02-.83v12.1c23.36,5.62,40.08,5.25,49.02-2.13v-9.14Z"/><path class="cls-10" d="M609.95,945.37c-16.61,3.59-32.72,3.52-48.19-1.34v10.81c15.97,5.65,32.37,4.96,49.02,.58l-.83-10.04Z"/><path class="cls-10" d="M611.61,931.32c-14.48,3.66-30.81,4.02-48.19,2.49v10.72c15.2,4.17,31.21,4.58,48.19,.58v-13.79Z"/><path class="cls-10" d="M605.79,932.15v-12.18c-16,3.7-31.79,3.98-47.36,.55v11.63c14.88,3.25,30.62,3.44,47.36,0Z"/><path class="cls-10" d="M606.62,907.22c-16.14,5.33-32.74,6.03-49.85,1.66v11.08c17.19,3.79,33.85,3.73,49.85-1.11v-11.63Z"/><path class="cls-10" d="M606.62,907.22c-3.36-1.2-6.81-2.36-10.46-2.75-12.79-1.35-26.23-2.53-39.39,4.41,14.76,5.03,34.67,4.93,49.85-1.66Z"/><polygon class="cls-4" points="630.72 1007.76 630.72 1010.86 608.73 995.74 608.73 991.7 630.72 1007.76"/><polygon class="cls-4" points="590.82 907.59 591.85 909.35 573.14 908.86 571.79 906.57 590.82 907.59"/><path class="cls-10" d="M500.78,997.77c-.53,3.44-.5,7.01,0,10.69,19.2,4.34,37.49,3.21,55-2.69,.79-3.93,.84-8.32,0-13.24-15.16,6.74-33.3,8.8-55,5.24Z"/><path class="cls-10" d="M553.78,992.77c.78-4.69,1-9.23,0-13.45-15.49,9.26-34.32,9.79-55,5.45-1.03,3.96-.93,7.79,0,11.52,17.56,3.35,35.72,3.18,55-3.52Z"/><path class="cls-10" d="M497.28,983.27c19.78,4.89,38.37,4.78,54.93-3.95l-.93-10.05c-30.18,7.39-45.61,5.14-52-3-1.35,1.84-2.57,4.43-2,17Z"/><path class="cls-10" d="M501.01,966.27c13.64,11.31,38.85,5.55,51.21,1.44,.71-3.62,.65-7.41,0-11.33-19.57,7.15-37.28,8.85-51.21-.49-.12,3.71-.14,7.22,0,10.38Z"/><path class="cls-10" d="M500.91,954.28v-9.46c19.45,8.58,36.87,7.26,52.37-3.54v14.08c-20.58,7.42-39.13,9.79-52.37-1.08Z"/><path class="cls-10" d="M552.21,940.02c-17.05,12.08-36.7,10.71-52.93,3.25-1.07-4.16-1.33-8.51-1-13,19.88,7.06,37.79,7.53,53-1,1.56,3.68,1.95,7.27,.93,10.75Z"/><path class="cls-10" d="M498.14,929.27c20.46,6.95,37.84,6.62,52.14-1,.46-2.73,.38-5.85,0-9.17-19.03,4.75-36.09,4.3-51-1.83-1.32,2.9-1.5,7.13-1.14,12Z"/><path class="cls-10" d="M502.37,917.27c16.84,5,33.82,4.92,50.91,0,.82-4.7,.99-9.11,0-13-17.14,1.23-33.77,1.32-49.76,0-1.56,4.88-2.33,9.39-1.16,13Z"/><path class="cls-10" d="M552.77,902.71c.79-3.87,.55-9.04,0-14.6-15.3,3.66-33.28,3-52.51,.31-.33-.05-.66-.09-.98-.14-.73,5.15-.85,10.02,0,14.44,11.41,1.21,22.04,2.05,29.88,1.56,8.93,.49,17.23,.37,23.62-1.56Z"/><path class="cls-10" d="M499.61,888.32c17.67-3.16,35.4-3.03,53.17-.21-15.96,3.05-33.38,3.63-53.17,.21Z"/></g><g><g class="cls-21"><path class="cls-6" d="M273.15,208.69C392.32,178.75,483.39,100.82,561.77,1.2L382.83,.29c-30.96,63.48-68.48,133.98-109.67,208.4Z"/><g><path class="cls-8" d="M415.67,.48c-7.48,.63-95.16,218.59-216.18,347.57L310.47,.48s112.67-.63,105.19,0Z"/><path class="cls-15" d="M332.94,.42c-51.82,200.8-123.51,376.03-244.8,487.39-14.79,32.03-36.23,45.94-60.2,52.95-15.92-2.34-25.78-9.25-29.17-21.04V1.42L332.94,.42Z"/><path class="cls-16" d="M67.63,541.29c11.26-4.25,18.78-14.12,23.26-28.54,39.04,71.55,27.89,310.64,29.05,508.65-9.62,14.13-20.21,22.91-34.16,12.95-15.7-13.96-27.72-17.71-36.3-11.95-11.07,43.14-30.7,44.87-50.18,47.34v-509.52c27.47,8.69,51.17,5.32,68.33-18.93Z"/><path class="cls-17" d="M84.85,494.43c6.62,6.07,8.03,12.18,6.04,18.32-3.29,12.99-10.8,22.69-23.26,28.54-15.69,24.31-39.06,29.11-68.33,18.93l-.53-40.49c5.35,13.62,15.17,20.49,29.17,21.04,26.53-9.66,46.51-21.95,56.91-46.34Z"/><path class="cls-14" d="M120.57,741.5l28.2,238.56c-9.4,14.22-18.8,18.96-28.2,14.22v-252.78Z"/><path class="cls-12" d="M48.04,630.81c1.41-10.72,1.24-21.95-.58-33.7-1.9-7.63-3.84-23.69-5.78-39.46,1.59,.3,3.26,.32,5.02,0,1.35,15.59,3.06,30.33,5.39,43.57,1.34,8.37,1.53,18.21,1.16,28.77-1.77,.48-3.51,.8-5.21,.82Z"/><path class="cls-13" d="M38.42,536.64c-1.19,8.84,.42,17.47,3.64,25.98,3.21,.97,6.4,.15,9.56-2.91-.98-9.87-2.61-19.09-6.37-26.19-2.53-1.02-4.85-.34-6.83,3.11Z"/><path class="cls-12" d="M56.71,550.25c1.21,15.6-1.68,34.3-5,48.79l1.7,16.41c3.51-11.73,7.15-23.35,7.93-37.25,.92-8.32,.41-17.82-.86-27.95h-3.77Z"/><path class="cls-12" d="M48.04,630.81c-4.38,4.8-4.07,9.8,0,14.96,1.83,1.24,3.74,1.49,5.71,.94,.73-.21,1.46-.52,2.21-.94,4.4-4.04,4.54-8.61,.8-13.47-1.84-2.17-2.96-2.37-3.52-2.31-1.48-.26-3.29,.17-5.21,.82Z"/><path class="cls-12" d="M53.41,648.01c0,3.84,.2,7.17,.99,9.1,.71,6.62,3.52,16.44,6.36,26.3-7.15,6.76-14.12,8.62-20.82,3.29,2.29-10.97,5.59-25.22,6.36-31.24,.58-2.51,1.16-6.03,1.74-9.7l5.71,.94-.34,1.31Z"/><path class="cls-12" d="M37.63,685.06c.81-.16,1.57,.69,2.31,1.64,1.87,2.47,4.68,3.07,9.31,3.03,2.99,.15,7.2-3.08,11.51-6.31,2.91-.51,4.65,1.66,5.21,6.58-9.52,5.57-19.52,7.42-30.07,4.93-1.09-3.89-.76-7.27,1.74-9.86Z"/><path class="cls-13" d="M52.63,557.25c2.99,1.5,5.11-.13,6.45-4.51,.43-9.54-.74-18.43-5.34-25.9-3.17,.54-5.62,2.37-7.06,5.97,1.11,7.03,3.27,15.4,5.94,24.44Z"/><path d="M59.94,1019.89c-1.71-29.53-14.03-97.83-9.92-167.83,.53,70.33,18.44,138.96,14.95,169.33l-5.02-1.5Z"/><path class="cls-8" d="M61.81,523.4c9.29-6.17,16.91-15.96,23.05-28.98l3.29-6.61C121.71,447.6,241.09,209.02,282.71,.33l-116.86,.59c-36.83,209.94-75.45,449.58-104.05,522.48Z"/><path class="cls-8" d="M29.2,565.69c1.92-.18,3.39-.26,4.8-.5,4.92,10.76-6.61,323.91-10.68,497.04-3.31,3.13-11.49,5.45-24.56,6.97,7.62-203.48,14-415.74,30.43-503.51Z"/><path class="cls-8" d="M35.07,537.3c.72-.24,1.69-.64,2.96-1.24C54.65,504.07,77.98,202.78,98.83,1.12l-63.76,.19c-2.35,203.98-12.93,496.93,0,535.99Z"/><g><path class="cls-12" d="M65.97,689.99c7.85,6.35,9.71,24.68,4.92,56.31-2.46,21.14-1.21,44.57,1.74,69.05-15.08,5.63-30.38,11.79-39.91,4.11-1.55-1.82-2.02-3.78-2.31-5.75-5.16,2.59-10.37,2.35-15.62,0,2.66-36.85,12.72-75.29,12.15-99.46,1.06-9.07,3.58-16.15,8.96-19.32,10.38,2.34,20.41,.71,30.07-4.93Z"/><path d="M37.74,734.03c-3.22,32.04-6.44,64.08-7.34,79.67l-3.16,1.23c.74-16.57,5.56-48.51,10.5-80.91Z"/><path d="M56.67,820.92c-2.2-2.36-1.63-11.21-1.31-17.66,.93,5.7,2.14,12.76,3.77,16.92l-2.45,.74Z"/><path d="M66.03,817.2c.05-1.86-.41-4.3-1.07-6.97,1.03,2.78,1.88,5.3,2.14,6.97h-1.07Z"/></g></g></g><path class="cls-9" d="M530.54-.8L723.77-.2c-70.76,92.59-187.47,142.41-338.53,160.25C438.15,117.29,487.58,66.09,530.54-.8Z"/></g><g><g class="cls-20"><path class="cls-6" d="M1674.52,238.2c-105.08-34.34-185.38-123.7-254.49-237.94,62.1-.45,125.68,.17,150.59,0,27.3,72.8,67.58,152.59,103.9,237.94Z"/><g><path class="cls-8" d="M1540.6,.27c7.31,.65,92.96,227.62,211.2,361.93L1643.36,.27s-110.08-.65-102.77,0Z"/><path class="cls-15" d="M1615.42,.2c46.89,201.6,111.75,377.51,221.49,489.32,13.38,32.16,32.78,46.12,54.47,53.16,14.4-2.35,23.33-9.29,26.4-21.13V1.2S1615.42,.2,1615.42,.2Z"/><path class="cls-16" d="M1855.46,543.2c-10.19-4.27-16.99-14.17-21.05-28.65-35.32,71.83-25.24,311.86-26.29,510.65,8.71,14.19,18.29,23,30.91,13,14.21-14.01,25.08-17.78,32.84-12,10.02,43.31,27.78,45.05,45.4,47.53v-511.53c-24.85,8.72-46.29,5.34-61.82-19Z"/><path class="cls-17" d="M1839.88,496.16c-5.99,6.1-7.27,12.23-5.46,18.39,2.98,13.05,9.78,22.78,21.05,28.65,14.2,24.41,35.34,29.23,61.82,19l.48-40.65c-4.84,13.67-13.72,20.57-26.4,21.13-24-9.7-42.08-22.04-51.49-46.52Z"/><path class="cls-14" d="M1807.56,744.2l-25.51,239.5c8.5,14.28,17.01,19.04,25.51,14.28v-253.78Z"/><path class="cls-12" d="M1873.19,633.08c-1.27-10.76-1.12-22.03,.52-33.83,1.72-7.66,3.48-23.78,5.23-39.61-1.44,.3-2.95,.32-4.54,0-1.23,15.65-2.77,30.45-4.88,43.74-1.21,8.4-1.39,18.28-1.05,28.88,1.6,.48,3.18,.8,4.71,.83Z"/><path class="cls-13" d="M1881.89,538.53c1.08,8.88-.38,17.54-3.29,26.09-2.9,.97-5.79,.15-8.65-2.92,.88-9.91,2.36-19.17,5.76-26.29,2.29-1.03,4.39-.34,6.18,3.12Z"/><path class="cls-12" d="M1865.34,552.2c-1.09,15.66,1.52,34.44,4.53,48.98l-1.54,16.48c-3.17-11.77-6.47-23.44-7.17-37.4-.83-8.35-.37-17.89,.78-28.06h3.41Z"/><path class="cls-12" d="M1873.19,633.08c3.97,4.82,3.69,9.84,0,15.02-1.66,1.25-3.38,1.5-5.17,.94-.66-.21-1.32-.52-2-.94-3.98-4.06-4.1-8.64-.73-13.53,1.67-2.18,2.68-2.38,3.18-2.32,1.34-.26,2.97,.17,4.71,.83Z"/><path class="cls-12" d="M1868.33,650.35c0,3.86-.18,7.2-.89,9.13-.64,6.65-3.18,16.5-5.76,26.41,6.47,6.79,12.78,8.66,18.84,3.3-2.08-11.02-5.06-25.32-5.76-31.36-.52-2.52-1.05-6.05-1.57-9.74l-5.17,.94,.31,1.31Z"/><path class="cls-12" d="M1882.61,687.54c-.74-.16-1.42,.69-2.09,1.65-1.69,2.48-4.23,3.08-8.42,3.04-2.7,.15-6.51-3.09-10.42-6.34-2.63-.52-4.21,1.67-4.71,6.6,8.62,5.59,17.66,7.45,27.21,4.95,.99-3.91,.68-7.3-1.57-9.9Z"/><path class="cls-13" d="M1869.03,559.23c-2.7,1.51-4.62-.13-5.84-4.53-.39-9.58,.67-18.5,4.83-26,2.87,.55,5.08,2.38,6.38,5.99-1.01,7.06-2.96,15.46-5.37,24.54Z"/><path d="M1862.42,1023.69c1.55-29.64,12.7-98.22,8.98-168.49-.48,70.61-16.68,139.5-13.52,170l4.55-1.51Z"/><path class="cls-8" d="M1860.73,525.25c-8.4-6.2-15.3-16.03-20.85-29.09l-2.97-6.64c-30.37-40.37-138.38-279.89-176.04-489.41l105.73,.59c33.33,210.77,68.27,451.36,94.14,524.54Z"/><path class="cls-8" d="M1890.24,567.7c-1.74-.18-3.07-.26-4.35-.5-4.45,10.8,5.98,325.19,9.66,499,2.99,3.14,10.39,5.48,22.22,7-6.89-204.28-12.67-417.38-27.53-505.5Z"/><path class="cls-8" d="M1884.92,539.2c-.66-.24-1.53-.64-2.68-1.24-15.04-32.12-36.14-334.6-55.01-537.06l57.69,.19c2.12,204.79,11.7,498.89,0,538.11Z"/><g><path class="cls-12" d="M1856.97,692.49c-7.1,6.38-8.78,24.78-4.45,56.53,2.23,21.23,1.09,44.75-1.57,69.32,13.65,5.66,27.49,11.83,36.11,4.13,1.4-1.83,1.83-3.79,2.09-5.78,4.67,2.6,9.38,2.36,14.13,0-2.41-36.99-11.51-75.59-10.99-99.85-.96-9.1-3.24-16.21-8.11-19.39-9.39,2.35-18.47,.72-27.21-4.95Z"/><path d="M1882.51,736.7c2.92,32.17,5.83,64.34,6.64,79.99l2.86,1.24c-.67-16.64-5.03-48.7-9.5-81.23Z"/><path d="M1865.38,823.94c1.99-2.37,1.48-11.25,1.19-17.73-.84,5.72-1.94,12.81-3.41,16.99l2.22,.75Z"/><path d="M1856.91,820.2c-.04-1.86,.37-4.31,.97-7-.94,2.8-1.7,5.32-1.93,7h.97Z"/></g></g></g><path class="cls-9" d="M1420.03,.26l-186.5,.65c68.3,99.55,180.94,153.12,326.75,172.29-51.07-45.98-98.78-101.03-140.25-172.94Z"/><path class="cls-19" d="M1311.31,.2l-240.07,.65c101.67,99.55,269.35,153.12,486.4,172.29-89.59-32.36-221.62-63.87-246.32-172.94Z"/></g><g><polygon class="cls-4" points="1268.88 1041.22 1270.25 1043.54 1245.6 1042.85 1243.81 1039.82 1268.88 1041.22"/><ellipse class="cls-11" cx="1008.2" cy="1043.46" rx="29" ry="6.5"/><path class="cls-11" d="M1038.2,1055.96c-19.99,8.42-39.67,9.16-59,.87v-13.37c18.14,7.5,37.1,9.83,58,0l1,12.5Z"/><polygon class="cls-5" points="1019.81 1043.47 1021.18 1045.79 996.53 1045.1 994.75 1042.08 1019.81 1043.47"/><path class="cls-11" d="M1085.93,1018.18c-3.81-4.3-17.15-3.02-25.69,5.05-12.79,12.09-12.71,18.46-9.07,23.33,3.95,5.28,16.08,.92,24.86-5.88,10.14-7.86,14.6-17.2,9.9-22.5Z"/><path class="cls-11" d="M1060.24,1058.96c10.53-3.1,19.58-6.29,26.34-14.17,3.07-3.58,5.67-8.13,7.72-14.08l-7.03-10.35c-6.26,16.88-15.13,30.07-36.1,26.19,3.52,5.63,7.36,8.93,9.07,12.4Z"/><path class="cls-11" d="M1127.55,1043.17v9.88c-9.45,5.88-28.2,3.63-46.53,1.75v-4.86l5.57-5.16c10.9,2.8,23.3,3.79,40.96-1.61Z"/><path class="cls-11" d="M1092.95,1034.27c8.35,3.1,20.53,2.01,33.77-.24v9.39c-11.69,3.49-24.68,4.64-40.13,1.36,2.69-3.09,4.7-6.68,6.36-10.52Z"/><path class="cls-11" d="M1089.08,1023.01c12.79,2.5,25.81,4.33,41.79-2.28v10.66c-1.06,1.36-2.55,2.08-4.15,2.64-13.91,2.42-25.36,2.68-33.77,.24l1.36-3.56-5.23-7.69Z"/><path class="cls-11" d="M1078.22,1015.76v-3.97c19.24,3.27,36.61,3.64,50.16-1.86l.51,11.58c-9.41,4.31-22.47,5.02-39.81,1.5-1.03-1.71-1.65-3.43-3.15-4.83-2.16-1.35-4.55-2.41-7.72-2.42Z"/><path class="cls-11" d="M1078.52,995.81c9.16,8.85,28.2,5.75,45.7,3.32v11.92c-11.93,4.08-27.51,4.05-46.01,.73l.31-15.98Z"/><path class="cls-11" d="M1078.52,986.67c14.89,5,31.23,4.72,49.02-.83v12.1c-23.36,5.62-40.08,5.25-49.02-2.13v-9.14Z"/><path class="cls-11" d="M1078.52,976.62c16.61,3.59,32.72,3.52,48.19-1.34v10.81c-15.97,5.65-32.37,4.96-49.02,.58l.83-10.04Z"/><path class="cls-11" d="M1076.86,962.57c14.48,3.66,30.81,4.02,48.19,2.49v10.72c-15.2,4.17-31.21,4.58-48.19,.58v-13.79Z"/><path class="cls-11" d="M1082.68,963.4v-12.18c16,3.7,31.79,3.98,47.36,.55v11.63c-14.88,3.25-30.62,3.44-47.36,0Z"/><path class="cls-11" d="M1081.85,938.47c16.14,5.33,32.74,6.03,49.85,1.66v11.08c-17.19,3.79-33.85,3.73-49.85-1.11v-11.63Z"/><path class="cls-11" d="M1081.85,938.47c3.36-1.2,6.81-2.36,10.46-2.75,12.79-1.35,26.23-2.53,39.39,4.41-14.76,5.03-34.67,4.93-49.85-1.66Z"/><polygon class="cls-5" points="1057.75 1039.01 1057.75 1042.11 1079.74 1027 1079.74 1022.96 1057.75 1039.01"/><polygon class="cls-5" points="1097.65 938.85 1096.62 940.6 1115.33 940.11 1116.68 937.82 1097.65 938.85"/><path class="cls-11" d="M1187.69,1029.03c.53,3.44,.5,7.01,0,10.69-19.2,4.34-37.49,3.21-55-2.69-.79-3.93-.84-8.32,0-13.24,15.16,6.74,33.3,8.8,55,5.24Z"/><path class="cls-11" d="M1134.69,1024.03c-.78-4.69-1-9.23,0-13.45,15.49,9.26,34.32,9.79,55,5.45,1.03,3.96,.93,7.79,0,11.52-17.56,3.35-35.72,3.18-55-3.52Z"/><path class="cls-11" d="M1191.19,1014.53c-19.78,4.89-38.37,4.78-54.93-3.95l.93-10.05c30.18,7.39,45.61,5.14,52-3,1.35,1.84,2.57,4.43,2,17Z"/><path class="cls-11" d="M1187.46,997.53c-13.64,11.31-38.85,5.55-51.21,1.44-.71-3.62-.65-7.41,0-11.33,19.57,7.15,37.28,8.85,51.21-.49,.12,3.71,.14,7.22,0,10.38Z"/><path class="cls-11" d="M1187.56,985.53v-9.46c-19.45,8.58-36.87,7.26-52.37-3.54v14.08c20.58,7.42,39.13,9.79,52.37-1.08Z"/><path class="cls-11" d="M1136.26,971.28c17.05,12.08,36.7,10.71,52.93,3.25,1.07-4.16,1.33-8.51,1-13-19.88,7.06-37.79,7.53-53-1-1.56,3.68-1.95,7.27-.93,10.75Z"/><path class="cls-11" d="M1190.33,960.53c-20.46,6.95-37.84,6.62-52.14-1-.46-2.73-.38-5.85,0-9.17,19.03,4.75,36.09,4.3,51-1.83,1.32,2.9,1.5,7.13,1.14,12Z"/><path class="cls-11" d="M1186.1,948.53c-16.84,5-33.82,4.92-50.91,0-.82-4.7-.99-9.11,0-13,17.14,1.23,33.77,1.32,49.76,0,1.56,4.88,2.33,9.39,1.16,13Z"/><path class="cls-11" d="M1135.7,933.96c-.79-3.87-.55-9.04,0-14.6,15.3,3.66,33.28,3,52.51,.31,.33-.05,.66-.09,.98-.14,.73,5.15,.85,10.02,0,14.44-11.41,1.21-22.04,2.05-29.88,1.56-8.93,.49-17.23,.37-23.62-1.56Z"/><path class="cls-11" d="M1188.86,919.57c-17.67-3.16-35.4-3.03-53.17-.21,15.96,3.05,33.38,3.63,53.17,.21Z"/><g class="cls-18"><path class="cls-10" d="M1687.63,1026.2c.53,3.44,.5,7.01,0,10.69-19.2,4.34-37.49,3.21-55-2.69-.79-3.93-.84-8.32,0-13.24,15.16,6.74,33.3,8.8,55,5.24Z"/><path class="cls-10" d="M1634.63,1021.2c-.78-4.69-1-9.23,0-13.45,15.49,9.26,34.32,9.79,55,5.45,1.03,3.96,.93,7.79,0,11.52-17.56,3.35-35.72,3.18-55-3.52Z"/><path class="cls-10" d="M1691.13,1011.7c-19.78,4.89-38.37,4.78-54.93-3.95l.93-10.05c30.18,7.39,45.61,5.14,52-3,1.35,1.84,2.57,4.43,2,17Z"/><path class="cls-10" d="M1687.4,994.7c-13.64,11.31-38.85,5.55-51.21,1.44-.71-3.62-.65-7.41,0-11.33,19.57,7.15,37.28,8.85,51.21-.49,.12,3.71,.14,7.22,0,10.38Z"/><path class="cls-10" d="M1687.5,982.7v-9.46c-19.45,8.58-36.87,7.26-52.37-3.54v14.08c20.58,7.42,39.13,9.79,52.37-1.08Z"/><path class="cls-10" d="M1636.19,968.45c17.05,12.08,36.7,10.71,52.93,3.25,1.07-4.16,1.33-8.51,1-13-19.88,7.06-37.79,7.53-53-1-1.56,3.68-1.95,7.27-.93,10.75Z"/><path class="cls-10" d="M1690.26,957.7c-20.46,6.95-37.84,6.62-52.14-1-.46-2.73-.38-5.85,0-9.17,19.03,4.75,36.09,4.3,51-1.83,1.32,2.9,1.5,7.13,1.14,12Z"/><path class="cls-10" d="M1686.04,945.7c-16.84,5-33.82,4.92-50.91,0-.82-4.7-.99-9.11,0-13,17.14,1.23,33.77,1.32,49.76,0,1.56,4.88,2.33,9.39,1.16,13Z"/><path class="cls-10" d="M1635.63,931.14c-.79-3.87-.55-9.04,0-14.6,15.3,3.66,33.28,3,52.51,.31,.33-.05,.66-.09,.98-.14,.73,5.15,.85,10.02,0,14.44-11.41,1.21-22.04,2.05-29.88,1.56-8.93,.49-17.23,.37-23.62-1.56Z"/><path class="cls-10" d="M1688.8,916.75c-17.67-3.16-35.4-3.03-53.17-.21,15.96,3.05,33.38,3.63,53.17,.21Z"/><path class="cls-10" d="M1572.21,994.63c4.59-5.17,20.64-3.63,30.92,6.07,15.4,14.55,15.29,22.22,10.92,28.07-4.75,6.36-19.36,1.11-29.92-7.07-12.21-9.46-17.57-20.7-11.92-27.07Z"/><path class="cls-10" d="M1603.13,1043.7c-12.67-3.73-23.57-7.58-31.7-17.06-3.7-4.31-6.83-9.78-9.3-16.94l8.47-12.45c7.53,20.31,18.21,36.19,43.45,31.53-4.24,6.78-8.85,10.74-10.92,14.93Z"/><path class="cls-10" d="M1522.13,1024.7v11.89c11.37,7.07,33.93,4.37,56,2.11v-5.85s-6.7-6.21-6.7-6.21c-13.12,3.37-28.04,4.56-49.3-1.94Z"/><path class="cls-10" d="M1563.77,1013.99c-10.05,3.73-24.71,2.41-40.64-.29v11.3c14.07,4.2,29.7,5.59,48.3,1.64-3.24-3.72-5.66-8.03-7.66-12.66Z"/><path class="cls-10" d="M1568.42,1000.45c-15.39,3-31.06,5.21-50.29-2.74v12.82c1.28,1.64,3.07,2.51,5,3.18,16.74,2.92,30.53,3.23,40.64,.29l-1.64-4.29,6.29-9.26Z"/><path class="cls-10" d="M1581.5,991.72v-4.78c-23.16,3.93-44.06,4.39-60.37-2.23l-.61,13.94c11.33,5.19,27.04,6.04,47.91,1.8,1.24-2.06,1.98-4.12,3.79-5.82,2.6-1.63,5.47-2.9,9.29-2.91Z"/><path class="cls-10" d="M1581.13,967.7c-11.02,10.65-33.94,6.91-55,4v14.35c14.36,4.91,33.11,4.88,55.37,.88l-.37-19.23Z"/><path class="cls-10" d="M1581.13,956.7c-17.92,6.02-37.58,5.68-59-1v14.56c28.12,6.76,48.23,6.32,59-2.56v-11Z"/><path class="cls-10" d="M1581.13,944.61c-19.99,4.32-39.38,4.24-58-1.62v13.01c19.22,6.8,38.96,5.97,59,.69l-1-12.09Z"/><path class="cls-10" d="M1583.13,927.7c-17.42,4.4-37.08,4.83-58,3v12.9c18.29,5.01,37.57,5.52,58,.7v-16.59Z"/><path class="cls-10" d="M1576.13,928.7v-14.66c-19.25,4.45-38.26,4.79-57,.66v14c17.91,3.91,36.85,4.14,57,0Z"/><path class="cls-10" d="M1577.13,898.7c-19.42,6.42-39.41,7.25-60,2v13.34c20.69,4.56,40.74,4.48,60-1.34v-14Z"/><path class="cls-10" d="M1577.13,898.7c-4.04-1.44-8.2-2.84-12.59-3.31-15.4-1.62-31.57-3.05-47.41,5.31,17.77,6.05,41.73,5.93,60-2Z"/><polygon class="cls-10" points="1609.23 997.7 1599.42 997.7 1609.23 1006.54 1609.23 997.7"/><path class="cls-10" d="M1582.13,987.7c10.01,.93,20.38,.87,31.04,0v9.19s-12.89,.81-12.89,.81c-6.51-3.5-12.89-6.25-18.78-5.99l-.37-4.01h1Z"/><path class="cls-10" d="M1613.17,968.29c-.87,8.14-15.44,7.88-31.67,6.61v12.03c6.81,.87,18.02,1.02,31.67,.77,.29-.38-.23-16.11,0-19.41Z"/><path class="cls-10" d="M1613.17,966.92l-.4-11.22c-6.49,6.48-18.04,6.71-31.64,4.39l.37,14.81c17.38,.91,32.2,.48,31.67-7.98Z"/><path class="cls-10" d="M1614.57,942.56v12.34c-8.89,7.29-20.54,7.79-33.45,5.19v-3.39h1s-1-9.05-1-9.05c12.75,3.68,23.33,2.43,31.74-3.74,.58-.43,1.15-.87,1.7-1.35Z"/><path class="cls-10" d="M1612.13,934.7c-.46,.18-.92,.36-1.38,.53-8.73,3.15-17.98,3.22-27.62,.97v8.1s-2,.32-2,.32v3.04c11.77,2.63,22.94,3.28,31.74-3.74l-.74-9.2Z"/><path class="cls-10" d="M1576.13,925.7c12.4,2.68,24.14,2.65,35.25,0l.75,9c-9.08,3.26-18.65,4.21-29,1.5v-8.5s-7,1-7,1v-3Z"/><path class="cls-10" d="M1609.13,918.7c-10.97,1.44-21.97,1.26-33-.54v7.54c12.07,2.46,23.51,2.75,34.06,0l-1.06-7Z"/><path class="cls-10" d="M1614.13,903.7c-11.27,4.3-23.76,4.01-37,.92v8.08c-.57,.42-1.01,.85-1,1.34v4.13c13.25,1.91,25.7,2.19,36.74-.4l1.26-14.07Z"/><path class="cls-10" d="M1610.19,892.3c-13.55,3.67-32.7,1.2-53.06-2.6v4.97s20,4.03,20,4.03v5.92c14.02,3.8,25.94,2.47,37-.92v-11.96s-3.94,.56-3.94,.56Z"/><path class="cls-10" d="M1614.13,875.7c-16.42,6.06-36.24,5.68-55,1v13.37c19.7,3.9,38.62,5.91,55,1.67v-16.04Z"/><path class="cls-10" d="M1612.13,862.7c-19.86,3.88-38.95,4.33-57,0l-.36,13c24.81,5.99,44.62,5.5,58.36,0l-1-13Z"/><path class="cls-10" d="M1610.13,849.7c-18.91,6.19-37.33,5.75-55.36,0l-.65,13c18.15,4.18,37.24,5.04,58.01,0v-13s-2,0-2,0Z"/><path class="cls-10" d="M1608.13,836.7c-19,3.92-37.69,3.82-56-1l-.58,14c19.86,5.65,39.21,6.74,57.58-1l-1-12Z"/><path class="cls-10" d="M1610.13,822.7c-17,3.91-34.34,3.41-52-1v14.82c17.46,3.53,35.23,4.12,53.49,0v-14.25s-1.49,.43-1.49,.43Z"/><path class="cls-10" d="M1615.13,807.7c-18.67,4.96-37.33,5.29-56,1v13.25c17.46,4.46,36.04,4.7,56-.25v-14Z"/><path class="cls-10" d="M1615.13,794.7c-20.85,4.15-40.93,5.14-60,2l1,12c20.32,4.15,40.03,4.13,59-1v-13Z"/><path class="cls-10" d="M1610.13,782.7c-20.02,4.01-39.57,4.04-58.58-.6v14.02c20.48,3.45,40.11,3.4,58.58-1.42v-12Z"/><path class="cls-10" d="M1608.13,769.7c-19.79,3.09-38.75,2.89-56.58-1.83v14.23c18.86,3.95,37.72,3.95,56.58,0v-12.4Z"/><path class="cls-10" d="M1617.13,753.7c-19.11,4.39-38.46,4.53-58,1v14.45c19.26,3.23,38.4,2.85,57.39-1.27l.61-14.17Z"/><path class="cls-10" d="M1611.13,740.7c-17.74,3.39-36.49,3.27-56,.54v13c20.44,3.01,39.82,4.25,55.95,0l.05-13.53Z"/><path class="cls-10" d="M1609.13,727.7c-19.94,2.16-39.2,1.92-57.58-1.39v14.39c18.97,3.43,38.17,3.35,57.58,0v-11.93s0-1.07,0-1.07Z"/><path class="cls-10" d="M1618.13,711.7c-19.9,3.71-40.23,4.12-61,1v14.51c18.08,2.74,38.39,2.29,60,0l1-15.51Z"/><path class="cls-10" d="M1610.13,698.7c-19.05,1.11-38.81,1.17-59.16,.38v12.62c19.18,3.68,38.79,3.92,58.77,1.36l.39-14.36Z"/><ellipse class="cls-10" cx="1476.13" cy="1022.2" rx="29" ry="6.5"/><path class="cls-10" d="M1506.13,1034.7c-19.99,8.42-39.67,9.16-59,.87v-13.37c18.14,7.5,37.1,9.83,58,0l1,12.5Z"/><path class="cls-10" d="M1518.13,1009.05c-13.71,.22-27.96,.65-34.17-2.18v9.17c7.69-.18,14.75,1.86,21.17,6.16,6.64,.28,12.74,.09,18-.86v-7.64c-1.93,.04-3.58-1.09-5-3.18v-1.47Z"/><path class="cls-10" d="M1520.72,993.92c-15.12,1.25-29.78,1.11-39.6-4.22v16c6.92,3.37,19.3,4.47,37,3.35v-11.35s2.39,.94,2.39,.94l.21-4.72Z"/><path class="cls-10" d="M1526.13,979.4c-15.32,2.71-29.75,2.45-43-1.7v12.99c10.76,4.31,23.53,4.96,37.6,3.24l.4-9.22,5,1.35v-6.65Z"/><path class="cls-10" d="M1522.13,970.26c-12.92,1.08-24.81,.36-35.44-2.56l-.56,10.87c13.19,3.27,26.52,3.41,39.99,.83v-7.7s-4-1.44-4-1.44Z"/><path class="cls-10" d="M1522.13,955.7c-13.24,1.87-26,1.26-38.17-2.52v13.44c11.06,3.56,23.73,4.86,38.17,3.64v-14.56Z"/><path class="cls-10" d="M1523.13,943c-14.2,3.32-27.53,2.07-40-3.75l.83,13.93c10.51,3.78,23.77,4.51,39.17,2.83v-13.01Z"/><path class="cls-10" d="M1518.63,927.7c-10.72-.1-20.44,.16-30.34,0v13.67c9.97,3.79,22.34,4.41,36.83,2.23v-12.9c-3.88-.96-5.88-1.96-6.5-3Z"/><path class="cls-10" d="M1517.13,914.04c-12.41,1.6-24.44,1.62-36-.34v12.96c10.53,2.67,23.51,2.44,37.5,1.04l.5-13-2-.66Z"/><path class="cls-10" d="M1517.13,900.7c-14.01,2.05-26.46,.96-37-4l-.71,17c13.83,1.22,26.72,1.62,37.71,.34v-13.34Z"/><path class="cls-10" d="M1545.13,885.7c-19.76,3.86-38.78,4.22-56.83,0v13.86c8.72,2.56,18.47,2.59,28.83,1.14,5.91-3.67,15.12-5.93,28.14-6.55l-.14-8.45Z"/><path class="cls-10" d="M1540.07,871.36c-16.11,4.54-33.57,4.49-51.94,1.34l.17,13c18.77,5.32,37.71,5.34,56.83,0v-14.34s-5.06,0-5.06,0Z"/><path class="cls-10" d="M1539.13,859.7c-19.82,2.69-39.18,2.83-58,0v12.89c21.74,3.38,41.73,4.16,57.57-1.23l.43-11.66Z"/><path class="cls-10" d="M1539.13,845.78c-19.03,2.83-37.53,2.76-55.41-.82v14.74c16.64,3.02,35.42,2.51,55.41,0v-13.92Z"/><path class="cls-10" d="M1539.22,831.7c-17.25-3.95-35.19-4.38-54.07,0,20.91,1.67,40.51,2.58,54.07,0Z"/><path class="cls-10" d="M1539.13,845.78l.1-14.08c-18.02,2.15-36.04,2.15-54.07,0v13.26c18.6,2.83,36.76,3.82,53.97,.82Z"/><polygon class="cls-4" points="1606.13 1019.7 1606.13 1023.43 1579.66 1005.24 1579.66 1000.38 1606.13 1019.7"/><polygon class="cls-4" points="1487.73 1022.22 1489.1 1024.54 1464.46 1023.85 1462.67 1020.82 1487.73 1022.22"/><ellipse class="cls-10" cx="1495.27" cy="1039.2" rx="29" ry="6.5"/><path class="cls-10" d="M1525.27,1051.7c-19.99,8.42-39.67,9.16-59,.87v-13.37c18.14,7.5,37.1,9.83,58,0l1,12.5Z"/><polygon class="cls-4" points="1506.88 1039.22 1508.25 1041.54 1483.6 1040.85 1481.81 1037.82 1506.88 1039.22"/><ellipse class="cls-10" cx="1257.27" cy="1041.2" rx="29" ry="6.5"/><path class="cls-10" d="M1287.27,1053.7c-19.99,8.42-39.67,9.16-59,.87v-13.37c18.14,7.5,37.1,9.83,58,0l1,12.5Z"/><polygon class="cls-4" points="1558.1 899.15 1559.35 901.26 1536.84 900.67 1535.2 897.91 1558.1 899.15"/><path class="cls-10" d="M1335,1015.93c-3.81-4.3-17.15-3.02-25.69,5.05-12.79,12.09-12.71,18.46-9.07,23.33,3.95,5.28,16.08,.92,24.86-5.88,10.14-7.86,14.6-17.2,9.9-22.5Z"/><path class="cls-10" d="M1309.31,1056.7c10.53-3.1,19.58-6.29,26.34-14.17,3.07-3.58,5.67-8.13,7.72-14.08l-7.03-10.35c-6.26,16.88-15.13,30.07-36.1,26.19,3.52,5.63,7.36,8.93,9.07,12.4Z"/><path class="cls-10" d="M1376.61,1040.91v9.88c-9.45,5.88-28.2,3.63-46.53,1.75v-4.86l5.57-5.16c10.9,2.8,23.3,3.79,40.96-1.61Z"/><path class="cls-10" d="M1342.02,1032.01c8.35,3.1,20.53,2.01,33.77-.24v9.39c-11.69,3.49-24.68,4.64-40.13,1.36,2.69-3.09,4.7-6.68,6.36-10.52Z"/><path class="cls-10" d="M1338.15,1020.76c12.79,2.5,25.81,4.33,41.79-2.28v10.66c-1.06,1.36-2.55,2.08-4.15,2.64-13.91,2.42-25.36,2.68-33.77,.24l1.36-3.56-5.23-7.69Z"/><path class="cls-10" d="M1327.28,1013.51v-3.97c19.24,3.27,36.61,3.64,50.16-1.86l.51,11.58c-9.41,4.31-22.47,5.02-39.81,1.5-1.03-1.71-1.65-3.43-3.15-4.83-2.16-1.35-4.55-2.41-7.72-2.42Z"/><path class="cls-10" d="M1327.59,993.55c9.16,8.85,28.2,5.75,45.7,3.32v11.92c-11.93,4.08-27.51,4.05-46.01,.73l.31-15.98Z"/><path class="cls-10" d="M1327.59,984.41c14.89,5,31.23,4.72,49.02-.83v12.1c-23.36,5.62-40.08,5.25-49.02-2.13v-9.14Z"/><path class="cls-10" d="M1327.59,974.37c16.61,3.59,32.72,3.52,48.19-1.34v10.81c-15.97,5.65-32.37,4.96-49.02,.58l.83-10.04Z"/><path class="cls-10" d="M1325.93,960.32c14.48,3.66,30.81,4.02,48.19,2.49v10.72c-15.2,4.17-31.21,4.58-48.19,.58v-13.79Z"/><path class="cls-10" d="M1331.74,961.15v-12.18c16,3.7,31.79,3.98,47.36,.55v11.63c-14.88,3.25-30.62,3.44-47.36,0Z"/><path class="cls-10" d="M1330.91,936.22c16.14,5.33,32.74,6.03,49.85,1.66v11.08c-17.19,3.79-33.85,3.73-49.85-1.11v-11.63Z"/><path class="cls-10" d="M1330.91,936.22c3.36-1.2,6.81-2.36,10.46-2.75,12.79-1.35,26.23-2.53,39.39,4.41-14.76,5.03-34.67,4.93-49.85-1.66Z"/><polygon class="cls-4" points="1306.82 1036.76 1306.82 1039.86 1328.81 1024.74 1328.81 1020.7 1306.82 1036.76"/><polygon class="cls-4" points="1346.72 936.59 1345.68 938.35 1364.39 937.86 1365.75 935.57 1346.72 936.59"/><path class="cls-10" d="M1436.76,1026.77c.53,3.44,.5,7.01,0,10.69-19.2,4.34-37.49,3.21-55-2.69-.79-3.93-.84-8.32,0-13.24,15.16,6.74,33.3,8.8,55,5.24Z"/><path class="cls-10" d="M1383.76,1021.77c-.78-4.69-1-9.23,0-13.45,15.49,9.26,34.32,9.79,55,5.45,1.03,3.96,.93,7.79,0,11.52-17.56,3.35-35.72,3.18-55-3.52Z"/><path class="cls-10" d="M1440.26,1012.27c-19.78,4.89-38.37,4.78-54.93-3.95l.93-10.05c30.18,7.39,45.61,5.14,52-3,1.35,1.84,2.57,4.43,2,17Z"/><path class="cls-10" d="M1436.53,995.27c-13.64,11.31-38.85,5.55-51.21,1.44-.71-3.62-.65-7.41,0-11.33,19.57,7.15,37.28,8.85,51.21-.49,.12,3.71,.14,7.22,0,10.38Z"/><path class="cls-10" d="M1436.63,983.28v-9.46c-19.45,8.58-36.87,7.26-52.37-3.54v14.08c20.58,7.42,39.13,9.79,52.37-1.08Z"/><path class="cls-10" d="M1385.32,969.02c17.05,12.08,36.7,10.71,52.93,3.25,1.07-4.16,1.33-8.51,1-13-19.88,7.06-37.79,7.53-53-1-1.56,3.68-1.95,7.27-.93,10.75Z"/><path class="cls-10" d="M1439.39,958.27c-20.46,6.95-37.84,6.62-52.14-1-.46-2.73-.38-5.85,0-9.17,19.03,4.75,36.09,4.3,51-1.83,1.32,2.9,1.5,7.13,1.14,12Z"/><path class="cls-10" d="M1435.17,946.27c-16.84,5-33.82,4.92-50.91,0-.82-4.7-.99-9.11,0-13,17.14,1.23,33.77,1.32,49.76,0,1.56,4.88,2.33,9.39,1.16,13Z"/><path class="cls-10" d="M1384.76,931.71c-.79-3.87-.55-9.04,0-14.6,15.3,3.66,33.28,3,52.51,.31,.33-.05,.66-.09,.98-.14,.73,5.15,.85,10.02,0,14.44-11.41,1.21-22.04,2.05-29.88,1.56-8.93,.49-17.23,.37-23.62-1.56Z"/><path class="cls-10" d="M1437.93,917.32c-17.67-3.16-35.4-3.03-53.17-.21,15.96,3.05,33.38,3.63,53.17,.21Z"/><ellipse class="cls-10" cx="1570.25" cy="900.64" rx="29" ry="6.5"/><path class="cls-10" d="M1600.25,913.14c-19.99,8.42-39.67,9.16-59,.87v-13.37c18.14,7.5,37.1,9.83,58,0l1,12.5Z"/><polygon class="cls-4" points="1581.86 900.66 1583.23 902.98 1558.58 902.29 1556.79 899.26 1581.86 900.66"/></g></g></g><g id="Layer_2"><g><path d="M737.19,462.16l-.02-8.25c11.66-3.05,13.4-4.7,17.59-35.73l-.14-120.23c-15.57,54.92-40.04,140.52-50.09,164.83l-7.34-.45c-7.24-26.78-31.28-107.71-47.44-160.98-3.28,103.15-4.46,126.6-3.4,132.03,3.07,15.72,8.32,18.06,19.86,20.83l.02,8.25-49.91,.21-.02-8.25c8.51-2.72,14.64-6.02,18.89-21.3,3.41-12.26,1.54-23.5,6.56-131.16-.72-13.14-2.67-18.4-19.86-22.6l-.02-8.25,42.89-2.43,44.44,148.95,45.79-147.1,36.86-.16,.02,8.25c-14.91,6.29-17.04,9.14-19.93,26.31l1.18,113.15c2.96,28.38,4.14,29,20.11,35.57l.02,8.25-56.02,.24Z"/><path d="M1413.7,455.69c-.17-2.04-.24-4.1-.32-6.16-.17-5.01-.52-10.12-.38-15.09,.13-4.36-.9-8.82-2.98-12.1-1.59-2.24-2.27-1.6-3.4,1.92-3.85,13.14-9.52,22.75-14.06,27.23-5.9,6.09-11.11,7.37-17.23,8.65-8.62,1.92-24.72,1.92-30.16,.32-4.99-1.28-5.44-7.05-5.44-10.89,0-16.98,1.13-37.16,1.13-54.46,0-5.13,.68-7.05,2.04-7.05,9.52,0,25.85-1.28,32.2-2.24,2.27-.32,2.49,2.24,3.17,4.8,2.72,12.49,4.99,17.3,9.07,21.46,1.59,1.6,3.17,.64,3.17-2.88,0-17.62,.68-41.64,5.44-57.02,1.36-4.48-.23-4.16-2.04-3.2-3.85,1.6-9.3,4.17-10.2,6.09-1.36,2.56-2.49,6.73-4.08,8.97-2.27,3.2-4.53,3.52-8.39,3.52-10.2,0-24.03-.64-27.21-2.88-.91-.64-2.95-1.28-2.95-4.8,0-18.26-.23-39.72-.23-53.82,0-.87,.1-2.34,.69-3.94,2.22-6.03,9.22-6.56,13.14-6.91,25.62-2.32,32.11-7.35,36.28,0,.89,1.57,2.1,4.46,2.27,9.61-2.01-4.76-6.34-5.95-9.07-3.2-2.64,2.65-2.98,8.16-1.42,11.78,1.36,3.15,3.94,4.36,5.96,4.24,3.53-.2,5.7-4.31,6.8-6.41,.41-.78,3.88-7.65,2.27-16.02-1.03-5.35-3.59-8.49-4.53-9.61-6.53-7.78-16.23-6.03-22.63-5.09-2.19,.32-26.51,3.78-47.65,1.89-5.55-.5-11.12-.21-16.68-.03-5.36,.17-10.68-.72-16.03-1.36-.26,2.97-.72,5.9-1.38,8.73,6.46,2.38,12.32,7.71,16.64,14.88,3.55,20.04,3.16,80.41,3.16,90.5,0,23.39-.91,52.22-2.49,58.3-.88,3.42-1.63,6.56-3.65,8.99-1.92,2.3-4.4,3.69-6.93,3.71,.06,3.89-.13,7.78-.59,11.62,3,.31,6.01,.5,9.02,.58,2.39,.06,4.66-.61,7.02-.51,2.75,.13,5.52-.04,8.28-.04,17.01,0,33.99,1.06,50.98,1.83,4.4,.2,8.8,.43,13.2,.41,2.48-.01,5-.68,7.53-.77,3.2-.12,6.4-.23,9.6-.35,2.34-.09,4.71-.18,6.97-1.08,2.25-.9,4.42-2.71,5.63-5.54,1.04-2.41,1.3-5.35,1.21-8.17-.09-2.82-.52-5.59-.75-8.4Z"/><path d="M593.2,422.64c-13.42-57.43-23.14-98.42-27.4-113.66-1.15-4.13-2.82-12.91-4.36-24.75-1.31-10.08-1.83-18.32-2.06-23.35-9.68,15.18-16.05,27.79-18.46,34.28-1.63,4.39-2.79,8.57-2.79,8.57-1.44,5.16-2.06,9.16-2.34,10.38-8.72,37.68-15.53,61.79-29.15,110.01-.88,3.11-2.9,10.03-7.91,16.33-2.46,3.09-4.9,5.1-6.58,6.33-.44,2.79-.89,5.58-1.33,8.37,5.24-1.21,11.96-2.17,19.75-1.86,7.88,.31,14.6,1.84,19.81,3.49v-9.8c-1.47,.07-3.96-.06-6.59-1.63-4.28-2.55-7.23-7.9-7.91-13.06-.47-3.58,.13-7.83,1.32-16.32h0c.5-4.82,1.37-10.32,2.86-16.25,.75-2.97,1.57-5.71,2.41-8.23,5.9,1.19,13.03,2,21.1,1.63,4.82-.22,9.24-.83,13.19-1.63,3.31,12.4,6.01,22.07,7.78,28.33,2.77,9.77,4.3,14.85,2.25,19.27-2.35,5.07-8.02,6.26-11.02,6.6-.11,4.25-.22,8.49-.33,12.74,12.53-2.6,21.49-2.59,26.99-2.2,6.21,.44,9.3,.77,11.97,1.25,1.08,.19,12.37,2.36,12.49,1.83,.92-4.16,1.44-8.46,1.54-12.78-6.81-3.66-9.57-8.22-10.79-10.95-1.22-2.74-2.93-8.15-4.42-12.91Zm-50.07-33.93c-7.77,.49-14.4-.72-19.35-2.14,4.09-14.66,8.07-29.9,11.87-45.71,1.85-7.71,3.61-15.33,5.27-22.86,4.84,22.86,9.67,45.71,14.51,68.57-3.49,1-7.62,1.84-12.29,2.14Z"/><path d="M1456.68,293.9s.78,.65,1.49,2.22c3.33,7.4,2.23,68.26,2.22,68.55h0c0,25.93-.54,57.11-1.69,94.04-4.04,2.21-8.08,4.42-12.12,6.62v13.25h58.58c-.67-4.42-1.35-8.83-2.02-13.25-4.71-2.21-9.43-4.42-14.14-6.62v-76.16c2.89-.06,7.25,.42,12.12,3.31,8.97,5.34,14.06,15.55,16.16,19.87,6.44,13.26,5.68,21.61,12.12,46.36,3.06,11.76,6.1,20.88,8.08,26.49,8.99,1.46,16.48,1.56,21.9,1.33,16.16-.68,20.34-4.58,22.02-9.6,.52-1.55,.73-3,.83-3.94-3.21-.17-8.27-1.12-13.66-5.46-2.72-2.19-4.72-4.51-6.16-6.49-7.68-10.6-23.03-49.34-30.71-80.47-.81-3.64-.81-6.62,.4-7.62,7.88-6.29,10.71-10.6,13.33-13.91,5.05-6.62,9.49-17.22,9.49-34.11,0-9.88-1.15-19.67-4.58-28.17-10.32-25.54-35.3-26.1-46.53-26.14-10.72-.04-19.41,3.18-26.94,5.97-9.91,3.67-14.97,7.28-18.18,9.93-1.17,.97-5.9,4.95-11.46,11.75-2.48,3.04-3.96,4.78-5.53,7.43-2.37,3.99-6.35,12.87-8.47,25.48-.12,.73-2.66,16.45-.38,31.64,0,0,.76,4.91,2.12,9.87,5.49,20.04,19.3,35.1,23.71,39.67-2.56-3.21-23-29.55-21.43-64.83,.22-4.83,1.07-23.97,9.31-34.51,1.52-1.95,5-6.39,10.1-6.62,3.73-.17,6.62,1.99,8.08,3.31-2.69-3.06-5.39-6.12-8.08-9.18Zm-9.31-12.49s-.09,.08-.1,.15m50.3,83.02c-3.54,1.01-6.51,1.32-8.56,1.42v-82.78c1.91-1.03,4.71-2.32,8.16-3.08,5.48-1.21,18.78-4.14,28.21,9.7,1.15,1.68,9.06,13.65,8.08,29.8-.53,8.85-3.48,14.72-6.06,19.87-9.7,19.35-24.24,23.48-29.82,25.07Z"/><path d="M960.36,360.32c.31,2.64,6.02,57.04-24.16,87.38-19.32,19.43-41.78,17.95-55.74,17.01-14.69-.99-39.78-2.69-57.97-28.35-20.08-28.31-17.07-65.07-15.61-76.53,1.02-8.02,4.72-37.06,24.53-56.69,15.95-15.81,33.18-16.43,49.06-17.01,16.9-.61,37.63-1.35,55.74,17.01,19.8,20.06,23.29,49.74,24.16,57.18Zm-122.42,3.4c-.74,4.81-6.2,43.59,13.53,72.64,4.13,6.08,14.74,21.71,31.22,22.68,16.74,.98,28.6-13.8,33.45-19.84,15.87-19.78,23.8-51.94,17.84-82.2-5.26-26.69-23.53-63.18-49.06-62.36-27.1,.88-43,43.21-46.97,69.08Z"/><path d="M1128.12,361.89c.31,2.64,6.02,57.04-24.16,87.38-19.32,19.43-41.78,17.95-55.74,17.01-14.69-.99-39.78-2.69-57.97-28.35-20.08-28.31-17.07-65.07-15.61-76.53,1.02-8.02,4.72-37.06,24.53-56.69,15.95-15.81,33.18-16.43,49.06-17.01,16.9-.61,37.63-1.35,55.74,17.01,19.8,20.06,23.29,49.74,24.16,57.18Zm-122.42,3.4c-.74,4.81-6.2,43.59,13.53,72.64,4.13,6.08,14.74,21.71,31.22,22.68,16.74,.98,28.6-13.8,33.45-19.84,15.87-19.78,23.8-51.94,17.84-82.2-5.26-26.69-23.53-63.18-49.06-62.36-27.1,.88-43,43.21-46.97,69.08Z"/><path d="M419.09,372.67v7.87c22.8,1.9,24.7,4.07,24.7,23.89v22.26c0,11.13-3.09,14.12-8.08,17.37-4.75,2.71-12.11,4.61-20.18,4.61-46.07,0-52.21-44.47-52.21-87.64,0-31.05,6.59-43.87,17.76-56.37,15.41-17.25,21.27-17.17,28.75-20.23,15.78-6.44,50.52,16.24,52.89,29.03,2.31,12.46,1.02,27.89-13.07,22.46,5.77-3.45-.14-16.51-7.52-12.26-.62,.36-1.24,.72-1.76,1.26-3.07,3.17-3.52,9.32-.97,13.09,1.28,1.89,3.13,3.13,5.05,3.96,7.97,3.45,17.42-.23,22.88-7.99,5.24-7.44,3.81-18.37,2.47-28.66-10.16-78.02-152.08-59.14-144.5,60.55,3.45,54.41,32.77,92.84,86.68,92.84,19.95,0,39.18-5.97,53.91-9.77-1.19-7.33-1.42-16.29-1.42-25.79v-22.8c0-16.02,.95-17.64,15.67-19.82v-7.87h-61.03Z"/><path d="M1258.52,334.24c-.75,2.83-9.24,26.69-12.6,35.8-6.74,18.29-13.59,36.53-20.5,54.75-1.8,4.76-3.61,9.51-5.42,14.26-17.34-49.25-37.43-108.3-44.31-129.96-1.21-3.46-1.9-6.16-1.67-8.34-.49-1.09-.78-2.38-.78-3.87v-4.43c-.51-1.82-.49-3.83,0-5.67v-2.92h-49.84v8.31c16.79,1.78,21.47,4.75,29.17,26.71,15.69,43.91,39.36,113.35,55.59,161.12,0,0,9.08,0,9.08,0,10.06-24.3,18.4-51.09,27.17-72.36,5.74-13.91,29.4-71.29,27.57-72.75,16.51-49.15-28.93-85.95-45.24-38.47-4.02,11.71,9.24,21.25,19.94,12.63,2.85-2.3,.41-11.76-3.66-9.4-1.29,.75-3.04,.8-3.48,2.34-.46-2.93,.91-5.96,3-7.82s4.81-2.67,7.49-2.92c2.09-.19,4.26-.06,6.19,.87,3.43,1.64,5.62,5.57,6.38,9.62,.76,4.05,.31,8.24-.25,12.33-.94,6.91-2.09,13.61-3.83,20.18Z"/></g><g><path class="cls-3" d="M324.74,204H172.48s-50.34-1.12-57.08-3.19c-29.63-9.11-51.17-36.69-51.17-69.31v-23c0-40.04,32.46-72.5,72.5-72.5h188c40.04,0,72.5,32.46,72.5,72.5v23c0,40.04-32.46,72.5-72.5,72.5Z"/><path class="cls-3" d="M118.24,295c23.42-31.85,41.97-62.35,54.25-91.13l-42.73-1.51c2.03,29.91-2.11,60.84-11.52,92.65Z"/></g><g><path d="M119.95,97.59c-.32-.45-.7-1.22-1.09-1.54-1.15-.77-3.33-4.67-4.61-6.21-.32-.77-1.15-1.47-1.54-2.24-.38-.45-.7-.83-1.15-1.15,0-.38-.38-1.22-.77-1.6-.38-.32-1.15-1.15-1.54-1.92v-.77c.77-.77,1.92-1.15,2.75-1.92l.7-.77c.38-.38,.77-.38,1.22-.7l.32,.32c.64,.64,.7,1.09,1.22,1.6,.38,0,.9,1.28,1.09,1.47,.45,.45,.45,.77,.83,1.54,.9,1.22,1.6,2.37,2.56,3.46,.45,.45,.45,.83,.83,1.22,.9,.58,1.15,1.54,1.92,2.18l1.15,1.22c.64-1.02,1.22-1.92,1.92-2.69,.77-.7,1.22-1.92,1.86-3.01,.51-1.09,1.34-2.11,1.92-3.46,.38-.83,.83-1.22,.83-1.6,.77-.77,1.09-1.54,1.54-1.92h.77c.51,.19,3.46,2.62,3.46,3.07-.19,1.15-1.73,2.24-2.3,3.52,0,.38-.45,.77-.45,.77-.32,.7-1.09,1.54-1.47,2.18-.45,.83-.77,1.6-1.15,1.92-.38,.83-1.28,1.98-1.54,2.75-.45,1.22-.77,1.28-1.22,1.92,0,0-.19,.45-.38,.45-.26,.38-.26,.7-.64,1.09-.45,.83-.83,1.47-1.22,2.3-.32,.38-.77,1.09-1.15,1.92-.77,.77-1.54,1.54-1.92,2.69-1.15,1.86-2.75,3.97-3.07,4.54-.51,1.47-1.73,2.94-2.62,3.84-.45,.83-1.15,1.54-1.54,2.75-.45,.7-1.22,1.54-1.54,2.3q-.45,.32-.83,0c-.77-.38-1.54-.77-2.3-1.6-.38-.32-1.15-.96-1.15-1.09-.13-.13,1.54-2.37,2.37-3.07v-.38c.7-.83,1.47-1.92,2.24-2.75,.77-1.47,1.6-2.56,2.75-4.16,0-.38,.38-1.15,.77-1.54,.7-1.34,1.79-2.5,2.18-3.9,0,0,.45-.38,.45-.64l-.45-.38Z"/><path d="M154,77.75c1.09,0,1.98-.06,3.07-.06,.83,0,1.66,0,2.37,.26,.13,0,.45,.06,.83,.45,1.73,.45,3.07,2.69,3.9,4.35,.45,.7,.45,1.98,.7,2.69,0,1.22,.19,2.3,.19,3.46,0,1.92-.13,3.65-.13,5.63l-.13,2.11c0,.32-.51,1.47-.58,1.86-.26,.83-.77,2.3-.96,2.5-.83,.83-.45,1.41-1.47,1.92-.38,.19-1.09,.64-1.6,.96-.38,.19-.19,.26-.77,.45l-1.15,.26c-1.02,.19-1.54,0-2.3,0-1.15,0-2.43-.26-3.58-.7-.77,0-1.6-.45-1.92-.83-.38-.32-.83-.7-1.28-1.15-.7-.77-1.09-1.54-1.47-2.37-.38-.96-1.02-1.92-1.22-3.07-.19-1.92-.32-3.52-.32-5.12v-2.62c-.06-.13-.06-.9,0-1.02,0-.45,.06-.9,.13-1.34,.06-.7-.06-1.41,.38-2.05-.13,.26,.96-2.18,.9-1.98l.45-.83c.58-.58,.77-1.15,3.58-3.07,.58-.19,1.54-.64,2.37-.64Zm1.54,11.97c-.32,.7-.45,1.22-.45,1.6,0,1.22,.45,1.92,1.22,2.3,.38,0,.77-.38,.77-.7,0-.83,.45-1.98,0-3.2-.38-.38-.38-.7-.77-.7-.32,0-.7,.45-.77,.7Z"/><path d="M179.02,100.02c-.38-.45-.77-.64-.83-1.02-.58-1.28-1.47-2.05-1.73-3.26-.26-1.15-.51-2.5-.64-3.58,0-1.15-.13-2.11-.13-3.33,0-1.28,.19-2.18,.19-3.46,0-.83-.06-1.79-.06-2.62v-.9c0-.77,.19-1.6,.19-2.43,1.02-.06,2.82,0,3.58,0,.26,.06,1.47-.06,1.79-.06,.38,0,2.37,0,2.75,.06,0,0-.19,1.09-.19,1.47,0,1.15-.13,2.05-.13,3.07s.26,6.78,.45,7.81c0,.83,.06,1.28,.13,2.11,.06,.9,.58,1.6,.77,1.79l.38,1.02,.9,1.15c.58,.77,1.73,.77,2.69,.7l1.47-.13c.7-.06,1.66-1.22,2.3-1.6,.38-.38,.7-1.34,.96-2.18,.06-.13,.77-3.26,.77-3.46,.06-.7,.19-1.6,.13-2.3-.13-.77,.13-1.79,.13-2.62,0-.7,.13-1.66,.19-2.11,0,.13,.13-1.92,.06-2.11-.06-.51-.26-.96-.26-1.47,0-.26,.13-.51,.13-.77h1.34c.32,0,.64,.13,.83,.13,.83,0,1.47,.06,1.86,0,.38-.13,.58-.06,1.02-.13,.64,.13,1.02-.06,1.79,0,.06,.45-.13,1.28-.13,2.05,0,1.6,.06,3.33,0,4.99-.06,.9,0,1.79-.13,2.62,0,.26-.06,2.18,0,2.37,.32,1.86-.13,5.89-.06,7.74,0,1.28,.13,2.5,.13,3.78-2.05,.38-3.9,.26-5.95,.38-.13-.19-.19-.38-.19-.83s-.06-.77-.13-1.15c-.06-.38-.13-.96-.13-.96-.13,0-.58,.64-.96,.77-.83,.38-1.66,.9-2.5,1.02-1.66,.77-3.84,.77-6.02,.77-1.28,0-2.11-.51-2.94-.96-1.34-.51-3.2-1.86-3.84-2.37Z"/><path d="M218.38,60.79c-.06,.13-.32,.32-.38,.45-.32,.58-.77,1.15-1.22,1.66-.38,.38-.7,.9-1.02,1.34-.13,.19-.13,.38-.19,.45-.26,.26-.45,.19-.51,.38-.77,0-1.6-.13-2.37,0-.13,0-.45,.06-.45-.06,.06-.26,.19-.26,.32-.45,.19-.38,.38-.64,.58-.83,.26-.51,.64-.83,.9-1.09,.58-.64,1.02-1.09,1.28-1.6-.06-.06-.38-.06-.38-.06h-1.86c-.13,0-.45,.06-.51-.06-.13-.26-.06-.19-.06-.45,0-.58,.06-1.09,.06-1.6,0-.45-.13-.96-.13-1.47,0-.38,.06-.7,.06-1.09v-.32c.13-.06,.26-.06,.38-.06,.26-.06,.51,0,.9,0,.51,0,.9,0,1.41,.06,.77-.06,1.41,0,2.37,0,.26,0,.45-.06,.58-.06,.19,0,.32,.13,.32,.38,0,1.47,0,3.14-.06,4.48Z"/><path d="M229.14,90.36c.06-.77,.06-1.54,.06-2.37l-.19-5.18v-2.88c.9,0,1.92-.06,3.2,.06,0,0,.96,.06,1.41,.06,.58,.13,.38,.06,.64,.19,0,.38-.13,.51-.13,.96v2.05c.32-.45,.32-.64,.77-1.09l.38-.13c1.09-1.09,2.88-1.34,4.48-1.22,.32,0,1.22,.32,1.98,.77,.7,.13,.96,.45,.96,.45,.83,.77,1.73,1.22,2.05,2.05,.83,1.22,1.28,2.56,1.73,4.16,0,.45,0,.83-.45,.83-1.28,.45-2.11,.26-3.9,.38h-.7c-.13-.06-.19-.32-.19-.38-.06-.51-.26-.9-.26-1.15,0-.45-.38-.96-.38-.96-.83-.83-1.54-1.22-2.37-1.22-.19,0-.51,0-.77,.13-.38,.13-1.47,.64-1.73,.9-.45,.45-.96,.9-1.22,1.47-.06,.32-.13,1.41-.13,1.6-.13,.77-.38,2.3-.38,3.2,0,.58-.19,1.66-.19,2.43,0,.58-.06,1.09-.06,1.6v2.43c0,.51-.06,1.15-.06,1.73v1.41c-2.11,.45-3.58,.45-4.42,0-.19-.58-.26-1.73-.19-1.92,.19-1.54,0-3.07,0-4.67-.06-.83,.06-1.86,.06-2.62,0-.58,.06-1.98,0-3.07Z"/><path d="M275.53,91c-.26,.26-.9,.32-1.28,.32-.58,.13-1.6,.13-2.18,.13-1.15,0-1.47,.06-2.82,.19l-3.84,.32v.77c0,.96,.19,1.86,.9,2.75,.38,.64,1.09,1.34,1.66,1.54,0,0,1.28,.58,1.86,.51,2.3,0,2.94-.58,4.48-1.34,.32,0,.77-.51,.96-.58,.38-.13,1.47-1.09,1.86-1.28,.26,.19,.06,1.41,.19,2.24,0,0,.06,1.15,0,1.98-.9,.96-.51,.7-1.6,1.73-.83,.83-1.6,1.28-2.43,1.54-.96,.51-2.24,.64-2.88,.9-.7,.13-1.6,.13-1.6,.13-1.6,0-3.14,.13-4.8-.7-.58,.06-1.98-.51-2.3-.9-.9-.51-1.6-1.41-2.43-1.98-1.15-.83-1.54-1.79-1.98-2.82-.45-.77-.77-1.79-1.09-2.69,0-.9-.06-1.79-.06-2.62v-2.37c0-1.54,.77-3.97,1.66-5.5,0,0,.7-.77,1.54-1.6,.26-.06,.51-.26,1.09-.58,.26-.13,.64-.7,1.28-.9,.96-.32,1.86-.83,2.3-.83,.58,0,2.43,.13,3.9,.19,.77,.06,1.28,.32,1.54,.32,.64,.06,1.09,.13,1.6,.32,1.54,.51,2.11,1.09,2.62,1.66,.32,.38,.64,1.09,.96,1.47,.38,.51,.83,1.54,1.02,2.37,.19,.7,.26,1.98,.26,2.82s-.06,1.09-.06,1.86c0,.19-.13,.45-.32,.64Zm-5.31-5.31c-.7-1.09-2.18-1.22-3.07-1.02-.58,.13-.64,.38-.96,.9-.13,.13-.19,.32-.38,.51-.13,.19-.19,.51-.26,.77-.13,.38-.13,.45,0,1.09,.64,.38,4.42,.38,5.06,0,.06-.06-.26-.45-.26-1.28,0-.19,0-.77-.13-.96Z"/><path d="M333.77,103.16l-.45,.06c-.45,.06-.38,0-1.02,0-.19,.06-1.86,.45-2.62,.06-.45,0-.45-.13-.9-.13-.38-.32-.38-1.15-.38-1.6v-1.6l-.51,.7-1.15,1.09c-.83,.58-1.28,.96-2.05,1.34-1.28,.77-2.88,.96-4.16,.96s-2.82-.7-3.9-1.09c-.32-.06-.64-.32-.9-.51-.51-.45-1.22-.9-1.66-1.28-.26-.19-.45-.45-.77-.58-.26-.13-.45-.38-.58-.64-.45-.9-1.22-1.73-1.6-2.94-.26-.9-.83-1.79-.83-2.56,0-.38-.13-1.79-.13-2.18,0-.77,.06-1.02,.06-1.86,0-.38,.13-.83,.32-1.6,.13-.9,.19-2.18,.38-2.82,.58-1.09,.7-1.09,.9-1.73,.19-.51,.45-1.54,1.02-1.92,.45-.32,2.3-2.05,2.56-2.11l1.15-.51c.7-.26,1.6-.38,2.37-.38l1.98-.06c.45,0,1.09,0,1.28,.06,.38,0,.83,.38,1.28,.38,.38,0,1.15,.38,1.6,.77,.83,.32,1.28,.9,1.66,1.28,.38,.45,.83,.77,1.22,1.22,.06,.26,.45,.45,.45,.45,.13-.19,.13-.77,.38-1.22,.06-1.22,.13-2.3,.19-2.62-.06-.32,.06-1.22,.51-1.09,.38-.13,2.69,.38,3.84,.38,.06,0,.06,.58,0,.83l.38,6.14v6.91c0,.26-.06,.51-.06,.77,.06,.77,.06,1.6,.06,2.43,.06,.58,0,1.22,0,1.92,0,1.09,.13,3.78,.06,4.93v.32Zm-8.26-9.86c0-.51,.51-2.37-.45-4.93-.26-.64-.7-1.6-1.79-1.98-.58-.13-1.09-.45-1.66-.38-.58,.19-1.66,.83-2.24,1.66-.38,.45-.45,.9-.51,1.6-.26,1.09-.38,1.54-.38,2.43,0,1.66,1.41,3.14,1.66,3.52,.26,.26,.38,.13,.83,.58,.83,.38,1.6,0,2.5-.45h.38c.77-.38,1.22-.77,1.66-1.6,.06-.06,0-.45,0-.45Z"/><path d="M124.27,130.93c-.13-1.28,.13-2.62,.06-3.9,0-.51,.06-1.09,.06-1.6,.45-2.05,.26-4.1,.64-6.66v-.77c1.66,.45,3.14,.77,4.74,.77-.45,1.28-.45,2.56-.45,3.78,0,2.43-.32,4.93-.32,7.36,0,.51-.13,1.09-.13,1.6,.13,1.28-.13,4.42,.19,5.76-.26,2.05,0,4.16-.06,6.21-.13,1.41,0,2.75,0,4.16s.06,2.88,.06,4.35-.38,3.71-.32,5.18c0,2.05-.19,3.46-.19,5.12,0,.77-.45,.9-1.34,.9-1.22,.13-1.98,0-3.2,0-.83,0-.83-.45-.83-.77v-1.15s-.19-.38-.38-.45c-.45,.45-1.28,.45-2.05,.9-1.28,.83-2.88,1.15-4.61,1.15-1.22,0-2.05,0-2.82-.32-.45,0-.45-.45-.83-.45-1.66-.83-2.88-1.66-4.1-2.88-1.28-1.28-1.73-2.5-2.56-4.16-.32-1.22-.32-2.5-.77-3.65,0-1.73,0-3.33,.77-4.54,.45-2.11,1.73-3.71,3.33-4.93,.83-.83,2.05-1.28,3.33-1.73,.83,0,2.05,0,2.88-.38,1.22,0,2.05,0,3.33,.38,.32,.45,1.22,.45,1.6,.9,.77,.38,1.66,.83,2.5,1.15,.38-.32,.19-1.15,.64-2.05,0-.38,.19-1.15,.19-2.05,.06-2.05,.38-5.18,.64-7.23Zm-8.13,15.1c-1.6,.83-2.43,2.88-2.43,4.48,0,.9,.38,1.28,.38,2.05,0,1.28,.83,2.05,2.05,2.94,.45,.38,1.28,.38,2.11,0,.77-.9,2.05-1.66,2.05-3.26,.45-1.73,0-2.88-.38-4.16-.45-1.22-1.66-2.05-2.94-2.05h-.83Z"/><path d="M146.8,160.3c0,.26-.06,.45-.19,.58-.83,.13-2.11,.32-3.01,.26-.77-.06-1.66,.13-1.98,.13,0-.51-.13-.83-.06-1.6,.06-.7,0-1.54,0-2.18v-3.14c-.06-1.98-.06-4.35-.13-5.06-.06-.77,.13-1.54,.13-2.3-.06-1.22,0-2.43,0-3.65,0-1.02-.13-3.01,0-4.03,.7-.13,1.79-.13,2.94-.19,.96-.06,2.05-.06,2.43-.06,.13,0,.06,.7,.06,.83-.06,2.11,.06,3.52-.06,5.25,.06,1.73,0,2.75-.13,4.42-.06,.51,.19,5.06,.13,6.53,.13,1.66,0,3.07-.13,4.22Zm-5.31-27.65c0-.38-.06-.77-.06-1.09,0-.13,.06-.26,.06-.38h4.61q.45,0,.45,.38v4.16c-.96,.13-4.93,.13-4.99-.13-.06-.19-.06-.38-.06-.64-.06-.45,0-1.41,0-2.3Z"/><path d="M173.94,154.48c0-.77-.45-1.6-1.28-2.05-2.05-.77-4.1-1.6-6.59-2.05-1.22-.45-2.43-.83-4.16-1.28-1.6-.77-2.75-2.11-3.2-4.1,0-1.6-.19-3.14,.58-4.74,.96-2.37,1.47-1.92,2.5-2.82,1.92-.77,3.07-1.02,5.12-1.47,.83-.45,1.66-.45,2.43-.45h3.46c1.28,0,2.37-.06,3.52,0,1.86,.06,3.33,.38,5.44,.77,.9,.13,1.6,.26,2.11,.45-.13,.38-.32,1.47-.38,2.43,0,.13-.06,.32-.06,.45s-.06,.32-.19,.38c-.13,.06-.38-.06-.64-.13-1.47-.13-3.01-.13-4.54-.06-1.54,.06-3.14,.38-4.54,.58-.64,.19-1.28,.32-1.86,.45-.64,.13-1.22,.45-1.86,.83-.38,.45-.7,.9-.9,1.41-.19,.45-.32,.96-.32,1.54-.13,.45,0,1.54,.51,2.11,.51,.58,.96,.96,1.54,1.15,1.6,.45,3.14,.77,4.35,1.09,.38,0,1.02,.26,1.41,.26,1.73,.13,2.94,.58,4.54,1.15,1.22,.45,2.5,.83,3.65,1.6,.9,1.28,1.28,2.05,1.73,3.33v1.66c0,.83-.45,1.66-.83,2.11-.45,1.15-1.22,2.05-2.5,2.88-1.6,1.22-3.33,2.05-5.38,2.37-2.88,.9-5.76,1.02-9.02,.58l-3.52-.32c-.77-.06-1.86-.26-2.88-.58-1.47-.45-2.05-.38-2.11-.51-.06-.13-.19-.32-.19-.38-.38-.96-.32-1.6-.77-2.82-.19-.45-.26-.77-.32-1.09,0,0-.06-.32,0-.58,.45,0,.7,.13,1.09,.13,1.02,.26,2.56,.58,3.33,.58s1.66,.06,2.88,.06c1.02,.06,2.18,.19,3.26-.26,.58-.45,2.62-1.02,3.33-1.79,.83-.77,1.28-1.6,1.28-2.88Z"/><path d="M197.55,142.7c.19-.38,.19-.64,.58-1.22,.32-.45,1.02-1.15,1.22-1.41,.13-.19,.32-.45,.58-.7,.32-.38,1.22-.83,1.6-1.28,1.22-.32,2.05-.77,2.88-.77,1.66,0,3.33,0,4.54,.45,1.28,0,2.05,.32,2.88,.77,.45,.83,1.22,1.28,1.66,1.66l.38,.38c.58-.45,.32-.96,.51-1.41,.19-.51,.13-.96,.26-1.09,.26-.06,.64,0,.96,0,.77,0,2.24-.13,2.82,0,.19,.06,.38,.38,.38,.45v.45c.06,1.02,.06,3.39,0,4.35-.06,.77-.13,4.86,0,5.06,0,.83-.13,2.11-.06,2.5l.06,2.05c.06,.58-.19,1.98,0,3.58,.13,1.22-.19,5.06-.13,5.95,0,1.6-.77,3.33-1.15,4.93-.45,.83-.77,1.6-1.6,2.5-.32,.38-.77,1.15-1.22,1.6-.45,.58-1.79,1.41-2.24,2.05-.38,.51-1.73,.9-2.18,.96l-2.24,.77c-.77,.45-1.47,.77-2.69,.83-.19,0-.38-.06-.51,0-.83,0-1.28,.32-2.11,.32h-.38c-1.22,0-1.09-.13-2.56,0-.06,0-.7,.19-.7,0,0-1.6-.19-2.94-.19-4.22l.45-.38h2.18c1.22-.45,2.05-.32,3.33-.77,1.22-.77,2.05-1.6,3.26-2.05,.83-.77,1.66-1.6,2.11-2.43,.77-.77,.77-1.66,1.22-2.5,0-.77,.38-1.6,.38-2.43v-1.66c0-.38-.38,0-.38,0-1.22,.77-2.94,.77-4.54,.77h-.45c-.58-.06-1.15-.19-1.73-.38-1.09-.26-1.73-.45-2.69-.96-.26-.13-.7-.26-1.86-.96l-.77-.9-1.41-1.54c-.26-.45-.45-1.09-.77-2.05-.19-.51-.51-1.09-.64-1.79v-5.38c0-.45,.32-1.34,.32-1.66,0,0,.13-.38,.13-.83,0-.13,.45-1.54,.51-1.6Zm10.56,8.19c.19-.32,.06-.83,.19-.96,.45-.64,.19-.64,.19-1.09s-.38-1.22-.77-1.6q-.38-.45-1.28,0c-.38,.38-.45,.96-.45,1.86,0,.19-.13,.9,.06,1.41,0,.19,.58,.83,.83,.83,.45,0,.83,0,1.22-.45Z"/><path d="M230.58,149.36c.06-.77,.06-1.54,.06-2.37l-.19-5.18v-2.88c.9,0,1.92-.06,3.2,.06,0,0,.96,.06,1.41,.06,.58,.13,.38,.06,.64,.19,0,.38-.13,.51-.13,.96v2.05c.32-.45,.32-.64,.77-1.09l.38-.13c1.09-1.09,2.88-1.34,4.48-1.22,.32,0,1.22,.32,1.98,.77,.7,.13,.96,.45,.96,.45,.83,.77,1.73,1.22,2.05,2.05,.83,1.22,1.28,2.56,1.73,4.16,0,.45,0,.83-.45,.83-1.28,.45-2.11,.26-3.9,.38h-.7c-.13-.06-.19-.32-.19-.38-.06-.51-.26-.9-.26-1.15,0-.45-.38-.96-.38-.96-.83-.83-1.54-1.22-2.37-1.22-.19,0-.51,0-.77,.13-.38,.13-1.47,.64-1.73,.9-.45,.45-.96,.9-1.22,1.47-.06,.32-.13,1.41-.13,1.6-.13,.77-.38,2.3-.38,3.2,0,.58-.19,1.66-.19,2.43,0,.58-.06,1.09-.06,1.6v2.43c0,.51-.06,1.15-.06,1.73v1.41c-2.11,.45-3.58,.45-4.42,0-.19-.58-.26-1.73-.19-1.92,.19-1.54,0-3.07,0-4.67-.06-.83,.06-1.86,.06-2.62,0-.58,.06-1.98,0-3.07Z"/><path d="M281.2,162.16l-.45,.06c-.45,.06-.38,0-1.02,0-.19,.06-1.86,.45-2.62,.06-.45,0-.45-.13-.9-.13-.38-.32-.38-1.15-.38-1.6v-1.6l-.51,.7-1.15,1.09c-.83,.58-1.28,.96-2.05,1.34-1.28,.77-2.88,.96-4.16,.96s-2.82-.7-3.9-1.09c-.32-.06-.64-.32-.9-.51-.51-.45-1.22-.9-1.66-1.28-.26-.19-.45-.45-.77-.58-.26-.13-.45-.38-.58-.64-.45-.9-1.22-1.73-1.6-2.94-.26-.9-.83-1.79-.83-2.56,0-.38-.13-1.79-.13-2.18,0-.77,.06-1.02,.06-1.86,0-.38,.13-.83,.32-1.6,.13-.9,.19-2.18,.38-2.82,.58-1.09,.7-1.09,.9-1.73,.19-.51,.45-1.54,1.02-1.92,.45-.32,2.3-2.05,2.56-2.11l1.15-.51c.7-.26,1.6-.38,2.37-.38l1.98-.06c.45,0,1.09,0,1.28,.06,.38,0,.83,.38,1.28,.38,.38,0,1.15,.38,1.6,.77,.83,.32,1.28,.9,1.66,1.28,.38,.45,.83,.77,1.22,1.22,.06,.26,.45,.45,.45,.45,.13-.19,.13-.77,.38-1.22,.06-1.22,.13-2.3,.19-2.62-.06-.32,.06-1.22,.51-1.09,.38-.13,2.69,.38,3.84,.38,.06,0,.06,.58,0,.83l.38,6.14v6.91c0,.26-.06,.51-.06,.77,.06,.77,.06,1.6,.06,2.43,.06,.58,0,1.22,0,1.92,0,1.09,.13,3.78,.06,4.93v.32Zm-8.26-9.86c0-.51,.51-2.37-.45-4.93-.26-.64-.7-1.6-1.79-1.98-.58-.13-1.09-.45-1.66-.38-.58,.19-1.66,.83-2.24,1.66-.38,.45-.45,.9-.51,1.6-.26,1.09-.38,1.54-.38,2.43,0,1.66,1.41,3.14,1.66,3.52,.26,.26,.38,.13,.83,.58,.83,.38,1.6,0,2.5-.45h.38c.77-.38,1.22-.77,1.66-1.6,.06-.06,0-.45,0-.45Z"/><path d="M302.32,144.69c-1.22,1.22-1.6,2.75-1.6,4.67v1.6c.38,.83,.38,1.98,1.22,2.75,.38,.77,1.15,1.54,1.86,2.43,.45,.26,1.28,.26,1.66,.7,1.09,.38,2.69,.38,3.9,.38,.58-.06,1.02-.38,2.3-.38,.45-.13,.64,.45,.9,1.09,.26,.45,.51,1.15,.7,1.66,.19,.32,.45,.58,.45,1.09-.13,.06-.45,.38-.77,.51-.13,.38-.96,.45-1.28,.77-1.54,.77-3.14,1.15-4.67,1.15-.77,0-1.34,.06-2.37,0-.38,0-.96-.13-1.54-.32-.51,0-1.79,0-2.3-.06-.45-.06-.77-.38-1.22-.58-.38-.19-.83-.32-1.28-.51-.9-.38-1.6-1.47-2.43-2.24-.77-.7-1.92-2.05-2.05-2.82-.32-.96-1.09-2.11-1.15-3.26-.13-.51-.13-.83-.13-1.15v-2.82c0-1.92,0-3.46,.77-4.99,.45-.83,.7-1.98,1.54-2.82,0-.38,.45-.83,.83-1.09l1.09-1.22c.9-.45,1.28-.77,1.98-1.22,1.15-.38,2.37-.77,3.2-.77,1.34-.26,2.05-.64,3.46-.13,.77,.06,1.66,.19,2.3,.51,.64,.13,.9,.19,1.41,.38,.83,.13,1.73,.7,2.37,1.09l.45,.13c.06,0,0,.77-.13,1.47-.13,.45-.13,.83-.13,1.66v1.15c0,.38-.32,.38-.32,.38-.45,0-.77-.19-1.15-.19-.58-.19-1.6-.58-2.18-.58-1.09,0-2.05-.06-3.07,.19-1.02,.19-1.86,.38-2.62,1.34Z"/><path d="M343.4,150c-.26,.26-.9,.32-1.28,.32-.58,.13-1.6,.13-2.18,.13-1.15,0-1.47,.06-2.82,.19l-3.84,.32v.77c0,.96,.19,1.86,.9,2.75,.38,.64,1.09,1.34,1.66,1.54,0,0,1.28,.58,1.86,.51,2.3,0,2.94-.58,4.48-1.34,.32,0,.77-.51,.96-.58,.38-.13,1.47-1.09,1.86-1.28,.26,.19,.06,1.41,.19,2.24,0,0,.06,1.15,0,1.98-.9,.96-.51,.7-1.6,1.73-.83,.83-1.6,1.28-2.43,1.54-.96,.51-2.24,.64-2.88,.9-.7,.13-1.6,.13-1.6,.13-1.6,0-3.14,.13-4.8-.7-.58,.06-1.98-.51-2.3-.9-.9-.51-1.6-1.41-2.43-1.98-1.15-.83-1.54-1.79-1.98-2.82-.45-.77-.77-1.79-1.09-2.69,0-.9-.06-1.79-.06-2.62v-2.37c0-1.54,.77-3.97,1.66-5.5,0,0,.7-.77,1.54-1.6,.26-.06,.51-.26,1.09-.58,.26-.13,.64-.7,1.28-.9,.96-.32,1.86-.83,2.3-.83,.58,0,2.43,.13,3.9,.19,.77,.06,1.28,.32,1.54,.32,.64,.06,1.09,.13,1.6,.32,1.54,.51,2.11,1.09,2.62,1.66,.32,.38,.64,1.09,.96,1.47,.38,.51,.83,1.54,1.02,2.37,.19,.7,.26,1.98,.26,2.82s-.06,1.09-.06,1.86c0,.19-.13,.45-.32,.64Zm-5.31-5.31c-.7-1.09-2.18-1.22-3.07-1.02-.58,.13-.64,.38-.96,.9-.13,.13-.19,.32-.38,.51-.13,.19-.19,.51-.26,.77-.13,.38-.13,.45,0,1.09,.64,.38,4.42,.38,5.06,0,.06-.06-.26-.45-.26-1.28,0-.19,0-.77-.13-.96Z"/><path d="M360.88,162.8c0,.38,.06,.77-.13,1.22l-.77,.26c-.7,.19-.7,.26-1.34,.26-.32,0-.7-.06-.9-.06-.38,0-.51-.06-.83-.06-.58,0-.64,.13-.9-.06-.19-.26-.19-.58-.19-.77,0-.26,.06-.83,.06-1.02,0-.7-.06-.83-.06-1.6,0-.45,0-.77-.26-1.15,0,0,0-.19,.26-.19,.77-.06,1.54,0,2.3,0,.7,0,1.41,.19,2.18,.19h.45c.26,.19,.26,.7,.26,.9,0,.7-.13,1.73-.13,2.11Zm1.09-39.17c.13,.38,.06,.64,.06,1.02-.19,.96-.19,2.18-.19,3.33-.26,1.92-.26,3.97-.38,6.14,0,.83-.26,1.92-.26,2.82,0,.45-.19,1.09,0,1.66v2.62c-.19,1.15-.19,2.37-.19,3.46v4.29c0,1.02,0,1.79-.26,2.75v4.8c-.7,.26-1.22,.45-1.92,.45-.38-.13-.83,.06-1.22,.13-.32,.06-.9,.19-.96,.13v-.26c0-1.22-.32-2.69-.32-3.84,0-.38-.13-.83-.13-1.41,0-1.73,.13-3.33,0-5.12,0-.26-.19-.7-.19-1.15v-6.46c-.19-.96-.19-1.79-.19-2.69v-3.33c0-1.22,.32-3.39,0-4.8,0-.64,.19-1.6,.19-2.56,0-.77-.13-1.92,0-2.11,0-.13,.32-.13,.58-.06,.7,.13,.7,.06,1.47,0,.51-.06,1.6,.06,1.86,.06,.64,0,1.47,0,1.66-.06l.26-.06c.13,.06,.13,.19,.13,.26Z"/></g></g></svg>