<?xml version="1.0" encoding="UTF-8"?><svg id="Layer_2" xmlns="http://www.w3.org/2000/svg" width="1920" height="1080" xmlns:xlink="http://www.w3.org/1999/xlink" viewBox="0 0 1920 1080"><defs><style>.cls-1{filter:url(#drop-shadow-15);}.cls-1,.cls-2{opacity:.7;}.cls-2{filter:url(#drop-shadow-14);}.cls-3,.cls-4{fill:#fbb03b;}.cls-5{fill:#371d2d;}.cls-6{fill:#6f1d2d;}.cls-7{fill:#4b1d2d;}.cls-8{fill:#7c1d2d;}.cls-9,.cls-10{fill:#ffc715;stroke-width:.5px;}.cls-9,.cls-10,.cls-11,.cls-12,.cls-13,.cls-14,.cls-15,.cls-16{stroke:#000;stroke-miterlimit:10;}.cls-10,.cls-4{opacity:.76;}.cls-11,.cls-16{fill:#d58145;}.cls-12{fill:#dc7a42;}.cls-13{fill:#541d2d;}.cls-14{fill:#611d2d;}.cls-15{fill:#631d2d;}.cls-16{opacity:.9;}.cls-17{opacity:.73;}.cls-18{fill:#5e1d2d;filter:url(#drop-shadow-18);}.cls-19{filter:url(#drop-shadow-17);}.cls-20{filter:url(#drop-shadow-16);}.cls-21{fill:#521d2d;opacity:.8;}</style><filter id="drop-shadow-14" filterUnits="userSpaceOnUse"><feOffset dx="65" dy="1"/><feGaussianBlur result="blur" stdDeviation="5"/><feFlood flood-color="#000" flood-opacity=".81"/><feComposite in2="blur" operator="in"/><feComposite in="SourceGraphic"/></filter><filter id="drop-shadow-15" filterUnits="userSpaceOnUse"><feOffset dx="65" dy="-14"/><feGaussianBlur result="blur-2" stdDeviation="5"/><feFlood flood-color="#000" flood-opacity=".81"/><feComposite in2="blur-2" operator="in"/><feComposite in="SourceGraphic"/></filter><filter id="drop-shadow-16" filterUnits="userSpaceOnUse"><feOffset dx="44" dy="34"/><feGaussianBlur result="blur-3" stdDeviation="5"/><feFlood flood-color="#000" flood-opacity=".21"/><feComposite in2="blur-3" operator="in"/><feComposite in="SourceGraphic"/></filter><filter id="drop-shadow-17" filterUnits="userSpaceOnUse"><feOffset dx="-15" dy="34"/><feGaussianBlur result="blur-4" stdDeviation="5"/><feFlood flood-color="#000" flood-opacity=".21"/><feComposite in2="blur-4" operator="in"/><feComposite in="SourceGraphic"/></filter><filter id="drop-shadow-18" filterUnits="userSpaceOnUse"><feOffset dx="7" dy="25"/><feGaussianBlur result="blur-5" stdDeviation="5"/><feFlood flood-color="#000" flood-opacity=".21"/><feComposite in2="blur-5" operator="in"/><feComposite in="SourceGraphic"/></filter></defs><rect class="cls-6" x="2.13" y="-3.06" width="1920" height="1080"/><path class="cls-21" d="M1924.13,882.94c-56.21,2.05-112.14,4.03-167.73,5.91-677.15,22.95-1303.08,32.19-1752.27-5.91v201H1924.13v-201Z"/><g class="cls-2"><path class="cls-9" d="M40.86,1008.01c-.53,3.44-.5,7.01,0,10.69,19.2,4.34,37.49,3.21,55-2.69,.79-3.93,.84-8.32,0-13.24-15.16,6.74-33.3,8.8-55,5.24Z"/><path class="cls-9" d="M93.86,1003.01c.78-4.69,1-9.23,0-13.45-15.49,9.26-34.32,9.79-55,5.45-1.03,3.96-.93,7.79,0,11.52,17.56,3.35,35.72,3.18,55-3.52Z"/><path class="cls-9" d="M37.36,993.51c19.78,4.89,38.37,4.78,54.93-3.95l-.93-10.05c-30.18,7.39-45.61,5.14-52-3-1.35,1.84-2.57,4.43-2,17Z"/><path class="cls-9" d="M41.09,976.51c13.64,11.31,38.85,5.55,51.21,1.44,.71-3.62,.65-7.41,0-11.33-19.57,7.15-37.28,8.85-51.21-.49-.12,3.71-.14,7.22,0,10.38Z"/><path class="cls-9" d="M40.99,964.52v-9.46c19.45,8.58,36.87,7.26,52.37-3.54v14.08c-20.58,7.42-39.13,9.79-52.37-1.08Z"/><path class="cls-9" d="M92.3,950.27c-17.05,12.08-36.7,10.71-52.93,3.25-1.07-4.16-1.33-8.51-1-13,19.88,7.06,37.79,7.53,53-1,1.56,3.68,1.95,7.27,.93,10.75Z"/><path class="cls-9" d="M38.23,939.51c20.46,6.95,37.84,6.62,52.14-1,.46-2.73,.38-5.85,0-9.17-19.03,4.75-36.09,4.3-51-1.83-1.32,2.9-1.5,7.13-1.14,12Z"/><path class="cls-9" d="M42.45,927.51c16.84,5,33.82,4.92,50.91,0,.82-4.7,.99-9.11,0-13-17.14,1.23-33.77,1.32-49.76,0-1.56,4.88-2.33,9.39-1.16,13Z"/><path class="cls-9" d="M92.86,912.95c.79-3.87,.55-9.04,0-14.6-15.3,3.66-33.28,3-52.51,.31-.33-.05-.66-.09-.98-.14-.73,5.15-.85,10.02,0,14.44,11.41,1.21,22.04,2.05,29.88,1.56,8.93,.49,17.23,.37,23.62-1.56Z"/><path class="cls-9" d="M39.69,898.56c17.67-3.16,35.4-3.03,53.17-.21-15.96,3.05-33.38,3.63-53.17,.21Z"/><path class="cls-9" d="M145.28,1001.44c-4.59-5.17-20.64-3.63-30.92,6.07-15.4,14.55-15.29,22.22-10.92,28.07,4.75,6.36,19.36,1.11,29.92-7.07,12.21-9.46,17.57-20.7,11.92-27.07Z"/><path class="cls-9" d="M114.36,1050.51c12.67-3.73,23.57-7.58,31.7-17.06,3.7-4.31,6.83-9.78,9.3-16.94l-8.47-12.45c-7.53,20.31-18.21,36.19-43.45,31.53,4.24,6.78,8.85,10.74,10.92,14.93Z"/><path class="cls-9" d="M195.36,1031.51v11.89c-11.37,7.07-33.93,4.37-56,2.11v-5.85l6.7-6.21c13.12,3.37,28.04,4.56,49.3-1.94Z"/><path class="cls-9" d="M153.72,1020.8c10.05,3.73,24.71,2.41,40.64-.29v11.3c-14.07,4.2-29.7,5.59-48.3,1.64,3.24-3.72,5.66-8.03,7.66-12.66Z"/><path class="cls-9" d="M149.07,1007.26c15.39,3,31.06,5.21,50.29-2.74v12.82c-1.28,1.64-3.07,2.51-5,3.18-16.74,2.92-30.53,3.23-40.64,.29l1.64-4.29-6.29-9.26Z"/><path class="cls-9" d="M135.99,998.53v-4.78c23.16,3.93,44.06,4.39,60.37-2.23l.61,13.94c-11.33,5.19-27.04,6.04-47.91,1.8-1.24-2.06-1.98-4.12-3.79-5.82-2.6-1.63-5.47-2.9-9.29-2.91Z"/><path class="cls-9" d="M136.36,974.51c11.02,10.65,33.94,6.91,55,4v14.35c-14.36,4.91-33.11,4.88-55.37,.88l.37-19.23Z"/><path class="cls-9" d="M136.36,963.51c17.92,6.02,37.58,5.68,59-1v14.56c-28.12,6.76-48.23,6.32-59-2.56v-11Z"/><path class="cls-9" d="M136.36,951.43c19.99,4.32,39.38,4.24,58-1.62v13.01c-19.22,6.8-38.96,5.97-59,.69l1-12.09Z"/><path class="cls-9" d="M134.36,934.51c17.42,4.4,37.08,4.83,58,3v12.9c-18.29,5.01-37.57,5.52-58,.7v-16.59Z"/><path class="cls-9" d="M141.36,935.51v-14.66c19.25,4.45,38.26,4.79,57,.66v14c-17.91,3.91-36.85,4.14-57,0Z"/><path class="cls-9" d="M140.36,905.51c19.42,6.42,39.41,7.25,60,2v13.34c-20.69,4.56-40.74,4.48-60-1.34v-14Z"/><path class="cls-9" d="M140.36,905.51c4.04-1.44,8.2-2.84,12.59-3.31,15.4-1.62,31.57-3.05,47.41,5.31-17.77,6.05-41.73,5.93-60-2Z"/><polygon class="cls-9" points="108.26 1004.51 118.07 1004.51 108.26 1013.35 108.26 1004.51"/><path class="cls-9" d="M135.36,994.51c-10.01,.93-20.38,.87-31.04,0v9.19s12.89,.81,12.89,.81c6.51-3.5,12.89-6.25,18.78-5.99l.37-4.01h-1Z"/><path class="cls-9" d="M104.32,975.1c.87,8.14,15.44,7.88,31.67,6.61v12.03c-6.81,.87-18.02,1.02-31.67,.77-.29-.38,.23-16.11,0-19.41Z"/><path class="cls-9" d="M104.32,973.74l.4-11.22c6.49,6.48,18.04,6.71,31.64,4.39l-.37,14.81c-17.38,.91-32.2,.48-31.67-7.98Z"/><path class="cls-9" d="M102.91,949.37v12.34c8.89,7.29,20.54,7.79,33.45,5.19v-3.39h-1l1-9.05c-12.75,3.68-23.33,2.43-31.74-3.74-.58-.43-1.15-.87-1.7-1.35Z"/><path class="cls-9" d="M105.36,941.51c.46,.18,.92,.36,1.38,.53,8.73,3.15,17.98,3.22,27.62,.97v8.1l2,.32v3.04c-11.77,2.63-22.94,3.28-31.74-3.74l.74-9.2Z"/><path class="cls-9" d="M141.36,932.51c-12.4,2.68-24.14,2.65-35.25,0l-.75,9c9.08,3.26,18.65,4.21,29,1.5v-8.5l7,1v-3Z"/><path class="cls-9" d="M108.36,925.51c10.97,1.44,21.97,1.26,33-.54v7.54c-12.07,2.46-23.51,2.75-34.06,0l1.06-7Z"/><path class="cls-9" d="M103.36,910.51c11.27,4.3,23.76,4.01,37,.92v8.08c.57,.42,1.01,.85,1,1.34v4.13c-13.25,1.91-25.7,2.19-36.74-.4l-1.26-14.07Z"/><path class="cls-9" d="M107.3,899.11c13.55,3.67,32.7,1.2,53.06-2.6v4.97l-20,4.03v5.92c-14.02,3.8-25.94,2.47-37-.92v-11.96l3.94,.56Z"/><path class="cls-9" d="M103.36,882.51c16.42,6.06,36.24,5.68,55,1v13.37c-19.7,3.9-38.62,5.91-55,1.67v-16.04Z"/><path class="cls-9" d="M105.36,869.51c19.86,3.88,38.95,4.33,57,0l.36,13c-24.81,5.99-44.62,5.5-58.36,0l1-13Z"/><path class="cls-9" d="M107.36,856.51c18.91,6.19,37.33,5.75,55.36,0l.65,13c-18.15,4.18-37.24,5.04-58.01,0v-13h2Z"/><path class="cls-9" d="M109.36,843.51c19,3.92,37.69,3.82,56-1l.58,14c-19.86,5.65-39.21,6.74-57.58-1l1-12Z"/><path class="cls-9" d="M107.36,829.51c17,3.91,34.34,3.41,52-1v14.82c-17.46,3.53-35.23,4.12-53.49,0v-14.25s1.49,.43,1.49,.43Z"/><path class="cls-9" d="M102.36,814.51c18.67,4.96,37.33,5.29,56,1v13.25c-17.46,4.46-36.04,4.7-56-.25v-14Z"/><path class="cls-9" d="M102.36,801.51c20.85,4.15,40.93,5.14,60,2l-1,12c-20.32,4.15-40.03,4.13-59-1v-13Z"/><path class="cls-9" d="M107.36,789.51c20.02,4.01,39.57,4.04,58.58-.6v14.02c-20.48,3.45-40.11,3.4-58.58-1.42v-12Z"/><path class="cls-9" d="M109.36,776.51c19.79,3.09,38.75,2.89,56.58-1.83v14.23c-18.86,3.95-37.72,3.95-56.58,0v-12.4Z"/><path class="cls-9" d="M100.36,760.51c19.11,4.39,38.46,4.53,58,1v14.45c-19.26,3.23-38.4,2.85-57.39-1.27l-.61-14.17Z"/><path class="cls-9" d="M106.36,747.51c17.74,3.39,36.49,3.27,56,.54v13c-20.44,3.01-39.82,4.25-55.95,0l-.05-13.53Z"/><path class="cls-9" d="M108.36,734.51c19.94,2.16,39.2,1.92,57.58-1.39v14.39c-18.97,3.43-38.17,3.35-57.58,0v-13Z"/><path class="cls-9" d="M99.36,718.51c19.9,3.71,40.23,4.12,61,1v14.51c-18.08,2.74-38.39,2.29-60,0l-1-15.51Z"/><path class="cls-9" d="M107.36,705.51c19.05,1.11,38.81,1.17,59.16,.38v12.62c-19.18,3.68-38.79,3.92-58.77,1.36l-.39-14.36Z"/><ellipse class="cls-9" cx="241.36" cy="1029.01" rx="29" ry="6.5"/><path class="cls-9" d="M211.36,1041.51c19.99,8.42,39.67,9.16,59,.87v-13.37c-18.14,7.5-37.1,9.83-58,0l-1,12.5Z"/><path class="cls-9" d="M199.36,1015.87c13.71,.22,27.96,.65,34.17-2.18v9.17c-7.69-.18-14.75,1.86-21.17,6.16-6.64,.28-12.74,.09-18-.86v-7.64c1.93,.04,3.58-1.09,5-3.18v-1.47Z"/><path class="cls-9" d="M196.77,1000.74c15.12,1.25,29.78,1.11,39.6-4.22v16c-6.92,3.37-19.3,4.47-37,3.35v-11.35l-2.39,.94-.21-4.72Z"/><path class="cls-9" d="M191.36,986.21c15.32,2.71,29.75,2.45,43-1.7v12.99c-10.76,4.31-23.53,4.96-37.6,3.24l-.4-9.22-5,1.35v-6.65Z"/><path class="cls-9" d="M195.36,977.08c12.92,1.08,24.81,.36,35.44-2.56l.56,10.87c-13.19,3.27-26.52,3.41-39.99,.83v-7.7l4-1.44Z"/><path class="cls-9" d="M195.36,962.51c13.24,1.87,26,1.26,38.17-2.52v13.44c-11.06,3.56-23.73,4.86-38.17,3.64v-14.56Z"/><path class="cls-9" d="M194.36,949.81c14.2,3.32,27.53,2.07,40-3.75l-.83,13.93c-10.51,3.78-23.77,4.51-39.17,2.83v-13.01Z"/><path class="cls-9" d="M198.86,934.51c10.72-.1,20.44,.16,30.34,0v13.67c-9.97,3.79-22.34,4.41-36.83,2.23v-12.9c3.88-.96,5.88-1.96,6.5-3Z"/><path class="cls-9" d="M200.36,920.85c12.41,1.6,24.44,1.62,36-.34v12.96c-10.53,2.67-23.51,2.44-37.5,1.04l-.5-13,2-.66Z"/><path class="cls-9" d="M200.36,907.51c14.01,2.05,26.46,.96,37-4l.71,17c-13.83,1.22-26.72,1.62-37.71,.34v-13.34Z"/><path class="cls-9" d="M172.36,892.51c19.76,3.86,38.78,4.22,56.83,0v13.86c-8.72,2.56-18.47,2.59-28.83,1.14-5.91-3.67-15.12-5.93-28.14-6.55l.14-8.45Z"/><path class="cls-9" d="M177.42,878.17c16.11,4.54,33.57,4.49,51.94,1.34l-.17,13c-18.77,5.32-37.71,5.34-56.83,0v-14.34h5.06Z"/><path class="cls-9" d="M178.36,866.51c19.82,2.69,39.18,2.83,58,0v12.89c-21.74,3.38-41.73,4.16-57.57-1.23l-.43-11.66Z"/><path class="cls-9" d="M178.36,852.6c19.03,2.83,37.53,2.76,55.41-.82v14.74c-16.64,3.02-35.42,2.51-55.41,0v-13.92Z"/><path class="cls-9" d="M178.27,838.51c17.25-3.95,35.19-4.38,54.07,0-20.91,1.67-40.51,2.58-54.07,0Z"/><path class="cls-9" d="M178.36,852.6l-.1-14.08c18.02,2.15,36.04,2.15,54.07,0v13.26c-18.6,2.83-36.76,3.82-53.97,.82Z"/><polygon class="cls-3" points="111.36 1026.51 111.36 1030.24 137.83 1012.05 137.83 1007.19 111.36 1026.51"/><polygon class="cls-3" points="229.75 1029.03 228.38 1031.35 253.03 1030.66 254.82 1027.64 229.75 1029.03"/><polygon class="cls-3" points="159.38 905.96 158.14 908.08 180.65 907.48 182.28 904.73 159.38 905.96"/></g><g class="cls-1"><path class="cls-9" d="M258,993.01c-.53,3.44-.5,7.01,0,10.69,19.2,4.34,37.49,3.21,55-2.69,.79-3.93,.84-8.32,0-13.24-15.16,6.74-33.3,8.8-55,5.24Z"/><path class="cls-9" d="M311,988.01c.78-4.69,1-9.23,0-13.45-15.49,9.26-34.32,9.79-55,5.45-1.03,3.96-.93,7.79,0,11.52,17.56,3.35,35.72,3.18,55-3.52Z"/><path class="cls-9" d="M254.5,978.51c19.78,4.89,38.37,4.78,54.93-3.95l-.93-10.05c-30.18,7.39-45.61,5.14-52-3-1.35,1.84-2.57,4.43-2,17Z"/><path class="cls-9" d="M258.23,961.51c13.64,11.31,38.85,5.55,51.21,1.44,.71-3.62,.65-7.41,0-11.33-19.57,7.15-37.28,8.85-51.21-.49-.12,3.71-.14,7.22,0,10.38Z"/><path class="cls-9" d="M258.13,949.52v-9.46c19.45,8.58,36.87,7.26,52.37-3.54v14.08c-20.58,7.42-39.13,9.79-52.37-1.08Z"/><path class="cls-9" d="M309.44,935.27c-17.05,12.08-36.7,10.71-52.93,3.25-1.07-4.16-1.33-8.51-1-13,19.88,7.06,37.79,7.53,53-1,1.56,3.68,1.95,7.27,.93,10.75Z"/><path class="cls-9" d="M255.37,924.51c20.46,6.95,37.84,6.62,52.14-1,.46-2.73,.38-5.85,0-9.17-19.03,4.75-36.09,4.3-51-1.83-1.32,2.9-1.5,7.13-1.14,12Z"/><path class="cls-9" d="M259.59,912.51c16.84,5,33.82,4.92,50.91,0,.82-4.7,.99-9.11,0-13-17.14,1.23-33.77,1.32-49.76,0-1.56,4.88-2.33,9.39-1.16,13Z"/><path class="cls-9" d="M310,897.95c.79-3.87,.55-9.04,0-14.6-15.3,3.66-33.28,3-52.51,.31-.33-.05-.66-.09-.98-.14-.73,5.15-.85,10.02,0,14.44,11.41,1.21,22.04,2.05,29.88,1.56,8.93,.49,17.23,.37,23.62-1.56Z"/><path class="cls-9" d="M256.83,883.56c17.67-3.16,35.4-3.03,53.17-.21-15.96,3.05-33.38,3.63-53.17,.21Z"/><path class="cls-9" d="M373.42,961.44c-4.59-5.17-20.64-3.63-30.92,6.07-15.4,14.55-15.29,22.22-10.92,28.07,4.75,6.36,19.36,1.11,29.92-7.07,12.21-9.46,17.57-20.7,11.92-27.07Z"/><path class="cls-9" d="M342.5,1010.51c12.67-3.73,23.57-7.58,31.7-17.06,3.7-4.31,6.83-9.78,9.3-16.94l-8.47-12.45c-7.53,20.31-18.21,36.19-43.45,31.53,4.24,6.78,8.85,10.74,10.92,14.93Z"/><path class="cls-9" d="M423.5,991.51v11.89c-11.37,7.07-33.93,4.37-56,2.11v-5.85s6.7-6.21,6.7-6.21c13.12,3.37,28.04,4.56,49.3-1.94Z"/><path class="cls-9" d="M381.86,980.8c10.05,3.73,24.71,2.41,40.64-.29v11.3c-14.07,4.2-29.7,5.59-48.3,1.64,3.24-3.72,5.66-8.03,7.66-12.66Z"/><path class="cls-9" d="M377.21,967.26c15.39,3,31.06,5.21,50.29-2.74v12.82c-1.28,1.64-3.07,2.51-5,3.18-16.74,2.92-30.53,3.23-40.64,.29l1.64-4.29-6.29-9.26Z"/><path class="cls-9" d="M364.13,958.53v-4.78c23.16,3.93,44.06,4.39,60.37-2.23l.61,13.94c-11.33,5.19-27.04,6.04-47.91,1.8-1.24-2.06-1.98-4.12-3.79-5.82-2.6-1.63-5.47-2.9-9.29-2.91Z"/><path class="cls-9" d="M364.5,934.51c11.02,10.65,33.94,6.91,55,4v14.35c-14.36,4.91-33.11,4.88-55.37,.88l.37-19.23Z"/><path class="cls-9" d="M364.5,923.51c17.92,6.02,37.58,5.68,59-1v14.56c-28.12,6.76-48.23,6.32-59-2.56v-11Z"/><path class="cls-9" d="M364.5,911.43c19.99,4.32,39.38,4.24,58-1.62v13.01c-19.22,6.8-38.96,5.97-59,.69l1-12.09Z"/><path class="cls-9" d="M362.5,894.51c17.42,4.4,37.08,4.83,58,3v12.9c-18.29,5.01-37.57,5.52-58,.7v-16.59Z"/><path class="cls-9" d="M369.5,895.51v-14.66c19.25,4.45,38.26,4.79,57,.66v14c-17.91,3.91-36.85,4.14-57,0Z"/><path class="cls-9" d="M368.5,865.51c19.42,6.42,39.41,7.25,60,2v13.34c-20.69,4.56-40.74,4.48-60-1.34v-14Z"/><path class="cls-9" d="M368.5,865.51c4.04-1.44,8.2-2.84,12.59-3.31,15.4-1.62,31.57-3.05,47.41,5.31-17.77,6.05-41.73,5.93-60-2Z"/><polygon class="cls-9" points="336.4 964.51 346.21 964.51 336.4 973.35 336.4 964.51"/><path class="cls-9" d="M363.5,954.51c-10.01,.93-20.38,.87-31.04,0v9.19s12.89,.81,12.89,.81c6.51-3.5,12.89-6.25,18.78-5.99l.37-4.01h-1Z"/><path class="cls-9" d="M332.46,935.1c.87,8.14,15.44,7.88,31.67,6.61v12.03c-6.81,.87-18.02,1.02-31.67,.77-.29-.38,.23-16.11,0-19.41Z"/><path class="cls-9" d="M332.46,933.74l.4-11.22c6.49,6.48,18.04,6.71,31.64,4.39l-.37,14.81c-17.38,.91-32.2,.48-31.67-7.98Z"/><path class="cls-9" d="M331.06,909.37v12.34c8.89,7.29,20.54,7.79,33.45,5.19v-3.39h-1s1-9.05,1-9.05c-12.75,3.68-23.33,2.43-31.74-3.74-.58-.43-1.15-.87-1.7-1.35Z"/><path class="cls-9" d="M333.5,901.51c.46,.18,.92,.36,1.38,.53,8.73,3.15,17.98,3.22,27.62,.97v8.1l2,.32v3.04c-11.77,2.63-22.94,3.28-31.74-3.74l.74-9.2Z"/><path class="cls-9" d="M369.5,892.51c-12.4,2.68-24.14,2.65-35.25,0l-.75,9c9.08,3.26,18.65,4.21,29,1.5v-8.5l7,1v-3Z"/><path class="cls-9" d="M336.5,885.51c10.97,1.44,21.97,1.26,33-.54v7.54c-12.07,2.46-23.51,2.75-34.06,0l1.06-7Z"/><path class="cls-9" d="M331.5,870.51c11.27,4.3,23.76,4.01,37,.92v8.08c.57,.42,1.01,.85,1,1.34v4.13c-13.25,1.91-25.7,2.19-36.74-.4l-1.26-14.07Z"/><path class="cls-9" d="M335.44,859.11c13.55,3.67,32.7,1.2,53.06-2.6v4.97l-20,4.03v5.92c-14.02,3.8-25.94,2.47-37-.92v-11.96l3.94,.56Z"/><path class="cls-9" d="M331.5,842.51c16.42,6.06,36.24,5.68,55,1v13.37c-19.7,3.9-38.62,5.91-55,1.67v-16.04Z"/><path class="cls-9" d="M333.5,829.51c19.86,3.88,38.95,4.33,57,0l.36,13c-24.81,5.99-44.62,5.5-58.36,0l1-13Z"/><path class="cls-9" d="M335.5,816.51c18.91,6.19,37.33,5.75,55.36,0l.65,13c-18.15,4.18-37.24,5.04-58.01,0v-13h2Z"/><path class="cls-9" d="M337.5,803.51c19,3.92,37.69,3.82,56-1l.58,14c-19.86,5.65-39.21,6.74-57.58-1l1-12Z"/><path class="cls-9" d="M335.5,789.51c17,3.91,34.34,3.41,52-1v14.82c-17.46,3.53-35.23,4.12-53.49,0v-14.25s1.49,.43,1.49,.43Z"/><path class="cls-9" d="M330.5,774.51c18.67,4.96,37.33,5.29,56,1v13.25c-17.46,4.46-36.04,4.7-56-.25v-14Z"/><path class="cls-9" d="M330.5,761.51c20.85,4.15,40.93,5.14,60,2l-1,12c-20.32,4.15-40.03,4.13-59-1v-13Z"/><path class="cls-9" d="M335.5,749.51c20.02,4.01,39.57,4.04,58.58-.6v14.02c-20.48,3.45-40.11,3.4-58.58-1.42v-12Z"/><path class="cls-9" d="M337.5,736.51c19.79,3.09,38.75,2.89,56.58-1.83v14.23c-18.86,3.95-37.72,3.95-56.58,0v-12.4Z"/><path class="cls-9" d="M328.5,720.51c19.11,4.39,38.46,4.53,58,1v14.45c-19.26,3.23-38.4,2.85-57.39-1.27l-.61-14.17Z"/><path class="cls-9" d="M334.5,707.51c17.74,3.39,36.49,3.27,56,.54v13c-20.44,3.01-39.82,4.25-55.95,0l-.05-13.53Z"/><path class="cls-9" d="M336.5,694.51c19.94,2.16,39.2,1.92,57.58-1.39v14.39c-18.97,3.43-38.17,3.35-57.58,0v-13Z"/><path class="cls-9" d="M327.5,678.51c19.9,3.71,40.23,4.12,61,1v14.51c-18.08,2.74-38.39,2.29-60,0l-1-15.51Z"/><path class="cls-9" d="M335.5,665.51c19.05,1.11,38.81,1.17,59.16,.38v12.62c-19.18,3.68-38.79,3.92-58.77,1.36l-.39-14.36Z"/><path class="cls-9" d="M498.5,989.01c0,3.59-12.98,6.5-29,6.5-16.02,0-29-2.91-29-6.5,0-3.59,12.98-6.5,29-6.5,16.02,0,29,2.91,29,6.5Z"/><path class="cls-9" d="M439.5,1001.51c19.99,8.42,39.67,9.16,59,.87v-13.37c-18.14,7.5-37.1,9.83-58,0l-1,12.5Z"/><path class="cls-9" d="M427.5,975.87c13.71,.22,27.96,.65,34.17-2.18v9.17c-7.69-.18-14.75,1.86-21.17,6.16-6.64,.28-12.74,.09-18-.86v-7.64c1.93,.04,3.58-1.09,5-3.18v-1.47Z"/><path class="cls-9" d="M424.91,960.74c15.12,1.25,29.78,1.11,39.6-4.22v16c-6.92,3.37-19.3,4.47-37,3.35v-11.35l-2.39,.94-.21-4.72Z"/><path class="cls-9" d="M419.5,946.21c15.32,2.71,29.75,2.45,43-1.7v12.99c-10.76,4.31-23.53,4.96-37.6,3.24l-.4-9.22-5,1.35v-6.65Z"/><path class="cls-9" d="M423.5,937.08c12.92,1.08,24.81,.36,35.44-2.56l.56,10.87c-13.19,3.27-26.52,3.41-39.99,.83v-7.7l4-1.44Z"/><path class="cls-9" d="M423.5,922.51c13.24,1.87,26,1.26,38.17-2.52v13.44c-11.06,3.56-23.73,4.86-38.17,3.64v-14.56Z"/><path class="cls-9" d="M422.5,909.81c14.2,3.32,27.53,2.07,40-3.75l-.83,13.93c-10.51,3.78-23.77,4.51-39.17,2.83v-13.01Z"/><path class="cls-9" d="M427,894.51c10.72-.1,20.44,.16,30.34,0v13.67c-9.97,3.79-22.34,4.41-36.83,2.23v-12.9c3.88-.96,5.88-1.96,6.5-3Z"/><path class="cls-9" d="M428.5,880.85c12.41,1.6,24.44,1.62,36-.34v12.96c-10.53,2.67-23.51,2.44-37.5,1.04l-.5-13,2-.66Z"/><path class="cls-9" d="M428.5,867.51c14.01,2.05,26.46,.96,37-4l.71,17c-13.83,1.22-26.72,1.62-37.71,.34v-13.34Z"/><path class="cls-9" d="M400.5,852.51c19.76,3.86,38.78,4.22,56.83,0v13.86c-8.72,2.56-18.47,2.59-28.83,1.14-5.91-3.67-15.12-5.93-28.14-6.55l.14-8.45Z"/><path class="cls-9" d="M405.56,838.17c16.11,4.54,33.57,4.49,51.94,1.34l-.17,13c-18.77,5.32-37.71,5.34-56.83,0v-14.34h5.06Z"/><path class="cls-9" d="M406.5,826.51c19.82,2.69,39.18,2.83,58,0v12.89c-21.74,3.38-41.73,4.16-57.57-1.23l-.43-11.66Z"/><path class="cls-9" d="M406.5,812.6c19.03,2.83,37.53,2.76,55.41-.82v14.74c-16.64,3.02-35.42,2.51-55.41,0v-13.92Z"/><path class="cls-9" d="M406.41,798.51c17.25-3.95,35.19-4.38,54.07,0-20.91,1.67-40.51,2.58-54.07,0Z"/><path class="cls-9" d="M406.5,812.6l-.1-14.08c18.02,2.15,36.04,2.15,54.07,0v13.26c-18.6,2.83-36.76,3.82-53.97,.82Z"/><polygon class="cls-3" points="339.5 986.51 339.5 990.24 365.97 972.05 365.97 967.19 339.5 986.51"/><polygon class="cls-3" points="457.9 989.03 456.53 991.35 481.17 990.66 482.96 987.64 457.9 989.03"/><ellipse class="cls-9" cx="450.36" cy="1006.01" rx="29" ry="6.5"/><path class="cls-9" d="M420.36,1018.51c19.99,8.42,39.67,9.16,59,.87v-13.37c-18.14,7.5-37.1,9.83-58,0l-1,12.5Z"/><polygon class="cls-3" points="438.75 1006.03 437.38 1008.35 462.03 1007.66 463.82 1004.64 438.75 1006.03"/><path class="cls-9" d="M717.36,1008.01c0,3.59-12.98,6.5-29,6.5-16.02,0-29-2.91-29-6.5,0-3.59,12.98-6.5,29-6.5,16.02,0,29,2.91,29,6.5Z"/><path class="cls-9" d="M658.36,1020.51c19.99,8.42,39.67,9.16,59,.87v-13.37c-18.14,7.5-37.1,9.83-58,0l-1,12.5Z"/><polygon class="cls-3" points="676.75 1008.03 675.38 1010.35 700.03 1009.66 701.82 1006.64 676.75 1008.03"/><polygon class="cls-3" points="387.53 865.96 386.28 868.08 408.79 867.48 410.42 864.73 387.53 865.96"/><path class="cls-9" d="M610.63,982.74c3.81-4.3,17.15-3.02,25.69,5.05,12.79,12.09,12.71,18.46,9.07,23.33-3.95,5.28-16.08,.92-24.86-5.88-10.14-7.86-14.6-17.2-9.9-22.5Z"/><path class="cls-9" d="M636.32,1023.51c-10.53-3.1-19.58-6.29-26.34-14.17-3.07-3.58-5.67-8.13-7.72-14.08l7.03-10.35c6.26,16.88,15.13,30.07,36.1,26.19-3.52,5.63-7.36,8.93-9.07,12.4Z"/><path class="cls-9" d="M569.02,1007.73v9.88c9.45,5.88,28.2,3.63,46.53,1.75v-4.86s-5.57-5.16-5.57-5.16c-10.9,2.8-23.3,3.79-40.96-1.61Z"/><path class="cls-9" d="M603.61,998.83c-8.35,3.1-20.53,2.01-33.77-.24v9.39c11.69,3.49,24.68,4.64,40.13,1.36-2.69-3.09-4.7-6.68-6.36-10.52Z"/><path class="cls-9" d="M607.48,987.57c-12.79,2.5-25.81,4.33-41.79-2.28v10.66c1.06,1.36,2.55,2.08,4.15,2.64,13.91,2.42,25.36,2.68,33.77,.24l-1.36-3.56,5.23-7.69Z"/><path class="cls-9" d="M618.35,980.32v-3.97c-19.24,3.27-36.61,3.64-50.16-1.86l-.51,11.58c9.41,4.31,22.47,5.02,39.81,1.5,1.03-1.71,1.65-3.43,3.15-4.83,2.16-1.35,4.55-2.41,7.72-2.42Z"/><path class="cls-9" d="M618.04,960.37c-9.16,8.85-28.2,5.75-45.7,3.32v11.92c11.93,4.08,27.51,4.05,46.01,.73l-.31-15.98Z"/><path class="cls-9" d="M618.04,951.23c-14.89,5-31.23,4.72-49.02-.83v12.1c23.36,5.62,40.08,5.25,49.02-2.13v-9.14Z"/><path class="cls-9" d="M618.04,941.18c-16.61,3.59-32.72,3.52-48.19-1.34v10.81c15.97,5.65,32.37,4.96,49.02,.58l-.83-10.04Z"/><path class="cls-9" d="M619.7,927.13c-14.48,3.66-30.81,4.02-48.19,2.49v10.72c15.2,4.17,31.21,4.58,48.19,.58v-13.79Z"/><path class="cls-9" d="M613.89,927.96v-12.18c-16,3.7-31.79,3.98-47.36,.55v11.63c14.88,3.25,30.62,3.44,47.36,0Z"/><path class="cls-9" d="M614.72,903.03c-16.14,5.33-32.74,6.03-49.85,1.66v11.08c17.19,3.79,33.85,3.73,49.85-1.11v-11.63Z"/><path class="cls-9" d="M614.72,903.03c-3.36-1.2-6.81-2.36-10.46-2.75-12.79-1.35-26.23-2.53-39.39,4.41,14.76,5.03,34.67,4.93,49.85-1.66Z"/><polygon class="cls-3" points="638.81 1003.57 638.81 1006.67 616.82 991.56 616.82 987.51 638.81 1003.57"/><polygon class="cls-3" points="598.91 903.41 599.95 905.16 581.24 904.67 579.88 902.38 598.91 903.41"/><path class="cls-9" d="M508.87,993.58c-.53,3.44-.5,7.01,0,10.69,19.2,4.34,37.49,3.21,55-2.69,.79-3.93,.84-8.32,0-13.24-15.16,6.74-33.3,8.8-55,5.24Z"/><path class="cls-9" d="M561.87,988.58c.78-4.69,1-9.23,0-13.45-15.49,9.26-34.32,9.79-55,5.45-1.03,3.96-.93,7.79,0,11.52,17.56,3.35,35.72,3.18,55-3.52Z"/><path class="cls-9" d="M505.37,979.08c19.78,4.89,38.37,4.78,54.93-3.95l-.93-10.05c-30.18,7.39-45.61,5.14-52-3-1.35,1.84-2.57,4.43-2,17Z"/><path class="cls-9" d="M509.1,962.08c13.64,11.31,38.85,5.55,51.21,1.44,.71-3.62,.65-7.41,0-11.33-19.57,7.15-37.28,8.85-51.21-.49-.12,3.71-.14,7.22,0,10.38Z"/><path class="cls-9" d="M509,950.09v-9.46c19.45,8.58,36.87,7.26,52.37-3.54v14.08c-20.58,7.42-39.13,9.79-52.37-1.08Z"/><path class="cls-9" d="M560.31,935.84c-17.05,12.08-36.7,10.71-52.93,3.25-1.07-4.16-1.33-8.51-1-13,19.88,7.06,37.79,7.53,53-1,1.56,3.68,1.95,7.27,.93,10.75Z"/><path class="cls-9" d="M506.24,925.08c20.46,6.95,37.84,6.62,52.14-1,.46-2.73,.38-5.85,0-9.17-19.03,4.75-36.09,4.3-51-1.83-1.32,2.9-1.5,7.13-1.14,12Z"/><path class="cls-9" d="M510.46,913.08c16.84,5,33.82,4.92,50.91,0,.82-4.7,.99-9.11,0-13-17.14,1.23-33.77,1.32-49.76,0-1.56,4.88-2.33,9.39-1.16,13Z"/><path class="cls-9" d="M560.87,898.52c.79-3.87,.55-9.04,0-14.6-15.3,3.66-33.28,3-52.51,.31-.33-.05-.66-.09-.98-.14-.73,5.15-.85,10.02,0,14.44,11.41,1.21,22.04,2.05,29.88,1.56,8.93,.49,17.23,.37,23.62-1.56Z"/><path class="cls-9" d="M507.7,884.13c17.67-3.16,35.4-3.03,53.17-.21-15.96,3.05-33.38,3.63-53.17,.21Z"/></g><g><g class="cls-20"><path class="cls-5" d="M281.24,204.5c119.17-29.94,210.24-107.87,288.62-207.49l-178.94-.91c-30.96,63.48-68.48,133.98-109.67,208.4Z"/><g><path class="cls-7" d="M423.76-3.71c-7.48,.63-95.16,218.59-216.18,347.57L318.57-3.71s112.67-.63,105.19,0Z"/><path class="cls-14" d="M341.03-3.76c-51.82,200.8-123.51,376.03-244.8,487.39-14.79,32.03-36.23,45.94-60.2,52.95-15.92-2.34-25.78-9.25-29.17-21.04V-2.77l334.17-1Z"/><path class="cls-15" d="M75.72,537.1c11.26-4.25,18.78-14.12,23.26-28.54,39.04,71.55,27.89,310.64,29.05,508.65-9.62,14.13-20.21,22.91-34.16,12.95-15.7-13.96-27.72-17.71-36.3-11.95-11.07,43.14-30.7,44.87-50.18,47.34v-509.52c27.47,8.69,51.17,5.32,68.33-18.93Z"/><path class="cls-16" d="M92.95,490.24c6.62,6.07,8.03,12.18,6.04,18.32-3.29,12.99-10.8,22.69-23.26,28.54-15.69,24.31-39.06,29.11-68.33,18.93l-.53-40.49c5.35,13.62,15.17,20.49,29.17,21.04,26.53-9.66,46.51-21.95,56.91-46.34Z"/><path class="cls-13" d="M128.67,737.31l28.2,238.56c-9.4,14.22-18.8,18.96-28.2,14.22v-252.78Z"/><path class="cls-11" d="M56.13,626.62c1.41-10.72,1.24-21.95-.58-33.7-1.9-7.63-3.84-23.69-5.78-39.46,1.59,.3,3.26,.32,5.02,0,1.35,15.59,3.06,30.33,5.39,43.57,1.34,8.37,1.53,18.21,1.16,28.77-1.77,.48-3.51,.8-5.21,.82Z"/><path class="cls-12" d="M46.52,532.45c-1.19,8.84,.42,17.47,3.64,25.98,3.21,.97,6.4,.15,9.56-2.91-.98-9.87-2.61-19.09-6.37-26.19-2.53-1.02-4.85-.34-6.83,3.11Z"/><path class="cls-11" d="M64.81,546.07c1.21,15.6-1.68,34.3-5,48.79l1.7,16.41c3.51-11.73,7.15-23.35,7.93-37.25,.92-8.32,.41-17.82-.86-27.95h-3.77Z"/><path class="cls-11" d="M56.13,626.62c-4.38,4.8-4.07,9.8,0,14.96,1.83,1.24,3.74,1.49,5.71,.94,.73-.21,1.46-.52,2.21-.94,4.4-4.04,4.54-8.61,.8-13.47-1.84-2.17-2.96-2.37-3.52-2.31-1.48-.26-3.29,.17-5.21,.82Z"/><path class="cls-11" d="M61.51,643.83c0,3.84,.2,7.17,.99,9.1,.71,6.62,3.52,16.44,6.36,26.3-7.15,6.76-14.12,8.62-20.82,3.29,2.29-10.97,5.59-25.22,6.36-31.24,.58-2.51,1.16-6.03,1.74-9.7l5.71,.94-.34,1.31Z"/><path class="cls-11" d="M45.72,680.87c.81-.16,1.57,.69,2.31,1.64,1.87,2.47,4.68,3.07,9.31,3.03,2.99,.15,7.2-3.08,11.51-6.31,2.91-.51,4.65,1.66,5.21,6.58-9.52,5.57-19.52,7.42-30.07,4.93-1.09-3.89-.76-7.27,1.74-9.86Z"/><path class="cls-12" d="M60.73,553.07c2.99,1.5,5.11-.13,6.45-4.51,.43-9.54-.74-18.43-5.34-25.9-3.17,.54-5.62,2.37-7.06,5.97,1.11,7.03,3.27,15.4,5.94,24.44Z"/><path d="M68.03,1015.7c-1.71-29.53-14.03-97.83-9.92-167.83,.53,70.33,18.44,138.96,14.95,169.33l-5.02-1.5Z"/><path class="cls-7" d="M69.9,519.22c9.29-6.17,16.91-15.96,23.05-28.98l3.29-6.61C129.8,443.42,249.18,204.84,290.81-3.85l-116.86,.59c-36.83,209.94-75.45,449.58-104.05,522.48Z"/><path class="cls-7" d="M37.29,561.5c1.92-.18,3.39-.26,4.8-.5,4.92,10.76-6.61,323.91-10.68,497.04-3.31,3.13-11.49,5.45-24.56,6.97,7.62-203.48,14-415.74,30.43-503.51Z"/><path class="cls-7" d="M43.16,533.12c.72-.24,1.69-.64,2.96-1.24C62.74,499.89,86.07,198.6,106.92-3.07l-63.76,.19c-2.35,203.98-12.93,496.93,0,535.99Z"/><g><path class="cls-11" d="M74.06,685.8c7.85,6.35,9.71,24.68,4.92,56.31-2.46,21.14-1.21,44.57,1.74,69.05-15.08,5.63-30.38,11.79-39.91,4.11-1.55-1.82-2.02-3.78-2.31-5.75-5.16,2.59-10.37,2.35-15.62,0,2.66-36.85,12.72-75.29,12.15-99.46,1.06-9.07,3.58-16.15,8.96-19.32,10.38,2.34,20.41,.71,30.07-4.93Z"/><path d="M45.83,729.84c-3.22,32.04-6.44,64.08-7.34,79.67l-3.16,1.23c.74-16.57,5.56-48.51,10.5-80.91Z"/><path d="M64.76,816.73c-2.2-2.36-1.63-11.21-1.31-17.66,.93,5.7,2.14,12.76,3.77,16.92l-2.45,.74Z"/><path d="M74.12,813.01c.05-1.86-.41-4.3-1.07-6.97,1.03,2.78,1.88,5.3,2.14,6.97h-1.07Z"/></g></g></g><path class="cls-8" d="M538.64-4.99l193.23,.6c-70.76,92.59-187.47,142.41-338.53,160.25,52.91-42.76,102.34-93.96,145.3-160.85Z"/></g><g><g class="cls-19"><path class="cls-5" d="M1682.61,234.01c-105.08-34.34-185.38-123.7-254.49-237.94,62.1-.45,125.68,.17,150.59,0,27.3,72.8,67.58,152.59,103.9,237.94Z"/><g><path class="cls-7" d="M1548.69-3.92c7.31,.65,92.96,227.62,211.2,361.93L1651.46-3.92s-110.08-.65-102.77,0Z"/><path class="cls-14" d="M1623.51-3.99c46.89,201.6,111.75,377.51,221.49,489.32,13.38,32.16,32.78,46.12,54.47,53.16,14.4-2.35,23.33-9.29,26.4-21.13V-2.99s-302.35-1-302.35-1Z"/><path class="cls-15" d="M1863.56,539.01c-10.19-4.27-16.99-14.17-21.05-28.65-35.32,71.83-25.24,311.86-26.29,510.65,8.71,14.19,18.29,23,30.91,13,14.21-14.01,25.08-17.78,32.84-12,10.02,43.31,27.78,45.05,45.4,47.53v-511.53c-24.85,8.72-46.29,5.34-61.82-19Z"/><path class="cls-16" d="M1847.97,491.97c-5.99,6.1-7.27,12.23-5.46,18.39,2.98,13.05,9.78,22.78,21.05,28.65,14.2,24.41,35.34,29.23,61.82,19l.48-40.65c-4.84,13.67-13.72,20.57-26.4,21.13-24-9.7-42.08-22.04-51.49-46.52Z"/><path class="cls-13" d="M1815.65,740.01l-25.51,239.5c8.5,14.28,17.01,19.04,25.51,14.28v-253.78Z"/><path class="cls-11" d="M1881.28,628.89c-1.27-10.76-1.12-22.03,.52-33.83,1.72-7.66,3.48-23.78,5.23-39.61-1.44,.3-2.95,.32-4.54,0-1.23,15.65-2.77,30.45-4.88,43.74-1.21,8.4-1.39,18.28-1.05,28.88,1.6,.48,3.18,.8,4.71,.83Z"/><path class="cls-12" d="M1889.98,534.35c1.08,8.88-.38,17.54-3.29,26.09-2.9,.97-5.79,.15-8.65-2.92,.88-9.91,2.36-19.17,5.76-26.29,2.29-1.03,4.39-.34,6.18,3.12Z"/><path class="cls-11" d="M1873.43,548.01c-1.09,15.66,1.52,34.44,4.53,48.98l-1.54,16.48c-3.17-11.77-6.47-23.44-7.17-37.4-.83-8.35-.37-17.89,.78-28.06h3.41Z"/><path class="cls-11" d="M1881.28,628.89c3.97,4.82,3.69,9.84,0,15.02-1.66,1.25-3.38,1.5-5.17,.94-.66-.21-1.32-.52-2-.94-3.98-4.06-4.1-8.64-.73-13.53,1.67-2.18,2.68-2.38,3.18-2.32,1.34-.26,2.97,.17,4.71,.83Z"/><path class="cls-11" d="M1876.42,646.16c0,3.86-.18,7.2-.89,9.13-.64,6.65-3.18,16.5-5.76,26.41,6.47,6.79,12.78,8.66,18.84,3.3-2.08-11.02-5.06-25.32-5.76-31.36-.52-2.52-1.05-6.05-1.57-9.74l-5.17,.94,.31,1.31Z"/><path class="cls-11" d="M1890.7,683.35c-.74-.16-1.42,.69-2.09,1.65-1.69,2.48-4.23,3.08-8.42,3.04-2.7,.15-6.51-3.09-10.42-6.34-2.63-.52-4.21,1.67-4.71,6.6,8.62,5.59,17.66,7.45,27.21,4.95,.99-3.91,.68-7.3-1.57-9.9Z"/><path class="cls-12" d="M1877.12,555.04c-2.7,1.51-4.62-.13-5.84-4.53-.39-9.58,.67-18.5,4.83-26,2.87,.55,5.08,2.38,6.38,5.99-1.01,7.06-2.96,15.46-5.37,24.54Z"/><path d="M1870.52,1019.5c1.55-29.64,12.7-98.22,8.98-168.49-.48,70.61-16.68,139.5-13.52,170l4.55-1.51Z"/><path class="cls-7" d="M1868.82,521.06c-8.4-6.2-15.3-16.03-20.85-29.09l-2.97-6.64c-30.37-40.37-138.38-279.89-176.04-489.41l105.73,.59c33.33,210.77,68.27,451.36,94.14,524.54Z"/><path class="cls-7" d="M1898.33,563.51c-1.74-.18-3.07-.26-4.35-.5-4.45,10.8,5.98,325.19,9.66,499,2.99,3.14,10.39,5.48,22.22,7-6.89-204.28-12.67-417.38-27.53-505.5Z"/><path class="cls-7" d="M1893.02,535.01c-.66-.24-1.53-.64-2.68-1.24-15.04-32.12-36.14-334.6-55.01-537.06l57.69,.19c2.12,204.79,11.7,498.89,0,538.11Z"/><g><path class="cls-11" d="M1865.06,688.3c-7.1,6.38-8.78,24.78-4.45,56.53,2.23,21.23,1.09,44.75-1.57,69.32,13.65,5.66,27.49,11.83,36.11,4.13,1.4-1.83,1.83-3.79,2.09-5.78,4.67,2.6,9.38,2.36,14.13,0-2.41-36.99-11.51-75.59-10.99-99.85-.96-9.1-3.24-16.21-8.11-19.39-9.39,2.35-18.47,.72-27.21-4.95Z"/><path d="M1890.6,732.51c2.92,32.17,5.83,64.34,6.64,79.99l2.86,1.24c-.67-16.64-5.03-48.7-9.5-81.23Z"/><path d="M1873.48,819.75c1.99-2.37,1.48-11.25,1.19-17.73-.84,5.72-1.94,12.81-3.41,16.99l2.22,.75Z"/><path d="M1865.01,816.01c-.04-1.86,.37-4.31,.97-7-.94,2.8-1.7,5.32-1.93,7h.97Z"/></g></g></g><path class="cls-8" d="M1428.12-3.93l-186.5,.65c68.3,99.55,180.94,153.12,326.75,172.29-51.07-45.98-98.78-101.03-140.25-172.94Z"/><path class="cls-18" d="M1319.4-3.99l-240.07,.65c101.67,99.55,269.35,153.12,486.4,172.29-89.59-32.36-221.62-63.87-246.32-172.94Z"/></g><g><polygon class="cls-3" points="1276.97 1037.03 1278.34 1039.35 1253.69 1038.66 1251.9 1035.64 1276.97 1037.03"/><ellipse class="cls-10" cx="1016.3" cy="1039.27" rx="29" ry="6.5"/><path class="cls-10" d="M1046.3,1051.77c-19.99,8.42-39.67,9.16-59,.87v-13.37c18.14,7.5,37.1,9.83,58,0l1,12.5Z"/><polygon class="cls-4" points="1027.9 1039.29 1029.27 1041.6 1004.63 1040.92 1002.84 1037.89 1027.9 1039.29"/><path class="cls-10" d="M1094.03,1013.99c-3.81-4.3-17.15-3.02-25.69,5.05-12.79,12.09-12.71,18.46-9.07,23.33,3.95,5.28,16.08,.92,24.86-5.88,10.14-7.86,14.6-17.2,9.9-22.5Z"/><path class="cls-10" d="M1068.34,1054.77c10.53-3.1,19.58-6.29,26.34-14.17,3.07-3.58,5.67-8.13,7.72-14.08l-7.03-10.35c-6.26,16.88-15.13,30.07-36.1,26.19,3.52,5.63,7.36,8.93,9.07,12.4Z"/><path class="cls-10" d="M1135.64,1038.98v9.88c-9.45,5.88-28.2,3.63-46.53,1.75v-4.86l5.57-5.16c10.9,2.8,23.3,3.79,40.96-1.61Z"/><path class="cls-10" d="M1101.04,1030.08c8.35,3.1,20.53,2.01,33.77-.24v9.39c-11.69,3.49-24.68,4.64-40.13,1.36,2.69-3.09,4.7-6.68,6.36-10.52Z"/><path class="cls-10" d="M1097.17,1018.83c12.79,2.5,25.81,4.33,41.79-2.28v10.66c-1.06,1.36-2.55,2.08-4.15,2.64-13.91,2.42-25.36,2.68-33.77,.24l1.36-3.56-5.23-7.69Z"/><path class="cls-10" d="M1086.31,1011.57v-3.97c19.24,3.27,36.61,3.64,50.16-1.86l.51,11.58c-9.41,4.31-22.47,5.02-39.81,1.5-1.03-1.71-1.65-3.43-3.15-4.83-2.16-1.35-4.55-2.41-7.72-2.42Z"/><path class="cls-10" d="M1086.62,991.62c9.16,8.85,28.2,5.75,45.7,3.32v11.92c-11.93,4.08-27.51,4.05-46.01,.73l.31-15.98Z"/><path class="cls-10" d="M1086.62,982.48c14.89,5,31.23,4.72,49.02-.83v12.1c-23.36,5.62-40.08,5.25-49.02-2.13v-9.14Z"/><path class="cls-10" d="M1086.62,972.44c16.61,3.59,32.72,3.52,48.19-1.34v10.81c-15.97,5.65-32.37,4.96-49.02,.58l.83-10.04Z"/><path class="cls-10" d="M1084.96,958.38c14.48,3.66,30.81,4.02,48.19,2.49v10.72c-15.2,4.17-31.21,4.58-48.19,.58v-13.79Z"/><path class="cls-10" d="M1090.77,959.21v-12.18c16,3.7,31.79,3.98,47.36,.55v11.63c-14.88,3.25-30.62,3.44-47.36,0Z"/><path class="cls-10" d="M1089.94,934.29c16.14,5.33,32.74,6.03,49.85,1.66v11.08c-17.19,3.79-33.85,3.73-49.85-1.11v-11.63Z"/><path class="cls-10" d="M1089.94,934.29c3.36-1.2,6.81-2.36,10.46-2.75,12.79-1.35,26.23-2.53,39.39,4.41-14.76,5.03-34.67,4.93-49.85-1.66Z"/><polygon class="cls-4" points="1065.84 1034.83 1065.84 1037.92 1087.84 1022.81 1087.84 1018.77 1065.84 1034.83"/><polygon class="cls-4" points="1105.75 934.66 1104.71 936.42 1123.42 935.92 1124.77 933.63 1105.75 934.66"/><path class="cls-10" d="M1195.78,1024.84c.53,3.44,.5,7.01,0,10.69-19.2,4.34-37.49,3.21-55-2.69-.79-3.93-.84-8.32,0-13.24,15.16,6.74,33.3,8.8,55,5.24Z"/><path class="cls-10" d="M1142.78,1019.84c-.78-4.69-1-9.23,0-13.45,15.49,9.26,34.32,9.79,55,5.45,1.03,3.96,.93,7.79,0,11.52-17.56,3.35-35.72,3.18-55-3.52Z"/><path class="cls-10" d="M1199.28,1010.34c-19.78,4.89-38.37,4.78-54.93-3.95l.93-10.05c30.18,7.39,45.61,5.14,52-3,1.35,1.84,2.57,4.43,2,17Z"/><path class="cls-10" d="M1195.56,993.34c-13.64,11.31-38.85,5.55-51.21,1.44-.71-3.62-.65-7.41,0-11.33,19.57,7.15,37.28,8.85,51.21-.49,.12,3.71,.14,7.22,0,10.38Z"/><path class="cls-10" d="M1195.65,981.34v-9.46c-19.45,8.58-36.87,7.26-52.37-3.54v14.08c20.58,7.42,39.13,9.79,52.37-1.08Z"/><path class="cls-10" d="M1144.35,967.09c17.05,12.08,36.7,10.71,52.93,3.25,1.07-4.16,1.33-8.51,1-13-19.88,7.06-37.79,7.53-53-1-1.56,3.68-1.95,7.27-.93,10.75Z"/><path class="cls-10" d="M1198.42,956.34c-20.46,6.95-37.84,6.62-52.14-1-.46-2.73-.38-5.85,0-9.17,19.03,4.75,36.09,4.3,51-1.83,1.32,2.9,1.5,7.13,1.14,12Z"/><path class="cls-10" d="M1194.2,944.34c-16.84,5-33.82,4.92-50.91,0-.82-4.7-.99-9.11,0-13,17.14,1.23,33.77,1.32,49.76,0,1.56,4.88,2.33,9.39,1.16,13Z"/><path class="cls-10" d="M1143.79,929.78c-.79-3.87-.55-9.04,0-14.6,15.3,3.66,33.28,3,52.51,.31,.33-.05,.66-.09,.98-.14,.73,5.15,.85,10.02,0,14.44-11.41,1.21-22.04,2.05-29.88,1.56-8.93,.49-17.23,.37-23.62-1.56Z"/><path class="cls-10" d="M1196.96,915.39c-17.67-3.16-35.4-3.03-53.17-.21,15.96,3.05,33.38,3.63,53.17,.21Z"/><g class="cls-17"><path class="cls-9" d="M1695.72,1022.01c.53,3.44,.5,7.01,0,10.69-19.2,4.34-37.49,3.21-55-2.69-.79-3.93-.84-8.32,0-13.24,15.16,6.74,33.3,8.8,55,5.24Z"/><path class="cls-9" d="M1642.72,1017.01c-.78-4.69-1-9.23,0-13.45,15.49,9.26,34.32,9.79,55,5.45,1.03,3.96,.93,7.79,0,11.52-17.56,3.35-35.72,3.18-55-3.52Z"/><path class="cls-9" d="M1699.22,1007.51c-19.78,4.89-38.37,4.78-54.93-3.95l.93-10.05c30.18,7.39,45.61,5.14,52-3,1.35,1.84,2.57,4.43,2,17Z"/><path class="cls-9" d="M1695.49,990.51c-13.64,11.31-38.85,5.55-51.21,1.44-.71-3.62-.65-7.41,0-11.33,19.57,7.15,37.28,8.85,51.21-.49,.12,3.71,.14,7.22,0,10.38Z"/><path class="cls-9" d="M1695.59,978.52v-9.46c-19.45,8.58-36.87,7.26-52.37-3.54v14.08c20.58,7.42,39.13,9.79,52.37-1.08Z"/><path class="cls-9" d="M1644.29,964.27c17.05,12.08,36.7,10.71,52.93,3.25,1.07-4.16,1.33-8.51,1-13-19.88,7.06-37.79,7.53-53-1-1.56,3.68-1.95,7.27-.93,10.75Z"/><path class="cls-9" d="M1698.35,953.51c-20.46,6.95-37.84,6.62-52.14-1-.46-2.73-.38-5.85,0-9.17,19.03,4.75,36.09,4.3,51-1.83,1.32,2.9,1.5,7.13,1.14,12Z"/><path class="cls-9" d="M1694.13,941.51c-16.84,5-33.82,4.92-50.91,0-.82-4.7-.99-9.11,0-13,17.14,1.23,33.77,1.32,49.76,0,1.56,4.88,2.33,9.39,1.16,13Z"/><path class="cls-9" d="M1643.72,926.95c-.79-3.87-.55-9.04,0-14.6,15.3,3.66,33.28,3,52.51,.31,.33-.05,.66-.09,.98-.14,.73,5.15,.85,10.02,0,14.44-11.41,1.21-22.04,2.05-29.88,1.56-8.93,.49-17.23,.37-23.62-1.56Z"/><path class="cls-9" d="M1696.89,912.56c-17.67-3.16-35.4-3.03-53.17-.21,15.96,3.05,33.38,3.63,53.17,.21Z"/><path class="cls-9" d="M1580.3,990.44c4.59-5.17,20.64-3.63,30.92,6.07,15.4,14.55,15.29,22.22,10.92,28.07-4.75,6.36-19.36,1.11-29.92-7.07-12.21-9.46-17.57-20.7-11.92-27.07Z"/><path class="cls-9" d="M1611.22,1039.51c-12.67-3.73-23.57-7.58-31.7-17.06-3.7-4.31-6.83-9.78-9.3-16.94l8.47-12.45c7.53,20.31,18.21,36.19,43.45,31.53-4.24,6.78-8.85,10.74-10.92,14.93Z"/><path class="cls-9" d="M1530.22,1020.51v11.89c11.37,7.07,33.93,4.37,56,2.11v-5.85s-6.7-6.21-6.7-6.21c-13.12,3.37-28.04,4.56-49.3-1.94Z"/><path class="cls-9" d="M1571.86,1009.8c-10.05,3.73-24.71,2.41-40.64-.29v11.3c14.07,4.2,29.7,5.59,48.3,1.64-3.24-3.72-5.66-8.03-7.66-12.66Z"/><path class="cls-9" d="M1576.51,996.26c-15.39,3-31.06,5.21-50.29-2.74v12.82c1.28,1.64,3.07,2.51,5,3.18,16.74,2.92,30.53,3.23,40.64,.29l-1.64-4.29,6.29-9.26Z"/><path class="cls-9" d="M1589.59,987.53v-4.78c-23.16,3.93-44.06,4.39-60.37-2.23l-.61,13.94c11.33,5.19,27.04,6.04,47.91,1.8,1.24-2.06,1.98-4.12,3.79-5.82,2.6-1.63,5.47-2.9,9.29-2.91Z"/><path class="cls-9" d="M1589.22,963.51c-11.02,10.65-33.94,6.91-55,4v14.35c14.36,4.91,33.11,4.88,55.37,.88l-.37-19.23Z"/><path class="cls-9" d="M1589.22,952.51c-17.92,6.02-37.58,5.68-59-1v14.56c28.12,6.76,48.23,6.32,59-2.56v-11Z"/><path class="cls-9" d="M1589.22,940.43c-19.99,4.32-39.38,4.24-58-1.62v13.01c19.22,6.8,38.96,5.97,59,.69l-1-12.09Z"/><path class="cls-9" d="M1591.22,923.51c-17.42,4.4-37.08,4.83-58,3v12.9c18.29,5.01,37.57,5.52,58,.7v-16.59Z"/><path class="cls-9" d="M1584.22,924.51v-14.66c-19.25,4.45-38.26,4.79-57,.66v14c17.91,3.91,36.85,4.14,57,0Z"/><path class="cls-9" d="M1585.22,894.51c-19.42,6.42-39.41,7.25-60,2v13.34c20.69,4.56,40.74,4.48,60-1.34v-14Z"/><path class="cls-9" d="M1585.22,894.51c-4.04-1.44-8.2-2.84-12.59-3.31-15.4-1.62-31.57-3.05-47.41,5.31,17.77,6.05,41.73,5.93,60-2Z"/><polygon class="cls-9" points="1617.32 993.51 1607.51 993.51 1617.32 1002.35 1617.32 993.51"/><path class="cls-9" d="M1590.22,983.51c10.01,.93,20.38,.87,31.04,0v9.19s-12.89,.81-12.89,.81c-6.51-3.5-12.89-6.25-18.78-5.99l-.37-4.01h1Z"/><path class="cls-9" d="M1621.26,964.1c-.87,8.14-15.44,7.88-31.67,6.61v12.03c6.81,.87,18.02,1.02,31.67,.77,.29-.38-.23-16.11,0-19.41Z"/><path class="cls-9" d="M1621.26,962.74l-.4-11.22c-6.49,6.48-18.04,6.71-31.64,4.39l.37,14.81c17.38,.91,32.2,.48,31.67-7.98Z"/><path class="cls-9" d="M1622.67,938.37v12.34c-8.89,7.29-20.54,7.79-33.45,5.19v-3.39h1s-1-9.05-1-9.05c12.75,3.68,23.33,2.43,31.74-3.74,.58-.43,1.15-.87,1.7-1.35Z"/><path class="cls-9" d="M1620.22,930.51c-.46,.18-.92,.36-1.38,.53-8.73,3.15-17.98,3.22-27.62,.97v8.1s-2,.32-2,.32v3.04c11.77,2.63,22.94,3.28,31.74-3.74l-.74-9.2Z"/><path class="cls-9" d="M1584.22,921.51c12.4,2.68,24.14,2.65,35.25,0l.75,9c-9.08,3.26-18.65,4.21-29,1.5v-8.5s-7,1-7,1v-3Z"/><path class="cls-9" d="M1617.22,914.51c-10.97,1.44-21.97,1.26-33-.54v7.54c12.07,2.46,23.51,2.75,34.06,0l-1.06-7Z"/><path class="cls-9" d="M1622.22,899.51c-11.27,4.3-23.76,4.01-37,.92v8.08c-.57,.42-1.01,.85-1,1.34v4.13c13.25,1.91,25.7,2.19,36.74-.4l1.26-14.07Z"/><path class="cls-9" d="M1618.28,888.11c-13.55,3.67-32.7,1.2-53.06-2.6v4.97s20,4.03,20,4.03v5.92c14.02,3.8,25.94,2.47,37-.92v-11.96s-3.94,.56-3.94,.56Z"/><path class="cls-9" d="M1622.22,871.51c-16.42,6.06-36.24,5.68-55,1v13.37c19.7,3.9,38.62,5.91,55,1.67v-16.04Z"/><path class="cls-9" d="M1620.22,858.51c-19.86,3.88-38.95,4.33-57,0l-.36,13c24.81,5.99,44.62,5.5,58.36,0l-1-13Z"/><path class="cls-9" d="M1618.22,845.51c-18.91,6.19-37.33,5.75-55.36,0l-.65,13c18.15,4.18,37.24,5.04,58.01,0v-13s-2,0-2,0Z"/><path class="cls-9" d="M1616.22,832.51c-19,3.92-37.69,3.82-56-1l-.58,14c19.86,5.65,39.21,6.74,57.58-1l-1-12Z"/><path class="cls-9" d="M1618.22,818.51c-17,3.91-34.34,3.41-52-1v14.82c17.46,3.53,35.23,4.12,53.49,0v-14.25s-1.49,.43-1.49,.43Z"/><path class="cls-9" d="M1623.22,803.51c-18.67,4.96-37.33,5.29-56,1v13.25c17.46,4.46,36.04,4.7,56-.25v-14Z"/><path class="cls-9" d="M1623.22,790.51c-20.85,4.15-40.93,5.14-60,2l1,12c20.32,4.15,40.03,4.13,59-1v-13Z"/><path class="cls-9" d="M1618.22,778.51c-20.02,4.01-39.57,4.04-58.58-.6v14.02c20.48,3.45,40.11,3.4,58.58-1.42v-12Z"/><path class="cls-9" d="M1616.22,765.51c-19.79,3.09-38.75,2.89-56.58-1.83v14.23c18.86,3.95,37.72,3.95,56.58,0v-12.4Z"/><path class="cls-9" d="M1625.22,749.51c-19.11,4.39-38.46,4.53-58,1v14.45c19.26,3.23,38.4,2.85,57.39-1.27l.61-14.17Z"/><path class="cls-9" d="M1619.22,736.51c-17.74,3.39-36.49,3.27-56,.54v13c20.44,3.01,39.82,4.25,55.95,0l.05-13.53Z"/><path class="cls-9" d="M1617.22,723.51c-19.94,2.16-39.2,1.92-57.58-1.39v14.39c18.97,3.43,38.17,3.35,57.58,0v-11.93s0-1.07,0-1.07Z"/><path class="cls-9" d="M1626.22,707.51c-19.9,3.71-40.23,4.12-61,1v14.51c18.08,2.74,38.39,2.29,60,0l1-15.51Z"/><path class="cls-9" d="M1618.22,694.51c-19.05,1.11-38.81,1.17-59.16,.38v12.62c19.18,3.68,38.79,3.92,58.77,1.36l.39-14.36Z"/><ellipse class="cls-9" cx="1484.22" cy="1018.01" rx="29" ry="6.5"/><path class="cls-9" d="M1514.22,1030.51c-19.99,8.42-39.67,9.16-59,.87v-13.37c18.14,7.5,37.1,9.83,58,0l1,12.5Z"/><path class="cls-9" d="M1526.22,1004.87c-13.71,.22-27.96,.65-34.17-2.18v9.17c7.69-.18,14.75,1.86,21.17,6.16,6.64,.28,12.74,.09,18-.86v-7.64c-1.93,.04-3.58-1.09-5-3.18v-1.47Z"/><path class="cls-9" d="M1528.81,989.74c-15.12,1.25-29.78,1.11-39.6-4.22v16c6.92,3.37,19.3,4.47,37,3.35v-11.35s2.39,.94,2.39,.94l.21-4.72Z"/><path class="cls-9" d="M1534.22,975.21c-15.32,2.71-29.75,2.45-43-1.7v12.99c10.76,4.31,23.53,4.96,37.6,3.24l.4-9.22,5,1.35v-6.65Z"/><path class="cls-9" d="M1530.22,966.08c-12.92,1.08-24.81,.36-35.44-2.56l-.56,10.87c13.19,3.27,26.52,3.41,39.99,.83v-7.7s-4-1.44-4-1.44Z"/><path class="cls-9" d="M1530.22,951.51c-13.24,1.87-26,1.26-38.17-2.52v13.44c11.06,3.56,23.73,4.86,38.17,3.64v-14.56Z"/><path class="cls-9" d="M1531.22,938.81c-14.2,3.32-27.53,2.07-40-3.75l.83,13.93c10.51,3.78,23.77,4.51,39.17,2.83v-13.01Z"/><path class="cls-9" d="M1526.72,923.51c-10.72-.1-20.44,.16-30.34,0v13.67c9.97,3.79,22.34,4.41,36.83,2.23v-12.9c-3.88-.96-5.88-1.96-6.5-3Z"/><path class="cls-9" d="M1525.22,909.85c-12.41,1.6-24.44,1.62-36-.34v12.96c10.53,2.67,23.51,2.44,37.5,1.04l.5-13-2-.66Z"/><path class="cls-9" d="M1525.22,896.51c-14.01,2.05-26.46,.96-37-4l-.71,17c13.83,1.22,26.72,1.62,37.71,.34v-13.34Z"/><path class="cls-9" d="M1553.22,881.51c-19.76,3.86-38.78,4.22-56.83,0v13.86c8.72,2.56,18.47,2.59,28.83,1.14,5.91-3.67,15.12-5.93,28.14-6.55l-.14-8.45Z"/><path class="cls-9" d="M1548.16,867.17c-16.11,4.54-33.57,4.49-51.94,1.34l.17,13c18.77,5.32,37.71,5.34,56.83,0v-14.34s-5.06,0-5.06,0Z"/><path class="cls-9" d="M1547.22,855.51c-19.82,2.69-39.18,2.83-58,0v12.89c21.74,3.38,41.73,4.16,57.57-1.23l.43-11.66Z"/><path class="cls-9" d="M1547.22,841.6c-19.03,2.83-37.53,2.76-55.41-.82v14.74c16.64,3.02,35.42,2.51,55.41,0v-13.92Z"/><path class="cls-9" d="M1547.31,827.51c-17.25-3.95-35.19-4.38-54.07,0,20.91,1.67,40.51,2.58,54.07,0Z"/><path class="cls-9" d="M1547.22,841.6l.1-14.08c-18.02,2.15-36.04,2.15-54.07,0v13.26c18.6,2.83,36.76,3.82,53.97,.82Z"/><polygon class="cls-3" points="1614.22 1015.51 1614.22 1019.24 1587.75 1001.05 1587.75 996.19 1614.22 1015.51"/><polygon class="cls-3" points="1495.83 1018.03 1497.2 1020.35 1472.55 1019.66 1470.76 1016.64 1495.83 1018.03"/><ellipse class="cls-9" cx="1503.36" cy="1035.01" rx="29" ry="6.5"/><path class="cls-9" d="M1533.36,1047.51c-19.99,8.42-39.67,9.16-59,.87v-13.37c18.14,7.5,37.1,9.83,58,0l1,12.5Z"/><polygon class="cls-3" points="1514.97 1035.03 1516.34 1037.35 1491.69 1036.66 1489.9 1033.64 1514.97 1035.03"/><ellipse class="cls-9" cx="1265.36" cy="1037.01" rx="29" ry="6.5"/><path class="cls-9" d="M1295.36,1049.51c-19.99,8.42-39.67,9.16-59,.87v-13.37c18.14,7.5,37.1,9.83,58,0l1,12.5Z"/><polygon class="cls-3" points="1566.2 894.96 1567.44 897.08 1544.93 896.48 1543.3 893.73 1566.2 894.96"/><path class="cls-9" d="M1343.09,1011.74c-3.81-4.3-17.15-3.02-25.69,5.05-12.79,12.09-12.71,18.46-9.07,23.33,3.95,5.28,16.08,.92,24.86-5.88,10.14-7.86,14.6-17.2,9.9-22.5Z"/><path class="cls-9" d="M1317.4,1052.51c10.53-3.1,19.58-6.29,26.34-14.17,3.07-3.58,5.67-8.13,7.72-14.08l-7.03-10.35c-6.26,16.88-15.13,30.07-36.1,26.19,3.52,5.63,7.36,8.93,9.07,12.4Z"/><path class="cls-9" d="M1384.71,1036.73v9.88c-9.45,5.88-28.2,3.63-46.53,1.75v-4.86l5.57-5.16c10.9,2.8,23.3,3.79,40.96-1.61Z"/><path class="cls-9" d="M1350.11,1027.83c8.35,3.1,20.53,2.01,33.77-.24v9.39c-11.69,3.49-24.68,4.64-40.13,1.36,2.69-3.09,4.7-6.68,6.36-10.52Z"/><path class="cls-9" d="M1346.24,1016.57c12.79,2.5,25.81,4.33,41.79-2.28v10.66c-1.06,1.36-2.55,2.08-4.15,2.64-13.91,2.42-25.36,2.68-33.77,.24l1.36-3.56-5.23-7.69Z"/><path class="cls-9" d="M1335.37,1009.32v-3.97c19.24,3.27,36.61,3.64,50.16-1.86l.51,11.58c-9.41,4.31-22.47,5.02-39.81,1.5-1.03-1.71-1.65-3.43-3.15-4.83-2.16-1.35-4.55-2.41-7.72-2.42Z"/><path class="cls-9" d="M1335.68,989.37c9.16,8.85,28.2,5.75,45.7,3.32v11.92c-11.93,4.08-27.51,4.05-46.01,.73l.31-15.98Z"/><path class="cls-9" d="M1335.68,980.23c14.89,5,31.23,4.72,49.02-.83v12.1c-23.36,5.62-40.08,5.25-49.02-2.13v-9.14Z"/><path class="cls-9" d="M1335.68,970.18c16.61,3.59,32.72,3.52,48.19-1.34v10.81c-15.97,5.65-32.37,4.96-49.02,.58l.83-10.04Z"/><path class="cls-9" d="M1334.02,956.13c14.48,3.66,30.81,4.02,48.19,2.49v10.72c-15.2,4.17-31.21,4.58-48.19,.58v-13.79Z"/><path class="cls-9" d="M1339.84,956.96v-12.18c16,3.7,31.79,3.98,47.36,.55v11.63c-14.88,3.25-30.62,3.44-47.36,0Z"/><path class="cls-9" d="M1339.01,932.03c16.14,5.33,32.74,6.03,49.85,1.66v11.08c-17.19,3.79-33.85,3.73-49.85-1.11v-11.63Z"/><path class="cls-9" d="M1339.01,932.03c3.36-1.2,6.81-2.36,10.46-2.75,12.79-1.35,26.23-2.53,39.39,4.41-14.76,5.03-34.67,4.93-49.85-1.66Z"/><polygon class="cls-3" points="1314.91 1032.57 1314.91 1035.67 1336.9 1020.56 1336.9 1016.51 1314.91 1032.57"/><polygon class="cls-3" points="1354.81 932.41 1353.78 934.16 1372.48 933.67 1373.84 931.38 1354.81 932.41"/><path class="cls-9" d="M1444.85,1022.58c.53,3.44,.5,7.01,0,10.69-19.2,4.34-37.49,3.21-55-2.69-.79-3.93-.84-8.32,0-13.24,15.16,6.74,33.3,8.8,55,5.24Z"/><path class="cls-9" d="M1391.85,1017.58c-.78-4.69-1-9.23,0-13.45,15.49,9.26,34.32,9.79,55,5.45,1.03,3.96,.93,7.79,0,11.52-17.56,3.35-35.72,3.18-55-3.52Z"/><path class="cls-9" d="M1448.35,1008.08c-19.78,4.89-38.37,4.78-54.93-3.95l.93-10.05c30.18,7.39,45.61,5.14,52-3,1.35,1.84,2.57,4.43,2,17Z"/><path class="cls-9" d="M1444.62,991.08c-13.64,11.31-38.85,5.55-51.21,1.44-.71-3.62-.65-7.41,0-11.33,19.57,7.15,37.28,8.85,51.21-.49,.12,3.71,.14,7.22,0,10.38Z"/><path class="cls-9" d="M1444.72,979.09v-9.46c-19.45,8.58-36.87,7.26-52.37-3.54v14.08c20.58,7.42,39.13,9.79,52.37-1.08Z"/><path class="cls-9" d="M1393.42,964.84c17.05,12.08,36.7,10.71,52.93,3.25,1.07-4.16,1.33-8.51,1-13-19.88,7.06-37.79,7.53-53-1-1.56,3.68-1.95,7.27-.93,10.75Z"/><path class="cls-9" d="M1447.49,954.08c-20.46,6.95-37.84,6.62-52.14-1-.46-2.73-.38-5.85,0-9.17,19.03,4.75,36.09,4.3,51-1.83,1.32,2.9,1.5,7.13,1.14,12Z"/><path class="cls-9" d="M1443.26,942.08c-16.84,5-33.82,4.92-50.91,0-.82-4.7-.99-9.11,0-13,17.14,1.23,33.77,1.32,49.76,0,1.56,4.88,2.33,9.39,1.16,13Z"/><path class="cls-9" d="M1392.85,927.52c-.79-3.87-.55-9.04,0-14.6,15.3,3.66,33.28,3,52.51,.31,.33-.05,.66-.09,.98-.14,.73,5.15,.85,10.02,0,14.44-11.41,1.21-22.04,2.05-29.88,1.56-8.93,.49-17.23,.37-23.62-1.56Z"/><path class="cls-9" d="M1446.02,913.13c-17.67-3.16-35.4-3.03-53.17-.21,15.96,3.05,33.38,3.63,53.17,.21Z"/><ellipse class="cls-9" cx="1578.34" cy="896.45" rx="29" ry="6.5"/><path class="cls-9" d="M1608.34,908.95c-19.99,8.42-39.67,9.16-59,.87v-13.37c18.14,7.5,37.1,9.83,58,0l1,12.5Z"/><polygon class="cls-3" points="1589.95 896.47 1591.32 898.79 1566.68 898.1 1564.89 895.08 1589.95 896.47"/></g></g><g><path d="M690.13,450.99c-.16-1.56-.23-3.14-.3-4.71-.17-3.83-.5-7.74-.36-11.54,.12-3.33-.86-6.74-2.86-9.25-1.52-1.71-2.17-1.22-3.25,1.47-3.69,10.04-9.11,17.39-13.45,20.82-5.64,4.65-10.63,5.63-16.49,6.61-8.24,1.47-23.64,1.47-28.85,.25-4.77-.98-5.21-5.39-5.21-8.33,0-12.98,1.08-28.41,1.08-41.64,0-3.92,.65-5.39,1.95-5.39,9.11,0,24.73-.98,30.8-1.71,2.17-.25,2.39,1.71,3.04,3.67,2.6,9.55,4.77,13.23,8.68,16.41,1.52,1.22,3.04,.49,3.04-2.2,0-13.47,.65-31.84,5.21-43.6,1.3-3.43-.22-3.18-1.95-2.45-3.69,1.22-8.89,3.18-9.76,4.65-1.3,1.96-2.39,5.14-3.9,6.86-2.17,2.45-4.34,2.69-8.03,2.69-9.76,0-22.99-.49-26.03-2.21-.87-.49-2.82-.98-2.82-3.67,0-13.96-.22-30.37-.22-41.15,0-.67,.09-1.79,.66-3.01,2.12-4.61,8.82-5.01,12.57-5.28,24.51-1.77,30.72-5.62,34.7,0,.85,1.2,2.01,3.41,2.17,7.35-1.93-3.64-6.06-4.55-8.68-2.45-2.53,2.03-2.85,6.24-1.36,9,1.3,2.41,3.77,3.33,5.7,3.24,3.38-.16,5.46-3.29,6.51-4.9,.39-.6,3.71-5.85,2.17-12.25-.99-4.09-3.44-6.49-4.34-7.35-6.25-5.95-15.52-4.61-21.65-3.89-2.09,.24-25.36,2.89-45.59,1.45-5.31-.38-10.64-.16-15.96-.03-5.13,.13-10.22-.55-15.33-1.04-.25,2.27-.69,4.51-1.32,6.68,6.18,1.82,11.78,5.89,15.92,11.38,3.39,15.33,3.02,61.48,3.02,69.2,0,17.88-.87,39.93-2.39,44.58-.84,2.61-1.56,5.02-3.49,6.87-1.84,1.76-4.21,2.82-6.63,2.84,.06,2.97-.13,5.95-.56,8.88,2.87,.24,5.75,.38,8.63,.44,2.29,.04,4.45-.47,6.72-.39,2.63,.1,5.28-.03,7.92-.03,16.27,0,32.52,.81,48.77,1.4,4.21,.15,8.42,.33,12.63,.31,2.38,0,4.78-.52,7.2-.59,3.06-.09,6.12-.18,9.18-.27,2.24-.07,4.51-.14,6.66-.82s4.22-2.07,5.39-4.24c.99-1.84,1.24-4.09,1.15-6.24-.09-2.16-.49-4.28-.72-6.42Z"/><path d="M1339.67,378.36c.28,2.38,5.39,51.45-21.63,78.83-17.29,17.52-37.4,16.19-49.9,15.34-13.15-.9-35.61-2.43-51.9-25.57-17.97-25.53-15.28-58.7-13.97-69.04,.91-7.23,4.23-33.43,21.96-51.14,14.28-14.26,29.7-14.82,43.91-15.34,15.12-.55,33.69-1.21,49.9,15.34,17.72,18.1,20.85,44.87,21.63,51.58Zm-109.59,3.07c-.66,4.34-5.55,39.32,12.11,65.53,3.7,5.49,13.2,19.58,27.94,20.46,14.98,.89,25.6-12.45,29.94-17.9,14.21-17.85,21.3-46.85,15.97-74.15-4.7-24.08-21.06-57-43.91-56.25-24.26,.79-38.49,38.98-42.05,62.32Z"/><g><path d="M509.21,414.62c-16.38-56.01-32.2-108.06-48.02-164.07h-9.04c-14.41,54.03-31.36,111.36-46.89,163.74-11.58-46.45-22.88-90.27-33.9-134.75-2.26-9.4-3.03-14.62,.6-17.85v-14.11h-52.86v9.23c12.77,3.01,50.05,153.15,74.3,208.55l13.34-.13c14.69-50.74,27.33-106.95,43.72-163.62,8.82,41.3,26.02,101.9,43.11,163.62,0,0,20.5-.04,20.5-.04,7.32-27.79,57.63-200.75,60.26-204.41,9.33-12.96,34.86,.77,28.92,17.81-1.07-2.06-2.75-3.89-4.75-3.81-7.57,.32-8.54,15.5-1.01,17.77,6.24,1.88,11.57-5.9,15.9-13.62,10.35-18.43-23.55-54.16-46-37.7-10.01,7.34-55.21,147.8-58.18,173.4Z"/><path d="M815.66,425.44l6.43,1.83c-1.24,7.1-7.46,30.93-9.54,38.03h-96.39v-6.42c16.72-2.07,16.47-134.26,1.87-136.09v-6.42h55.55v6.42c-16.58,1.83-18.86,115.7-18.86,115.7,0,13.98,1.66,17.18,13.47,17.41,2.41,1.64,47.38-19.94,47.47-30.47Z"/><path d="M931.13,427.24l6.43,1.83c-1.24,7.1-7.46,30.93-9.54,38.03h-96.39v-6.42c16.72-2.07,16.47-134.26,1.87-136.09v-6.42h55.55v6.42c-16.58,1.83-18.86,115.7-18.86,115.7,0,13.98,1.66,17.18,13.47,17.41,2.41,1.64,47.38-19.94,47.47-30.47Z"/><path d="M1048.3,260.79c46.96,0,76.61,8.88,97.26,27.61,16.32,15.23,28.31,37.44,28.31,67.9,0,37.12-15.99,67.27-41.64,85.67-25.31,18.09-57.62,25.07-98.59,25.07h-77.94v-8.88c28.64-2.54,25.98-185.94,0-188.48v-8.88h92.6Zm-33.64,164.05c0,23.8,10.66,30.13,35.64,30.46,126.41,1.65,76.15-196.01-5-183.4-14.81,2.3-22.98,1.9-26.31,4.44-3,1.9-4.33,5.39-4.33,17.77v130.73Z"/><path d="M1502.77,343.31c-.09,.97,.03,1.95,.07,2.93,.38,9.92,.47,19.85,.47,29.77v61.45l-109.64-126.15h-38.79v7.02c13.2,3.09,19,5.87,23.01,9.03,5.66,4.46,5.17,9.53,5.17,16.55v63.95c0,22.82-.52,34.11-1.29,42.13-1.04,12.29-7.24,16.05-23.27,17.3v7.02h62.84v-7.02c-18.62-1.5-25.08-5.27-25.6-18.06-.52-7.27-1.29-18.56-1.29-41.13l.54-45.72,110.14,114.19h9.83v-100.57c0-11.86-.09-23.79,.68-35.58,1.36-21.03,18.87-27.47,19.84-15.75-6.73-.8-7.7,9.66,.58,9.94,17.34,.59,10.96-22.78-6.3-25.39-11.24-1.7-24.92,11.02-26.98,34.08Z"/></g><path d="M1679.27,451.19c-.16-1.56-.23-3.14-.3-4.71-.17-3.83-.5-7.74-.36-11.54,.12-3.33-.86-6.74-2.86-9.25-1.52-1.71-2.17-1.22-3.25,1.47-3.69,10.04-9.11,17.39-13.45,20.82-5.64,4.65-10.63,5.63-16.49,6.61-8.24,1.47-23.64,1.47-28.85,.25-4.77-.98-5.21-5.39-5.21-8.33,0-12.98,1.08-28.41,1.08-41.64,0-3.92,.65-5.39,1.95-5.39,9.11,0,24.73-.98,30.8-1.71,2.17-.25,2.39,1.71,3.04,3.67,2.6,9.55,4.77,13.23,8.68,16.41,1.52,1.22,3.04,.49,3.04-2.2,0-13.47,.65-31.84,5.21-43.6,1.3-3.43-.22-3.18-1.95-2.45-3.69,1.22-8.89,3.18-9.76,4.65-1.3,1.96-2.39,5.14-3.9,6.86-2.17,2.45-4.34,2.69-8.03,2.69-9.76,0-22.99-.49-26.03-2.21-.87-.49-2.82-.98-2.82-3.67,0-13.96-.22-30.37-.22-41.15,0-.67,.09-1.79,.66-3.01,2.12-4.61,8.82-5.01,12.57-5.28,24.51-1.77,30.72-5.62,34.7,0,.85,1.2,2.01,3.41,2.17,7.35-1.93-3.64-6.06-4.55-8.68-2.45-2.53,2.03-2.85,6.24-1.36,9,1.3,2.41,3.77,3.33,5.7,3.24,3.38-.16,5.46-3.29,6.51-4.9,.39-.6,3.71-5.85,2.17-12.25-.99-4.09-3.44-6.49-4.34-7.35-6.25-5.95-15.52-4.61-21.65-3.89-2.09,.24-25.36,2.89-45.59,1.45-5.31-.38-10.64-.16-15.96-.03-5.13,.13-10.22-.55-15.33-1.04-.25,2.27-.69,4.51-1.32,6.68,6.18,1.82,11.78,5.89,15.92,11.38,3.39,15.33,3.02,61.48,3.02,69.2,0,17.88-.87,39.93-2.39,44.58-.84,2.61-1.56,5.02-3.49,6.87-1.84,1.76-4.21,2.82-6.63,2.84,.06,2.97-.13,5.95-.56,8.88,2.87,.24,5.75,.38,8.63,.44,2.29,.04,4.45-.47,6.72-.39,2.63,.1,5.28-.03,7.92-.03,16.27,0,32.52,.81,48.77,1.4,4.21,.15,8.42,.33,12.63,.31,2.38,0,4.78-.52,7.2-.59,3.06-.09,6.12-.18,9.18-.27,2.24-.07,4.51-.14,6.66-.82s4.22-2.07,5.39-4.24c.99-1.84,1.24-4.09,1.15-6.24-.09-2.16-.49-4.28-.72-6.42Z"/></g></svg>