<?xml version="1.0" encoding="UTF-8"?><svg id="ui" xmlns="http://www.w3.org/2000/svg" width="95" height="85" viewBox="0 0 95 85"><defs><style>.cls-1{fill:#ed1c24;}</style></defs><path class="cls-1" d="M50.62,81.55L7.86,31.73C-8.22,14.98,21.02-17.85,48.1,20.44c23.46-30,48.75-15.18,42.75,4.65-2.54,8.4-40.24,56.46-40.24,56.46Z"/><path d="M50.67,83.38L6.82,32.29C1.3,26.54,.44,18.23,4.68,11.16,8.15,5.38,14.26,1.81,21.03,1.63c6.59-.18,16.56,2.66,27.12,16.88C63.84-.6,77.7,2.05,81.65,3.36c9,2.97,13.38,12.21,10.43,21.96-2.56,8.46-38.85,54.78-40.39,56.75l-1.02,1.3ZM21.59,3.62c-.16,0-.31,0-.47,0-5.81,.16-11.11,3.29-14.16,8.39-3.84,6.41-3.09,13.91,1.91,19.11l41.7,48.59c6.04-7.74,36.83-47.48,39.07-54.86,2.66-8.8-1.11-17.07-8.96-19.66-3.57-1.18-16.41-3.53-31.51,15.77l-1.12,1.44-1.04-1.47C39.1,9.75,30.09,3.62,21.59,3.62Z"/></svg>