<?xml version="1.0" encoding="UTF-8"?><svg id="ui" xmlns="http://www.w3.org/2000/svg" width="160" height="105" xmlns:xlink="http://www.w3.org/1999/xlink" viewBox="0 0 160 105"><defs><style>.cls-1,.cls-2{stroke:#000;stroke-miterlimit:10;}.cls-3{fill:#fff;}.cls-2{stroke-width:4px;}.cls-4{filter:url(#drop-shadow-17);}</style><filter id="drop-shadow-17" filterUnits="userSpaceOnUse"><feOffset dx="45" dy="19"/><feGaussianBlur result="blur" stdDeviation="5"/><feFlood flood-color="#000" flood-opacity=".21"/><feComposite in2="blur" operator="in"/><feComposite in="SourceGraphic"/></filter></defs><g class="cls-4"><path class="cls-2" d="M135.98,51c.03,29.58-21.39,51.31-54.58,51.26-37.01-.06-58.95-19.08-57.54-48.25C25.16,27.23,36.85,2.13,78.44,2.75c35.03,.52,57.52,21.86,57.54,48.25Z"/><path class="cls-1" d="M18.24,42.9c-4.57,4.53-8.91-16.5-4.57-18.88,.78-.43,1.36-.75,2.04-.59,1.74,.4,3.51,1.45,4.62,3.76,.74,1.55,1.13,3.88,.42,5.39,.08-.91-.1-1.94-.55-2.52s-1.05-.37-1.51,.13c-1.21,1.31,.37,5.48,1.73,4.31,1.11-.95,1.79-3.01,1.62-5.11s-.95-3.96-1.81-5.56c-.81-1.49-1.75-2.87-2.89-3.5-.93-.51-1.92-.48-2.87-.28-1.22,.26-2.44,.79-3.46,1.89-.89,.96-1.67,2.27-2.15,3.86-2.26,7.5,5.19,19.45,9,18.66,.65-.14,.63,.51,1.03,1.37,.29,.62,.63,1.18,1.01,1.65s.84,.87,1.3,1.14c.16,.09,1.5,.5,1.51,.56-.95-4.69-2.55-8.82-5.48-11.8,.17,2.72,.51,5.12,1.13,7.04"/><path class="cls-1" d="M21.2,50.67c-4.12-5.32-10-3.39-16.19-.11l-1.72,.59c7.09,3.93,13.71,6.17,17.92-.48Z"/><path class="cls-1" d="M18.61,58.15c-4.79-4.4-8.08,16.73-3.63,18.99,.8,.41,1.4,.71,2.06,.54,1.72-.45,3.44-1.54,4.43-3.88,.66-1.57,.94-3.91,.15-5.4,.13,.91,0,1.94-.42,2.53s-1.03,.39-1.52-.09c-1.27-1.28,.09-5.48,1.51-4.36,1.16,.92,1.94,2.96,1.87,5.07s-.75,3.98-1.53,5.6c-.73,1.51-1.61,2.92-2.71,3.57-.9,.53-1.89,.53-2.86,.35-1.23-.22-2.47-.73-3.55-1.8-.94-.94-1.78-2.22-2.34-3.8-2.63-7.43,4.22-19.57,8.07-18.89,.66,.12,.6-.53,.96-1.4,.26-.63,.57-1.2,.92-1.68s.79-.89,1.24-1.18c.15-.1,1.47-.54,1.48-.6-.72,4.71-2.11,8.88-4.89,11.94,.03-2.72,.25-5.13,.78-7.07"/><path d="M19.63,79.51c4.3-7.12,10.82,3.1,9.91,7.92,.24,.64-1.51,4.73-2.82,3.83-1.22-1.43-1.28-3.94-.63-4.89,.91-.32,1.63-.32,2.11,.86l.25,.57c1.82-2.54-4.03-11.76-8.82-8.28Z"/><path d="M16.84,19.96c3.62,8.5,10.93,.7,10.44-4.36,.29-.55-1.08-5.18-2.45-4.75-1.33,.99-1.6,3.44-1.04,4.6,.87,.63,1.58,.89,2.16-.11l.29-.48c1.58,3.14-4.98,10.18-9.4,5.09Z"/><path class="cls-1" d="M141.31,39.03c4.83,4.28,7.91-16.96,3.44-19.1-.8-.38-1.4-.68-2.07-.48-1.71,.49-3.42,1.63-4.38,4-.65,1.59-.9,3.93-.1,5.4-.14-.91-.01-1.94,.4-2.54s1.03-.42,1.51,.05c1.29,1.24-.04,5.49-1.47,4.4-1.17-.89-1.97-2.91-1.92-5.02s.71-4.01,1.48-5.64c.72-1.53,1.58-2.96,2.68-3.65,.89-.56,1.89-.58,2.85-.43,1.23,.19,2.48,.66,3.57,1.7,.95,.91,1.8,2.18,2.38,3.73,2.71,7.37-4.02,19.7-7.88,19.11-.66-.1-.6,.54-.95,1.43-.25,.64-.55,1.21-.91,1.7s-.78,.91-1.23,1.21c-.15,.1-1.46,.58-1.47,.64,.67-4.73,2.02-8.94,4.77-12.08,0,2.72-.2,5.14-.71,7.09"/><path class="cls-1" d="M138.81,46.94c3.8-5.53,9.78-3.92,16.16-.98l1.75,.5c-6.84,4.31-13.32,6.89-17.92,.48Z"/><path class="cls-1" d="M141.84,54.27c4.52-4.65,9.06,16.27,4.75,18.77-.77,.45-1.35,.79-2.03,.65-1.74-.35-3.53-1.35-4.65-3.64-.75-1.53-1.17-3.85-.47-5.38-.07,.91,.12,1.94,.57,2.5s1.05,.34,1.51-.17c1.2-1.34-.42-5.47-1.77-4.27-1.1,.98-1.76,3.06-1.57,5.16s.98,3.94,1.86,5.51c.82,1.47,1.78,2.83,2.92,3.42,.93,.48,1.92,.43,2.87,.2,1.22-.29,2.43-.86,3.44-1.99,.88-.99,1.65-2.32,2.11-3.92,2.19-7.56-5.37-19.32-9.18-18.42-.65,.15-.63-.49-1.04-1.35-.3-.62-.64-1.17-1.02-1.62s-.84-.84-1.31-1.11c-.16-.09-1.5-.46-1.51-.52,1,4.67,2.64,8.75,5.59,11.66-.19-2.71-.56-5.11-1.2-7.02"/><path d="M142.09,75.66c-4.71-6.88-10.62,3.68-9.42,8.43-.2,.65,1.79,4.64,3.04,3.68,1.14-1.5,1.04-4.01,.34-4.92-.92-.27-1.65-.24-2.06,.97l-.21,.58c-1.97-2.44,3.33-11.96,8.32-8.74Z"/><path d="M141.34,16.05c-3.11,8.68-10.87,1.28-10.68-3.79-.32-.53,.77-5.23,2.16-4.88,1.38,.91,1.8,3.35,1.31,4.54-.83,.68-1.52,.97-2.16,0l-.32-.46c-1.39,3.22,5.58,9.9,9.69,4.58Z"/></g><g><polygon class="cls-3" points="58 40.83 58 63.98 75.89 63.81 92.84 74.84 92.84 30.54 75.89 40.83 58 40.83"/><path class="cls-3" d="M98.37,63.23l-1.64-.91c4.11-7.44,4.13-14,.04-20.05l1.56-1.05c4.46,6.6,4.47,14,.04,22.01Z"/><path class="cls-3" d="M101.64,66.61l-1.59-1c6.56-10.39,6.31-18.08-.92-28.38l1.54-1.08c7.65,10.9,7.92,19.44,.97,30.46Z"/><rect class="cls-3" x="82.1" y="15" width="3.13" height="75.04" transform="translate(-13.3 71.41) rotate(-43.14)"/></g></svg>