<?xml version="1.0" encoding="UTF-8"?><svg id="ui" xmlns="http://www.w3.org/2000/svg" width="455" height="180" xmlns:xlink="http://www.w3.org/1999/xlink" viewBox="0 0 455 180"><defs><style>.cls-1,.cls-2{stroke:#000;stroke-miterlimit:10;}.cls-3{fill:#fff;}.cls-2{stroke-width:4px;}.cls-4{filter:url(#drop-shadow-17);}</style><filter id="drop-shadow-17" filterUnits="userSpaceOnUse"><feOffset dx="45" dy="19"/><feGaussianBlur result="blur" stdDeviation="5"/><feFlood flood-color="#000" flood-opacity=".21"/><feComposite in2="blur" operator="in"/><feComposite in="SourceGraphic"/></filter></defs><g class="cls-4"><path class="cls-2" d="M390.91,90.51c-2.64,51.97-67.24,88.98-164.24,87.05-108.18-2.15-170.56-36.77-163.76-87.95C69.16,42.62,105.64-.83,227.15,2.56c102.35,2.85,166.11,41.59,163.76,87.95Z"/><path class="cls-1" d="M47.49,69.78c-13.76,7.7-24.52-29.49-11.63-33.42,2.32-.71,4.05-1.24,6.01-.93,5.04,.8,10.14,2.74,13.15,6.86,2.02,2.77,2.95,6.88,.74,9.49,.33-1.6-.12-3.41-1.37-4.45s-3.03-.7-4.42,.15c-3.66,2.24,.56,9.64,4.65,7.67,3.34-1.61,5.51-5.2,5.2-8.9s-2.4-7.01-4.78-9.86c-2.22-2.67-4.85-5.15-8.12-6.31-2.66-.94-5.56-.94-8.37-.65-3.59,.38-7.2,1.26-10.29,3.13-2.7,1.64-5.1,3.9-6.64,6.66-7.3,13.05,13.38,34.46,24.6,33.28,1.92-.2,1.79,.93,2.89,2.47,.79,1.11,1.72,2.11,2.79,2.96s2.37,1.57,3.69,2.08c.45,.18,4.33,.96,4.36,1.07-2.35-8.29-6.65-15.63-14.94-21.04,.23,4.78,1.02,9.02,2.65,12.44"/><path class="cls-1" d="M55.43,83.58c-11.56-9.58-28.9-6.51-47.33-1.09l-5.09,.94c20.35,7.3,39.5,11.59,52.41,.14Z"/><path class="cls-1" d="M47.17,96.58c-13.59-8-25.16,28.95-12.36,33.16,2.3,.76,4.02,1.33,5.98,1.06,5.06-.69,10.19-2.52,13.29-6.58,2.08-2.72,3.1-6.81,.94-9.47,.29,1.6-.19,3.41-1.47,4.42s-3.05,.63-4.42-.25c-3.61-2.32,.77-9.63,4.82-7.57,3.31,1.68,5.39,5.31,5,9.01s-2.55,6.96-4.99,9.76c-2.28,2.62-4.96,5.04-8.26,6.13-2.68,.88-5.58,.82-8.38,.46-3.58-.46-7.17-1.42-10.22-3.36-2.67-1.7-5.01-4.01-6.49-6.8-7.02-13.21,14.12-34.16,25.32-32.74,1.92,.24,1.81-.89,2.94-2.41,.81-1.09,1.77-2.08,2.86-2.89s2.4-1.52,3.73-2c.45-.17,4.35-.86,4.38-.98-2.53,8.24-6.99,15.49-15.4,20.71,.34-4.77,1.21-9,2.92-12.38"/><path d="M48.21,134.18c13.22-12.27,31.35,6.05,28.24,14.45,.64,1.14-4.84,8.23-8.59,6.58-3.44-2.59-3.37-7-1.39-8.63,2.68-.51,4.79-.48,6.1,1.62l.67,1.02c5.56-4.37-10.7-20.88-25.03-15.04Z"/><path d="M45.51,29.39c9.8,15.14,31.88,1.83,30.92-7.08,.9-.95-2.67-9.17-6.71-8.49-3.97,1.66-4.99,5.96-3.47,8.03,2.47,1.16,4.53,1.64,6.31-.07l.9-.82c4.32,5.6-15.5,17.61-27.96,8.43Z"/><path class="cls-1" d="M407.58,69.78c13.72,7.78,24.69-29.35,11.82-33.36-2.31-.72-4.04-1.26-6-.96-5.05,.77-10.15,2.68-13.18,6.79-2.03,2.76-2.99,6.86-.79,9.49-.32-1.6,.14-3.41,1.4-4.44s3.04-.68,4.42,.18c3.64,2.26-.62,9.64-4.7,7.65-3.34-1.63-5.48-5.23-5.15-8.92s2.44-7,4.83-9.84c2.24-2.65,4.88-5.12,8.16-6.26,2.66-.93,5.57-.91,8.37-.6,3.59,.4,7.19,1.3,10.27,3.19,2.69,1.65,5.08,3.93,6.6,6.69,7.23,13.09-13.57,34.38-24.78,33.14-1.92-.21-1.8,.92-2.9,2.45-.8,1.11-1.73,2.1-2.81,2.94s-2.38,1.55-3.7,2.06c-.45,.17-4.33,.93-4.36,1.05,2.39-8.28,6.73-15.6,15.06-20.96-.26,4.78-1.07,9.02-2.72,12.42"/><path class="cls-1" d="M399.57,83.53c11.61-9.51,28.94-6.35,47.33-.83l5.08,.97c-20.39,7.19-39.57,11.37-52.41-.14Z"/><path class="cls-1" d="M407.76,96.58c13.64-7.92,25,29.09,12.17,33.23-2.3,.74-4.03,1.31-5.99,1.03-5.06-.72-10.18-2.57-13.26-6.65-2.06-2.73-3.06-6.83-.89-9.48-.3,1.6,.17,3.41,1.44,4.43s3.04,.65,4.42-.22c3.62-2.3-.72-9.63-4.78-7.6-3.32,1.67-5.42,5.28-5.05,8.98s2.52,6.97,4.94,9.78c2.26,2.63,4.94,5.07,8.22,6.17,2.67,.9,5.58,.85,8.38,.51,3.59-.44,7.17-1.38,10.23-3.3,2.68-1.68,5.03-3.98,6.53-6.76,7.09-13.17-13.93-34.23-25.13-32.88-1.92,.23-1.81-.9-2.93-2.42-.81-1.1-1.76-2.09-2.84-2.91s-2.39-1.53-3.72-2.02c-.45-.17-4.34-.89-4.38-1,2.48,8.25,6.9,15.52,15.28,20.8-.31-4.77-1.16-9.01-2.85-12.39"/><path d="M406.5,134.17c-13.15-12.34-31.38,5.88-28.32,14.3-.65,1.13,4.79,8.26,8.55,6.63,3.46-2.57,3.41-6.98,1.44-8.63-2.68-.53-4.79-.51-6.11,1.59l-.68,1.01c-5.54-4.4,10.82-20.82,25.11-14.9Z"/><path d="M409.79,29.4c-9.88,15.09-31.89,1.66-30.88-7.25-.9-.95,2.72-9.15,6.76-8.45,3.96,1.68,4.95,5.98,3.43,8.05-2.48,1.14-4.54,1.62-6.31-.11l-.9-.83c-4.35,5.58,15.4,17.7,27.91,8.58Z"/></g><g><path class="cls-3" d="M135.26,90.87c.69,2.01,1.96,3.8,3.23,5.04,.58,1.23,1.62,3.13,2.54,4.36l.23-.45v-5.71c0-.22,.11-.34,.11-.56-.58-3.36,.23-5.93-.11-9.06,.11-1.01,.11-1.9,.11-2.8l-.23-5.82v-13.88c0-1.12,.23-7.5,.12-9.62,0-.56,0-1.23,1.27-1.23h3.81c1.39,0,3.7,.67,4.27,.67h.58c.12,10.18,.23,21.71,.58,26.52-.12,1.23,0,2.35-.12,3.47-.12,1.68,0,3.25,0,4.92v5.37c.12,4.03-.23,6.49-.23,6.94-.11,2.13-.11,4.25-.11,6.27,.11,2.8-.12,5.59,0,8.39,0,1.12,0,2.24,.11,3.36,0,.56-.58,.56-1.27,.56h-3.81c-1.85,.22-2.89,0-3.35,0-1.5-3.8-2.43-4.7-4.5-8.39-.46-.67-1.39-2.35-1.96-3.02-.92-1.01-1.27-2.57-2.66-3.8-1.96-3.02-3.81-6.27-5.89-9.51-2.08-3.13-5.08-6.38-7.85-10.52-1.15-2.8-4.04-5.93-5.77-8.62,0-.56-.23,7.27-.23,7.16v.9c.12,1.12-.11,2.35-.11,3.47l-.23,13.88,.23,5.82c0,.9,.11,1.79,0,2.8,.23,2.13,0,4.48,.11,6.71,.12,2.01-.11,2.8-.46,3.13h-9.12c-1.27,0-2.54,.11-3.81,0-.23,.11-.23-5.93-.23-7.83,0-2.13,.12-4.25,0-6.38,0-2.13,.23-4.14,.12-6.15,0-1.46-.12-2.35-.12-3.13l-.23-1.68c0-.22,.12-.34,.12-.56-.58-3.36,0-6.71-.35-9.85,.11-1.01,.11-1.9,.11-2.8l-.23-5.82,.35-13.88c0-1.12-.12-2.35-.23-3.47l.69-1.01c.69,0,2.77-.11,5.2,0,1.96,0,2.66-.34,3.93-.34,.69,0,1.15,.34,2.08,.34h2.43c.46,1.12,1.5,2.57,2.19,4.03,1.62,3.25,2.31,5.71,3.12,6.71,1.27,1.45,3.7,5.71,5.08,8.06,3,5.04,6.47,10.85,10.51,17.01Z"/><path class="cls-3" d="M217.74,63.7c-.58,0-2.54,.53-3.93,.64-.58,0-1.5-.11-1.96,0l-2.19,.43h-6.46c-3.23,.11-5.43,0-8.66,0-.58,0-2.08,.21-2.54,.11,0,.64-.23,1.06-.23,1.7,.23,.74,.46,8.06,.46,8.81v4.78c0,1.17,0,1.59,.35,2.86h6.7c2.42,0,4.5,.21,7.04,.21,1.38,0,3.69,.21,4.73,0,.12,1.27,.35,2.76,.35,3.93v1.7c-.58,0-2.66,.21-4.04,.32h-4.85c-3.12,.43-5.43,.32-8.66,.32-.58,0-1.73,.21-2.19,.11v3.93c0,1.91,0,4.25,.46,5.84,0,2.55,.12,4.78,.12,6.58v1.8c.23-.11,2.08,.21,4.39,.53,2.31,.32,3.81,.32,5.19,.74,.69,.21,4.27,.32,4.96,.32,3.81,.42,7.5,.42,11.31,.74h4.16c.58,0,1.5-.32,1.85-.32,.69,2.55,.69,4.99,.69,7.32-1.27,.64-3.23,.53-4.96,.64-1.04,0-2.31-.21-3.58-.21-3.12,.11-7.85-.21-10.97,.11h-1.73c-1.62-.21-5.43-.43-6.93-.43-1.73-.11-4.62,.21-13.28,.32-.69,0-8.31,.11-8.89,.21,0-2.97-.58-5.84-.58-8.28,0-1.38-.23-3.5,0-4.78,.35-4.56,.12-8.91,.12-13.37,0-.96-.23-4.03-.12-6.26l-.23-3.29c-.12-.95,.46-4.14,.35-6.15-.12-3.18-.35-5.31-.46-8.7-.12-2.97,.23-5.94,.23-8.6,0-.64,0-1.17,.69-1.7l5.89,.21c2.31,.11,5.66-.11,7.97,0,.58,0,1.15-.11,1.73-.11,.92,0,6.93-.11,7.5,.11,.35,.11,2.31,.32,3.12,.32s4.16-.21,4.96-.11c1.62,.21,3.12,.11,4.73,.21,.23,0,7.16,.43,7.39,.43-.58,1.8,0,4.14,0,6.05Z"/><path class="cls-3" d="M292.89,109.56c.56,1.37,2.03,2.75,2.71,3.89,.56,1.37,1.13,1.95,2.37,3.2,.68,.57,1.01,1.37,.68,1.49-.68,.11-1.13,.23-1.13,.23-.22,.23-1.24,.34-3.16,.34h-6.54c-1.24,0-2.59-.57-3.05-2.06-1.24-1.26-2.37-4.12-4.51-5.83-2.03-3.2-4.4-6.41-5.98-8.24-1.13-2.06-3.16-4.69-4.96-7.09q-.56-.69-1.24-1.26c-.68,.92-3.72,5.15-4.51,6.41-1.13,1.83-2.37,3.09-3.95,4.58-1.69,2.52-3.61,4.92-5.64,7.67-.68,1.26-1.92,2.52-2.37,3.78-.68,.8-1.35,.8-2.59,.8h-10.83c0-.46,.23-1.6,.68-2.06,1.81-2.52,3.61-5.83,5.75-8.35,2.37-3.32,5.64-6.41,7.45-10.3,1.92-2.52,3.95-5.26,5.87-8.35,.56-.92,.56-1.49,1.24-2.06,.45-.57,.45-1.26,1.35-2.52-2.37-2.52-3.5-4.81-4.4-6.18-.9-1.14-1.35-2.17-2.37-3.43-1.8-2.52-3.16-4.12-4.17-6.18-.56-1.03-3.72-3.89-5.08-6.64l-.9-1.6c-1.58-2.63-2.59-3.43-2.93-3.78-.56-1.26-1.69-2.52-2.26-3.89,0-.23-.11-.46,0-.69h13.2c.45,.57,1.01,.8,1.35,1.95,.56,1.03,1.92,1.95,2.48,3.32,1.13,1.72,2.48,3.89,3.72,6.41,.45,.57,.9,1.72,1.47,2.75,1.92,2.52,3.61,5.15,4.85,7.55,.79,.69,1.02,1.37,1.35,1.26,.79-.23,2.03-2.06,2.48-3.09,1.24-1.49,1.8-2.75,3.27-3.89,.56-.57,1.13-2.06,1.8-2.75,1.01-2.06,2.26-3.78,3.27-5.72,1.24-1.95,1.8-3.78,3.05-5.61,.23-.92,.68-.92,.68-.92,4.51,0,9.7,0,14.78,.8,0,.23-.45,1.14-1.02,1.72-.56,.8-.79,1.49-1.69,2.63-1.24,2.17-2.37,3.89-3.61,5.84l-3.95,5.83c-.45,.34-.45,1.6-1.13,2.06-.68,.57-1.24,1.83-1.92,3.09-2.03,2.75-3.27,5.15-4.51,7.09-.68,1.49-1.13,2.06-2.03,3.32v.69c1.35,1.72,3.27,4.58,4.51,6.41,.56,1.26,2.03,2.06,2.71,3.32,.56,1.26,1.24,1.83,1.69,3.09l1.13,2.17c.45,.92,1.35,1.6,1.81,2.29,.9,1.49,1.92,2.98,2.71,4.01l2.03,2.52Z"/><path class="cls-3" d="M334.23,113.36c-.49,.11-3.05,.44-2.75,.44h-4.81c-2.06-.22-3.34-.33-4.42-.22-.2,0-.59-.33-.69-.44-.1-1.33,0-4.64,0-6.08v-1.55c.2-2.54,0-4.2,0-6.74v-2.43c.59-3.2,0-6.96,0-9.95v-28.18c0-.55,0-1.1-.49-1.1-1.77-.11-2.55-.11-4.32,0-.79,0-3.24-.77-3.93-.55-.59,.22-3.44-.22-4.03-.22s-1.18,0-1.67-.44v-6.85c.49-.22,1.67-.22,2.75-.22,1.28,0,2.36,0,3.24-.11,.29,0,2.26,.22,3.34,.33,.29-.11,.88-.22,1.18-.22,1.08-.11,1.87-.11,2.75,0,1.18,.11,1.38-.11,2.46-.11h1.57l2.65,.22c1.28,0,2.65-.11,3.93,0,2.95,.22,5.99,.11,7.86-.11,.88,0,3.73,.44,5.89,.55,1.38,.11,2.36-.11,2.95,0v5.08c0,.55,.2,.44,0,1.55-.1,.55-1.37,.55-1.87,.55-3.44,.55-6.09,.22-8.74,.22-1.08,0-1.47,0-2.26,.11v2.54c0,1.22-.1,4.09-.1,5.42,0,1.22,.1,.77-.59,4.42,0,5.08,.1,6.52,.1,10.28v1.1c-.49,2.43,0,5.08,0,7.52v25.2Z"/></g></svg>