<?xml version="1.0" encoding="UTF-8"?><svg id="ui" xmlns="http://www.w3.org/2000/svg" width="455" height="180" xmlns:xlink="http://www.w3.org/1999/xlink" viewBox="0 0 455 180"><defs><style>.cls-1,.cls-2{stroke:#000;stroke-miterlimit:10;}.cls-3{fill:#fff;}.cls-2{stroke-width:4px;}.cls-4{filter:url(#drop-shadow-16);}</style><filter id="drop-shadow-16" filterUnits="userSpaceOnUse"><feOffset dx="45" dy="19"/><feGaussianBlur result="blur" stdDeviation="5"/><feFlood flood-color="#000" flood-opacity=".21"/><feComposite in2="blur" operator="in"/><feComposite in="SourceGraphic"/></filter></defs><g class="cls-4"><path class="cls-2" d="M390.91,90.51c-2.64,51.97-67.24,88.98-164.24,87.05-108.18-2.15-170.56-36.77-163.76-87.95C69.16,42.62,105.64-.83,227.15,2.56c102.35,2.85,166.11,41.59,163.76,87.95Z"/><path class="cls-1" d="M47.49,69.78c-13.76,7.7-24.52-29.49-11.63-33.42,2.32-.71,4.05-1.24,6.01-.93,5.04,.8,10.14,2.74,13.15,6.86,2.02,2.77,2.95,6.88,.74,9.49,.33-1.6-.12-3.41-1.37-4.45s-3.03-.7-4.42,.15c-3.66,2.24,.56,9.64,4.65,7.67,3.34-1.61,5.51-5.2,5.2-8.9s-2.4-7.01-4.78-9.86c-2.22-2.67-4.85-5.15-8.12-6.31-2.66-.94-5.56-.94-8.37-.65-3.59,.38-7.2,1.26-10.29,3.13-2.7,1.64-5.1,3.9-6.64,6.66-7.3,13.05,13.38,34.46,24.6,33.28,1.92-.2,1.79,.93,2.89,2.47,.79,1.11,1.72,2.11,2.79,2.96s2.37,1.57,3.69,2.08c.45,.18,4.33,.96,4.36,1.07-2.35-8.29-6.65-15.63-14.94-21.04,.23,4.78,1.02,9.02,2.65,12.44"/><path class="cls-1" d="M55.43,83.58c-11.56-9.58-28.9-6.51-47.33-1.09l-5.09,.94c20.35,7.3,39.5,11.59,52.41,.14Z"/><path class="cls-1" d="M47.17,96.58c-13.59-8-25.16,28.95-12.36,33.16,2.3,.76,4.02,1.33,5.98,1.06,5.06-.69,10.19-2.52,13.29-6.58,2.08-2.72,3.1-6.81,.94-9.47,.29,1.6-.19,3.41-1.47,4.42s-3.05,.63-4.42-.25c-3.61-2.32,.77-9.63,4.82-7.57,3.31,1.68,5.39,5.31,5,9.01s-2.55,6.96-4.99,9.76c-2.28,2.62-4.96,5.04-8.26,6.13-2.68,.88-5.58,.82-8.38,.46-3.58-.46-7.17-1.42-10.22-3.36-2.67-1.7-5.01-4.01-6.49-6.8-7.02-13.21,14.12-34.16,25.32-32.74,1.92,.24,1.81-.89,2.94-2.41,.81-1.09,1.77-2.08,2.86-2.89s2.4-1.52,3.73-2c.45-.17,4.35-.86,4.38-.98-2.53,8.24-6.99,15.49-15.4,20.71,.34-4.77,1.21-9,2.92-12.38"/><path d="M48.21,134.18c13.22-12.27,31.35,6.05,28.24,14.45,.64,1.14-4.84,8.23-8.59,6.58-3.44-2.59-3.37-7-1.39-8.63,2.68-.51,4.79-.48,6.1,1.62l.67,1.02c5.56-4.37-10.7-20.88-25.03-15.04Z"/><path d="M45.51,29.39c9.8,15.14,31.88,1.83,30.92-7.08,.9-.95-2.67-9.17-6.71-8.49-3.97,1.66-4.99,5.96-3.47,8.03,2.47,1.16,4.53,1.64,6.31-.07l.9-.82c4.32,5.6-15.5,17.61-27.96,8.43Z"/><path class="cls-1" d="M407.58,69.78c13.72,7.78,24.69-29.35,11.82-33.36-2.31-.72-4.04-1.26-6-.96-5.05,.77-10.15,2.68-13.18,6.79-2.03,2.76-2.99,6.86-.79,9.49-.32-1.6,.14-3.41,1.4-4.44s3.04-.68,4.42,.18c3.64,2.26-.62,9.64-4.7,7.65-3.34-1.63-5.48-5.23-5.15-8.92s2.44-7,4.83-9.84c2.24-2.65,4.88-5.12,8.16-6.26,2.66-.93,5.57-.91,8.37-.6,3.59,.4,7.19,1.3,10.27,3.19,2.69,1.65,5.08,3.93,6.6,6.69,7.23,13.09-13.57,34.38-24.78,33.14-1.92-.21-1.8,.92-2.9,2.45-.8,1.11-1.73,2.1-2.81,2.94s-2.38,1.55-3.7,2.06c-.45,.17-4.33,.93-4.36,1.05,2.39-8.28,6.73-15.6,15.06-20.96-.26,4.78-1.07,9.02-2.72,12.42"/><path class="cls-1" d="M399.57,83.53c11.61-9.51,28.94-6.35,47.33-.83l5.08,.97c-20.39,7.19-39.57,11.37-52.41-.14Z"/><path class="cls-1" d="M407.76,96.58c13.64-7.92,25,29.09,12.17,33.23-2.3,.74-4.03,1.31-5.99,1.03-5.06-.72-10.18-2.57-13.26-6.65-2.06-2.73-3.06-6.83-.89-9.48-.3,1.6,.17,3.41,1.44,4.43s3.04,.65,4.42-.22c3.62-2.3-.72-9.63-4.78-7.6-3.32,1.67-5.42,5.28-5.05,8.98s2.52,6.97,4.94,9.78c2.26,2.63,4.94,5.07,8.22,6.17,2.67,.9,5.58,.85,8.38,.51,3.59-.44,7.17-1.38,10.23-3.3,2.68-1.68,5.03-3.98,6.53-6.76,7.09-13.17-13.93-34.23-25.13-32.88-1.92,.23-1.81-.9-2.93-2.42-.81-1.1-1.76-2.09-2.84-2.91s-2.39-1.53-3.72-2.02c-.45-.17-4.34-.89-4.38-1,2.48,8.25,6.9,15.52,15.28,20.8-.31-4.77-1.16-9.01-2.85-12.39"/><path d="M406.5,134.17c-13.15-12.34-31.38,5.88-28.32,14.3-.65,1.13,4.79,8.26,8.55,6.63,3.46-2.57,3.41-6.98,1.44-8.63-2.68-.53-4.79-.51-6.11,1.59l-.68,1.01c-5.54-4.4,10.82-20.82,25.11-14.9Z"/><path d="M409.79,29.4c-9.88,15.09-31.89,1.66-30.88-7.25-.9-.95,2.72-9.15,6.76-8.45,3.96,1.68,4.95,5.98,3.43,8.05-2.48,1.14-4.54,1.62-6.31-.11l-.9-.83c-4.35,5.58,15.4,17.7,27.91,8.58Z"/><g><path class="cls-3" d="M152.12,90.21c-3.13,2.25-8.97,5.5-10.68,5.62-2.99,.38-5.7,1.12-8.55,1.12-1,.25-2.42,0-3.85,0h-1.57c-.28,3.87-1.14,10.37-1.28,14.24-.14,2.75-1,6-.85,8.37,.14,1.25-.57,8-.57,7.87-.85,.75-2.99,.5-4.42,1-1.99,0-3.56,.25-4.99,.25,.29-4.12,0-11.87,0-17.24,0-2.37,.57-5.37,.43-8v-10c.14-1.25-.14-3.87-.14-5.12-.29-4.62,.28-9.87-.14-13.49-.28-2.25-.14-4.87-.14-7.25,0-3.12-.14-6.25,0-9.49,0-1.63,.14-3.37,0-4.87,.85-.75,2.28-.75,2.99-.75,4.41-.62,13.1-.38,17.66,.25,2.14,.13,4.41,.62,6.98,1,1,.13,1.85,.25,2.71,.5,4.99,2.25,8.83,4.87,11.11,8.37,1.14,1.5,2.42,3.62,2.71,6.25v8.37c-.28,2-1.28,5.25-2.42,7.25-1.42,2.37-2.71,3.75-4.98,5.75Zm-11.11-22.86c-.28-.88-3.13-3.87-5.98-4.62l-1.57-.25c-2.85-.75-4.84-1-6.84-.88,0,1.62-.14,3.37-.14,5.25,0,3.37,0,6.87-.28,9.37,.14,2.87,.28,4.37,.28,7.12,0,1.62-.28,5.5,0,6,.85,.25,3.13,.25,5.84-.13,.85-.13,4.13-.88,5.84-2.37,1.85-1.62,2.85-4.25,3.85-6.75,.85-5,0-10.37-1-12.74Z"/><path class="cls-3" d="M172.57,60.34c1.95,.11,5.97-.11,9.01,0,3.04,0,4.14-.22,5.11-.22,.49,0,1.22,.11,1.83,.33v7.17c0,8.28-.73,10.38-.73,12.47v6.95c0,1.32,.24,3.2,.12,4.08-.24,.66-.24,1.33-.12,1.99,.24,1.55-.12,5.41,.24,6.62,0,2.98-.49,13.47-.24,16.45h5.36c1.58,.55,2.8,0,4.26,.55h7.43c3.53,.77,7.79,.77,11.08,.55h4.87s.73,.77,.73,1.32c-.24,1.77,0,6.18-.49,6.18h-5.85c-4.02,.11-6.7,.22-9.62,.22h-6.33c-2.56-.55-4.51-.44-6.82-.44h-1.34c-1.22,0-2.68-.11-4.14,0-2.19,0-6.21,.44-8.77,.44h-4.87c-.73-1.99-.73-3.75-.73-5.08v-5.52c.73-1.21,0-2.43,0-3.86l.24-6.84c-.24-2.98,0-5.96,0-8.94-.37-1.21,0-5.08-.24-6.62-.12-.66-.12-1.33,.12-1.99,.12-.88-.12-2.76-.12-4.08v-21.74Z"/><path class="cls-3" d="M237.76,113.52c.93-2.94,2.07-5.98,3-8.92,.72-2.26,1.96-4.63,2.79-6.44,.72-2.48,1.65-4.18,1.76-4.63,0-.23,.72-1.36,1.55-4.07,.41-1.35,.72-2.94,1.24-4.29l2.48-6.55c1.24-3.27,.41-2.6,1.65-5.76,.72-1.58,1.14-3.16,1.76-4.74,.31-.9,.62-1.81,.83-2.71,.41-1.24,.72-1.92,.93-3.16,.31-.34,.31-.9,.72-1.58,.83-.56,1.34-.56,1.86-.56h4.75c.31,.56,.1,1.13,.41,1.69l.41,1.69,.31,.9,1.14,3.5,1.86,5.76,.72,1.47c.21,.34,.52,1.36,1.03,2.82,.62,1.92,1.55,4.63,2.17,7,.93,3.73,1.45,5.08,2.17,7,.41,.56,.41,1.47,.72,2.15l1.34,4.63,1.76,4.06c.41,1.36,.83,2.6,1.55,3.84,1.14,2.94,1.65,5.19,2.69,8.24,.52,1.36,1.24,2.48,1.65,3.84,.31,.68,.62,1.58,.83,2.26,.72,1.36,1.14,2.82,1.76,4.4,.31,.9,.83,1.92,.93,2.6-.62,0-1.45-.23-1.96-.23h-1.76c-1.24,0-2.27,.11-2.89,.11-.72-1.81-2.17-3.27-3.51-5.87-.31-.68-.52-1.36-.83-1.92-.31-.9-2.17-2.94-2.27-3.84-1.03-1.36-1.45-2.15-2.07-2.82-1.03-.11-3.51-.34-3.51-.34h-2.48c-1.34,0-2.38,.34-11.16,.34h-.72c-1.03,0-1.45,.45-2.58,0-.41-.22-2.58,0-3.1,.11l-1.34,.11-.52,.79c-.62,1.69-2.89,5.08-3.41,6.66l-.72,2.03-2.58,5.19c-.21,.56-.93,.45-1.24,.68h-5.27q-.52-.56,0-1.24c0-.56,.62-2.03,.62-2.6,.62-1.24,1.14-2.6,1.65-3.73l2.89-7.9Zm21.69-28c-.72,.34-.93,.79-1.14,1.36-.52,2.15-1.55,4.18-2.38,6.21-.62,1.47-1.45,2.71-1.96,4.18-1.24,3.05-2.48,5.98-3.93,8.81h.62c1.03,0,1.96,.23,2.89,0,.83-.22,1.55,0,2.27,0,2.27,0,4.75-.11,7.75,.11,1.55,.11,2.79-.11,4.13-.11h.93c-.1-.56-.41-.9-.62-1.35-.52-1.24-1.24-1.92-1.65-3.27l-3.62-7.9c-.21-.45-.31-.9-.41-1.47l-2.89-6.55Z"/><path class="cls-3" d="M313.99,72.74c.57,1.15,1.26,1.67,2.18,2.82l2.3,2.19,1.26-1.04,.57-.84c.8-.94,2.53-3.02,4.59-5.32l3.67-4.17c-.23,.21,1.84-2.61,1.61-2.3,.92-.83,1.72-2.4,2.87-3.65,.69-.94,1.26-2.09,2.07-3.03l.92-1.67q.69-.63,1.26-.63c2.07,1.36,3.33,2.82,5.28,4.49l.57,.63c.57,.73,1.03,1.25,1.38,1.88-.11,.31-.8,1.15-1.38,1.77l-4.36,5.84c-1.49,2.4-3.33,4.17-5.17,5.84-1.49,1.36-2.75,3.02-4.02,4.17-1.84,2.4-3.9,4.17-5.28,5.84l-.46,.52c-.23,3.96,.12,8.76,.23,10.33,0,.63-.12,1.67-.12,1.67,.23,3.76,.34,6.15,.34,8.14,0,3.02-.23,5.32,.23,8.35,0,1.98,.12,5.32,.34,7.41v1.77c-.12,.52-2.18,.42-2.53,.73-1.38,.42-4.48,.31-6.43,.1-.23-.73-.57-.73-.92-1.25v-2.5c0-1.15,.11-2.3,0-4.49,0-.73-.34-3.34-.23-3.96,.23-3.13,.57-5.32,.46-7.93-.12-2.61,.34-4.69,.46-5.32v-3.44c-.11-1.56-.34-3.76-.23-3.86,.12-.31,0-.73,0-.94,0-.63,0-2.09,.12-2.61,0-1.04-.57-1.56-1.26-2.19-.57-.63-1.49-1.25-1.72-1.77l-1.72-1.56c-1.26-.63-3.1-3.96-5.28-5.74-.92-.83-5.51-5.84-5.97-6.36-.46-.31-1.95-2.61-2.07-2.82-.8-.94-1.49-1.46-2.07-2.4l-2.87-3.96v-.52c1.38-.73,1.95-1.88,3.21-2.5,.69-.52,1.95-1.67,2.53-2.19h1.49c.57,1.15,1.84,2.19,2.41,3.34,.11,.42,.92,.94,.92,1.15,.34,.1,1.72,1.56,1.95,2.09l1.72,2.19c.69,.83,1.03,1.15,1.72,2.19,.23,.31,1.15,1.56,1.61,1.88,1.26,1.15,2.64,2.29,3.79,3.65Z"/></g></g></svg>