<?xml version="1.0" encoding="UTF-8"?><svg id="ui" xmlns="http://www.w3.org/2000/svg" width="570" height="180" viewBox="0 0 570 180"><defs><style>.cls-1,.cls-2{stroke:#000;stroke-miterlimit:10;}.cls-2{stroke-width:4px;}</style></defs><path class="cls-2" d="M489.15,90.51c-3.3,52.08-84,89.15-205.18,87.22-135.15-2.16-213.08-36.85-204.58-88.13C87.19,42.52,132.76-1.01,284.57,2.38c127.86,2.86,207.52,41.67,204.58,88.13Z"/><path class="cls-1" d="M60.12,69.74c-17.2,7.72-30.64-29.55-14.53-33.49,2.89-.71,5.06-1.24,7.5-.93,6.3,.8,12.66,2.74,16.42,6.88,2.52,2.77,3.69,6.89,.92,9.51,.41-1.6-.15-3.42-1.71-4.46s-3.79-.7-5.53,.15c-4.57,2.24,.7,9.66,5.81,7.69,4.18-1.61,6.88-5.21,6.49-8.91s-3-7.02-5.97-9.88c-2.78-2.67-6.06-5.16-10.15-6.32-3.32-.94-6.95-.95-10.45-.65-4.49,.38-8.99,1.26-12.85,3.14-3.38,1.64-6.37,3.91-8.3,6.67-9.13,13.08,16.71,34.52,30.73,33.35,2.4-.2,2.24,.93,3.61,2.47,.99,1.11,2.15,2.12,3.49,2.96s2.96,1.57,4.61,2.09c.56,.18,5.4,.96,5.45,1.08-2.93-8.31-8.31-15.67-18.67-21.08,.29,4.79,1.27,9.04,3.31,12.46"/><path class="cls-1" d="M70.04,83.57c-14.44-9.59-36.11-6.52-59.12-1.09l-6.35,.95c25.42,7.32,49.35,11.62,65.48,.15Z"/><path class="cls-1" d="M59.72,96.6c-16.98-8.02-31.43,29.01-15.44,33.23,2.87,.76,5.02,1.33,7.48,1.06,6.32-.69,12.74-2.52,16.61-6.59,2.6-2.73,3.87-6.83,1.18-9.49,.37,1.61-.24,3.41-1.83,4.43s-3.81,.64-5.52-.25c-4.5-2.32,.97-9.65,6.02-7.59,4.13,1.69,6.74,5.33,6.25,9.02s-3.19,6.97-6.24,9.78c-2.85,2.62-6.2,5.05-10.32,6.14-3.35,.89-6.97,.82-10.47,.47-4.48-.46-8.95-1.42-12.76-3.36-3.33-1.7-6.26-4.02-8.11-6.81-8.77-13.23,17.64-34.22,31.63-32.8,2.39,.24,2.27-.89,3.68-2.41,1.02-1.09,2.21-2.08,3.57-2.9s3-1.52,4.66-2.01c.57-.17,5.43-.86,5.47-.98-3.16,8.25-8.73,15.52-19.23,20.75,.42-4.78,1.51-9.02,3.65-12.4"/><path d="M61.02,134.27c16.51-12.29,39.17,6.06,35.28,14.48,.8,1.14-6.05,8.25-10.73,6.59-4.3-2.59-4.21-7.01-1.74-8.65,3.35-.51,5.99-.48,7.62,1.63l.84,1.02c6.95-4.38-13.37-20.92-31.27-15.07Z"/><path d="M57.64,29.27c12.24,15.17,39.82,1.84,38.63-7.09,1.13-.95-3.33-9.18-8.38-8.5-4.96,1.66-6.23,5.97-4.34,8.04,3.09,1.16,5.66,1.65,7.89-.07l1.13-.82c5.4,5.61-19.37,17.65-34.93,8.45Z"/><path class="cls-1" d="M509.97,69.74c17.14,7.79,30.84-29.41,14.77-33.43-2.89-.72-5.05-1.27-7.5-.97-6.31,.77-12.68,2.69-16.47,6.8-2.54,2.76-3.73,6.87-.99,9.51-.4-1.6,.17-3.42,1.74-4.45s3.79-.68,5.53,.18c4.55,2.26-.77,9.66-5.87,7.66-4.17-1.63-6.84-5.24-6.43-8.94s3.05-7.01,6.04-9.86c2.79-2.66,6.1-5.13,10.19-6.27,3.33-.93,6.96-.91,10.46-.6,4.49,.4,8.98,1.3,12.83,3.2,3.37,1.66,6.34,3.93,8.25,6.71,9.04,13.12-16.95,34.45-30.96,33.21-2.4-.21-2.25,.92-3.63,2.46-.99,1.11-2.17,2.11-3.51,2.95s-2.97,1.56-4.62,2.07c-.56,.17-5.41,.94-5.45,1.05,2.99-8.29,8.41-15.63,18.81-21-.33,4.79-1.33,9.04-3.4,12.45"/><path class="cls-1" d="M499.96,83.52c14.51-9.53,36.15-6.36,59.13-.83l6.35,.97c-25.47,7.21-49.43,11.4-65.48-.15Z"/><path class="cls-1" d="M510.19,96.59c17.04-7.94,31.23,29.15,15.21,33.3-2.88,.75-5.03,1.31-7.48,1.03-6.32-.72-12.72-2.58-16.56-6.66-2.58-2.74-3.82-6.84-1.11-9.5-.38,1.61,.22,3.41,1.8,4.44s3.8,.65,5.52-.22c4.52-2.3-.9-9.65-5.97-7.61-4.14,1.67-6.77,5.3-6.31,9s3.14,6.99,6.17,9.8c2.83,2.63,6.17,5.08,10.27,6.19,3.34,.9,6.97,.86,10.47,.51,4.48-.44,8.96-1.38,12.78-3.31,3.34-1.69,6.29-3.99,8.16-6.78,8.86-13.19-17.41-34.3-31.4-32.94-2.4,.23-2.26-.9-3.66-2.43-1.01-1.1-2.19-2.09-3.55-2.92s-2.99-1.53-4.65-2.03c-.57-.17-5.42-.89-5.47-1,3.1,8.27,8.62,15.56,19.09,20.84-.39-4.78-1.45-9.02-3.56-12.42"/><path d="M508.63,134.26c-16.43-12.37-39.21,5.89-35.38,14.33-.81,1.14,5.99,8.27,10.68,6.64,4.32-2.57,4.26-6.99,1.8-8.64-3.35-.53-5.99-.51-7.64,1.59l-.85,1.02c-6.92-4.41,13.51-20.86,31.37-14.93Z"/><path d="M512.73,29.28c-12.35,15.12-39.84,1.66-38.58-7.26-1.12-.95,3.4-9.17,8.44-8.47,4.95,1.69,6.19,6,4.28,8.06-3.1,1.15-5.67,1.62-7.89-.11l-1.12-.83c-5.43,5.59,19.25,17.73,34.87,8.6Z"/></svg>