<?xml version="1.0" encoding="UTF-8"?><svg id="ui" xmlns="http://www.w3.org/2000/svg" width="455" height="180" xmlns:xlink="http://www.w3.org/1999/xlink" viewBox="0 0 455 180"><defs><style>.cls-1,.cls-2{stroke:#000;stroke-miterlimit:10;}.cls-3{fill:#fff;}.cls-2{stroke-width:4px;}.cls-4{filter:url(#drop-shadow-17);}</style><filter id="drop-shadow-17" filterUnits="userSpaceOnUse"><feOffset dx="45" dy="19"/><feGaussianBlur result="blur" stdDeviation="5"/><feFlood flood-color="#000" flood-opacity=".21"/><feComposite in2="blur" operator="in"/><feComposite in="SourceGraphic"/></filter></defs><g class="cls-4"><path class="cls-2" d="M390.91,90.51c-2.64,51.97-67.24,88.98-164.24,87.05-108.18-2.15-170.56-36.77-163.76-87.95C69.16,42.62,105.64-.83,227.15,2.56c102.35,2.85,166.11,41.59,163.76,87.95Z"/><path class="cls-1" d="M47.49,69.78c-13.76,7.7-24.52-29.49-11.63-33.42,2.32-.71,4.05-1.24,6.01-.93,5.04,.8,10.14,2.74,13.15,6.86,2.02,2.77,2.95,6.88,.74,9.49,.33-1.6-.12-3.41-1.37-4.45s-3.03-.7-4.42,.15c-3.66,2.24,.56,9.64,4.65,7.67,3.34-1.61,5.51-5.2,5.2-8.9s-2.4-7.01-4.78-9.86c-2.22-2.67-4.85-5.15-8.12-6.31-2.66-.94-5.56-.94-8.37-.65-3.59,.38-7.2,1.26-10.29,3.13-2.7,1.64-5.1,3.9-6.64,6.66-7.3,13.05,13.38,34.46,24.6,33.28,1.92-.2,1.79,.93,2.89,2.47,.79,1.11,1.72,2.11,2.79,2.96s2.37,1.57,3.69,2.08c.45,.18,4.33,.96,4.36,1.07-2.35-8.29-6.65-15.63-14.94-21.04,.23,4.78,1.02,9.02,2.65,12.44"/><path class="cls-1" d="M55.43,83.58c-11.56-9.58-28.9-6.51-47.33-1.09l-5.09,.94c20.35,7.3,39.5,11.59,52.41,.14Z"/><path class="cls-1" d="M47.17,96.58c-13.59-8-25.16,28.95-12.36,33.16,2.3,.76,4.02,1.33,5.98,1.06,5.06-.69,10.19-2.52,13.29-6.58,2.08-2.72,3.1-6.81,.94-9.47,.29,1.6-.19,3.41-1.47,4.42s-3.05,.63-4.42-.25c-3.61-2.32,.77-9.63,4.82-7.57,3.31,1.68,5.39,5.31,5,9.01s-2.55,6.96-4.99,9.76c-2.28,2.62-4.96,5.04-8.26,6.13-2.68,.88-5.58,.82-8.38,.46-3.58-.46-7.17-1.42-10.22-3.36-2.67-1.7-5.01-4.01-6.49-6.8-7.02-13.21,14.12-34.16,25.32-32.74,1.92,.24,1.81-.89,2.94-2.41,.81-1.09,1.77-2.08,2.86-2.89s2.4-1.52,3.73-2c.45-.17,4.35-.86,4.38-.98-2.53,8.24-6.99,15.49-15.4,20.71,.34-4.77,1.21-9,2.92-12.38"/><path d="M48.21,134.18c13.22-12.27,31.35,6.05,28.24,14.45,.64,1.14-4.84,8.23-8.59,6.58-3.44-2.59-3.37-7-1.39-8.63,2.68-.51,4.79-.48,6.1,1.62l.67,1.02c5.56-4.37-10.7-20.88-25.03-15.04Z"/><path d="M45.51,29.39c9.8,15.14,31.88,1.83,30.92-7.08,.9-.95-2.67-9.17-6.71-8.49-3.97,1.66-4.99,5.96-3.47,8.03,2.47,1.16,4.53,1.64,6.31-.07l.9-.82c4.32,5.6-15.5,17.61-27.96,8.43Z"/><path class="cls-1" d="M407.58,69.78c13.72,7.78,24.69-29.35,11.82-33.36-2.31-.72-4.04-1.26-6-.96-5.05,.77-10.15,2.68-13.18,6.79-2.03,2.76-2.99,6.86-.79,9.49-.32-1.6,.14-3.41,1.4-4.44s3.04-.68,4.42,.18c3.64,2.26-.62,9.64-4.7,7.65-3.34-1.63-5.48-5.23-5.15-8.92s2.44-7,4.83-9.84c2.24-2.65,4.88-5.12,8.16-6.26,2.66-.93,5.57-.91,8.37-.6,3.59,.4,7.19,1.3,10.27,3.19,2.69,1.65,5.08,3.93,6.6,6.69,7.23,13.09-13.57,34.38-24.78,33.14-1.92-.21-1.8,.92-2.9,2.45-.8,1.11-1.73,2.1-2.81,2.94s-2.38,1.55-3.7,2.06c-.45,.17-4.33,.93-4.36,1.05,2.39-8.28,6.73-15.6,15.06-20.96-.26,4.78-1.07,9.02-2.72,12.42"/><path class="cls-1" d="M399.57,83.53c11.61-9.51,28.94-6.35,47.33-.83l5.08,.97c-20.39,7.19-39.57,11.37-52.41-.14Z"/><path class="cls-1" d="M407.76,96.58c13.64-7.92,25,29.09,12.17,33.23-2.3,.74-4.03,1.31-5.99,1.03-5.06-.72-10.18-2.57-13.26-6.65-2.06-2.73-3.06-6.83-.89-9.48-.3,1.6,.17,3.41,1.44,4.43s3.04,.65,4.42-.22c3.62-2.3-.72-9.63-4.78-7.6-3.32,1.67-5.42,5.28-5.05,8.98s2.52,6.97,4.94,9.78c2.26,2.63,4.94,5.07,8.22,6.17,2.67,.9,5.58,.85,8.38,.51,3.59-.44,7.17-1.38,10.23-3.3,2.68-1.68,5.03-3.98,6.53-6.76,7.09-13.17-13.93-34.23-25.13-32.88-1.92,.23-1.81-.9-2.93-2.42-.81-1.1-1.76-2.09-2.84-2.91s-2.39-1.53-3.72-2.02c-.45-.17-4.34-.89-4.38-1,2.48,8.25,6.9,15.52,15.28,20.8-.31-4.77-1.16-9.01-2.85-12.39"/><path d="M406.5,134.17c-13.15-12.34-31.38,5.88-28.32,14.3-.65,1.13,4.79,8.26,8.55,6.63,3.46-2.57,3.41-6.98,1.44-8.63-2.68-.53-4.79-.51-6.11,1.59l-.68,1.01c-5.54-4.4,10.82-20.82,25.11-14.9Z"/><path d="M409.79,29.4c-9.88,15.09-31.89,1.66-30.88-7.25-.9-.95,2.72-9.15,6.76-8.45,3.96,1.68,4.95,5.98,3.43,8.05-2.48,1.14-4.54,1.62-6.31-.11l-.9-.83c-4.35,5.58,15.4,17.7,27.91,8.58Z"/></g><g><path class="cls-3" d="M103.91,83.66c0-2.05-.06-3.9-.06-5.94v-4.58c0-.68-.06-1.36-.13-2.05v-9.06c.06-1.56,0-4.39,0-5.07,0-.39-.12-.78-.06-1.07,.38,0,.82-.19,1.57-.19,.63-.1,1.32-.29,2.13-.29h2.82c.69,0,1.07,0,1.88,.29,0,0,.19,.19,.5,.19,.5-.19,1.57,0,2.57,.1,.69,.1,1.32,.68,1.69,.68s2.95,2.14,3.38,2.34c1.07,.68,2.13,1.66,2.63,2.83,.75,.78,.94,2.14,1.44,3.22,.25,.49,.25,1.36,.56,2.05,.88,1.85,.75,7.41,.5,10.43-.12,1.27-.31,2.34-.5,3.7-.06,.68-.44,1.46-.63,2.14-.38,1.36-.94,2.53-1.63,3.61l-.56,.97c-.31,.29-.56,.68-.88,1.07-.38,.58-1.07,.97-1.44,1.56-1.13,0-1.82,1.07-2.82,.58-.82,0-1.44,.49-2.13,.49h-.38c0,.58,1.32,2.53,1.69,3.8,.63,.97,1.19,1.75,1.82,2.92,1.07,1.56,1.32,2.24,2.38,3.8,.5,.68,1.32,3.12,1.82,3.8,.5,1.17,.5,1.36,.82,1.85,.69,1.36,1,2.44,1.5,3.51-.38,1.17-1.13,2.44-2.32,3.51-.19-.39-.63-.68-.75-1.17-.19-.29-1.44-1.85-2.07-3.02-.44-.88-1.5-2.53-2.63-4.09s-2.13-3.41-2.63-4.29c-.5-.88-2.7-3.51-3.13-4.39-.31,.49-.31,1.07-.31,1.07,0,2.63-.19,4.87-.19,7.02,0,1.17-.06,2.34-.06,3.9v3.41c-.19,0-.63,.1-1.13,.19-.88,.2-1.82,.1-2.63,.1-1.07,0-1.69,.1-2.38-.39-.38,0-.38,.1-.75-.49l.06-7.7,.12-1.27-.12-3.12,.12-9.94c.19-1.66,.06-2.14,.19-3.41-.06-1.27,.12-2.44,.12-3.61Zm10.84-12.38c0-.29-.12-.68-.25-.78-.25-.58-.44-.78-.69-1.07-.56-.78-1.25-1.17-1.94-1.46-.38,0-.38,.68-.38,.68v9.94h1.07c.38-.58,.88-.39,1.19-1.07,.5-.58,.75-.78,.94-1.66,.19-1.56,.13-3.31,.06-4.58Z"/><path class="cls-3" d="M161.58,63.39c-.31,0-1.38,.49-2.13,.58-.31,0-.82-.1-1.07,0l-1.19,.39h-3.51c-1.76,.1-2.95,0-4.7,0-.31,0-1.13,.19-1.38,.1,0,.58-.12,.97-.12,1.56,.12,.68,.25,7.41,.25,8.09v4.39c0,1.07,0,1.46,.19,2.63h3.64c1.32,0,2.45,.19,3.82,.19,.75,0,2.01,.2,2.57,0,.06,1.17,.19,2.53,.19,3.61v1.56c-.31,0-1.44,.19-2.19,.29h-2.63c-1.69,.39-2.95,.29-4.7,.29-.31,0-.94,.2-1.19,.1v3.61c0,1.75,0,3.9,.25,5.36,0,2.34,.06,4.39,.06,6.04v1.66c.12-.1,1.13,.2,2.38,.49,1.25,.29,2.07,.29,2.82,.68,.38,.2,2.32,.29,2.7,.29,2.07,.39,4.08,.39,6.14,.68h2.26c.31,0,.81-.29,1-.29,.38,2.34,.38,4.58,.38,6.72-.69,.58-1.76,.49-2.7,.58-.56,0-1.25-.19-1.94-.19-1.69,.1-4.26-.2-5.96,.1h-.94c-.88-.2-2.95-.39-3.76-.39-.94-.1-2.51,.2-7.21,.29-.38,0-4.51,.1-4.83,.19,0-2.73-.31-5.36-.31-7.6,0-1.27-.12-3.22,0-4.39,.19-4.19,.06-8.19,.06-12.28,0-.88-.12-3.7-.06-5.75l-.12-3.02c-.06-.88,.25-3.8,.19-5.65-.06-2.92-.19-4.87-.25-7.99-.06-2.73,.13-5.46,.13-7.89,0-.58,0-1.07,.38-1.56l3.2,.2c1.25,.1,3.07-.1,4.33,0,.31,0,.63-.1,.94-.1,.5,0,3.76-.1,4.07,.1,.19,.1,1.25,.29,1.69,.29s2.26-.19,2.7-.1c.88,.19,1.69,.1,2.57,.19,.13,0,3.89,.39,4.01,.39-.31,1.66,0,3.8,0,5.56Z"/><path class="cls-3" d="M192.42,54.62c1.13-.1,4.33,.58,5.33,.49,.75,0,2.38,0,3.07,.49,.31,.2,1.88,.49,2.13,.58q.38,0,.69,.49c0,1.27-.31,2.34-.31,3.41-.56,0-1.32,.19-1.82,.29-.81,.2-1.07,.1-2.13,.1-2.07,0-4.64,.49-4.83,.58-1.75,.49-6.77,2.24-7.71,4.09-.75,1.66-1.57,2.34-1.88,4.09-.31,1.07-.06,5.36,.38,6.72,.63,1.17,1.07,2.63,1.32,2.83,.56,.49,1.5,1.46,2.44,2.05,.19,.1,1.19,.29,2.32,.78,.63,.29,.63,.39,1.19,.58,.38,.19,.44,.39,.88,.58,.5,.2,1.32,.49,1.38,.49,.69,0,1.44,.49,2.07,.49,1.19,.49,2.13,.49,3.2,1.66,.56,.19,1.32,.68,1.75,1.07,.5,.39,3.2,2.73,3.51,4.09,.81,2.05,1.13,4.19,1.13,6.43,0,.68-.19,1.95-.25,2.53l-.31,2.73c-.13,.58-1,3.02-1.13,3.22-.19,.49-1.57,2.53-1.69,2.73-1.13,1.46-5.27,6.04-6.89,6.04-.13,.19-.44,.1-.69,.29-.88,0-1.63,.29-3.01,.2-1.25-.1-2.32,.19-3.63,.1-1.38-.1-5.83,.1-7.46-.58-.19-.1-2.01-.39-2.51-.49-.69-.1-2.32-.39-2.82-.68-.31-.19-.81-.68-.81-1.36-.31-1.07-1.32-6.92-1-7.02,1.44,.49,2.82,.97,4.64,1.46,1.44,0,2.76,.68,4.58,.68,.69,0,1.32-.19,2.51-.49,.25-.1,.56-.1,.69-.19,1.25,0,3.2-1.75,4.14-2.34,.19,0,1.69-1.95,1.88-2.44l1.19-2.83c.12-.58,.5-1.56,.69-2.24,.25-1.07,.25-2.14,0-3.7-.5-.68-.69-1.46-1.19-2.34-.38-.97-1-1.56-1.69-2.05-1.13-.58-2.19-1.36-2.88-1.36-1.13-.49-1.82-.49-2.44-.97-1.07-.49-1.82-.49-2.51-1.07-1.07,0-1.69-.58-2.88-1.07-.44-.39-1-.78-1.25-1.07-1.19-1.37-1.94-1.95-2.82-3.8-.82-1.75-1-1.75-1.5-3.31-.38-1.27-.56-4.78-.56-5.55,0-1.66,.12-2.53,.19-3.7,.06-1.07,.5-2.34,.88-3.12,.94-2.53,2.07-3.22,3.57-4.87,.69-.88,3.07-2.34,4.01-2.73,.69,0,1.07-.49,1.82-.49,.69,0,.94-.2,1.57-.2,.38,0,.81,.2,1.63-.29,.82-.49,2.88,0,3.89,0Z"/><path class="cls-3" d="M233.28,113.48c-.31,.1-1.94,.39-1.75,.39h-3.07c-1.32-.2-2.13-.29-2.82-.2-.12,0-.38-.29-.44-.39-.06-1.17,0-4.09,0-5.36v-1.36c.13-2.24,0-3.7,0-5.95v-2.14c.38-2.83,0-6.14,0-8.77v-24.85c0-.49,0-.97-.31-.97-1.13-.1-1.63-.1-2.76,0-.5,0-2.07-.68-2.51-.49-.38,.19-2.19-.2-2.57-.2s-.75,0-1.07-.39v-6.04c.31-.2,1.07-.2,1.75-.2,.81,0,1.5,0,2.07-.1,.19,0,1.44,.2,2.13,.29,.19-.1,.56-.2,.75-.2,.69-.1,1.19-.1,1.75,0,.75,.1,.88-.1,1.57-.1h1l1.69,.2c.81,0,1.69-.1,2.51,0,1.88,.19,3.82,.1,5.01-.1,.56,0,2.38,.39,3.76,.49,.88,.1,1.5-.1,1.88,0v4.48c0,.49,.12,.39,0,1.36-.06,.49-.88,.49-1.19,.49-2.19,.49-3.89,.19-5.58,.19-.69,0-.94,0-1.44,.1v2.24c0,1.07-.06,3.61-.06,4.78,0,1.07,.06,.68-.38,3.9,0,4.48,.06,5.75,.06,9.06v.97c-.31,2.14,0,4.48,0,6.63v22.22Z"/><path class="cls-3" d="M254.16,101.69c.56-2.53,1.25-5.17,1.82-7.7,.44-1.95,1.19-4,1.69-5.55,.44-2.14,1-3.61,1.07-4,0-.2,.44-1.17,.94-3.51,.25-1.17,.44-2.53,.75-3.7l1.5-5.65c.75-2.83,.25-2.24,1-4.97,.44-1.36,.69-2.73,1.07-4.09,.19-.78,.38-1.56,.5-2.34,.25-1.07,.44-1.66,.56-2.73,.19-.29,.19-.78,.44-1.36,.5-.49,.81-.49,1.13-.49h2.88c.19,.49,.06,.97,.25,1.46l.25,1.46,.19,.78,.69,3.02,1.13,4.97,.44,1.27c.12,.29,.31,1.17,.63,2.44,.38,1.66,.94,4,1.32,6.04,.56,3.22,.88,4.39,1.32,6.04,.25,.49,.25,1.27,.44,1.85l.81,4,1.07,3.51c.25,1.17,.5,2.24,.94,3.31,.69,2.53,1,4.48,1.63,7.11,.31,1.17,.75,2.14,1,3.31,.19,.58,.38,1.36,.5,1.95,.44,1.17,.69,2.44,1.07,3.8,.19,.78,.5,1.66,.56,2.24-.38,0-.88-.2-1.19-.2h-1.07c-.75,0-1.38,.1-1.75,.1-.44-1.56-1.32-2.83-2.13-5.07-.19-.58-.31-1.17-.5-1.66-.19-.78-1.32-2.53-1.38-3.31-.63-1.17-.88-1.85-1.25-2.44-.63-.1-2.13-.29-2.13-.29h-1.5c-.82,0-1.44,.29-6.77,.29h-.44c-.63,0-.88,.39-1.57,0-.25-.19-1.57,0-1.88,.1l-.81,.1-.31,.68c-.38,1.46-1.76,4.39-2.07,5.75l-.44,1.75-1.57,4.48c-.12,.49-.56,.39-.75,.58h-3.2q-.31-.49,0-1.07c0-.49,.38-1.75,.38-2.24,.38-1.07,.69-2.24,1-3.22l1.75-6.82Zm13.16-24.17c-.44,.29-.56,.68-.69,1.17-.31,1.85-.94,3.61-1.44,5.36-.38,1.27-.88,2.34-1.19,3.61-.75,2.63-1.5,5.17-2.38,7.6h.38c.63,0,1.19,.2,1.76,0,.5-.19,.94,0,1.38,0,1.38,0,2.88-.1,4.7,.1,.94,.1,1.69-.1,2.51-.1h.56c-.06-.49-.25-.78-.38-1.17-.31-1.07-.75-1.66-1-2.83l-2.19-6.82c-.12-.39-.19-.78-.25-1.27l-1.76-5.65Z"/><path class="cls-3" d="M294.02,83.66c0-2.05-.06-3.9-.06-5.94v-4.58c0-.68-.06-1.36-.13-2.05v-9.06c.06-1.56,0-4.39,0-5.07,0-.39-.12-.78-.06-1.07,.38,0,.82-.19,1.57-.19,.63-.1,1.32-.29,2.13-.29h2.82c.69,0,1.07,0,1.88,.29,0,0,.19,.19,.5,.19,.5-.19,1.57,0,2.57,.1,.69,.1,1.32,.68,1.69,.68s2.95,2.14,3.38,2.34c1.07,.68,2.13,1.66,2.63,2.83,.75,.78,.94,2.14,1.44,3.22,.25,.49,.25,1.36,.56,2.05,.88,1.85,.75,7.41,.5,10.43-.12,1.27-.31,2.34-.5,3.7-.06,.68-.44,1.46-.63,2.14-.38,1.36-.94,2.53-1.63,3.61l-.56,.97c-.31,.29-.56,.68-.88,1.07-.38,.58-1.07,.97-1.44,1.56-1.13,0-1.82,1.07-2.82,.58-.82,0-1.44,.49-2.13,.49h-.38c0,.58,1.32,2.53,1.69,3.8,.63,.97,1.19,1.75,1.82,2.92,1.07,1.56,1.32,2.24,2.38,3.8,.5,.68,1.32,3.12,1.82,3.8,.5,1.17,.5,1.36,.82,1.85,.69,1.36,1,2.44,1.5,3.51-.38,1.17-1.13,2.44-2.32,3.51-.19-.39-.63-.68-.75-1.17-.19-.29-1.44-1.85-2.07-3.02-.44-.88-1.5-2.53-2.63-4.09s-2.13-3.41-2.63-4.29c-.5-.88-2.7-3.51-3.13-4.39-.31,.49-.31,1.07-.31,1.07,0,2.63-.19,4.87-.19,7.02,0,1.17-.06,2.34-.06,3.9v3.41c-.19,0-.63,.1-1.13,.19-.88,.2-1.82,.1-2.63,.1-1.07,0-1.69,.1-2.38-.39-.38,0-.38,.1-.75-.49l.06-7.7,.12-1.27-.12-3.12,.12-9.94c.19-1.66,.06-2.14,.19-3.41-.06-1.27,.12-2.44,.12-3.61Zm10.84-12.38c0-.29-.12-.68-.25-.78-.25-.58-.44-.78-.69-1.07-.56-.78-1.25-1.17-1.94-1.46-.38,0-.38,.68-.38,.68v9.94h1.07c.38-.58,.88-.39,1.19-1.07,.5-.58,.75-.78,.94-1.66,.19-1.56,.13-3.31,.06-4.58Z"/><path class="cls-3" d="M343.04,113.48c-.31,.1-1.94,.39-1.75,.39h-3.07c-1.32-.2-2.13-.29-2.82-.2-.13,0-.38-.29-.44-.39-.06-1.17,0-4.09,0-5.36v-1.36c.13-2.24,0-3.7,0-5.95v-2.14c.38-2.83,0-6.14,0-8.77v-24.85c0-.49,0-.97-.31-.97-1.13-.1-1.63-.1-2.76,0-.5,0-2.07-.68-2.51-.49-.38,.19-2.19-.2-2.57-.2s-.75,0-1.07-.39v-6.04c.31-.2,1.07-.2,1.75-.2,.81,0,1.5,0,2.07-.1,.19,0,1.44,.2,2.13,.29,.19-.1,.56-.2,.75-.2,.69-.1,1.19-.1,1.75,0,.75,.1,.88-.1,1.57-.1h1l1.69,.2c.81,0,1.69-.1,2.51,0,1.88,.19,3.82,.1,5.01-.1,.56,0,2.38,.39,3.76,.49,.88,.1,1.5-.1,1.88,0v4.48c0,.49,.12,.39,0,1.36-.06,.49-.88,.49-1.19,.49-2.19,.49-3.89,.19-5.58,.19-.69,0-.94,0-1.44,.1v2.24c0,1.07-.06,3.61-.06,4.78,0,1.07,.06,.68-.38,3.9,0,4.48,.06,5.75,.06,9.06v.97c-.31,2.14,0,4.48,0,6.63v22.22Z"/></g></svg>