<?xml version="1.0" encoding="UTF-8"?><svg id="ui" xmlns="http://www.w3.org/2000/svg" width="150" height="155" viewBox="0 0 150 155"><defs><style>.cls-1,.cls-2{fill:#fff;}.cls-3{fill:#ed1c24;}.cls-2{stroke:#000;stroke-miterlimit:10;stroke-width:.75px;}</style></defs><path class="cls-2" d="M8.56,2.01C51.54,.25,95.15,.3,139.34,2.01c10.37,27.48,12.69,52.83,0,74.18-13.69,22.59-10.12,48.65,0,76.03-44.97,2.67-88.66,2.86-130.78,0-6.77-32.89-10.52-59.41,0-85.86,9.12-17.49,6.2-40.21,0-64.35Z"/><g><g><path class="cls-1" d="M55.58,128.89c-5.83-2.02-9.02-8.28-11.02-16.44,1.34-13.09,7.18-18.75,15.84-19.74,9.12-1.29,17.82-.91,25.91,1.86,5.31,4.77,7.5,11.09,8.24,18.14,.09,6.25-1.88,11.74-6.23,16.34,.3,3.38,.81,7.17,1.45,11.21-7.14,1.28-21.16,.98-35.19,.68-.14-4.25,.12-8.31,.99-12.06Z"/><path d="M72.32,142.22c-5.59,0-11.72-.13-17.76-.26l-.95-.02-.03-.95c-.14-4.31,.13-8.07,.83-11.47-5.1-2.17-8.55-7.54-10.83-16.82l-.04-.17,.02-.17c1.29-12.57,6.91-19.51,16.72-20.63,9.88-1.4,18.51-.77,26.35,1.91l.19,.07,.15,.14c4.97,4.46,7.69,10.43,8.56,18.79,.1,6.57-1.99,12.19-6.19,16.8,.28,3.02,.74,6.53,1.41,10.7l.15,.97-.96,.17c-4.08,.73-10.41,.96-17.63,.96Zm-16.76-2.24c12.83,.28,25.92,.53,33.07-.52-.62-3.99-1.05-7.37-1.31-10.3l-.04-.45,.31-.33c4.1-4.34,6.04-9.45,5.96-15.64-.8-7.66-3.27-13.18-7.75-17.28-7.49-2.52-15.75-3.1-25.26-1.75-8.86,1.02-13.75,7.13-14.97,18.68,2.22,8.94,5.51,13.89,10.34,15.56l.85,.29-.2,.88c-.74,3.2-1.07,6.76-.99,10.86Z"/></g><path d="M93.52,116.83c.26-4.06-1.41-5.69-5.65-4.1-4.43,2.66-3.66,5.67-2.38,8.72,3.49-.88,6.62-2.05,8.04-4.62Z"/><path d="M63.3,116.91c-.58-4.13,.98-5.9,5.4-4.56,4.69,2.43,4.15,5.55,3.09,8.74-3.6-.66-6.86-1.66-8.5-4.19Z"/><path d="M78.75,123.84c-.82,1.48-1.46,2.92-1.87,4.3,.64,.14,1.27,.06,1.85-.41,.41-1.07,.31-2.43,.02-3.89Z"/><path d="M79.73,123.85c.11,1.31,.32,2.54,.86,3.45,.5,.54,1.15,.39,1.85,0-.69-1.18-1.57-2.34-2.71-3.46Z"/><polygon points="86.11 131.64 86.99 140.68 84.36 140.89 83.98 131.63 86.11 131.64"/><polygon points="81.45 131.61 78.98 131.6 78.92 141.26 81.44 141.07 81.45 131.61"/><polygon points="75.52 131.9 75.88 141.06 73.11 141.05 73.56 131.8 75.52 131.9"/><polygon points="71.03 131.68 68.56 131.56 68.04 141.21 70.56 141.13 71.03 131.68"/><polygon points="66.61 131.38 64.14 131.26 63.61 140.91 65.7 141.01 66.61 131.38"/></g><g><path class="cls-3" d="M30.12,11.74h26.22v6.89h-8.8v21.02h-8.63V18.63h-8.8v-6.89Z"/><path class="cls-3" d="M79.7,35.05h-9.79l-1.36,4.61h-8.81l10.49-27.92h9.41l10.49,27.92h-9.03l-1.4-4.61Zm-1.79-6.04l-3.08-10.04-3.05,10.04h6.13Z"/><path class="cls-3" d="M100.68,12.13l9.43,1.13,3.88,9.12,5.8-7.95,9.34,1.12-10.24,12.39,7.72,15.43-9.62-1.16-4.4-9.56-6.54,8.25-9.57-1.15,11.3-13.29-7.1-14.32Z"/><path class="cls-3" d="M21.8,50.37l16.13-.77c2.69-.13,4.78,.44,6.29,1.7,1.5,1.26,2.3,2.88,2.39,4.84,.08,1.65-.37,3.09-1.34,4.32-.65,.82-1.62,1.49-2.92,2.01,2.03,.39,3.54,1.14,4.54,2.27,1,1.13,1.54,2.58,1.63,4.35,.07,1.45-.21,2.76-.82,3.95-.62,1.19-1.49,2.14-2.63,2.87-.7,.45-1.78,.81-3.23,1.07-1.93,.35-3.21,.53-3.84,.56l-14.88,.71-1.33-27.89Zm9.21,10.52l3.75-.18c1.34-.06,2.27-.34,2.77-.83,.5-.49,.74-1.17,.69-2.04-.04-.81-.33-1.43-.88-1.86-.55-.43-1.48-.62-2.78-.55l-3.8,.18,.25,5.29Zm.52,10.96l4.39-.21c1.48-.07,2.52-.38,3.1-.94,.58-.55,.85-1.28,.81-2.16-.04-.82-.37-1.47-1-1.94-.63-.47-1.69-.67-3.2-.6l-4.37,.21,.27,5.65Z"/><path class="cls-3" d="M57.05,49.74h8.65v27.92h-8.65v-27.92Z"/><path class="cls-3" d="M79.03,48.87l8.6,.72-1.75,20.97,13.42,1.12-.57,6.85-22.01-1.84,2.32-27.82Z"/><path class="cls-3" d="M109.04,50.83l8.59,.75-1.84,20.96,13.41,1.18-.6,6.85-22.01-1.93,2.44-27.81Z"/></g></svg>