<?xml version="1.0" encoding="UTF-8"?><svg id="Layer_2" xmlns="http://www.w3.org/2000/svg" width="1100" height="320" xmlns:xlink="http://www.w3.org/1999/xlink" viewBox="0 0 1100 320"><defs><style>.cls-1{filter:url(#drop-shadow-15);}</style><filter id="drop-shadow-15" filterUnits="userSpaceOnUse"><feOffset dx="23" dy="22"/><feGaussianBlur result="blur" stdDeviation="5"/><feFlood flood-color="#000" flood-opacity=".15"/><feComposite in2="blur" operator="in"/><feComposite in="SourceGraphic"/></filter></defs><g class="cls-1"><path d="M226.16,35.72c.24-4.77,.66-9.54,1.16-14.28,.72-6.93,1.59-13.84,2.54-20.74-6.58,.61-36.95,3.36-56.41,3.46-21.65,.11-24.39,0-24.39,0-.52-.02-4.87-.2-10.67,0-8.93,.3-12.04,1.16-13.72,1.73-2.98,1-6.55,2.25-9.83,5.88-.8,.89-2.54,2.97-3.89,6.22-.65,1.57-2.71,6.98-1.49,13.71,.62,3.44,1.84,5.8,2.66,7.35,5.41,10.2,14.29,13.87,18.71,13.68,1.5-.06,3.05-.32,4.32-1.31,1.8-1.4,1.86-4.27,1.89-4.68,.04-.57,.14-2.28-.68-3.97-1.21-2.51-3.89-3.86-6.15-3.04-.31,.11-2.19,.84-2.88,3.09-.66,2.16,.05,4.86,1.85,6.59-3.08-2-8.98-6.48-12.14-14.13-1.96-4.74-1.65-7.74-1.52-8.65,.47-3.45,2.17-5.76,3.05-6.92,8.55-11.29,27.71-8.36,32.01-5.19,1.15,.85,2.19,1.87,2.19,1.87,.98,.95,2.18,2.36,3.9,5.05,2.35,3.67,3.29,7.57,3.42,9.46,.52,7.66,.69,32.19,.69,48.28,0,23.86-.55,39.64-1.01,49.45-.06,1.26,.25,5.24-.55,10.33-.59,3.73-1.48,9.41-4.94,14.5-1.58,2.33-3.92,1.87-6.38,2.13,0,3.79-.01,7.59-.02,11.38,1.97-1.18,4.15-1.92,6.37-2.18,6.46-.74,12.85-1.73,19.38-1.82,9.68-.14,19.47,.2,28.68,3.74,.65,.25,1.31,.51,1.99,.45-.34-3.53-.67-7.07-1.01-10.6-.01-.12-.03-.25-.09-.35-.1-.14-.27-.17-.42-.19-3.34-.42-5.83-.67-8.49-3.29-1.69-1.67-2.97-3.76-4.15-5.91-1.99-3.61-2.72-6.98-3.14-9.14-1.25-6.45-.63-11.7-.68-12.81-.43-9.37-.89-23.44-.89-44.67,0-35.25-.17-45.22,.52-52.88,.09-1.03,.51-3.07,1.44-5.44,.62-1.58,2.84-7.24,8.12-10.12,1.4-.76,7.09-3.56,12.55,0,3.12,2.03,4.76,5.22,5.38,6.64,1.15,2.62,.82,3.63,1.79,8.86,.84,4.51,1.78,7.51,3.59,13.28,1.02,3.24,1.95,5.89,3.59,8.86,.92,1.68,2.05,3.28,3.05,4.93,.98-.48,2.01-.81,3.06-.99-2.12-2.35-2.37-5.4-2.5-8.54-.13-3.02-.04-6.06,.11-9.08Z"/><path d="M227.52,90.24c.66,14.51,1.03,20.59,1.22,22.51,.06,.58,.34,3.15,.34,6.68,0,0,.2,9.15-1.06,18.2-1.95,14.11-4.39,31.67-16.48,43.6-3.32,3.28-11.08,9.78-24.62,11.55,.81-1.34,.94-2.98,.31-4.23-.48-.95-1.26-1.39-1.6-1.55-1.52-.37-3.04,.2-3.89,1.44-1.02,1.51-.71,3.49-.1,4.63,1.09,2.06,3.73,2.51,6.58,2.59,10.67,.31,19.43-4.33,19.43-4.33,2.14-1.13,9.69-5.34,16.84-14.44,4.7-5.98,6.95-11.19,10.37-19.08,5.31-12.26,6.78-21.07,7.25-24.27,.26-1.77,.42-3.26,.52-4.3,0-.02,.02-2.28,1.05-3.13,.37-.31,.78-.35,1.02-.38,2.59-.29,10.88-.29,19.3-.29,4.53,0,10.62-.43,12.7-1.16,.65-.14,1.3,.58,1.3,2.74,0,11.55,0,16.9-.13,27.15,0,.76-.08,2.22-.78,3.85-.58,1.35-2.03,2.74-3.46,2.63,.22,2.22,.28,4.46,.18,6.69-.02,.44,3.5-.39,3.83-.41,1.5-.12,3.01-.46,4.5-.67,2.37-.34,4.74-.69,7.12-.93,.48-.05,.96-.09,1.45-.12,2.29-.15,4.57-.05,6.85,.07,.88,.05,1.77,.09,2.66,.06,.44-.02,.88-.05,1.33-.05,.24,0,2.17,.13,2.24-.04,.44-2.08,.53-4.26,.27-6.38-.63-.03-1.27-.07-1.9-.1-.43-.02-1,.07-1.41-.1-.8-.33-1.61-1.48-2.06-2.24,0,0-.42-.56-.6-1.26-3-11.53-1.95-34.12-1.94-34.23,0-4.19-.06-6.83-.13-8.83-.04-1-.07-1.77-.1-2.41-.09-2.01-.16-3.45-.16-3.6-.07-1.54-.03-5.5,.44-15.89,.11-2.5,.85-4.55,3.2-5.21,1.23-.34,2.52-.25,3.79-.15-.03-1.76,0-3.52,.08-5.27-2.12,0-4.13-.03-6.21-.35-2.14-.32-4.32-.49-6.48-.58-6.13-.27-12.14,.72-18.23,.73-.01,1.64-.03,3.29-.04,4.93,0-.5,4.01,1.16,4.32,1.39,1,.74,.67,1.86,.85,3.07,.46,3.07,.62,6.16,.58,9.27,0,.02,0,.18,0,.41,0,.9,.04,1.29-.05,12.5-.03,4.2-.05,4.61-.39,5.24-1.43,2.68-4.66,2.27-14.25,2.89-6.21,.4-13.44,1.12-16.84-1.44-1.63-1.23-2.59-2.89-2.59-2.89-.87-1.49-2.16-9.93-2.59-13-.46-3.23-.64-5.88-.61-8.15-.02-.27-.03-.55-.02-.84,.03-1.36,.12-2.72,.26-4.07,.08-.76-.03-1.97,.26-2.67,.8-1.88,3.99-2.5,5.61-2.39-.13-1.61,.06-3.24,.56-4.76-.4-.05-1-.12-1.73-.22-4.15-.56-5.05-.85-7.37-1.13-2.39-.28-4.21-.29-6.03-.32-3.44-.05-6.77,.18-10.18,.71,.19,1.06,.28,2.15,.27,3.23,1.76,.73,3.36,1.64,4.24,3.32l.92,5.74Z"/><path d="M387.44,159.7c-.1-.92-.14-1.85-.18-2.78-.1-2.26-.3-4.56-.21-6.8,.07-1.97-.51-3.97-1.71-5.45-.91-1.01-1.3-.72-1.94,.87-2.2,5.92-5.44,10.25-8.03,12.28-3.37,2.74-6.35,3.32-9.85,3.9-4.92,.87-14.12,.87-17.23,.14-2.85-.58-3.11-3.18-3.11-4.91,0-7.65,.65-16.75,.65-24.55,0-2.31,.39-3.18,1.17-3.18,5.44,0,14.77-.58,18.4-1.01,1.3-.14,1.43,1.01,1.81,2.17,1.55,5.63,2.85,7.8,5.18,9.68,.91,.72,1.81,.29,1.81-1.3,0-7.94,.39-18.77,3.11-25.71,.78-2.02-.13-1.88-1.17-1.44-2.2,.72-5.31,1.88-5.83,2.74-.78,1.16-1.43,3.03-2.33,4.04-1.3,1.44-2.59,1.59-4.79,1.59-5.83,0-13.73-.29-15.55-1.3-.52-.29-1.68-.58-1.68-2.17,0-8.23-.13-17.91-.13-24.26,0-.39,.06-1.06,.39-1.78,1.27-2.72,5.27-2.96,7.51-3.12,14.64-1.04,18.35-3.31,20.73,0,.51,.71,1.2,2.01,1.3,4.33-1.15-2.15-3.62-2.68-5.18-1.44-1.51,1.2-1.7,3.68-.81,5.31,.78,1.42,2.25,1.96,3.4,1.91,2.02-.09,3.26-1.94,3.89-2.89,.23-.35,2.22-3.45,1.3-7.22-.59-2.41-2.05-3.83-2.59-4.33-3.73-3.51-9.27-2.72-12.93-2.3-1.25,.14-15.15,1.7-27.23,.85-3.17-.22-6.35-.1-9.53-.02-3.07,.08-6.1-.32-9.16-.61-.15,1.34-.41,2.66-.79,3.94,3.69,1.07,7.04,3.48,9.51,6.71,2.03,9.04,1.81,36.25,1.81,40.8,0,10.54-.52,23.54-1.43,26.28-.5,1.54-.93,2.96-2.09,4.05s-2.52,1.66-3.96,1.67c.04,1.75-.08,3.51-.34,5.24,1.72,.14,3.43,.23,5.15,.26,1.37,.03,2.66-.28,4.01-.23,1.57,.06,3.16-.02,4.73-.02,9.72,0,19.42,.48,29.13,.82,2.51,.09,5.03,.19,7.55,.18,1.42,0,2.86-.31,4.3-.35,1.83-.05,3.66-.11,5.48-.16,1.34-.04,2.69-.08,3.98-.49s2.52-1.22,3.22-2.5c.59-1.09,.74-2.41,.69-3.68-.05-1.27-.29-2.52-.43-3.79Z"/><path d="M101.5,268.1c-13.19-50.8-22.73-87.06-26.92-100.55-1.13-3.65-2.77-11.42-4.28-21.9-1.29-8.92-1.8-16.21-2.02-20.66-9.51,13.43-15.77,24.58-18.14,30.33-1.6,3.88-2.75,7.58-2.75,7.58-1.41,4.56-2.02,8.11-2.3,9.18-8.57,33.34-15.26,54.66-28.64,97.32-.86,2.75-2.85,8.87-7.77,14.44-2.41,2.73-4.81,4.51-6.47,5.6-.43,2.47-.87,4.93-1.3,7.4,5.15-1.07,11.75-1.92,19.41-1.65,7.74,.28,14.35,1.63,19.46,3.09v-8.66c-1.44,.06-3.89-.06-6.48-1.44-4.21-2.26-7.11-6.99-7.77-11.55-.46-3.17,.12-6.93,1.3-14.44h0c.49-4.26,1.35-9.13,2.81-14.38,.73-2.62,1.54-5.05,2.37-7.28,5.8,1.05,12.81,1.77,20.73,1.44,4.74-.2,9.08-.74,12.96-1.44,3.25,10.97,5.9,19.52,7.64,25.06,2.72,8.65,4.22,13.14,2.22,17.04-2.31,4.49-7.88,5.54-10.83,5.84-.11,3.76-.22,7.51-.33,11.27,12.32-2.3,21.11-2.29,26.51-1.95,6.1,.39,9.14,.68,11.76,1.1,1.06,.17,12.16,2.08,12.27,1.62,.91-3.68,1.42-7.49,1.52-11.3-6.69-3.24-9.4-7.27-10.6-9.69-1.2-2.42-2.87-7.21-4.34-11.42Zm-49.19-30.02c-7.64,.43-14.14-.63-19.02-1.89,4.02-12.97,7.93-26.45,11.66-40.44,1.82-6.82,3.55-13.56,5.18-20.22,4.75,20.22,9.5,40.44,14.25,60.65-3.42,.89-7.49,1.63-12.08,1.89Z"/><path d="M131.75,219.2s.5,.28,.95,.97c2.14,3.23,1.43,29.77,1.43,29.9h0c0,11.31-.35,24.91-1.08,41.01-2.59,.96-5.18,1.93-7.77,2.89v5.78h37.57c-.43-1.93-.86-3.85-1.3-5.78-3.02-.96-6.05-1.93-9.07-2.89v-33.21c1.86-.03,4.65,.18,7.77,1.44,5.76,2.33,9.02,6.78,10.36,8.66,4.13,5.78,3.64,9.43,7.77,20.22,1.96,5.13,3.91,9.11,5.18,11.55,5.76,.64,10.57,.68,14.04,.58,10.36-.3,13.04-2,14.12-4.19,.33-.68,.47-1.31,.53-1.72-2.06-.07-5.3-.49-8.76-2.38-1.74-.95-3.03-1.97-3.95-2.83-4.92-4.62-14.77-21.52-19.69-35.09-.52-1.59-.52-2.89,.26-3.32,5.05-2.74,6.87-4.62,8.55-6.07,3.24-2.89,6.09-7.51,6.09-14.88,0-4.31-.74-8.58-2.94-12.28-6.62-11.14-22.64-11.38-29.84-11.4-6.88-.02-12.45,1.38-17.28,2.6-6.36,1.6-9.6,3.17-11.66,4.33-.75,.42-3.78,2.16-7.35,5.12-1.59,1.32-2.54,2.09-3.54,3.24-1.52,1.74-4.07,5.61-5.43,11.11-.08,.32-1.71,7.17-.24,13.8,0,0,.49,2.14,1.36,4.31,3.52,8.74,12.38,15.31,15.21,17.3-1.64-1.4-14.75-12.89-13.75-28.27,.14-2.11,.68-10.45,5.97-15.05,.98-.85,3.21-2.79,6.48-2.89,2.4-.07,4.25,.87,5.18,1.44-1.73-1.33-3.45-2.67-5.18-4Zm-5.97-5.45s-.06,.03-.07,.07m32.26,36.21c-2.27,.44-4.18,.58-5.49,.62v-36.1c1.22-.45,3.02-1.01,5.23-1.34,3.51-.53,12.04-1.81,18.09,4.23,.74,.73,5.81,5.95,5.18,13-.34,3.86-2.23,6.42-3.89,8.66-6.22,8.44-15.55,10.24-19.13,10.93Z"/><path d="M232.49,218.87c-3.39-3.77-8.75-3.33-11.35-2.89v-5.78h42.87c-.42,2.41-.84,4.81-1.26,7.22-1.79-.49-4.51-.89-7.57,0-1.36,.4-3.37,.99-5.04,2.89-1.73,1.96-2.26,4.38-2.52,5.78-1.87,10.08-6.29,58.41,3.78,64.99,1.14,.75,2.52,1.44,2.52,1.44,3.97,2.01,7.57,2.67,10.09,2.89,.42,1.93,.84,3.85,1.26,5.78-15.75-.25-31.5-.51-47.24-.76,.62-1.67,1.23-3.34,1.85-5.02,1.86,.16,4.66,.08,7.57-1.44,0,0,2.03-1.06,3.78-2.89,7.52-7.84,7.58-49.05,3.87-66.58-.24-1.16-.8-3.61-2.61-5.63Z"/><path d="M287.22,295.41c-1.31-.45-3.21-1.29-5.18-2.89-.88-.71-2.61-2.12-3.89-4.33-2.77-4.83-2.31-11.65,.46-15.88,.7-1.07,1.72-2.59,3.43-2.89,2.81-.5,5.03,2.66,5.18,2.89-1.07-.11-2.08,.46-2.59,1.44-.43,.83-.43,1.83-.1,2.62,.67,1.59,2.44,1.7,2.69,1.71,1.07,.06,2.18-.43,2.85-1.33,1.48-1.99,.22-5.2,.03-5.67-1.44-3.51-5.44-5.56-8.99-5.32-5.7,.39-8.77,6.54-9.43,7.99-2.98,6.56-.5,13.11,0,14.44,1.7,4.49,4.56,6.99,6.68,8.79,1.88,1.6,5.89,4.21,12.8,6.04,4.7,1.25,18.22,4.69,29.75-4.73,9.09-7.42,13.03-20.54,11.66-30.33-.29-2.06-.94-6.38-3.89-10.11-2.13-2.7-4.47-3.76-9.07-5.78-12.48-5.47-16.09-6.96-20.73-10.11-2.72-1.85-5.88-4.32-7.77-8.66-.63-1.44-1.43-3.33-1.3-5.78,.27-4.98,4.18-8.21,6.48-10.11,1.39-1.15,4.47-3.63,9.07-4.33,1.42-.22,11.36-1.74,15.55,5.78,3.44,6.19,.32,13.71,0,14.44,.4,.07,1.02,.13,1.73-.04,5.05-1.18,8.62-12.11,6.09-18.63-1.3-3.34-3.63-5.05-3.63-5.05-1.69-.87-3.76-2.74-12.31-2.74-12.01,0-20.99,7.08-20.99,7.08-4.15,2.96-8.46,6.03-11.06,12.17-.55,1.29-3.88,9.49-1.3,17.33,5.25,15.92,29.3,13.48,34.98,30.33,1.12,3.33,.94,5.94,.69,7.47-.48,3.07-4.96,11.39-13.65,14.19-4.96,1.6-9.49,.68-12.96,0-2.16-.42-3.94-.99-5.18-1.44"/><path d="M505.96,250.89c.18,1.35,3.5,29.06-14.04,44.52-11.23,9.9-24.27,9.15-32.39,8.66-8.53-.51-23.11-1.37-33.68-14.44-11.66-14.42-9.92-33.15-9.07-38.99,.59-4.08,2.74-18.88,14.25-28.88,9.27-8.06,19.28-8.37,28.5-8.66,9.82-.31,21.87-.69,32.39,8.66,11.5,10.22,13.53,25.34,14.04,29.13Zm-71.13,1.73c-.43,2.45-3.6,22.21,7.86,37.01,2.4,3.1,8.56,11.06,18.14,11.55,9.73,.5,16.62-7.03,19.43-10.11,9.22-10.08,13.83-26.46,10.36-41.88-3.05-13.6-13.67-32.19-28.5-31.77-15.75,.45-24.98,22.01-27.29,35.2Z"/><path d="M410.53,221.62c.15-2.93,.42-5.86,.74-8.78,.46-4.26,1.02-8.51,1.62-12.75-4.2,.37-23.55,2.07-35.96,2.13-13.8,.07-15.55,0-15.55,0-.33-.01-3.1-.12-6.8,0-5.69,.19-7.67,.72-8.75,1.06-1.9,.62-4.17,1.39-6.26,3.62-.51,.55-1.62,1.83-2.48,3.82-.42,.97-1.73,4.29-.95,8.43,.4,2.11,1.17,3.56,1.7,4.52,3.45,6.27,9.11,8.52,11.92,8.41,.96-.04,1.94-.2,2.75-.81,1.15-.86,1.19-2.62,1.2-2.88,.02-.35,.09-1.4-.43-2.44-.77-1.54-2.48-2.37-3.92-1.87-.2,.07-1.4,.52-1.83,1.9-.42,1.33,.03,2.99,1.18,4.05-1.97-1.23-5.73-3.98-7.74-8.69-1.25-2.91-1.05-4.76-.97-5.31,.3-2.12,1.38-3.54,1.94-4.25,5.45-6.94,17.67-5.14,20.41-3.19,.73,.52,1.4,1.15,1.4,1.15,.63,.58,1.39,1.45,2.49,3.11,1.5,2.26,2.1,4.65,2.18,5.82,.33,4.71,.44,19.79,.44,29.68,0,14.67-.35,24.37-.65,30.4-.04,.77,.16,3.22-.35,6.35-.37,2.29-.94,5.78-3.15,8.92-1.01,1.43-2.5,1.15-4.07,1.31,0,2.33,0,4.67-.01,7,1.26-.73,2.64-1.18,4.06-1.34,4.12-.45,8.19-1.06,12.36-1.12,6.17-.09,12.41,.13,18.28,2.3,.41,.15,.84,.31,1.27,.28l-.64-6.52c0-.08-.02-.16-.06-.22-.06-.09-.17-.1-.27-.12-2.13-.26-3.72-.41-5.41-2.02-1.08-1.03-1.89-2.31-2.65-3.63-1.27-2.22-1.73-4.29-2-5.62-.8-3.96-.4-7.2-.43-7.88-.28-5.76-.56-14.41-.56-27.46,0-21.67-.11-27.8,.33-32.51,.06-.63,.33-1.88,.92-3.34,.4-.97,1.81-4.45,5.17-6.22,.89-.47,4.52-2.19,8,0,1.99,1.25,3.03,3.21,3.43,4.08,.73,1.61,.52,2.23,1.14,5.44,.53,2.77,1.13,4.61,2.29,8.17,.65,1.99,1.24,3.62,2.29,5.44,.59,1.03,1.31,2.02,1.94,3.03,.62-.29,1.28-.5,1.95-.61-1.35-1.44-1.51-3.32-1.6-5.25-.08-1.86-.03-3.72,.07-5.58Z"/><g><path d="M595.89,315.09s-4.09-.75-5.29-.75c-6.25,1.12-7.69,.37-13.46-3.36-2.16-1.87-5.53-1.87-7.69-4.48-3.84-4.48-8.89-7.1-12.74-11.58-.72-.75-1.92-2.24-2.4-3.74-3.12-3.36-6.01-6.35-8.17-10.84-2.64-4.48-10.81-25.41-10.81-30.64,0-7.47-2.88-14.2-2.88-21.67,0-1.12-.24-17.56,0-29.89,.24-7.47,.72-13.45,.96-13.83,3.36-23.91,6.25-43.34,15.62-59.04,1.2-4.11,3.12-7.1,6.01-8.97,4.09-4.11,7.93-8.22,12.26-12.33,4.57-2.99,9.61-4.86,12.5-6.73,5.05-.37,10.09-4.11,14.66-4.11,3.84,0,9.61,0,13.46,2.24,5.05,.75,10.81,3.74,14.9,8.59,1.92,2.24,4.09,3.36,5.53,4.11v5.98c0,2.24,.24,6.73,.24,8.59,0,1.49,0,2.99-.48,4.48-.48,1.12-.24,3.36-.96,3.36,0,0-.72,.37-1.92-1.12-1.44-1.49-3.36-1.49-4.57-1.87-1.92-.37-2.64-1.49-5.29-1.49-1.68,0-3.6,0-5.53,.37-2.4,.37-8.17,0-9.61,.37-2.16,.37-3.6,1.49-4.81,2.62-2.88,2.24-5.05,4.48-7.45,6.73-3.6,4.48-6.49,8.97-9.13,13.83-7.69,14.57-11.53,26.9-11.53,45.21v22.79l5.53,29.15c.48,5.98,3.36,10.09,5.05,14.95,5.29,8.22,9.61,12.33,13.94,17.19,2.64,1.87,6.49,3.74,9.13,5.98,1.92,0,3.84,2.24,12.26,2.24h8.17c2.64,0,4.09,0,5.77-2.24h1.2l4.33,19.06c-2.88,2.62-5.05,3.74-7.93,5.61-4.81,1.87-8.41,2.99-12.74,5.23h-16.1Z"/><path d="M756.41,179.45c1.2,5.98,1.2,15.32,1.2,20.92,0,6.35,0,10.09-1.2,17.19,0,5.98,0,14.95-1.92,20.92-.96,3.36-.48,9.34-1.92,14.95l-2.88,10.46c-2.16,8.59-5.05,17.19-7.69,22.79-1.44,4.11-7.45,13.08-10.09,17.19-2.88,4.48-5.53,8.59-9.37,10.84-1.2,.75-2.64,1.87-4.09,2.24-4.09,.75-7.69,1.87-11.05,2.24-4.57,.37-16.34-.37-18.5-1.5-5.77-3.36-10.81-6.35-14.9-13.08l-10.09-13.08c-6.97-8.97-10.81-21.3-13.46-34-1.44-5.98-1.44-10.84-2.88-14.95-1.68-14.57-2.88-25.78-2.64-38.49,.24-5.98,0-14.2,.72-20.92,.72-2.99,2.64-27.28,3.36-30.64,2.88-14.57,5.53-26.16,10.57-35.12l6.97-11.96c1.68-2.62,4.33-4.86,6.25-6.73l5.29-4.86c3.12-3.36,10.57-6.35,14.66-7.47,4.09-.75,9.37-1.49,14.42-1.49,4.33,0,6.97,1.87,10.81,3.74,2.4,.75,11.29,5.6,15.86,13.08,1.92,3.36,6.49,7.1,8.17,11.58,.72,1.87,1.92,4.11,2.88,5.98,2.4,5.98,7.21,16.44,7.21,22.42,1.44,11.96,4.33,25.04,4.33,37.74Zm-54.55,46.33c1.2,0,1.2-1.49,2.64-1.87,2.16-.37,2.64-4.11,4.33-6.35,1.2-10.84,1.2-19.06,1.2-29.89,0-3.74-1.2-8.22-4.09-10.09-2.88-2.24-4.09-2.24-6.49,0-1.44,0-2.88,1.87-2.88,1.87-1.68,4.48-3.12,8.22-3.12,12.33v18.68c.72,7.85,2.64,11.96,6.01,15.32h2.4Z"/><path d="M955.87,98.74c1.44,0,2.88,.37,4.08,.37h6.49q1.68,0,1.68,2.24c0,2.24,0,6.73-1.68,10.84l-10.57,43.72c-1.2,4.86-4.57,19.06-5.53,24.29-1.68,2.99-8.17,28.4-9.85,32.13-.96,2.99-1.68,8.22-2.88,13.45-2.88,9.34-6.73,24.29-8.65,31.01-1.68,4.11-4.33,18.31-5.77,22.42-1.92,5.6-2.88,11.96-4.33,17.56-1.2,4.86-2.4,11.58-3.36,16.07h-3.84c-1.44,0-2.4-.75-5.77,0-2.64,0-7.45,.75-8.89,0h-8.41c-1.2,0-2.64-2.24-2.64-2.24,.24-2.99-2.16-8.59-2.88-14.57-1.44-4.48-1.44-8.97-2.64-13.08-1.44-10.09-3.6-18.68-5.05-26.53-2.64-10.84-4.57-21.67-6.97-32.13-1.2-7.47-3.6-17.56-4.81-22.42,0-.75-.48-1.87-.48-1.87-.48,0-.72,2.62-1.2,3.36,.24-1.12-4.33,14.95-4.81,19.06-1.68,11.96-5.29,27.28-7.21,38.11-2.16,5.6-3.36,14.2-4.33,20.92-.96,6.35-2.16,13.83-4.08,18.31,0,.37-3.12,11.96-3.36,13.08h-23.07c-1.68,0-3.36-2.24-3.36-4.48l-1.92-11.96c-1.44-4.86-5.29-21.67-5.77-26.16-1.44-5.98-2.16-10.84-3.61-16.44-1.44-6.73-5.05-21.3-5.53-26.9-.24-3.74-1.2-6.73-2.16-10.09-.48-1.49-.96-2.62-.72-3.74,0-.37-6.73-25.04-6.73-28.77-.96-6.73-3.84-16.07-4.57-22.79-.24-1.87-.48-3.36-1.44-4.48l-2.64-10.09-1.2-2.99c-1.2-7.47-6.01-28.02-7.69-34-1.44-1.87-1.44-6.35-2.88-8.59q0-2.24,1.44-2.24c1.44-.37,3.36-.37,4.57,0,1.68,.37,3.12,.37,4.81,0,4.81-.37,13.22,1.87,19.23,2.62,.48,0,1.44,1.12,1.68,1.87,.48,.75,.72,1.87,.72,2.24,0,2.62,1.2,5.98,1.68,8.97,1.92,12.33,3.84,27.28,5.77,37.37,2.16,4.48,4.81,28.02,5.53,31.01,1.92,5.98,2.88,12.33,4.08,17.56,.72,1.87,3.12,11.21,3.12,12.7,2.64,10.84,3.84,19.8,6.49,28.02,3.12,7.85,3.6,15.69,6.01,22.05,.24,1.5,.72,2.62,.72,2.62,.96,0,1.2-.75,1.68-1.87,4.81-17.19,6.73-36.99,11.53-56.05,2.64-13.08,5.53-25.78,6.97-40.73,.72-4.11,.72-6.35,1.68-7.85,2.4-1.49,5.05,0,6.25,0h9.61c1.44-.37,3.37-.75,4.09,3.36,3.36,11.96,4.57,24.66,6.73,36.99,2.64,8.22,4.08,19.06,6.25,26.53,2.16,8.97,3.36,19.06,4.81,28.02,2.16,7.1,1.92,16.44,4.57,20.55,2.16,0,2.16-2.24,2.16-2.24-.48-.75,.96-4.86,1.44-8.22l3.6-16.81,4.57-16.81c.96-5.23,3.84-17.19,5.05-21.67,1.44-5.98,2.4-11.58,3.6-17.19,.96-6.35,3.36-21.3,4.81-26.9,.96-3.74,1.92-5.98,2.88-10.09,2.16-9.34,4.57-21.67,6.73-32.51,1.44-7.1,2.4-13.08,3.61-17.94,.48-1.5,2.64-6.73,2.64-7.47,7.21,.75,12.26,1.5,19.95,1.5Z"/><path d="M1045.03,85.67c4.33-.37,16.58,2.24,20.43,1.87,2.88,0,9.13,0,11.78,1.87,1.2,.75,7.21,1.87,8.17,2.24q1.44,0,2.64,1.87c0,4.86-1.2,8.97-1.2,13.08-2.16,0-5.05,.75-6.97,1.12-3.12,.75-4.09,.37-8.17,.37-7.93,0-17.78,1.87-18.5,2.24-6.73,1.87-25.95,8.59-29.56,15.69-2.88,6.35-6.01,8.97-7.21,15.69-1.2,4.11-.24,20.55,1.44,25.78,2.4,4.48,4.09,10.09,5.05,10.84,2.16,1.87,5.77,5.6,9.37,7.85,.72,.37,4.57,1.12,8.89,2.99,2.4,1.12,2.4,1.49,4.57,2.24,1.44,.75,1.68,1.49,3.37,2.24,1.92,.75,5.05,1.87,5.29,1.87,2.64,0,5.53,1.87,7.93,1.87,4.57,1.87,8.17,1.87,12.26,6.35,2.16,.75,5.05,2.62,6.73,4.11,1.92,1.5,12.26,10.46,13.46,15.69,3.12,7.85,4.33,16.07,4.33,24.66,0,2.62-.72,7.47-.96,9.71l-1.2,10.46c-.48,2.24-3.84,11.58-4.33,12.33-.72,1.87-6.01,9.71-6.49,10.46-4.33,5.6-20.19,23.17-26.43,23.17-.48,.75-1.68,.37-2.64,1.12-3.36,0-6.25,1.12-11.54,.75-4.81-.37-8.89,.75-13.94,.37-5.29-.37-22.35,.37-28.6-2.24-.72-.37-7.69-1.49-9.61-1.87-2.64-.37-8.89-1.49-10.81-2.62-1.2-.75-3.12-2.62-3.12-5.23-1.2-4.11-5.05-26.53-3.84-26.9,5.53,1.87,10.81,3.74,17.78,5.61,5.53,0,10.57,2.62,17.54,2.62,2.64,0,5.05-.75,9.61-1.87,.96-.37,2.16-.37,2.64-.75,4.81,0,12.26-6.73,15.86-8.97,.72,0,6.49-7.47,7.21-9.34l4.57-10.84c.48-2.24,1.92-5.98,2.64-8.59,.96-4.11,.96-8.22,0-14.2-1.92-2.62-2.64-5.6-4.57-8.97-1.44-3.74-3.84-5.98-6.49-7.85-4.33-2.24-8.41-5.23-11.05-5.23-4.33-1.87-6.97-1.87-9.37-3.74-4.09-1.87-6.97-1.87-9.61-4.11-4.09,0-6.49-2.24-11.05-4.11-1.68-1.5-3.84-2.99-4.81-4.11-4.57-5.23-7.45-7.47-10.81-14.57-3.12-6.73-3.84-6.73-5.77-12.7-1.44-4.86-2.16-18.31-2.16-21.3,0-6.35,.48-9.71,.72-14.2,.24-4.11,1.92-8.97,3.36-11.96,3.6-9.72,7.93-12.33,13.7-18.68,2.64-3.36,11.78-8.97,15.38-10.46,2.64,0,4.08-1.87,6.97-1.87,2.64,0,3.61-.75,6.01-.75,1.44,0,3.12,.75,6.25-1.12s11.05,0,14.9,0Z"/></g></g></svg>