<?xml version="1.0" encoding="UTF-8"?><svg id="Layer_2" xmlns="http://www.w3.org/2000/svg" width="1920" height="1080" xmlns:xlink="http://www.w3.org/1999/xlink" viewBox="0 0 1920 1080"><defs><style>.cls-1{fill:#371d2d;}.cls-2{fill:#6f1d2d;}.cls-3{fill:#4b1d2d;}.cls-4{fill:#7c1d2d;}.cls-5,.cls-6,.cls-7,.cls-8,.cls-9,.cls-10{stroke:#000;stroke-miterlimit:10;}.cls-5,.cls-10{fill:#d58145;}.cls-6{fill:#dc7a42;}.cls-7{fill:#541d2d;}.cls-8{fill:#611d2d;}.cls-9{fill:#631d2d;}.cls-10{opacity:.9;}.cls-11{fill:#5e1d2d;filter:url(#drop-shadow-17);}.cls-12{filter:url(#drop-shadow-16);}.cls-13{filter:url(#drop-shadow-15);}</style><filter id="drop-shadow-15" filterUnits="userSpaceOnUse"><feOffset dx="44" dy="34"/><feGaussianBlur result="blur" stdDeviation="5"/><feFlood flood-color="#000" flood-opacity=".21"/><feComposite in2="blur" operator="in"/><feComposite in="SourceGraphic"/></filter><filter id="drop-shadow-16" filterUnits="userSpaceOnUse"><feOffset dx="-15" dy="34"/><feGaussianBlur result="blur-2" stdDeviation="5"/><feFlood flood-color="#000" flood-opacity=".21"/><feComposite in2="blur-2" operator="in"/><feComposite in="SourceGraphic"/></filter><filter id="drop-shadow-17" filterUnits="userSpaceOnUse"><feOffset dx="7" dy="25"/><feGaussianBlur result="blur-3" stdDeviation="5"/><feFlood flood-color="#000" flood-opacity=".21"/><feComposite in2="blur-3" operator="in"/><feComposite in="SourceGraphic"/></filter></defs><rect class="cls-2" width="1920" height="1080"/><g><g class="cls-13"><path class="cls-1" d="M284.87,207.73C407.34,178.04,500.95,100.77,581.5,1.98l-183.91-.91c-31.82,62.95-70.38,132.85-112.72,206.65Z"/><g><path class="cls-3" d="M431.34,1.27c-7.69,.62-97.8,216.76-222.19,344.65L323.23,1.27s115.8-.62,108.11,0Z"/><path class="cls-8" d="M346.31,1.21c-53.26,199.12-126.94,372.87-251.6,483.3-15.2,31.76-37.23,45.56-61.87,52.5-16.36-2.32-26.5-9.17-29.98-20.87V2.2l343.45-.99Z"/><path class="cls-9" d="M73.64,537.54c11.57-4.22,19.3-14,23.91-28.3,40.12,70.95,28.67,308.03,29.86,504.38-9.89,14.02-20.77,22.72-35.11,12.84-16.14-13.84-28.49-17.57-37.31-11.85-11.38,42.78-31.55,44.5-51.57,46.94v-505.24c28.23,8.61,52.59,5.28,70.23-18.77Z"/><path class="cls-10" d="M91.34,491.07c6.81,6.02,8.26,12.08,6.21,18.17-3.38,12.89-11.1,22.5-23.91,28.3-16.12,24.11-40.14,28.87-70.23,18.77l-.55-40.16c5.5,13.5,15.59,20.32,29.98,20.87,27.26-9.58,47.8-21.77,58.49-45.95Z"/><path class="cls-7" d="M128.05,736.07l28.98,236.56c-9.66,14.1-19.32,18.8-28.98,14.1v-250.66Z"/><path class="cls-5" d="M53.5,626.3c1.45-10.63,1.27-21.76-.59-33.42-1.96-7.56-3.95-23.49-5.94-39.12,1.64,.29,3.35,.32,5.16,0,1.39,15.46,3.15,30.08,5.54,43.2,1.38,8.3,1.58,18.06,1.19,28.53-1.82,.48-3.61,.79-5.35,.82Z"/><path class="cls-6" d="M43.62,532.92c-1.23,8.77,.43,17.33,3.74,25.77,3.3,.96,6.57,.15,9.82-2.88-1.01-9.79-2.68-18.93-6.55-25.97-2.6-1.02-4.98-.34-7.01,3.08Z"/><path class="cls-5" d="M62.42,546.43c1.24,15.47-1.72,34.01-5.14,48.38l1.75,16.27c3.61-11.63,7.35-23.15,8.15-36.94,.94-8.25,.42-17.67-.88-27.71h-3.87Z"/><path class="cls-5" d="M53.5,626.3c-4.51,4.76-4.19,9.72,0,14.83,1.88,1.23,3.84,1.48,5.87,.93,.75-.2,1.5-.52,2.27-.93,4.52-4.01,4.66-8.53,.83-13.36-1.89-2.15-3.04-2.35-3.61-2.29-1.52-.26-3.38,.17-5.35,.82Z"/><path class="cls-5" d="M59.02,643.37c0,3.81,.21,7.11,1.01,9.02,.73,6.57,3.61,16.3,6.54,26.08-7.35,6.7-14.51,8.55-21.4,3.26,2.36-10.88,5.75-25.01,6.54-30.97,.6-2.49,1.19-5.98,1.78-9.62l5.87,.93-.35,1.3Z"/><path class="cls-5" d="M42.8,680.1c.84-.16,1.61,.68,2.38,1.63,1.92,2.45,4.81,3.04,9.56,3,3.07,.15,7.4-3.05,11.83-6.26,2.99-.51,4.78,1.65,5.35,6.52-9.79,5.52-20.06,7.36-30.91,4.89-1.12-3.86-.78-7.21,1.78-9.78Z"/><path class="cls-6" d="M58.22,553.37c3.07,1.49,5.25-.13,6.63-4.47,.44-9.46-.77-18.27-5.49-25.68-3.26,.54-5.77,2.35-7.25,5.92,1.15,6.98,3.36,15.27,6.11,24.24Z"/><path d="M65.73,1012.12c-1.76-29.28-14.42-97.01-10.2-166.42,.54,69.74,18.95,137.79,15.36,167.91l-5.16-1.49Z"/><path class="cls-3" d="M67.65,519.8c9.54-6.12,17.38-15.83,23.69-28.73l3.38-6.55C129.21,444.64,251.91,208.06,294.69,1.12l-120.11,.58c-37.86,208.18-77.55,445.81-106.94,518.1Z"/><path class="cls-3" d="M34.13,561.73c1.97-.18,3.48-.26,4.94-.49,5.06,10.67-6.8,321.19-10.97,492.87-3.4,3.1-11.81,5.41-25.24,6.91,7.83-201.77,14.39-412.25,31.27-499.29Z"/><path class="cls-3" d="M40.17,533.59c.75-.24,1.74-.63,3.04-1.23C60.29,500.64,84.27,201.87,105.7,1.9l-65.53,.19c-2.41,202.27-13.29,492.76,0,531.49Z"/><g><path class="cls-5" d="M71.93,684.99c8.07,6.3,9.98,24.47,5.05,55.83-2.53,20.97-1.24,44.2,1.78,68.47-15.5,5.59-31.23,11.69-41.01,4.08-1.59-1.81-2.08-3.75-2.38-5.71-5.31,2.57-10.66,2.33-16.05,0,2.74-36.54,13.07-74.66,12.48-98.63,1.09-8.99,3.68-16.01,9.21-19.15,10.67,2.32,20.98,.71,30.91-4.89Z"/><path d="M42.91,728.66c-3.31,31.77-6.62,63.55-7.54,79.01l-3.25,1.22c.76-16.43,5.71-48.1,10.79-80.23Z"/><path d="M62.37,814.82c-2.26-2.34-1.68-11.12-1.35-17.52,.95,5.65,2.2,12.65,3.87,16.78l-2.52,.74Z"/><path d="M71.99,811.13c.05-1.84-.42-4.26-1.1-6.91,1.06,2.76,1.93,5.25,2.19,6.91h-1.1Z"/></g></g></g><path class="cls-4" d="M549.41,0l198.59,.6c-72.73,91.81-192.67,141.22-347.93,158.9C454.45,117.09,505.25,66.32,549.41,0Z"/></g><g><g class="cls-12"><path class="cls-1" d="M1667.31,236.4c-109.96-34.08-194-122.76-266.32-236.13,64.99-.44,131.52,.16,157.59,0,28.57,72.24,70.72,151.43,108.73,236.13Z"/><g><path class="cls-3" d="M1527.16,.29c7.65,.65,97.28,225.88,221.01,359.17L1634.71,.29s-115.19-.65-107.54,0Z"/><path class="cls-8" d="M1605.46,.22c49.06,200.05,116.94,374.63,231.78,485.58,14.01,31.91,34.3,45.77,57,52.75,15.07-2.33,24.41-9.21,27.62-20.97V1.21S1605.46,.22,1605.46,.22Z"/><path class="cls-9" d="M1856.66,539.07c-10.66-4.24-17.78-14.07-22.02-28.44-36.96,71.28-26.41,309.48-27.51,506.75,9.11,14.08,19.14,22.82,32.35,12.9,14.87-13.91,26.25-17.65,34.37-11.91,10.48,42.98,29.07,44.7,47.51,47.17v-507.62c-26.01,8.66-48.44,5.3-64.69-18.85Z"/><path class="cls-10" d="M1840.35,492.38c-6.27,6.05-7.61,12.14-5.72,18.25,3.11,12.95,10.23,22.61,22.02,28.44,14.85,24.22,36.98,29.01,64.69,18.85l.51-40.34c-5.07,13.57-14.36,20.41-27.62,20.97-25.12-9.62-44.03-21.87-53.88-46.16Z"/><path class="cls-7" d="M1806.53,738.53l-26.7,237.67c8.9,14.17,17.8,18.89,26.7,14.17v-251.84Z"/><path class="cls-5" d="M1875.21,628.26c-1.33-10.68-1.17-21.86,.55-33.58,1.8-7.6,3.64-23.6,5.48-39.31-1.51,.29-3.09,.32-4.75,0-1.28,15.53-2.9,30.22-5.11,43.4-1.27,8.34-1.45,18.14-1.1,28.66,1.68,.48,3.33,.8,4.93,.82Z"/><path class="cls-6" d="M1884.32,534.44c1.13,8.81-.4,17.41-3.44,25.89-3.04,.96-6.06,.15-9.05-2.9,.93-9.83,2.47-19.02,6.03-26.09,2.39-1.02,4.59-.34,6.46,3.1Z"/><path class="cls-5" d="M1867,548c-1.14,15.54,1.59,34.17,4.74,48.61l-1.61,16.35c-3.32-11.68-6.77-23.26-7.51-37.11-.87-8.29-.39-17.75,.81-27.84h3.57Z"/><path class="cls-5" d="M1875.21,628.26c4.15,4.78,3.86,9.76,0,14.9-1.73,1.24-3.54,1.49-5.41,.93-.69-.2-1.38-.52-2.09-.93-4.17-4.02-4.29-8.57-.76-13.42,1.74-2.16,2.8-2.36,3.33-2.3,1.4-.26,3.11,.17,4.93,.82Z"/><path class="cls-5" d="M1870.12,645.4c0,3.83-.19,7.15-.93,9.06-.67,6.6-3.33,16.37-6.02,26.21,6.77,6.73,13.37,8.59,19.71,3.28-2.17-10.93-5.3-25.13-6.02-31.12-.55-2.5-1.1-6.01-1.64-9.66l-5.41,.93,.32,1.3Z"/><path class="cls-5" d="M1885.07,682.31c-.77-.16-1.48,.68-2.19,1.64-1.77,2.46-4.43,3.06-8.81,3.01-2.83,.15-6.82-3.07-10.9-6.29-2.75-.51-4.4,1.65-4.93,6.55,9.02,5.55,18.48,7.39,28.47,4.91,1.03-3.88,.72-7.24-1.64-9.83Z"/><path class="cls-6" d="M1870.86,554.98c-2.83,1.5-4.83-.13-6.11-4.49-.41-9.51,.71-18.36,5.05-25.8,3,.54,5.32,2.36,6.68,5.94-1.06,7.01-3.09,15.35-5.62,24.35Z"/><path d="M1863.95,1015.89c1.62-29.42,13.29-97.47,9.4-167.2-.5,70.07-17.46,138.44-14.15,168.7l4.76-1.5Z"/><path class="cls-3" d="M1862.17,521.25c-8.79-6.15-16.01-15.91-21.82-28.87l-3.11-6.59c-31.78-40.06-144.81-277.75-184.22-485.66l110.64,.58c34.88,209.16,71.44,447.91,98.51,520.53Z"/><path class="cls-3" d="M1893.05,563.38c-1.82-.18-3.21-.26-4.55-.5-4.66,10.72,6.26,322.7,10.11,495.19,3.13,3.12,10.88,5.43,23.25,6.95-7.21-202.72-13.25-414.19-28.81-501.64Z"/><path class="cls-3" d="M1887.49,535.1c-.69-.24-1.6-.64-2.8-1.23-15.73-31.87-37.82-332.04-57.56-532.95l60.37,.19c2.22,203.22,12.24,495.08,0,534Z"/><g><path class="cls-5" d="M1858.24,687.22c-7.43,6.33-9.19,24.59-4.65,56.1,2.33,21.07,1.15,44.41-1.64,68.79,14.28,5.61,28.77,11.74,37.78,4.09,1.47-1.82,1.91-3.76,2.19-5.73,4.89,2.58,9.82,2.35,14.78,0-2.52-36.71-12.04-75.01-11.5-99.09-1.01-9.03-3.39-16.09-8.49-19.24-9.83,2.33-19.32,.71-28.47-4.91Z"/><path d="M1884.97,731.09c3.05,31.92,6.1,63.84,6.95,79.38l2.99,1.23c-.7-16.51-5.26-48.32-9.94-80.6Z"/><path d="M1867.04,817.66c2.08-2.35,1.54-11.17,1.24-17.6-.88,5.68-2.03,12.71-3.57,16.86l2.32,.74Z"/><path d="M1858.18,813.95c-.05-1.85,.39-4.28,1.01-6.95-.98,2.77-1.78,5.28-2.02,6.95h1.01Z"/></g></g></g><path class="cls-4" d="M1400.99,.28l-195.17,.64c71.47,98.79,189.35,151.95,341.93,170.98-53.44-45.63-103.37-100.25-146.76-171.62Z"/><path class="cls-11" d="M1287.23,.22l-251.23,.64c106.39,98.79,281.86,151.95,509,170.98-93.76-32.11-231.92-63.38-257.77-171.62Z"/></g></svg>